<svg width="18" height="18" viewBox="0 0 18 18" fill="none" xmlns="http://www.w3.org/2000/svg">
<g clip-path="url(#clip0_21021_21403)">
<path d="M9.75 5.625H13.5V7.125H9.75V5.625ZM9.75 10.875H13.5V12.375H9.75V10.875ZM14.25 2.25H3.75C2.925 2.25 2.25 2.925 2.25 3.75V14.25C2.25 15.075 2.925 15.75 3.75 15.75H14.25C15.075 15.75 15.75 15.075 15.75 14.25V3.75C15.75 2.925 15.075 2.25 14.25 2.25ZM14.25 14.25H3.75V3.75H14.25V14.25ZM8.25 4.5H4.5V8.25H8.25V4.5ZM7.5 7.5H5.25V5.25H7.5V7.5ZM8.25 9.75H4.5V13.5H8.25V9.75ZM7.5 12.75H5.25V10.5H7.5V12.75Z" fill="#2244B1"/>
</g>
<defs>
<clipPath id="clip0_21021_21403">
<rect width="18" height="18" fill="white"/>
</clipPath>
</defs>
</svg>
