<svg viewBox="0 0 50 51" fill="none" xmlns="http://www.w3.org/2000/svg">
<path d="M25.0007 31.2217H14.584C13.7298 31.2217 13.0215 30.5133 13.0215 29.6592C13.0215 28.805 13.7298 28.0967 14.584 28.0967H25.0007C25.8548 28.0967 26.5632 28.805 26.5632 29.6592C26.5632 30.5133 25.8548 31.2217 25.0007 31.2217Z" fill="white"/>
<path d="M14.5827 14.4714C14.1868 14.4714 13.791 14.3255 13.4785 14.013L5.66602 6.20052C5.06185 5.59635 5.06185 4.59635 5.66602 3.99219C6.27018 3.38802 7.27018 3.38802 7.87435 3.99219L15.6868 11.8047C16.291 12.4089 16.291 13.4089 15.6868 14.013C15.3743 14.3047 14.9785 14.4714 14.5827 14.4714Z" fill="white"/>
<path d="M6.68815 14.5544C6.29232 14.5544 5.89648 14.4085 5.58398 14.096C4.97982 13.4919 4.97982 12.4919 5.58398 11.8877L13.3965 4.0752C14.0007 3.47103 15.0007 3.47103 15.6048 4.0752C16.209 4.67936 16.209 5.67936 15.6048 6.28353L7.79232 14.096C7.50065 14.4085 7.08398 14.5544 6.68815 14.5544Z" fill="white"/>
<path d="M31.2507 22.8877H14.584C13.7298 22.8877 13.0215 22.1794 13.0215 21.3252C13.0215 20.471 13.7298 19.7627 14.584 19.7627H31.2507C32.1048 19.7627 32.8132 20.471 32.8132 21.3252C32.8132 22.1794 32.1048 22.8877 31.2507 22.8877Z" fill="white"/>
<path d="M43.7507 35.3883C42.8965 35.3883 42.1882 34.68 42.1882 33.8258V17.1383C42.1882 8.32585 39.1882 6.53418 33.2507 6.22168H20.834C19.9798 6.22168 19.2715 5.51335 19.2715 4.65918C19.2715 3.80501 19.9798 3.09668 20.834 3.09668H33.334C41.8757 3.55501 45.3132 7.61751 45.3132 17.1383V33.8258C45.3132 34.68 44.6048 35.3883 43.7507 35.3883Z" fill="white"/>
<path d="M31.25 47.8877H18.75C7.04167 47.8877 4.6875 42.4919 4.6875 33.7835V19.2627C4.6875 18.4085 5.39583 17.7002 6.25 17.7002C7.10417 17.7002 7.8125 18.4085 7.8125 19.2627V33.7835C7.8125 41.5335 9.33333 44.7627 18.75 44.7627H31.25C32.1042 44.7627 32.8125 45.471 32.8125 46.3252C32.8125 47.1794 32.1042 47.8877 31.25 47.8877Z" fill="white"/>
<path d="M31.25 47.8877C31.0417 47.8877 30.8542 47.846 30.6458 47.7627C30.0625 47.5127 29.6875 46.9502 29.6875 46.3252V40.0752C29.6875 35.0335 32.4583 32.2627 37.5 32.2627H43.75C44.375 32.2627 44.9583 32.6377 45.1875 33.221C45.4167 33.8044 45.2917 34.471 44.8542 34.9294L32.3542 47.4294C32.0625 47.721 31.6458 47.8877 31.25 47.8877ZM37.5 35.3877C34.2083 35.3877 32.8125 36.7835 32.8125 40.0752V42.5544L39.9792 35.3877H37.5Z" fill="white"/>
</svg>
