<svg width="24" height="24" viewBox="0 0 17 17" fill="none" xmlns="http://www.w3.org/2000/svg">
  <path d="M15.167 4.00033H13.3503C13.442 3.74199 13.5003 3.45866 13.5003 3.16699C13.5003 1.78366 12.3837 0.666992 11.0003 0.666992C10.1253 0.666992 9.36699 1.11699 8.91699 1.79199L8.50033 2.35033L8.08366 1.78366C7.63366 1.11699 6.87533 0.666992 6.00033 0.666992C4.61699 0.666992 3.50033 1.78366 3.50033 3.16699C3.50033 3.45866 3.55866 3.74199 3.65033 4.00033H1.83366C0.908659 4.00033 0.175326 4.74199 0.175326 5.66699L0.166992 14.8337C0.166992 15.7587 0.908659 16.5003 1.83366 16.5003H15.167C16.092 16.5003 16.8337 15.7587 16.8337 14.8337V5.66699C16.8337 4.74199 16.092 4.00033 15.167 4.00033ZM11.0003 2.33366C11.4587 2.33366 11.8337 2.70866 11.8337 3.16699C11.8337 3.62533 11.4587 4.00033 11.0003 4.00033C10.542 4.00033 10.167 3.62533 10.167 3.16699C10.167 2.70866 10.542 2.33366 11.0003 2.33366ZM6.00033 2.33366C6.45866 2.33366 6.83366 2.70866 6.83366 3.16699C6.83366 3.62533 6.45866 4.00033 6.00033 4.00033C5.54199 4.00033 5.16699 3.62533 5.16699 3.16699C5.16699 2.70866 5.54199 2.33366 6.00033 2.33366ZM15.167 14.8337H1.83366V13.167H15.167V14.8337ZM15.167 10.667H1.83366V5.66699H6.06699L4.33366 8.02533L5.68366 9.00033L8.50033 5.16699L11.317 9.00033L12.667 8.02533L10.9337 5.66699H15.167V10.667Z" fill="white"/>
  </svg>
  