<svg width="18" height="18" viewBox="0 0 18 18" fill="none" xmlns="http://www.w3.org/2000/svg">
<g clip-path="url(#clip0_19035_160932)">
<path d="M15 6H12.75V3H2.25C1.425 3 0.75 3.675 0.75 4.5V12.75H2.25C2.25 13.995 3.255 15 4.5 15C5.745 15 6.75 13.995 6.75 12.75H11.25C11.25 13.995 12.255 15 13.5 15C14.745 15 15.75 13.995 15.75 12.75H17.25V9L15 6ZM4.5 13.875C3.8775 13.875 3.375 13.3725 3.375 12.75C3.375 12.1275 3.8775 11.625 4.5 11.625C5.1225 11.625 5.625 12.1275 5.625 12.75C5.625 13.3725 5.1225 13.875 4.5 13.875ZM14.625 7.125L16.095 9H12.75V7.125H14.625ZM13.5 13.875C12.8775 13.875 12.375 13.3725 12.375 12.75C12.375 12.1275 12.8775 11.625 13.5 11.625C14.1225 11.625 14.625 12.1275 14.625 12.75C14.625 13.3725 14.1225 13.875 13.5 13.875Z" fill="#F6A609"/>
</g>
<defs>
<clipPath id="clip0_19035_160932">
<rect width="18" height="18" fill="white"/>
</clipPath>
</defs>
</svg>
