<svg viewBox="0 0 16 16" fill="none" xmlns="http://www.w3.org/2000/svg">
<path d="M7.9467 15.1666C4.00003 15.1666 0.780029 11.9533 0.780029 7.99992C0.780029 4.04659 4.00003 0.833252 7.9467 0.833252C11.8934 0.833252 15.1134 4.04659 15.1134 7.99992C15.1134 11.9533 11.9 15.1666 7.9467 15.1666ZM7.9467 1.83325C4.5467 1.83325 1.78003 4.59992 1.78003 7.99992C1.78003 11.3999 4.5467 14.1666 7.9467 14.1666C11.3467 14.1666 14.1134 11.3999 14.1134 7.99992C14.1134 4.59992 11.3467 1.83325 7.9467 1.83325Z" fill="#52575C"/>
<path d="M10.6134 8.5H5.28003C5.0067 8.5 4.78003 8.27333 4.78003 8C4.78003 7.72667 5.0067 7.5 5.28003 7.5H10.6134C10.8867 7.5 11.1134 7.72667 11.1134 8C11.1134 8.27333 10.8934 8.5 10.6134 8.5Z" fill="#52575C"/>
</svg>
