<svg width="21" height="20" viewBox="0 0 21 20" fill="none" xmlns="http://www.w3.org/2000/svg">
<path d="M10.3333 9.08333C8.44166 8.59167 7.83332 8.08333 7.83332 7.29167C7.83332 6.38333 8.67499 5.75 10.0833 5.75C11.2667 5.75 11.8583 6.2 12.075 6.91667C12.175 7.25 12.45 7.5 12.8 7.5H13.05C13.6 7.5 13.9917 6.95833 13.8 6.44167C13.45 5.45833 12.6333 4.64167 11.3333 4.325V3.75C11.3333 3.05833 10.775 2.5 10.0833 2.5C9.39166 2.5 8.83332 3.05833 8.83332 3.75V4.3C7.21666 4.65 5.91666 5.7 5.91666 7.30833C5.91666 9.23333 7.50832 10.1917 9.83332 10.75C11.9167 11.25 12.3333 11.9833 12.3333 12.7583C12.3333 13.3333 11.925 14.25 10.0833 14.25C8.70832 14.25 7.99999 13.7583 7.72499 13.0583C7.59999 12.7333 7.31666 12.5 6.97499 12.5H6.74166C6.18332 12.5 5.79166 13.0667 5.99999 13.5833C6.47499 14.7417 7.58332 15.425 8.83332 15.6917V16.25C8.83332 16.9417 9.39166 17.5 10.0833 17.5C10.775 17.5 11.3333 16.9417 11.3333 16.25V15.7083C12.9583 15.4 14.25 14.4583 14.25 12.75C14.25 10.3833 12.225 9.575 10.3333 9.08333Z" fill="white"/>
</svg>
