<svg width="15" height="11" viewBox="0 0 15 11" fill="none" xmlns="http://www.w3.org/2000/svg">
<path d="M9.595 9.09L10.66 10.155L12.25 8.5575L13.84 10.155L14.905 9.09L13.3075 7.5L14.905 5.91L13.84 4.845L12.25 6.4425L10.66 4.845L9.595 5.91L11.1925 7.5M9.2275 4.215C9.145 3.21 8.185 2.2275 7 2.25C5.725 2.28 4.75 3.225 4.75 4.5C4.75 5.775 5.725 6.705 7 6.75C7.2925 6.75 7.5775 6.69 7.855 6.5775C8.0575 5.7525 8.395 4.9725 9.2275 4.215ZM7.75 7.5H3.25C3.25 6.675 2.575 6 1.75 6V3C2.575 3 3.25 2.325 3.25 1.5H10.75C10.75 2.325 11.425 3 12.25 3V3.0375C12.7525 3.045 13.255 3.135 13.75 3.3V0H0.25V9H7.99C7.83064 8.51597 7.74962 8.00959 7.75 7.5Z" fill="#FB4E4E"/>
</svg>
