<svg width="21" height="20" viewBox="0 0 21 20" fill="none" xmlns="http://www.w3.org/2000/svg">
<path d="M15.5 3.00122C15.7761 3.00122 16 2.77736 16 2.50122C16 2.25576 15.8231 2.05161 15.5899 2.00928L15.5 2.00122H4.5C4.22386 2.00122 4 2.22508 4 2.50122C4 2.74668 4.17688 2.95083 4.41012 2.99317L4.5 3.00122H15.5ZM10.0001 17.999C10.2456 17.999 10.4497 17.822 10.492 17.5887L10.5 17.4989L10.496 5.70501L14.1414 9.35334C14.3148 9.52707 14.5842 9.5466 14.7792 9.41179L14.8485 9.354C15.0222 9.18059 15.0418 8.91118 14.907 8.71619L14.8492 8.64689L10.3574 4.14689C10.285 4.07426 10.1957 4.02858 10.1021 4.00986L9.99608 4.00012C9.83511 4.00012 9.69192 4.07624 9.60051 4.19444L5.14386 8.64631C4.94846 8.84143 4.94823 9.15802 5.14336 9.35342C5.3168 9.52711 5.58621 9.54658 5.78117 9.41173L5.85046 9.35392L9.496 5.71301L9.5 17.4992C9.50008 17.7753 9.724 17.999 10.0001 17.999Z" fill="white"/>
</svg>
