<svg viewBox="0 0 20 20" fill="none" xmlns="http://www.w3.org/2000/svg">
<path d="M9.1665 12.4993H10.8332V14.166H9.1665V12.4993ZM9.1665 5.83268H10.8332V10.8327H9.1665V5.83268ZM9.9915 1.66602C5.3915 1.66602 1.6665 5.39935 1.6665 9.99935C1.6665 14.5993 5.3915 18.3327 9.9915 18.3327C14.5998 18.3327 18.3332 14.5993 18.3332 9.99935C18.3332 5.39935 14.5998 1.66602 9.9915 1.66602ZM9.99984 16.666C6.3165 16.666 3.33317 13.6827 3.33317 9.99935C3.33317 6.31602 6.3165 3.33268 9.99984 3.33268C13.6832 3.33268 16.6665 6.31602 16.6665 9.99935C16.6665 13.6827 13.6832 16.666 9.99984 16.666Z" fill="#F9F9FA"/>
</svg>
