<svg width="18" height="18" viewBox="0 0 18 18" fill="none" xmlns="http://www.w3.org/2000/svg">
<path d="M14.25 9.75C14.505 9.75 14.7525 9.78 15 9.8175V6H3V15.75H10.0125C9.8475 15.2775 9.75 14.775 9.75 14.25C9.75 11.7675 11.7675 9.75 14.25 9.75ZM6.75 9.75V8.625C6.75 8.415 6.915 8.25 7.125 8.25H10.875C11.085 8.25 11.25 8.415 11.25 8.625V9.75H6.75ZM15.75 5.25H2.25V2.25H15.75V5.25ZM16.875 12.9375L13.3125 16.5L11.25 14.25L12.12 13.38L13.3125 14.5725L16.005 11.88L16.875 12.9375Z" fill="#2AC769"/>
</svg>
