<svg width="20" height="20" viewBox="0 0 20 20" fill="none" xmlns="http://www.w3.org/2000/svg">
<path d="M15 10.8333H10.8333V15C10.8333 15.4583 10.4583 15.8333 10 15.8333C9.54167 15.8333 9.16667 15.4583 9.16667 15V10.8333H5C4.54167 10.8333 4.16667 10.4583 4.16667 9.99999C4.16667 9.54166 4.54167 9.16666 5 9.16666H9.16667V4.99999C9.16667 4.54166 9.54167 4.16666 10 4.16666C10.4583 4.16666 10.8333 4.54166 10.8333 4.99999V9.16666H15C15.4583 9.16666 15.8333 9.54166 15.8333 9.99999C15.8333 10.4583 15.4583 10.8333 15 10.8333Z" fill="white"/>
</svg>
