<svg xmlns="http://www.w3.org/2000/svg" viewBox="0 0 24 24">
<path xmlns="http://www.w3.org/2000/svg" fill-rule="evenodd" clip-rule="evenodd" d="M12.7355 22.8419C18.8274 22.8419 23.7659 17.9034 23.7659 11.8115C23.7659 5.7196 18.8274 0.781128 12.7355 0.781128C6.64355 0.781128 1.70508 5.7196 1.70508 11.8115C1.70508 17.9034 6.64355 22.8419 12.7355 22.8419ZM12.7359 20.2584C17.4009 20.2584 21.1827 16.4766 21.1827 11.8116C21.1827 7.14651 17.4009 3.36475 12.7359 3.36475C8.07083 3.36475 4.28906 7.14651 4.28906 11.8116C4.28906 16.4766 8.07083 20.2584 12.7359 20.2584Z"/>
<path xmlns="http://www.w3.org/2000/svg" d="M10.7341 13.4748L8.4724 11.2405C8.28193 11.0523 7.97704 11.0476 7.78083 11.2297L7.32749 11.6506C7.11907 11.8441 7.11378 12.1722 7.31586 12.3723L10.7357 15.7588C10.9311 15.9522 11.246 15.9516 11.4407 15.7574L18.1722 9.04023C18.3676 8.84525 18.368 8.52881 18.1732 8.33331L17.7117 7.87041C17.5161 7.67415 17.1982 7.67443 17.0029 7.87105L11.4403 13.4714C11.246 13.667 10.9302 13.6685 10.7341 13.4748Z"/>
</svg>