<svg width="19" height="21" viewBox="0 0 19 21" fill="none" xmlns="http://www.w3.org/2000/svg">
<path d="M8 6V0H1.5C0.671573 0 0 0.671573 0 1.5V18.5C0 19.3284 0.671573 20 1.5 20H7.46744C7.53735 20 7.60682 19.9951 7.6754 19.9855C6.78601 18.4986 6.98172 16.5436 8.26254 15.2628L13.2625 10.2628C14.0185 9.50686 15.0092 9.1289 16 9.12891V8H10C8.89543 8 8 7.10457 8 6ZM9.5 6V0.5L15.5 6.5H10C9.72386 6.5 9.5 6.27614 9.5 6ZM18.0303 10.9699C16.909 9.84858 15.091 9.84857 13.9697 10.9699L8.96965 15.9699C7.84833 17.0912 7.84833 18.9092 8.96965 20.0306C10.091 21.1519 11.909 21.1519 13.0303 20.0306L18.0303 15.0306C19.1516 13.9092 19.1516 12.0912 18.0303 10.9699ZM15.0303 12.0306C15.5658 11.495 16.4341 11.495 16.9697 12.0306C17.5052 12.5661 17.5052 13.4344 16.9697 13.9699L15 15.9396L13.0606 14.0002L15.0303 12.0306ZM13.0303 16.9697C13.3232 17.2626 13.3232 17.7374 13.0303 18.0303L12.0303 19.0303C11.7374 19.3232 11.2626 19.3232 10.9697 19.0303C10.6768 18.7374 10.6768 18.2626 10.9697 17.9697L11.9697 16.9697C12.2626 16.6768 12.7374 16.6768 13.0303 16.9697Z" fill="#52575C"/>
</svg>
