<svg width="482" height="300" viewBox="0 0 482 300" fill="none" xmlns="http://www.w3.org/2000/svg">
<g clip-path="url(#clip0_24111_69106)">
<path d="M107.205 43.3472L17.4395 103.395L105.858 235.572L195.623 175.525L107.205 43.3472Z" fill="#F5F5F5"/>
<path d="M149.246 169.272L148.222 175.577L103.596 169.144L104.62 162.84L149.246 169.272Z" fill="#E0E0E0"/>
<path d="M126.772 146.775L133.173 147.703L126.076 191.634L119.668 190.714L126.772 146.775Z" fill="#E0E0E0"/>
<path d="M85.6664 90.9328C85.7304 91.0288 76.7379 97.1571 65.5773 104.622C54.4167 112.086 45.3202 118.062 45.2562 117.966C45.1922 117.87 54.1847 111.742 65.3453 104.277C76.5059 96.8131 85.6024 90.8368 85.6664 90.9328Z" fill="#E0E0E0"/>
<path d="M118.677 82.6435C118.741 82.7395 103.78 92.86 85.267 105.237C66.746 117.621 51.6892 127.582 51.6252 127.486C51.5612 127.39 66.514 117.277 85.035 104.885C103.548 92.5 118.613 82.5394 118.677 82.6355V82.6435Z" fill="#E0E0E0"/>
<path d="M125.294 92.5399C125.358 92.6359 110.397 102.756 91.8842 115.133C73.3632 127.518 58.3064 137.478 58.2424 137.382C58.1784 137.286 73.1312 127.174 91.6522 114.781C110.165 102.396 125.23 92.4359 125.294 92.5319V92.5399Z" fill="#E0E0E0"/>
<path d="M131.909 102.436C131.973 102.532 117.012 112.653 98.4994 125.03C79.9784 137.414 64.9216 147.375 64.8576 147.279C64.7936 147.183 79.7464 137.07 98.2674 124.678C116.78 112.293 131.845 102.332 131.909 102.428V102.436Z" fill="#E0E0E0"/>
<path d="M138.534 112.325C138.598 112.421 123.637 122.542 105.124 134.918C86.6034 147.303 71.5466 157.263 71.4826 157.167C71.4186 157.071 86.3714 146.959 104.892 134.566C123.405 122.182 138.47 112.221 138.534 112.317V112.325Z" fill="#E0E0E0"/>
<path d="M407.375 131.921L331.986 182.352L406.241 293.356L481.63 242.926L407.375 131.921Z" fill="#F5F5F5"/>
<path d="M442.688 237.691L441.832 242.98L404.35 237.587L405.206 232.291L442.688 237.691Z" fill="#E0E0E0"/>
<path d="M423.806 218.803L429.19 219.571L423.222 256.477L417.846 255.701L423.806 218.803Z" fill="#E0E0E0"/>
<path d="M389.292 171.898C389.356 171.994 381.812 177.154 372.435 183.419C363.059 189.691 355.41 194.691 355.346 194.595C355.282 194.499 362.826 189.339 372.203 183.067C381.571 176.802 389.228 171.794 389.292 171.89V171.898Z" fill="#E0E0E0"/>
<path d="M417.013 164.936C417.077 165.032 404.524 173.545 388.971 183.945C373.418 194.346 360.762 202.698 360.698 202.602C360.634 202.506 373.186 194.002 388.739 183.593C404.284 173.193 416.949 164.84 417.013 164.936Z" fill="#E0E0E0"/>
<path d="M422.573 173.249C422.637 173.345 410.084 181.857 394.532 192.258C378.979 202.658 366.322 211.011 366.258 210.915C366.194 210.819 378.747 202.314 394.3 191.906C409.844 181.505 422.509 173.153 422.573 173.249Z" fill="#E0E0E0"/>
<path d="M428.126 181.562C428.19 181.658 415.637 190.17 400.084 200.563C384.531 210.963 371.875 219.316 371.811 219.22C371.747 219.124 384.299 210.619 399.852 200.211C415.397 189.81 428.062 181.458 428.126 181.554V181.562Z" fill="#E0E0E0"/>
<path d="M433.686 189.866C433.75 189.962 421.198 198.474 405.645 208.875C390.092 219.276 377.435 227.628 377.371 227.532C377.307 227.436 389.86 218.932 405.413 208.523C420.958 198.123 433.622 189.77 433.686 189.866Z" fill="#E0E0E0"/>
<path d="M288.106 48.2106L205.848 4.21484L141.065 125.338L223.324 169.334L288.106 48.2106Z" fill="#F5F5F5"/>
<path d="M209.25 131.43L204.034 133.223L190.785 96.5966L196.001 94.8125L209.25 131.43Z" fill="#E0E0E0"/>
<path d="M217.251 105.166L219.155 110.414L182.785 122.871L180.881 117.615L217.251 105.166Z" fill="#E0E0E0"/>
<path d="M243.091 51.1298C243.027 51.2499 234.683 46.9136 224.458 41.4413C214.225 35.969 205.993 31.4408 206.057 31.3208C206.121 31.2008 214.465 35.537 224.69 41.0093C234.915 46.4816 243.155 51.0098 243.091 51.1298Z" fill="#E0E0E0"/>
<path d="M262.828 72.9159C262.764 73.0359 248.956 65.7795 231.995 56.707C215.026 47.6345 201.321 40.1781 201.385 40.0581C201.449 39.9381 215.258 47.1945 232.227 56.275C249.188 65.3475 262.892 72.8039 262.828 72.9239V72.9159Z" fill="#E0E0E0"/>
<path d="M257.981 81.9803C257.917 82.1003 244.108 74.8439 227.147 65.7714C210.178 56.699 196.473 49.2426 196.537 49.1226C196.601 49.0026 210.41 56.2589 227.379 65.3394C244.34 74.4119 258.045 81.8683 257.981 81.9883V81.9803Z" fill="#E0E0E0"/>
<path d="M253.133 91.0526C253.069 91.1726 239.26 83.9162 222.299 74.8437C205.33 65.7712 191.626 58.3148 191.69 58.1948C191.754 58.0748 205.562 65.3312 222.531 74.4117C239.492 83.4842 253.197 90.9406 253.133 91.0606V91.0526Z" fill="#E0E0E0"/>
<path d="M248.283 100.117C248.219 100.237 234.411 92.9806 217.45 83.9082C200.481 74.8357 186.776 67.3793 186.84 67.2593C186.904 67.1393 200.713 74.3957 217.682 83.4761C234.643 92.5486 248.347 100.005 248.283 100.125V100.117Z" fill="#E0E0E0"/>
<path d="M462.256 297.407C462.256 297.519 358.85 297.615 231.323 297.615C103.797 297.615 0.367188 297.519 0.367188 297.407C0.367188 297.295 103.749 297.199 231.323 297.199C358.898 297.199 462.256 297.295 462.256 297.407Z" fill="#263238"/>
<path d="M25.93 247.309C28.6341 247.405 31.1702 248.869 32.9543 250.909C34.7384 252.941 35.8345 255.501 36.5305 258.117C37.8826 263.173 37.0506 269.15 35.6105 274.182C30.1302 272.222 26.754 266.382 25.2259 263.309C22.8098 258.453 21.3937 248.221 25.922 247.309" fill="#CACCCF"/>
<path d="M43.4978 280.31C41.7697 277.829 41.7297 274.381 43.0978 271.677C44.4659 268.981 47.09 267.037 49.9782 266.149C51.3142 265.741 52.8663 265.565 54.0264 266.341C55.1144 267.069 55.5864 268.493 55.4424 269.789C55.2984 271.085 54.6424 272.277 53.8664 273.325C51.2022 276.933 47.962 279.934 43.4978 280.302" fill="#CACCCF"/>
<path d="M44.0984 297.216C44.0984 297.216 43.9864 296.848 43.8504 296.168C43.7064 295.416 43.5144 294.448 43.2904 293.288C42.8584 290.864 42.1703 287.416 42.6903 283.607C43.1864 279.815 44.6984 276.567 46.2825 274.631C47.0586 273.655 47.8106 272.959 48.3626 272.535C48.6267 272.311 48.8667 272.175 49.0107 272.063C49.1627 271.959 49.2507 271.911 49.2587 271.927C49.3147 271.991 47.9786 272.823 46.4985 274.799C45.0025 276.743 43.5624 279.927 43.0664 283.663C42.5543 287.4 43.1864 290.816 43.5544 293.248C43.7464 294.472 43.9064 295.464 44.0024 296.152C44.0904 296.84 44.1304 297.224 44.0984 297.224V297.216Z" fill="#263238"/>
<path d="M27.6973 255.004C27.6973 255.004 27.7853 255.14 27.9213 255.42C28.0653 255.732 28.2573 256.14 28.4893 256.636C28.9693 257.7 29.6574 259.245 30.4814 261.157C32.1295 264.989 34.3376 270.317 36.6417 276.245C38.9459 282.182 40.906 287.606 42.266 291.542C42.9461 293.51 43.4901 295.11 43.8501 296.222C44.0181 296.751 44.1541 297.175 44.2582 297.503C44.3462 297.799 44.3862 297.951 44.3782 297.959C44.3702 297.967 44.2982 297.815 44.1861 297.527C44.0661 297.199 43.9061 296.783 43.7141 296.27C43.2981 295.134 42.7221 293.558 42.018 291.63C40.586 287.71 38.5858 282.31 36.2897 276.373C33.9856 270.445 31.8255 265.109 30.2414 261.253C29.4654 259.357 28.8253 257.804 28.3613 256.684C28.1533 256.172 27.9933 255.756 27.8653 255.436C27.7533 255.148 27.7053 254.996 27.7133 254.988L27.6973 255.004Z" fill="#263238"/>
<path d="M37.6017 286.03C34.3695 280.534 28.3452 276.79 21.9848 276.326C20.3688 276.206 18.4166 276.478 17.6966 277.934C16.9766 279.39 17.9366 281.11 19.0407 282.31C23.6329 287.279 31.3933 289.015 37.6577 286.471" fill="#CACCCF"/>
<path d="M24.4494 280.663C24.4494 280.663 24.8095 280.655 25.4655 280.703C25.7935 280.727 26.1935 280.751 26.6496 280.839C27.1056 280.927 27.6336 280.975 28.2016 281.127C28.7697 281.263 29.4017 281.407 30.0497 281.639C30.7138 281.831 31.3938 282.119 32.1058 282.423C33.5139 283.063 35.018 283.903 36.4421 284.991C37.8582 286.095 39.0502 287.327 40.0263 288.535C40.4903 289.151 40.9383 289.743 41.2903 290.343C41.6744 290.919 41.9624 291.495 42.2264 292.015C42.5144 292.527 42.6824 293.031 42.8744 293.455C43.0664 293.879 43.1784 294.263 43.2744 294.575C43.4665 295.199 43.5625 295.543 43.5385 295.551C43.4585 295.583 43.0664 294.183 41.9864 292.135C41.7064 291.631 41.4103 291.071 41.0183 290.511C40.6663 289.927 40.2183 289.359 39.7463 288.759C38.7782 287.583 37.5941 286.383 36.2021 285.295C34.802 284.223 33.3379 283.391 31.9538 282.743C31.2578 282.439 30.5858 282.143 29.9377 281.943C29.3057 281.703 28.6897 281.551 28.1296 281.391C25.8815 280.823 24.4334 280.743 24.4414 280.663H24.4494Z" fill="#263238"/>
<path d="M387.612 29.9141C385.26 30.4581 384.116 33.1623 383.892 35.5624C383.668 37.9625 383.972 40.5067 382.963 42.6988C381.827 45.1709 379.115 46.987 379.019 49.6991C378.963 51.3552 379.947 52.9153 379.899 54.5714C379.819 57.2915 377.051 59.3477 376.907 62.0598C376.803 64.0199 378.107 65.892 377.795 67.8281C377.555 69.3322 376.379 70.5163 375.883 71.9643C374.899 74.8365 376.867 78.0046 379.443 79.6207C382.307 81.4208 385.98 81.8929 389.204 80.8608C392.428 79.8287 395.148 77.3246 396.436 74.1885C397.86 70.7323 397.548 66.8441 397.236 63.1159C396.276 51.5072 395.556 39.8826 395.084 28.25" fill="#263238"/>
<path d="M380.78 70.8692C380.732 70.8212 381.42 70.6211 381.852 69.5891C382.06 69.0851 382.172 68.413 382.124 67.637C382.1 66.8529 381.828 66.0049 381.54 65.0448C381.276 64.0928 380.924 62.9887 381.124 61.7647C381.324 60.5166 382.22 59.4926 383.028 58.4925C383.436 57.9805 383.852 57.4524 384.108 56.8524C384.38 56.2604 384.436 55.5723 384.236 54.9323C383.82 53.6282 382.54 52.6602 381.956 51.1561C381.668 50.3961 381.66 49.572 381.828 48.82C381.988 48.0679 382.292 47.3799 382.604 46.7239C383.228 45.4198 383.924 44.2277 384.196 42.9557C384.756 40.4195 384.492 37.9954 384.876 36.0033C385.22 34.0112 386.068 32.5071 386.9 31.7391C387.308 31.3391 387.7 31.131 387.956 30.987C388.228 30.867 388.372 30.819 388.38 30.827C388.404 30.875 387.788 31.059 387.012 31.8511C386.244 32.6271 385.468 34.0992 385.164 36.0513C385.004 37.0194 384.98 38.1154 384.94 39.2835C384.9 40.4515 384.86 41.7236 384.564 43.0357C384.284 44.3637 383.58 45.6118 382.972 46.8839C382.372 48.1399 381.82 49.612 382.348 50.9881C382.86 52.3482 384.148 53.3162 384.628 54.7883C384.868 55.5243 384.788 56.3324 384.476 56.9884C384.18 57.6525 383.748 58.2045 383.332 58.7165C382.492 59.7246 381.66 60.6926 381.468 61.8127C381.268 62.9247 381.58 64.0048 381.828 64.9488C382.092 65.9009 382.356 66.7969 382.364 67.613C382.388 68.421 382.252 69.1251 382.004 69.6371C381.764 70.1571 381.428 70.4851 381.188 70.6451C380.94 70.8132 380.788 70.8532 380.788 70.8532L380.78 70.8692Z" fill="#455A64"/>
<path d="M374.483 89.8281L367.259 110.645L337.145 112.261L332.121 123.438L363.563 126.622C369.835 129.214 376.995 126.038 379.284 119.654L387.676 96.2285L374.483 89.8361V89.8281Z" fill="#EDB6A1"/>
<path d="M436.775 286.103C436.775 286.103 414.702 216.003 414.238 213.731C413.814 211.675 422.247 161.232 423.311 148.176L393.493 149.288C393.493 149.288 393.493 149.368 393.493 149.504L380.82 150.208L392.173 293.568H405.894L404.534 246.005C412.998 268.726 425.119 291.871 425.119 291.871L436.783 286.103H436.775Z" fill="#EDB6A1"/>
<path d="M405.086 263.054C405.102 262.622 404.918 247.117 404.918 247.117C404.75 248.045 399.654 233.66 399.782 232.78C399.846 232.324 405.086 263.054 405.086 263.054Z" fill="#DD9E8A"/>
<path d="M399.197 225.973C399.197 225.973 399.133 226.285 399.109 226.845C399.077 227.405 399.069 228.221 399.125 229.221C399.141 229.725 399.197 230.269 399.261 230.861C399.333 231.445 399.413 232.077 399.549 232.725C399.797 234.037 400.181 235.453 400.669 236.901C401.669 239.797 402.765 242.334 403.549 244.182C403.917 245.022 404.237 245.742 404.501 246.35C404.733 246.862 404.877 247.134 404.909 247.118C404.941 247.11 404.853 246.806 404.669 246.278C404.485 245.75 404.205 244.99 403.845 244.054C403.141 242.182 402.093 239.629 401.101 236.749C400.613 235.309 400.229 233.917 399.957 232.637C399.813 231.997 399.717 231.381 399.629 230.805C399.549 230.229 399.477 229.685 399.437 229.189C399.341 228.197 399.301 227.389 399.277 226.837C399.253 226.277 399.221 225.973 399.189 225.973H399.197Z" fill="#DD9E8A"/>
<path d="M391.9 294.279V292.991L405.949 292.375L405.989 297.687L405.125 297.743C401.269 297.967 385.492 298.623 382.908 297.847C380.027 296.983 391.9 294.271 391.9 294.271V294.279Z" fill="#455A64"/>
<path d="M406.188 297.368C406.188 297.368 406.108 297.384 405.948 297.392C405.74 297.408 405.516 297.416 405.26 297.44C404.572 297.472 403.724 297.512 402.716 297.56C400.572 297.648 397.604 297.72 394.324 297.736C391.043 297.752 388.075 297.696 385.931 297.632C384.931 297.592 384.083 297.56 383.387 297.536C383.131 297.52 382.907 297.512 382.699 297.496C382.539 297.488 382.459 297.48 382.459 297.472C382.459 297.472 382.539 297.464 382.699 297.464C382.907 297.464 383.131 297.464 383.387 297.464C384.075 297.472 384.931 297.488 385.931 297.504C388.075 297.536 391.043 297.576 394.324 297.56C397.596 297.544 400.564 297.488 402.716 297.432C403.716 297.408 404.564 297.384 405.26 297.368C405.516 297.368 405.74 297.36 405.948 297.352C406.108 297.352 406.188 297.352 406.188 297.352V297.368Z" fill="#263238"/>
<path d="M387.347 297.823C387.299 297.823 387.251 297.223 386.867 296.615C386.491 295.999 385.971 295.687 385.995 295.647C386.003 295.607 386.603 295.863 387.011 296.527C387.419 297.183 387.387 297.839 387.347 297.831V297.823Z" fill="#263238"/>
<path d="M391.468 295.711C391.468 295.711 391.228 295.495 391.028 295.175C390.82 294.854 390.692 294.574 390.724 294.55C390.764 294.526 390.964 294.766 391.164 295.086C391.372 295.407 391.5 295.687 391.468 295.711Z" fill="#263238"/>
<path d="M392.597 295.111C392.597 295.111 392.341 294.999 392.101 294.783C391.861 294.567 391.685 294.367 391.717 294.327C391.749 294.295 391.973 294.439 392.213 294.655C392.453 294.871 392.629 295.071 392.597 295.111Z" fill="#263238"/>
<path d="M393.308 293.791C393.308 293.839 392.98 293.879 392.58 293.887C392.18 293.887 391.852 293.863 391.852 293.815C391.852 293.767 392.18 293.727 392.58 293.719C392.98 293.719 393.308 293.743 393.308 293.791Z" fill="#263238"/>
<path d="M393.557 292.856C393.573 292.896 393.221 293.056 392.741 293.096C392.269 293.136 391.893 293.032 391.901 292.984C391.901 292.936 392.277 292.96 392.725 292.928C393.173 292.896 393.533 292.808 393.549 292.856H393.557Z" fill="#263238"/>
<path d="M390.987 294.496C390.987 294.496 390.643 294.56 390.091 294.496C389.811 294.464 389.483 294.4 389.131 294.288C388.955 294.224 388.771 294.184 388.579 294.063C388.491 294.007 388.387 293.919 388.355 293.783C388.315 293.647 388.387 293.495 388.491 293.423C389.347 292.975 390.211 293.455 390.531 293.895C390.707 294.12 390.787 294.344 390.827 294.496C390.867 294.648 390.859 294.736 390.851 294.736C390.819 294.744 390.787 294.384 390.435 293.967C390.259 293.767 390.003 293.567 389.667 293.471C389.347 293.375 388.899 293.351 388.595 293.551C388.451 293.655 388.507 293.823 388.667 293.919C388.819 294.016 389.003 294.071 389.171 294.136C389.515 294.248 389.827 294.328 390.099 294.376C390.635 294.472 390.979 294.472 390.979 294.496H390.987Z" fill="#263238"/>
<path d="M390.756 294.543C390.756 294.543 390.612 294.327 390.652 293.919C390.676 293.719 390.748 293.487 390.892 293.263C391.052 293.063 391.252 292.791 391.636 292.799C391.844 292.823 391.948 293.063 391.916 293.215C391.9 293.375 391.828 293.511 391.764 293.615C391.628 293.839 391.484 294.023 391.34 294.159C391.06 294.439 390.836 294.543 390.828 294.527C390.812 294.503 391.004 294.367 391.252 294.079C391.372 293.935 391.508 293.759 391.628 293.535C391.748 293.343 391.836 293.007 391.612 292.967C391.388 292.943 391.156 293.167 391.02 293.351C390.876 293.543 390.804 293.759 390.764 293.935C390.7 294.303 390.78 294.535 390.748 294.543H390.756Z" fill="#263238"/>
<path d="M405.893 293.543C405.893 293.543 405.493 293.503 404.861 293.583C404.237 293.655 403.365 293.911 402.613 294.519C401.861 295.127 401.413 295.919 401.213 296.511C401.005 297.111 400.981 297.511 400.949 297.511C400.941 297.511 400.933 297.407 400.949 297.231C400.965 297.047 401.005 296.791 401.101 296.479C401.285 295.855 401.725 295.023 402.509 294.391C403.293 293.759 404.205 293.511 404.853 293.463C405.181 293.439 405.445 293.455 405.621 293.479C405.797 293.503 405.901 293.535 405.893 293.543Z" fill="#263238"/>
<path d="M399.157 296.255C399.157 296.295 398.253 296.447 397.116 296.447C395.98 296.447 395.068 296.319 395.068 296.271C395.068 296.223 395.988 296.279 397.108 296.271C398.237 296.271 399.149 296.199 399.149 296.247L399.157 296.255Z" fill="#263238"/>
<path d="M401.9 296.224C401.9 296.224 401.828 296.416 401.732 296.624C401.636 296.832 401.588 297.016 401.54 297.016C401.492 297.016 401.468 296.792 401.58 296.552C401.684 296.312 401.868 296.184 401.9 296.216V296.224Z" fill="#263238"/>
<path d="M402.925 294.936C402.925 294.936 402.869 295.112 402.725 295.264C402.581 295.408 402.437 295.504 402.405 295.472C402.373 295.44 402.461 295.296 402.605 295.144C402.749 295 402.893 294.904 402.925 294.936Z" fill="#263238"/>
<path d="M404.405 294.343C404.397 294.391 404.213 294.391 404.005 294.463C403.797 294.535 403.653 294.647 403.613 294.615C403.573 294.591 403.693 294.391 403.949 294.303C404.205 294.215 404.421 294.303 404.405 294.343Z" fill="#263238"/>
<path d="M405.453 294.063C405.469 294.103 405.389 294.175 405.277 294.223C405.165 294.271 405.053 294.271 405.037 294.223C405.021 294.183 405.101 294.111 405.213 294.063C405.325 294.015 405.437 294.015 405.453 294.063Z" fill="#263238"/>
<path d="M424.839 293.039L424.303 291.863L436.871 285.543L439.087 290.375L438.319 290.783C434.895 292.567 420.766 299.624 418.094 299.976C415.11 300.368 424.839 293.031 424.839 293.031V293.039Z" fill="#455A64"/>
<path d="M439.135 290.008C439.135 290.008 439.063 290.056 438.927 290.128C438.743 290.224 438.543 290.328 438.319 290.448C437.703 290.76 436.943 291.144 436.047 291.6C434.126 292.56 431.446 293.84 428.462 295.2C425.478 296.552 422.75 297.72 420.758 298.544C419.83 298.92 419.038 299.24 418.398 299.497C418.158 299.593 417.95 299.673 417.75 299.745C417.598 299.801 417.526 299.825 417.518 299.817C417.518 299.817 417.59 299.777 417.734 299.713C417.926 299.633 418.134 299.536 418.366 299.432C418.998 299.16 419.782 298.824 420.702 298.432C422.678 297.584 425.398 296.4 428.382 295.048C431.366 293.696 434.046 292.424 435.983 291.496C436.887 291.064 437.655 290.696 438.279 290.392C438.511 290.28 438.719 290.184 438.903 290.096C439.047 290.032 439.127 290 439.127 290L439.135 290.008Z" fill="#263238"/>
<path d="M422.134 298.135C422.086 298.159 421.806 297.623 421.198 297.223C420.606 296.815 419.998 296.743 420.006 296.695C419.998 296.655 420.654 296.647 421.294 297.087C421.942 297.519 422.174 298.127 422.134 298.135Z" fill="#263238"/>
<path d="M425.031 294.527C425.031 294.527 424.727 294.431 424.407 294.223C424.087 294.015 423.855 293.815 423.879 293.775C423.903 293.735 424.183 293.871 424.503 294.079C424.823 294.287 425.055 294.487 425.031 294.527Z" fill="#263238"/>
<path d="M425.814 293.511C425.798 293.559 425.542 293.511 425.23 293.415C424.918 293.319 424.686 293.199 424.694 293.159C424.71 293.111 424.966 293.159 425.278 293.255C425.59 293.351 425.822 293.471 425.814 293.511Z" fill="#263238"/>
<path d="M425.918 292.014C425.934 292.054 425.654 292.23 425.294 292.398C424.926 292.566 424.614 292.67 424.598 292.63C424.582 292.59 424.862 292.414 425.222 292.246C425.59 292.078 425.902 291.974 425.918 292.014Z" fill="#263238"/>
<path d="M425.757 291.062C425.757 291.062 425.533 291.391 425.117 291.615C424.701 291.847 424.317 291.903 424.309 291.863C424.293 291.815 424.645 291.687 425.037 291.471C425.437 291.255 425.733 291.031 425.765 291.071L425.757 291.062Z" fill="#263238"/>
<path d="M424.094 293.607C424.094 293.607 423.806 293.807 423.27 293.975C423.006 294.055 422.678 294.135 422.31 294.175C422.126 294.191 421.941 294.223 421.717 294.199C421.613 294.183 421.486 294.143 421.397 294.039C421.309 293.935 421.309 293.767 421.373 293.655C421.974 292.895 422.958 292.983 423.43 293.255C423.686 293.391 423.846 293.559 423.942 293.679C424.038 293.807 424.07 293.887 424.062 293.887C424.038 293.911 423.862 293.591 423.374 293.359C423.134 293.247 422.814 293.175 422.47 293.223C422.142 293.271 421.717 293.431 421.525 293.735C421.437 293.887 421.558 294.023 421.742 294.039C421.918 294.063 422.118 294.039 422.294 294.031C422.654 293.999 422.974 293.935 423.238 293.871C423.766 293.735 424.078 293.599 424.094 293.623V293.607Z" fill="#263238"/>
<path d="M423.902 293.744C423.902 293.744 423.678 293.6 423.55 293.216C423.486 293.024 423.454 292.784 423.502 292.52C423.566 292.272 423.638 291.936 423.998 291.792C424.198 291.728 424.67 292.136 424.702 292.288C424.75 292.44 424.462 292.36 424.454 292.488C424.422 292.744 424.366 292.976 424.294 293.16C424.15 293.528 423.99 293.712 423.974 293.704C423.95 293.688 424.07 293.48 424.182 293.12C424.238 292.936 424.286 292.72 424.302 292.472C424.334 292.248 424.27 291.904 424.046 291.96C423.83 292.032 423.718 292.328 423.662 292.552C423.614 292.784 423.63 293.008 423.67 293.192C423.758 293.552 423.934 293.728 423.91 293.752L423.902 293.744Z" fill="#263238"/>
<path d="M437.295 286.639C437.295 286.639 436.911 286.767 436.367 287.095C435.823 287.415 435.135 288.007 434.695 288.871C434.255 289.735 434.175 290.639 434.231 291.263C434.287 291.895 434.431 292.271 434.399 292.279C434.391 292.279 434.343 292.191 434.279 292.023C434.215 291.855 434.151 291.599 434.103 291.271C434.015 290.631 434.071 289.687 434.535 288.783C434.991 287.887 435.727 287.279 436.295 286.983C436.583 286.831 436.831 286.735 437.007 286.687C437.183 286.639 437.279 286.623 437.287 286.631L437.295 286.639Z" fill="#263238"/>
<path d="M432.261 291.871C432.261 291.871 431.509 292.415 430.477 292.887C429.445 293.359 428.557 293.607 428.541 293.567C428.525 293.519 429.381 293.199 430.405 292.735C431.429 292.271 432.237 291.831 432.261 291.879V291.871Z" fill="#263238"/>
<path d="M434.75 290.72C434.798 290.736 434.758 290.928 434.766 291.16C434.766 291.392 434.798 291.576 434.75 291.6C434.71 291.616 434.59 291.432 434.59 291.16C434.59 290.896 434.702 290.704 434.75 290.72Z" fill="#263238"/>
<path d="M435.166 289.126C435.206 289.142 435.19 289.31 435.118 289.502C435.046 289.694 434.95 289.838 434.91 289.822C434.87 289.806 434.886 289.638 434.958 289.446C435.03 289.254 435.126 289.11 435.166 289.126Z" fill="#263238"/>
<path d="M436.271 287.975C436.279 288.023 436.111 288.095 435.951 288.247C435.791 288.391 435.703 288.559 435.655 288.543C435.607 288.543 435.639 288.303 435.831 288.119C436.031 287.935 436.255 287.927 436.263 287.967L436.271 287.975Z" fill="#263238"/>
<path d="M437.11 287.287C437.11 287.287 437.102 287.415 437.014 287.511C436.926 287.599 436.83 287.647 436.798 287.615C436.766 287.583 436.806 287.487 436.894 287.391C436.982 287.303 437.078 287.255 437.11 287.287Z" fill="#263238"/>
<path d="M421.375 124.447L419.031 95.8856L431.055 96.1016C431.055 96.1016 431.615 91.8934 429.839 82.6529C428.751 76.9886 424.983 73.5164 420.751 71.4523V71.3803L420.383 71.2843C414.999 68.7641 409.366 68.4121 409.366 68.4121L394.605 68.5801C394.605 68.5801 383.333 67.172 377.092 75.2125C374.692 78.3086 367.252 99.5018 367.252 99.5018L384.965 108.03L383.277 96.2776C383.277 96.2776 383.613 104.798 384.701 107.494C385.309 108.998 387.061 113.671 387.061 113.671L386.829 127.759L421.359 124.447H421.375Z" fill="#CACCCF"/>
<path d="M413.231 91.742L411.047 101.079H431.712L430.352 85.4297L413.231 91.742Z" fill="#CACCCF"/>
<path d="M431.711 101.079C431.711 101.015 430.671 100.911 428.975 100.807C427.279 100.711 424.935 100.623 422.351 100.639C419.758 100.655 417.414 100.767 415.726 100.895C414.03 101.031 412.99 101.175 412.998 101.231C412.998 101.295 414.054 101.271 415.742 101.215C417.438 101.167 419.774 101.103 422.351 101.087C424.935 101.079 427.271 101.111 428.967 101.127C430.663 101.143 431.711 101.143 431.711 101.079Z" fill="#263238"/>
<path d="M412.342 85.3496C412.278 85.3496 412.254 86.2617 412.27 87.7257C412.286 89.1898 412.342 91.2139 412.422 93.446C412.51 95.6782 412.614 97.7023 412.71 99.1583C412.806 100.622 412.902 101.518 412.966 101.518C413.03 101.518 413.054 100.606 413.038 99.1423C413.022 97.6783 412.966 95.6542 412.886 93.422C412.798 91.1899 412.694 89.1738 412.598 87.7097C412.502 86.2457 412.406 85.3496 412.342 85.3496Z" fill="#263238"/>
<g opacity="0.3">
<path d="M393.533 93.4375C393.533 93.4375 398.125 127.495 411.038 126.591C411.038 126.591 416.854 126.519 418.719 122.655V121.135L393.533 93.4375Z" fill="black"/>
</g>
<g opacity="0.3">
<path d="M412.343 87.3574L409.871 104.054L411.471 106.982L414.103 101.254L412.991 101.23L412.343 87.3574Z" fill="black"/>
</g>
<path d="M387.07 113.671C387.07 113.671 386.918 113.399 386.718 112.871C386.518 112.351 386.254 111.583 385.942 110.639C385.326 108.735 384.566 106.079 383.966 103.079C383.374 100.078 383.078 97.3262 382.99 95.3261C382.942 94.3261 382.926 93.518 382.942 92.958C382.95 92.398 382.974 92.0859 382.998 92.0859C383.062 92.0859 383.11 93.318 383.278 95.3021C383.446 97.2862 383.782 100.014 384.374 102.991C384.966 105.967 385.678 108.623 386.222 110.543C386.478 111.431 386.694 112.191 386.87 112.815C387.022 113.351 387.094 113.655 387.062 113.663L387.07 113.671Z" fill="#263238"/>
<path d="M392.294 123.456C392.182 123.488 391.862 122.752 391.582 121.816C391.294 120.88 391.158 120.088 391.27 120.056C391.382 120.024 391.702 120.76 391.982 121.696C392.27 122.632 392.406 123.424 392.294 123.456Z" fill="#263238"/>
<path d="M394.077 123.327C393.973 123.351 393.621 122.255 393.605 120.838C393.581 119.422 393.893 118.31 394.005 118.334C394.125 118.358 394.005 119.462 394.021 120.83C394.037 122.199 394.197 123.303 394.077 123.327Z" fill="#263238"/>
<path d="M385.333 108.413C385.285 108.517 381.157 106.557 376.125 104.045C371.092 101.533 367.052 99.4048 367.1 99.3008C367.148 99.1968 371.276 101.157 376.309 103.669C381.341 106.181 385.381 108.309 385.333 108.413Z" fill="#263238"/>
<path d="M392.597 71.3392C392.693 67.291 392.709 63.0267 392.709 63.0267C392.709 63.0267 387.516 62.0267 386.612 55.1943C385.748 48.682 388.165 33.3932 388.165 33.3932C395.749 30.529 403.629 33.1211 408.822 39.2655L407.534 72.1232C407.382 75.9394 403.981 78.8516 399.901 78.6596C395.781 78.4676 392.509 75.1874 392.597 71.3312V71.3392Z" fill="#EDB6A1"/>
<path d="M387.771 45.6187C387.739 46.0827 388.107 46.4827 388.588 46.5227C389.068 46.5627 389.476 46.2187 389.508 45.7627C389.54 45.2987 389.172 44.8986 388.692 44.8586C388.211 44.8186 387.795 45.1627 387.771 45.6187Z" fill="#263238"/>
<path d="M387.452 44.466C387.556 44.586 388.228 44.114 389.172 44.138C390.108 44.154 390.788 44.65 390.892 44.538C390.94 44.49 390.836 44.282 390.548 44.058C390.26 43.834 389.764 43.61 389.172 43.594C388.588 43.586 388.092 43.786 387.804 43.994C387.508 44.21 387.404 44.41 387.46 44.466H387.452Z" fill="#263238"/>
<path d="M397.301 46.2105C397.269 46.6745 397.637 47.0745 398.117 47.1145C398.597 47.1545 399.005 46.8105 399.037 46.3545C399.069 45.8985 398.701 45.4904 398.221 45.4504C397.741 45.4104 397.325 45.7544 397.301 46.2105Z" fill="#263238"/>
<path d="M397.237 45.0658C397.341 45.1858 398.013 44.7138 398.957 44.7378C399.893 44.7538 400.573 45.2498 400.677 45.1378C400.725 45.0898 400.621 44.8818 400.325 44.6498C400.037 44.4258 399.541 44.2018 398.949 44.1858C398.365 44.1778 397.869 44.3778 397.581 44.5858C397.285 44.8018 397.181 45.0018 397.237 45.0578V45.0658Z" fill="#263238"/>
<path d="M393.645 51.9379C393.645 51.8819 393.069 51.7699 392.125 51.6259C391.885 51.5939 391.661 51.5379 391.621 51.3779C391.573 51.2019 391.677 50.9458 391.797 50.6738C392.037 50.0978 392.285 49.4978 392.549 48.8657C393.597 46.2896 394.365 44.1775 394.261 44.1295C394.157 44.0895 393.221 46.1376 392.165 48.7137C391.909 49.3458 391.669 49.9538 391.437 50.5298C391.341 50.8018 391.173 51.1059 391.285 51.4659C391.341 51.6499 391.517 51.7779 391.669 51.8259C391.821 51.8739 391.957 51.8819 392.077 51.8899C393.029 51.9619 393.621 51.9859 393.621 51.9299L393.645 51.9379Z" fill="#263238"/>
<path d="M392.717 63.0261C392.717 63.0261 397.285 63.4421 401.893 60.834C401.893 60.834 399.565 65.4502 392.773 64.6342L392.725 63.0261H392.717Z" fill="#DD9E8A"/>
<path d="M400.237 42.3549C400.045 42.6509 399.333 42.5149 398.533 42.3709C397.733 42.2109 397.021 42.0669 396.957 41.7229C396.877 41.3948 397.701 40.9388 398.773 41.1388C399.837 41.3388 400.437 42.0669 400.245 42.3469L400.237 42.3549Z" fill="#263238"/>
<path d="M390.908 40.9778C390.836 41.3218 390.068 41.4418 389.188 41.4898C388.308 41.5219 387.532 41.4738 387.428 41.1378C387.324 40.8178 388.068 40.2898 389.132 40.2418C390.196 40.1938 390.98 40.6498 390.908 40.9778Z" fill="#263238"/>
<path d="M393.662 54.1873C393.462 54.1313 393.238 54.2433 393.142 54.4273C393.022 54.6433 393.078 54.9314 393.262 55.0914C393.446 55.2514 393.75 55.2514 393.942 55.0994C394.134 54.9474 394.198 54.6514 394.086 54.4353C393.974 54.2193 393.702 54.0993 393.462 54.1713" fill="#DD9E8A"/>
<path d="M393.885 54.2753C393.925 54.2353 393.733 54.0032 393.325 54.0993C393.133 54.1393 392.885 54.3073 392.813 54.6033C392.741 54.8753 392.813 55.2273 393.093 55.4513C393.397 55.6593 393.757 55.6193 393.989 55.4513C394.245 55.2833 394.317 54.9793 394.277 54.7873C394.197 54.3633 393.885 54.2993 393.877 54.3553C393.845 54.4113 393.989 54.5553 393.957 54.8033C393.941 54.9233 393.885 55.0433 393.765 55.0993C393.653 55.1633 393.461 55.1633 393.357 55.0833C393.245 55.0033 393.189 54.8273 393.213 54.6993C393.229 54.5633 393.317 54.4673 393.429 54.4033C393.653 54.2753 393.845 54.3393 393.877 54.2833L393.885 54.2753Z" fill="#263238"/>
<path d="M405.685 47.2985C404.877 49.1706 402.901 50.6186 403.173 52.6427C403.349 53.9468 404.189 55.1709 404.029 56.4749C403.821 58.115 402.117 59.2591 401.877 60.8992C401.581 62.9073 403.533 64.4674 404.317 66.3475C405.453 69.0756 403.997 72.1478 403.965 75.1079C403.909 79.6362 407.765 83.8684 412.277 84.2444C414.101 84.3964 416.158 83.8444 417.11 82.2763C417.894 80.9802 417.734 79.3402 418.206 77.9001C418.902 75.756 420.942 74.1959 421.374 71.9798C422.158 67.9476 417.286 64.6194 417.606 60.5232C417.742 58.7711 418.822 57.251 419.278 55.5549C419.878 53.3388 419.326 50.8426 417.846 49.0825C416.646 47.6505 414.901 46.7144 413.877 45.1543C412.717 43.3862 412.677 41.1381 412.237 39.066C411.173 34.0177 407.381 29.6335 402.541 27.8494C397.701 26.0653 391.964 26.9374 387.876 30.0815C387.876 30.0815 386.716 35.3538 392.124 36.2339C397.541 37.1139 400.045 36.0979 400.653 38.266C400.653 38.266 400.037 40.8021 402.277 43.2182C404.517 45.6424 406.621 45.1303 405.677 47.3065L405.685 47.2985Z" fill="#263238"/>
<path d="M414.318 83.8757C414.318 83.8757 414.15 83.8757 413.822 83.8277C413.502 83.7797 413.03 83.6677 412.446 83.4597C411.294 83.0357 409.654 82.1156 408.262 80.3555C407.566 79.4835 406.918 78.4274 406.478 77.1873C406.03 75.9553 405.774 74.5552 405.75 73.0831C405.718 71.611 405.926 70.059 406.326 68.5149C406.526 67.7388 406.79 66.9708 407.094 66.2028C407.39 65.4347 407.758 64.6907 407.974 63.9066C408.198 63.1226 408.174 62.3225 407.974 61.5625C407.766 60.8025 407.406 60.0824 407.062 59.3704C406.71 58.6584 406.358 57.9543 406.126 57.2023C405.894 56.4582 405.806 55.6502 405.958 54.9062C406.278 53.4021 407.19 52.282 407.734 51.138C408.302 50.0019 408.486 48.8098 408.462 47.7298C408.366 45.5537 407.438 43.9376 406.678 43.0095C405.886 42.0815 405.286 41.7215 405.318 41.6895C405.318 41.6895 405.95 41.9855 406.798 42.9055C407.614 43.8256 408.614 45.4577 408.75 47.7138C408.798 48.8258 408.63 50.0899 408.046 51.282C407.494 52.466 406.614 53.5941 406.334 54.9702C406.054 56.3622 406.71 57.7943 407.422 59.1864C407.774 59.8984 408.142 60.6345 408.366 61.4505C408.59 62.2585 408.622 63.1786 408.374 64.0106C408.15 64.8507 407.774 65.6027 407.478 66.3548C407.182 67.1068 406.918 67.8668 406.718 68.6189C406.318 70.131 406.11 71.643 406.134 73.0751C406.142 75.9553 407.134 78.4834 408.486 80.1715C409.814 81.9076 411.382 82.8436 412.502 83.2997C413.638 83.7557 414.326 83.8277 414.31 83.8757H414.318Z" fill="#455A64"/>
<path d="M413.526 43.499C413.526 43.499 413.11 43.603 412.334 43.675C411.566 43.739 410.43 43.827 409.038 43.587C407.686 43.339 405.966 42.675 404.878 41.0669C404.342 40.2588 404.134 39.2828 403.79 38.3787C403.462 37.4667 402.83 36.6747 401.966 36.1306C400.214 35.0186 398.158 34.8826 396.357 34.6666C394.549 34.4585 392.845 34.0745 391.693 33.2105C390.533 32.3864 389.941 31.3144 389.781 30.5383C389.693 30.1543 389.701 29.8423 389.717 29.6343C389.749 29.4263 389.765 29.3223 389.781 29.3223C389.829 29.3223 389.725 29.7623 389.933 30.4903C390.125 31.2104 390.725 32.2024 391.853 32.9625C392.965 33.7465 394.589 34.0905 396.389 34.2745C398.174 34.4745 400.31 34.5865 402.182 35.7706C403.11 36.3466 403.822 37.2507 404.158 38.2187C404.518 39.1708 404.71 40.1068 405.19 40.8429C406.166 42.331 407.782 43.011 409.078 43.283C410.414 43.555 411.542 43.515 412.31 43.499C413.078 43.475 413.51 43.451 413.51 43.483L413.526 43.499Z" fill="#455A64"/>
<path d="M411.534 36.9866C411.534 36.9866 411.214 37.1066 410.598 37.1226C409.99 37.1386 409.078 37.0346 408.07 36.5546C407.566 36.3145 407.054 35.9785 406.582 35.5225C406.102 35.0665 405.71 34.4825 405.342 33.8664C404.622 32.6504 403.926 31.1463 402.429 30.5302C400.965 29.8982 399.349 30.0422 397.949 30.1382C396.533 30.2742 395.205 30.3222 394.125 30.1062C393.037 29.9142 392.221 29.4662 391.765 29.0502C391.533 28.8422 391.381 28.6581 391.293 28.5221C391.205 28.3861 391.165 28.3141 391.173 28.3061C391.205 28.2821 391.397 28.5621 391.869 28.9222C392.333 29.2822 393.125 29.6662 394.173 29.8182C395.229 29.9862 396.493 29.9222 397.917 29.7622C399.325 29.6502 400.989 29.4742 402.597 30.1542C403.398 30.4902 404.046 31.0903 404.51 31.7383C404.982 32.3863 405.318 33.0664 405.678 33.6744C406.03 34.2904 406.39 34.8505 406.83 35.2825C407.262 35.7225 407.734 36.0585 408.206 36.2985C409.142 36.7866 410.014 36.9386 410.606 36.9706C411.198 37.0026 411.534 36.9626 411.542 36.9946L411.534 36.9866Z" fill="#455A64"/>
<path d="M416.709 82.1483C416.669 82.1323 416.925 81.6123 417.221 80.6282C417.517 79.6442 417.805 78.1721 417.757 76.34C417.693 74.5239 417.261 72.3238 416.053 70.2277C415.469 69.1796 414.581 68.2435 413.853 67.0995C413.493 66.5235 413.181 65.8834 413.045 65.1714C412.909 64.4593 412.989 63.6993 413.221 63.0113C413.669 61.6272 414.477 60.4671 414.645 59.1951C414.861 57.923 414.213 56.7629 413.605 55.7229C413.293 55.1949 412.989 54.6748 412.749 54.1308C412.509 53.5868 412.357 53.0107 412.293 52.4587C412.173 51.3466 412.301 50.3226 412.381 49.4105C412.613 47.5864 412.445 46.0824 412.005 45.1623C411.581 44.2263 411.021 43.9463 411.061 43.9062C411.061 43.9062 411.101 43.9142 411.157 43.9543C411.213 43.9943 411.309 44.0423 411.413 44.1383C411.629 44.3143 411.909 44.6183 412.149 45.0903C412.653 46.0264 412.869 47.5944 412.677 49.4345C412.613 50.3546 412.501 51.3626 412.637 52.4187C412.741 53.4828 413.293 54.4828 413.933 55.5229C414.245 56.0509 414.573 56.6029 414.805 57.227C415.045 57.843 415.149 58.555 415.045 59.2431C414.853 60.6431 414.029 61.8272 413.613 63.1233C413.397 63.7713 413.333 64.4433 413.445 65.0834C413.565 65.7234 413.845 66.3234 414.189 66.8755C414.877 67.9795 415.773 68.9316 416.373 70.0276C417.597 72.1958 418.013 74.4599 418.045 76.324C418.061 78.1961 417.717 79.6922 417.373 80.6682C417.197 81.1562 417.045 81.5323 416.909 81.7723C416.789 82.0203 416.717 82.1403 416.709 82.1403V82.1483Z" fill="#455A64"/>
<path d="M384.117 231.212C384.117 231.212 378.732 180.138 378.42 161.265C378.108 142.392 386.909 123.767 386.909 123.767L421.374 122.311C421.374 122.311 428.191 141.464 428.311 149.504C428.551 165.137 424.159 180.57 424.663 192.97L425.815 231.212" fill="#263238"/>
<path d="M426.967 168.424C426.967 168.424 426.775 168.584 426.407 168.848C426.311 168.92 426.207 168.992 426.095 169.072C425.991 169.16 425.879 169.28 425.759 169.392C425.519 169.624 425.231 169.888 424.991 170.248C423.879 171.608 423.062 174.049 422.294 177.089C421.87 178.601 421.438 180.289 420.55 181.945C420.31 182.345 420.094 182.777 419.782 183.153C419.63 183.345 419.494 183.553 419.334 183.737L418.806 184.265C418.086 184.977 417.174 185.505 416.214 185.929C414.286 186.777 412.11 187.177 410.118 188.177C408.118 189.153 406.614 191.041 405.694 193.218C404.726 195.386 404.133 197.658 403.325 199.786C402.533 201.898 401.445 203.946 399.725 205.242C398.021 206.586 395.909 206.89 394.085 207.01C392.229 207.122 390.509 207.066 388.973 207.298C387.437 207.514 386.077 207.994 385.116 208.754C384.148 209.514 383.588 210.466 383.324 211.282C383.052 212.107 383.1 212.803 383.188 213.243C383.276 213.691 383.404 213.907 383.372 213.915C383.372 213.915 383.22 213.715 383.1 213.259C382.98 212.811 382.9 212.091 383.164 211.226C383.412 210.37 383.972 209.378 384.964 208.57C385.956 207.762 387.357 207.242 388.925 207.002C390.493 206.746 392.229 206.786 394.061 206.658C395.869 206.53 397.885 206.21 399.493 204.93C401.117 203.698 402.165 201.722 402.941 199.634C403.733 197.53 404.325 195.258 405.31 193.042C406.238 190.825 407.83 188.817 409.926 187.809C411.998 186.785 414.174 186.393 416.054 185.577C416.99 185.169 417.862 184.665 418.55 184.001L419.062 183.497C419.222 183.321 419.35 183.121 419.494 182.945C419.798 182.585 420.006 182.169 420.238 181.785C421.118 180.185 421.558 178.513 422.006 177.009C422.814 173.984 423.679 171.512 424.863 170.152C425.119 169.792 425.423 169.528 425.671 169.304C425.799 169.192 425.911 169.08 426.023 168.992C426.143 168.92 426.255 168.848 426.351 168.784C426.743 168.536 426.951 168.416 426.959 168.424H426.967Z" fill="#FAFAFA"/>
<path d="M427.182 144.783C427.182 144.783 427.214 145.015 427.23 145.471C427.23 145.919 427.182 146.591 426.99 147.423C426.59 149.087 425.374 151.376 423.094 153.448C421.966 154.488 420.613 155.488 419.053 156.4C417.509 157.32 415.805 158.192 414.061 159.176C412.325 160.168 410.525 161.28 408.949 162.768C407.349 164.232 406.157 166.16 405.077 168.208C403.989 170.249 403.029 172.321 401.724 174.121C401.076 175.017 400.348 175.841 399.54 176.537C398.724 177.233 397.836 177.801 396.94 178.273C395.132 179.209 393.292 179.793 391.588 180.329C389.876 180.857 388.284 181.329 386.884 181.913C385.484 182.489 384.276 183.145 383.299 183.833C382.323 184.529 381.579 185.249 381.051 185.905C379.987 187.225 379.763 188.178 379.699 188.154C379.683 188.154 379.763 187.929 379.923 187.505C380.107 187.097 380.395 186.489 380.923 185.809C381.443 185.129 382.179 184.369 383.163 183.649C384.148 182.929 385.364 182.249 386.772 181.649C388.18 181.041 389.78 180.553 391.484 180.009C393.18 179.465 395.004 178.873 396.764 177.945C397.644 177.481 398.5 176.929 399.284 176.249C400.06 175.569 400.772 174.769 401.396 173.897C402.668 172.137 403.621 170.081 404.717 168.024C405.797 165.976 407.029 163.992 408.677 162.488C410.293 160.968 412.125 159.848 413.877 158.856C415.637 157.872 417.341 157.016 418.885 156.12C420.429 155.24 421.774 154.264 422.902 153.256C425.166 151.248 426.398 149.031 426.838 147.407C427.27 145.767 427.126 144.807 427.19 144.807L427.182 144.783Z" fill="#FAFAFA"/>
<path d="M378.595 163.968C378.595 163.968 378.563 163.92 378.523 163.816C378.491 163.712 378.419 163.552 378.371 163.336C378.275 162.912 378.211 162.232 378.451 161.416C378.899 159.784 380.667 157.76 383.516 156.744C384.932 156.256 386.548 155.96 388.22 155.52C389.876 155.072 391.684 154.447 393.036 153.063C393.708 152.375 394.276 151.567 394.74 150.671C395.196 149.767 395.58 148.799 395.932 147.799C396.652 145.807 397.252 143.639 398.468 141.663C399.676 139.679 401.644 138.295 403.685 137.607C405.717 136.863 407.773 136.527 409.669 136.087C411.581 135.67 413.365 135.134 414.877 134.31C416.373 133.462 417.557 132.334 418.397 131.134C420.125 128.734 420.573 126.278 420.637 124.654C420.677 123.006 420.413 122.102 420.469 122.094C420.469 122.094 420.79 122.974 420.806 124.654C420.79 126.302 420.381 128.822 418.645 131.302C417.797 132.542 416.589 133.718 415.053 134.606C413.501 135.462 411.677 136.022 409.765 136.455C407.853 136.903 405.813 137.247 403.837 137.983C401.844 138.671 399.996 139.975 398.828 141.879C397.652 143.775 397.052 145.919 396.324 147.927C395.964 148.935 395.572 149.919 395.1 150.847C394.612 151.767 394.02 152.615 393.308 153.327C391.876 154.783 389.988 155.408 388.308 155.848C386.604 156.28 385.004 156.552 383.612 157.016C380.835 157.96 379.075 159.904 378.603 161.456C378.347 162.232 378.379 162.888 378.451 163.312C378.539 163.736 378.611 163.952 378.595 163.96V163.968Z" fill="#FAFAFA"/>
<path d="M424.214 207.154C424.214 207.154 424.246 207.322 424.27 207.658C424.286 207.986 424.27 208.482 424.126 209.106C423.846 210.338 422.894 212.027 421.102 213.427C420.222 214.139 419.158 214.787 417.926 215.307C416.702 215.827 415.35 216.243 413.942 216.683C412.534 217.123 411.054 217.587 409.614 218.259C408.166 218.923 406.829 219.891 405.677 221.131C404.509 222.355 403.501 223.691 402.389 224.867C401.277 226.051 400.013 227.027 398.701 227.755C396.069 229.211 393.341 229.708 391.093 229.732C388.829 229.756 387.036 229.283 385.852 228.859C385.26 228.651 384.812 228.443 384.524 228.291C384.228 228.147 384.076 228.059 384.084 228.051C384.084 228.035 384.252 228.099 384.556 228.219C384.86 228.347 385.308 228.531 385.9 228.715C387.084 229.083 388.861 229.507 391.077 229.443C393.285 229.379 395.949 228.859 398.501 227.427C399.773 226.715 400.989 225.763 402.077 224.595C403.173 223.435 404.173 222.099 405.365 220.851C406.533 219.587 407.95 218.571 409.43 217.899C410.91 217.211 412.406 216.755 413.822 216.323C415.238 215.891 416.582 215.491 417.782 214.995C418.982 214.499 420.038 213.875 420.902 213.195C422.67 211.851 423.63 210.25 423.95 209.058C424.262 207.858 424.142 207.154 424.198 207.154H424.214Z" fill="#FAFAFA"/>
<path d="M420.285 101.109L413.621 101.269C413.181 103.517 412.117 105.053 412.117 105.053C406.54 95.3809 402.22 82.4202 401.148 77.2119C401.308 76.6919 401.492 76.1159 401.724 75.4758C401.988 74.7318 401.764 73.3237 401.636 72.5477C401.452 71.3876 401.124 69.8275 401.028 69.1075C400.732 66.9074 400.38 66.5634 399.612 66.8114C398.564 67.1474 400.044 72.9957 399.188 73.1157C398.732 73.1877 398.164 71.1796 398.004 69.5395C397.844 67.8994 397.1 62.8432 396.556 62.5072C395.764 62.0111 395.068 62.7952 395.268 64.4273C395.468 66.0833 395.724 71.0196 394.86 71.0836C394.004 71.1476 393.284 62.7712 393.284 62.7712C393.284 62.7712 393.42 60.9471 392.411 60.9951C390.595 61.0751 392.011 69.9075 392.171 70.7396C392.284 71.3236 391.339 71.4276 391.259 70.7956C391.171 70.1476 390.739 62.4191 388.891 62.4832C387.475 62.5312 389.987 69.7635 389.195 71.4356C388.403 73.1077 387.851 65.7473 386.491 65.8433C385.987 65.8833 385.619 65.9793 386.539 70.1476C387.035 72.3877 388.499 76.5079 389.771 79.9161C391.915 91.4767 401.324 128.463 416.069 121.686C424.317 117.902 427.669 101.109 427.669 101.109H420.293H420.285Z" fill="#EDB6A1"/>
<path d="M391.844 71.3004C391.844 71.3004 391.908 71.3084 392.036 71.2764C392.148 71.2444 392.372 71.1004 392.34 70.8123C392.324 70.3163 392.244 69.5963 392.132 68.6602C392.044 67.7162 391.764 66.5881 391.764 65.252C391.756 64.58 391.764 63.86 391.812 63.0999C391.836 62.7159 391.844 62.3239 391.932 61.9479C391.996 61.5879 392.236 61.1718 392.516 61.2198H392.548H392.564C392.852 61.2038 393.068 61.4278 393.164 61.7639C393.268 62.0919 393.292 62.4679 393.268 62.8359V62.8519V62.8599C393.452 64.908 393.66 67.1481 394.124 69.5403C394.188 69.8363 394.252 70.1403 394.348 70.4443C394.396 70.5963 394.444 70.7483 394.516 70.9004C394.556 70.9804 394.588 71.0524 394.652 71.1404C394.708 71.2124 394.78 71.3324 394.988 71.3484C395.324 71.3244 395.42 71.0684 395.492 70.9244C395.564 70.7563 395.612 70.5963 395.644 70.4363C395.716 70.1083 395.748 69.7883 395.772 69.4603C395.86 68.1562 395.812 66.8201 395.716 65.4601C395.684 64.772 395.516 64.084 395.636 63.46C395.692 63.1559 395.82 62.8439 396.028 62.7159C396.132 62.6519 396.244 62.6439 396.372 62.6759C396.436 62.6919 396.5 62.7239 396.564 62.7559C396.62 62.8039 396.604 62.7799 396.652 62.8759C396.916 63.4519 397.06 64.196 397.204 64.884C397.348 65.5961 397.468 66.3161 397.58 67.0441C397.692 67.7722 397.796 68.5162 397.884 69.2523C397.956 69.9963 398.06 70.7723 398.252 71.5244C398.348 71.9004 398.452 72.2764 398.612 72.6524C398.692 72.8365 398.78 73.0285 398.94 73.2205C398.996 73.3005 399.188 73.4525 399.42 73.3965C399.644 73.3245 399.708 73.1405 399.748 73.0365C399.876 72.5724 399.836 72.1964 399.836 71.7884C399.82 71.3884 399.788 70.9964 399.756 70.6043C399.7 69.9323 399.636 69.2603 399.612 68.6042C399.604 68.2762 399.604 67.9482 399.636 67.6442C399.652 67.4922 399.684 67.3402 399.732 67.2282C399.756 67.1722 399.788 67.1321 399.812 67.1081C399.828 67.0921 399.836 67.1081 399.844 67.0841L399.948 67.0521C400.476 66.8361 400.652 67.5722 400.796 68.1642C400.916 68.7882 400.996 69.4283 401.124 70.0603C401.332 71.3244 401.604 72.5724 401.748 73.7725C401.804 74.3725 401.852 74.9886 401.676 75.4926C401.484 76.0686 401.3 76.6447 401.116 77.2127L401.1 77.2607L401.116 77.3167C402.092 81.6209 403.444 85.4691 404.692 88.8853C405.956 92.3015 407.228 95.2457 408.341 97.6618C409.453 100.078 410.453 101.934 411.149 103.206C411.501 103.806 411.773 104.286 411.981 104.638C412.173 104.958 412.277 105.126 412.293 105.118C412.301 105.118 412.221 104.934 412.045 104.598C411.853 104.238 411.597 103.75 411.277 103.134C410.629 101.846 409.669 99.9739 408.589 97.5498C407.508 95.1256 406.276 92.1735 405.036 88.7573C403.812 85.3411 402.484 81.4849 401.54 77.2287V77.3327C401.716 76.7727 401.908 76.2126 402.092 75.6366C402.308 74.9806 402.244 74.3485 402.188 73.7245C402.044 72.4764 401.78 71.2604 401.572 69.9883C401.452 69.3643 401.372 68.7162 401.244 68.0682C401.172 67.7402 401.1 67.4122 400.916 67.0761C400.828 66.9161 400.692 66.7321 400.476 66.6281C400.252 66.5321 400.028 66.5561 399.844 66.6041L399.708 66.6441C399.644 66.6681 399.572 66.7001 399.524 66.7481C399.42 66.8361 399.364 66.9401 399.324 67.0361C399.236 67.2282 399.212 67.4042 399.188 67.5802C399.148 67.9322 399.148 68.2762 399.164 68.6122C399.188 69.2923 399.252 69.9643 399.308 70.6363C399.34 71.0284 399.372 71.4124 399.388 71.7964C399.404 72.1724 399.412 72.5804 399.332 72.8685C399.316 72.9485 399.276 72.9405 399.316 72.9805C399.316 72.9805 399.316 73.0285 399.316 73.0125V72.9805C399.316 72.9805 399.34 72.9485 399.324 72.9405C399.324 72.9405 399.3 72.9245 399.276 72.8925C399.188 72.7885 399.1 72.6284 399.028 72.4604C398.884 72.1244 398.78 71.7644 398.692 71.3964C398.508 70.6603 398.404 69.9323 398.332 69.1803C398.244 68.4282 398.14 67.6842 398.02 66.9481C397.908 66.2121 397.78 65.4841 397.636 64.772C397.468 64.052 397.364 63.3559 397.028 62.6359C397.004 62.5639 396.868 62.4039 396.78 62.3559C396.692 62.2999 396.588 62.2599 396.484 62.2279C396.268 62.1719 396.004 62.1959 395.804 62.3239C395.404 62.5879 395.284 63.0039 395.212 63.3639C395.148 63.74 395.156 64.108 395.196 64.46C395.236 64.804 395.268 65.14 395.292 65.4761C395.396 66.8201 395.444 68.1482 395.364 69.4203C395.34 69.7323 395.308 70.0523 395.252 70.3483C395.22 70.5003 395.18 70.6363 395.132 70.7643C395.108 70.8283 395.076 70.8843 395.044 70.9163C395.012 70.9804 394.988 70.9004 394.996 71.0124C395.036 70.9324 394.996 70.9724 394.964 70.9083C394.932 70.8683 394.9 70.7963 394.868 70.7403C394.812 70.6123 394.764 70.4683 394.716 70.3323C394.628 70.0523 394.556 69.7563 394.492 69.4603C394.02 67.1081 393.796 64.86 393.588 62.8359V62.8599C393.604 62.4519 393.58 62.0599 393.46 61.6679C393.396 61.4758 393.308 61.2838 393.148 61.1318C392.988 60.9798 392.764 60.9078 392.556 60.9158H392.604C392.284 60.8598 392.044 61.0598 391.916 61.2518C391.78 61.4518 391.716 61.6679 391.668 61.8759C391.58 62.2919 391.58 62.6919 391.564 63.0759C391.532 63.844 391.532 64.572 391.548 65.2441C391.572 66.6121 391.884 67.7402 391.988 68.6682C392.124 69.5963 392.228 70.3163 392.276 70.8043C392.324 71.0364 392.14 71.1804 392.044 71.2204C391.932 71.2684 391.868 71.2764 391.868 71.2844L391.844 71.3004Z" fill="#DD9E8A"/>
<path d="M339.746 112.125C339.746 112.125 337.529 112.021 335.113 112.653C330.985 113.741 323.849 118.062 323.553 123.406H328.729C328.729 123.406 325.825 129.582 326.681 129.006C328.889 127.526 333.297 123.046 333.297 123.046L339.746 112.117V112.125Z" fill="#EDB6A1"/>
<path d="M410.405 19.169C410.293 19.177 409.821 14.8968 409.357 9.60052C408.893 4.31224 408.605 0.00801162 408.725 1.11973e-05C408.837 -0.00798923 409.309 4.27224 409.773 9.56852C410.237 14.8648 410.525 19.161 410.405 19.169Z" fill="#263238"/>
<path d="M433.133 0.264283C433.229 0.328287 429.725 5.40856 425.317 11.6089C420.908 17.8092 417.252 22.7775 417.156 22.7135C417.06 22.6495 420.564 17.5692 424.973 11.3689C429.381 5.16854 433.037 0.20028 433.125 0.264283H433.133Z" fill="#263238"/>
<path d="M442.575 23.2806C442.599 23.3926 438.511 24.3286 433.455 25.3687C428.39 26.4087 424.27 27.1608 424.246 27.0488C424.222 26.9368 428.31 26.0007 433.367 24.9607C438.431 23.9206 442.551 23.1686 442.575 23.2806Z" fill="#263238"/>
<path d="M170.472 133.176L142.183 278.624L138.479 297.665L327.337 296.737C335.809 296.697 343.321 289.168 346.05 277.992L379.539 140.672C381.611 132.184 377.067 123.359 370.635 123.359L179.489 123.559C175.264 123.559 171.576 127.504 170.472 133.176Z" fill="#CACCCF"/>
<g opacity="0.5">
<path d="M170.472 133.176L142.183 278.624L138.479 297.665L327.337 296.737C335.809 296.697 343.321 289.168 346.05 277.992L379.539 140.672C381.611 132.184 377.067 123.359 370.635 123.359L179.489 123.559C175.264 123.559 171.576 127.504 170.472 133.176Z" fill="#868686"/>
</g>
<path d="M309.224 268.766L289.231 107.63C288.415 101.029 283.151 96.1011 276.943 96.1251L233.092 96.2691C229.844 96.2771 226.732 97.6612 224.428 100.109L203.611 122.238L81.6603 122.879C74.2119 122.919 68.4836 129.967 69.4677 137.895L88.0367 286.823C88.8607 293.416 94.109 298.336 100.309 298.32L312.841 297.904C336.514 298.392 338.77 291.408 338.77 291.408C311.641 297.416 309.224 268.79 309.224 268.774V268.766Z" fill="#CACCCF"/>
<g opacity="0.5">
<path d="M217.588 236.518L210.42 244.214L155.217 194.556L162.385 186.859L217.588 236.518Z" fill="white"/>
<path d="M207.412 185.146L215.34 192.275L165.385 245.926L157.465 238.797L207.412 185.146Z" fill="white"/>
</g>
</g>
<defs>
<clipPath id="clip0_24111_69106">
<rect width="481.266" height="300" fill="white" transform="translate(0.367188)"/>
</clipPath>
</defs>
</svg>
