<svg viewBox="0 0 25 25" xmlns="http://www.w3.org/2000/svg">
  <path
    fill-rule="evenodd"
    clip-rule="evenodd"
    d="M15.4253 11.9986C13.2162 11.9986 11.4253 10.2077 11.4253 7.9986C11.4253 5.78946 13.2162 3.9986 15.4253 3.9986C17.6344 3.9986 19.4253 5.78946 19.4253 7.9986C19.4253 10.2077 17.6344 11.9986 15.4253 11.9986ZM15.4253 9.9986C14.3207 9.9986 13.4253 9.10317 13.4253 7.9986C13.4253 6.89403 14.3207 5.9986 15.4253 5.9986C16.5299 5.9986 17.4253 6.89403 17.4253 7.9986C17.4253 9.10317 16.5299 9.9986 15.4253 9.9986Z"
  />
  <path
    d="M11.4253 14.9986C10.873 14.9986 10.4253 15.4463 10.4253 15.9986V21.9986H8.42529V15.9986C8.42529 14.3417 9.76844 12.9986 11.4253 12.9986H19.4253C21.0821 12.9986 22.4253 14.3417 22.4253 15.9986V21.9986H20.4253V15.9986C20.4253 15.4463 19.9776 14.9986 19.4253 14.9986H11.4253Z"
  />
  <path d="M1.42529 11.9986H7.42529V13.9986H1.42529V11.9986Z" />
  <path d="M6.42529 15.9986H1.42529V17.9986H6.42529V15.9986Z" />
  <path d="M1.42529 7.9986H8.42529V9.9986H1.42529V7.9986Z" />
</svg>
