<svg width="20" height="20" viewBox="0 0 20 20" fill="none" xmlns="http://www.w3.org/2000/svg">
<g clip-path="url(#clip0_24074_170716)">
<path d="M16.666 4.99935H13.3327V3.33268C13.3327 2.41602 12.5827 1.66602 11.666 1.66602H8.33268C7.41602 1.66602 6.66602 2.41602 6.66602 3.33268V4.99935H3.33268C2.41602 4.99935 1.66602 5.74935 1.66602 6.66602V16.666C1.66602 17.5827 2.41602 18.3327 3.33268 18.3327H16.666C17.5827 18.3327 18.3327 17.5827 18.3327 16.666V6.66602C18.3327 5.74935 17.5827 4.99935 16.666 4.99935ZM8.33268 3.33268H11.666V4.99935H8.33268V3.33268ZM16.666 16.666H3.33268V6.66602H16.666V16.666Z" fill="#2244B1"/>
<path d="M10.8327 8.33203H9.16602V10.832H6.66602V12.4987H9.16602V14.9987H10.8327V12.4987H13.3327V10.832H10.8327V8.33203Z" fill="#2244B1"/>
</g>
<defs>
<clipPath id="clip0_24074_170716">
<rect width="20" height="20" fill="white"/>
</clipPath>
</defs>
</svg>
