<svg viewBox="0 0 120 120" xmlns="http://www.w3.org/2000/svg">
	<path d="M106.658 43.2688L119.313 30.6135C119.835 30.0925 120.081 29.3555 119.976 28.6259C119.873 27.8962 119.431 27.2571 118.784 26.9019L103.57 18.5477C102.436 17.9252 101.011 18.3399 100.388 19.4742C99.7651 20.6095 100.179 22.0341 101.314 22.6566L113.791 29.5075L102.93 40.3675L63.8672 18.9176L74.7272 8.05762L85.7053 14.0864C86.8397 14.7089 88.2651 14.2951 88.8877 13.1599C89.5112 12.0255 89.0964 10.6 87.9612 9.97748L75.4413 3.10187C74.5276 2.60016 73.3924 2.76221 72.6563 3.49921L60 16.1555L47.3438 3.49921C46.6068 2.76221 45.4715 2.60108 44.5588 3.10187L1.21587 26.9019C0.569508 27.2571 0.127308 27.8953 0.0238536 28.6259C-0.0805164 29.3555 0.164845 30.0925 0.686696 30.6135L13.342 43.2688L0.686696 55.9232C0.164845 56.4451 -0.0805164 57.1812 0.0238536 57.9118C0.127308 58.6414 0.569508 59.2805 1.21587 59.6348L14.3134 66.8272V90.8671C14.3134 91.7231 14.7794 92.5104 15.5292 92.9224L58.8721 116.722C59.2237 116.915 59.6119 117.011 60 117.011C60.3882 117.011 60.7764 116.915 61.128 116.722L104.471 92.9224C105.221 92.5104 105.687 91.7231 105.687 90.8671V66.8272L118.784 59.6357C119.431 59.2805 119.873 58.6414 119.976 57.9118C120.081 57.1821 119.835 56.4451 119.313 55.9241L106.658 43.2688ZM60 64.3937L21.5268 43.2679L60 22.1412L98.4733 43.2679L60 64.3937ZM45.2738 8.05762L56.1329 18.9176L17.0701 40.3675L6.21007 29.5075L45.2738 8.05762ZM17.0719 46.1692L56.1347 67.6191L45.2738 78.48L6.21007 57.0301L17.0719 46.1692ZM100.999 89.481L62.3438 110.707V86.7481C62.3438 85.4536 61.2946 84.4044 60 84.4044C58.7055 84.4044 57.6563 85.4536 57.6563 86.7481V110.707L19.0009 89.481V69.4016L44.5588 83.4357C44.9131 83.6298 45.3013 83.725 45.6858 83.725C46.2928 83.725 46.8934 83.4888 47.3438 83.0384L60 70.3821L72.6563 83.0384C73.1067 83.4898 73.7073 83.725 74.3143 83.725C74.6988 83.725 75.087 83.6298 75.4413 83.4357L100.999 69.4016V89.481ZM74.7272 78.48L63.8663 67.6182L102.929 46.1692L113.791 57.0292L74.7272 78.48Z" />
	<path d="M94.875 18.7912C95.4912 18.7912 96.0936 18.5404 96.5321 18.1037C96.9679 17.6679 97.2188 17.0636 97.2188 16.4475C97.2188 15.8304 96.9679 15.2262 96.5321 14.7904C96.0963 14.3537 95.4912 14.1037 94.875 14.1037C94.2561 14.1037 93.6537 14.3537 93.2179 14.7904C92.7794 15.2262 92.5312 15.8304 92.5312 16.4475C92.5312 17.0636 92.7794 17.6679 93.2179 18.1037C93.6537 18.5404 94.2589 18.7912 94.875 18.7912Z" />
	<path d="M60 76.6232C59.3838 76.6232 58.7787 76.8732 58.3429 77.3099C57.9071 77.7475 57.6562 78.3499 57.6562 78.967C57.6562 79.585 57.9071 80.1874 58.3429 80.6259C58.7787 81.0617 59.3838 81.3107 60 81.3107C60.6161 81.3107 61.2213 81.0617 61.6571 80.6259C62.0929 80.1874 62.3437 79.585 62.3437 78.967C62.3437 78.3499 62.0929 77.7475 61.6571 77.3099C61.2213 76.8732 60.6161 76.6232 60 76.6232Z" />
</svg>
