<svg width="21" height="21" viewBox="0 0 21 21" fill="none" xmlns="http://www.w3.org/2000/svg">
<g clip-path="url(#clip0_21026_25077)">
<path d="M10.4997 5.91667C13.658 5.91667 16.4747 7.69167 17.8497 10.5C16.4747 13.3083 13.6663 15.0833 10.4997 15.0833C7.33301 15.0833 4.52467 13.3083 3.14967 10.5C4.52467 7.69167 7.34134 5.91667 10.4997 5.91667ZM10.4997 4.25C6.33301 4.25 2.77467 6.84167 1.33301 10.5C2.77467 14.1583 6.33301 16.75 10.4997 16.75C14.6663 16.75 18.2247 14.1583 19.6663 10.5C18.2247 6.84167 14.6663 4.25 10.4997 4.25ZM10.4997 8.41667C11.6497 8.41667 12.583 9.35 12.583 10.5C12.583 11.65 11.6497 12.5833 10.4997 12.5833C9.34967 12.5833 8.41634 11.65 8.41634 10.5C8.41634 9.35 9.34967 8.41667 10.4997 8.41667ZM10.4997 6.75C8.43301 6.75 6.74967 8.43333 6.74967 10.5C6.74967 12.5667 8.43301 14.25 10.4997 14.25C12.5663 14.25 14.2497 12.5667 14.2497 10.5C14.2497 8.43333 12.5663 6.75 10.4997 6.75Z" fill="black" fill-opacity="1"/>
</g>
<defs>
<clipPath id="clip0_21026_25077">
<rect width="20" height="20" fill="white" transform="translate(0.5 0.5)"/>
</clipPath>
</defs>
</svg>
