<svg width="28" height="28" viewBox="0 0 28 28" fill="none" xmlns="http://www.w3.org/2000/svg">
<path d="M2.33325 7C2.33325 6.07174 2.702 5.1815 3.35838 4.52513C4.01476 3.86875 4.90499 3.5 5.83325 3.5H7.58325C7.89267 3.5 8.18942 3.62292 8.40821 3.84171C8.627 4.0605 8.74992 4.35725 8.74992 4.66667C8.74992 4.97609 8.627 5.27283 8.40821 5.49162C8.18942 5.71042 7.89267 5.83333 7.58325 5.83333H5.83325C5.52383 5.83333 5.22709 5.95625 5.00829 6.17504C4.7895 6.39383 4.66659 6.69058 4.66659 7V8.75C4.66659 9.05942 4.54367 9.35617 4.32488 9.57496C4.10608 9.79375 3.80934 9.91667 3.49992 9.91667C3.1905 9.91667 2.89375 9.79375 2.67496 9.57496C2.45617 9.35617 2.33325 9.05942 2.33325 8.75V7ZM19.2499 4.66667C19.2499 4.35725 19.3728 4.0605 19.5916 3.84171C19.8104 3.62292 20.1072 3.5 20.4166 3.5H22.1666C23.0948 3.5 23.9851 3.86875 24.6415 4.52513C25.2978 5.1815 25.6666 6.07174 25.6666 7V8.75C25.6666 9.05942 25.5437 9.35617 25.3249 9.57496C25.1061 9.79375 24.8093 9.91667 24.4999 9.91667C24.1905 9.91667 23.8938 9.79375 23.675 9.57496C23.4562 9.35617 23.3333 9.05942 23.3333 8.75V7C23.3333 6.69058 23.2103 6.39383 22.9915 6.17504C22.7728 5.95625 22.476 5.83333 22.1666 5.83333H20.4166C20.1072 5.83333 19.8104 5.71042 19.5916 5.49162C19.3728 5.27283 19.2499 4.97609 19.2499 4.66667ZM3.49992 18.0833C3.80934 18.0833 4.10608 18.2062 4.32488 18.425C4.54367 18.6438 4.66659 18.9406 4.66659 19.25V21C4.66659 21.3094 4.7895 21.6062 5.00829 21.825C5.22709 22.0438 5.52383 22.1667 5.83325 22.1667H7.58325C7.89267 22.1667 8.18942 22.2896 8.40821 22.5084C8.627 22.7272 8.74992 23.0239 8.74992 23.3333C8.74992 23.6428 8.627 23.9395 8.40821 24.1583C8.18942 24.3771 7.89267 24.5 7.58325 24.5H5.83325C4.90499 24.5 4.01476 24.1313 3.35838 23.4749C2.702 22.8185 2.33325 21.9283 2.33325 21V19.25C2.33325 18.9406 2.45617 18.6438 2.67496 18.425C2.89375 18.2062 3.1905 18.0833 3.49992 18.0833V18.0833ZM24.4999 18.0833C24.8093 18.0833 25.1061 18.2062 25.3249 18.425C25.5437 18.6438 25.6666 18.9406 25.6666 19.25V21C25.6666 21.9283 25.2978 22.8185 24.6415 23.4749C23.9851 24.1313 23.0948 24.5 22.1666 24.5H20.4166C20.1072 24.5 19.8104 24.3771 19.5916 24.1583C19.3728 23.9395 19.2499 23.6428 19.2499 23.3333C19.2499 23.0239 19.3728 22.7272 19.5916 22.5084C19.8104 22.2896 20.1072 22.1667 20.4166 22.1667H22.1666C22.476 22.1667 22.7728 22.0438 22.9915 21.825C23.2103 21.6062 23.3333 21.3094 23.3333 21V19.25C23.3333 18.9406 23.4562 18.6438 23.675 18.425C23.8938 18.2062 24.1905 18.0833 24.4999 18.0833ZM6.99992 7.875C7.30934 7.875 7.60608 7.99792 7.82488 8.21671C8.04367 8.4355 8.16659 8.73225 8.16659 9.04167V18.9583C8.16659 19.2678 8.04367 19.5645 7.82488 19.7833C7.60608 20.0021 7.30934 20.125 6.99992 20.125C6.6905 20.125 6.39375 20.0021 6.17496 19.7833C5.95617 19.5645 5.83325 19.2678 5.83325 18.9583V9.04167C5.83325 8.73225 5.95617 8.4355 6.17496 8.21671C6.39375 7.99792 6.6905 7.875 6.99992 7.875V7.875ZM12.8333 9.04167C12.8333 8.73225 12.7103 8.4355 12.4915 8.21671C12.2728 7.99792 11.976 7.875 11.6666 7.875C11.3572 7.875 11.0604 7.99792 10.8416 8.21671C10.6228 8.4355 10.4999 8.73225 10.4999 9.04167V18.9583C10.4999 19.2678 10.6228 19.5645 10.8416 19.7833C11.0604 20.0021 11.3572 20.125 11.6666 20.125C11.976 20.125 12.2728 20.0021 12.4915 19.7833C12.7103 19.5645 12.8333 19.2678 12.8333 18.9583V9.04167ZM16.3333 7.875C16.6427 7.875 16.9394 7.99792 17.1582 8.21671C17.377 8.4355 17.4999 8.73225 17.4999 9.04167V18.9583C17.4999 19.2678 17.377 19.5645 17.1582 19.7833C16.9394 20.0021 16.6427 20.125 16.3333 20.125C16.0238 20.125 15.7271 20.0021 15.5083 19.7833C15.2895 19.5645 15.1666 19.2678 15.1666 18.9583V9.04167C15.1666 8.73225 15.2895 8.4355 15.5083 8.21671C15.7271 7.99792 16.0238 7.875 16.3333 7.875V7.875ZM22.1666 9.04167C22.1666 8.73225 22.0437 8.4355 21.8249 8.21671C21.6061 7.99792 21.3093 7.875 20.9999 7.875C20.6905 7.875 20.3938 7.99792 20.175 8.21671C19.9562 8.4355 19.8333 8.73225 19.8333 9.04167V18.9583C19.8333 19.2678 19.9562 19.5645 20.175 19.7833C20.3938 20.0021 20.6905 20.125 20.9999 20.125C21.3093 20.125 21.6061 20.0021 21.8249 19.7833C22.0437 19.5645 22.1666 19.2678 22.1666 18.9583V9.04167Z" fill="white"/>
</svg>
