<svg width="16" height="16" viewBox="0 0 16 16" fill="none" xmlns="http://www.w3.org/2000/svg">
<path d="M5.33332 7.33341C4.96513 7.33341 4.66666 7.63189 4.66666 8.00008C4.66666 8.36827 4.96513 8.66675 5.33332 8.66675H10.6667C11.0348 8.66675 11.3333 8.36827 11.3333 8.00008C11.3333 7.63189 11.0348 7.33341 10.6667 7.33341H5.33332Z" fill="#FF6262"/>
<path fill-rule="evenodd" clip-rule="evenodd" d="M15.3333 8.00008C15.3333 12.0502 12.0501 15.3334 7.99999 15.3334C3.9499 15.3334 0.666656 12.0502 0.666656 8.00008C0.666656 3.94999 3.9499 0.666748 7.99999 0.666748C12.0501 0.666748 15.3333 3.94999 15.3333 8.00008ZM14 8.00008C14 11.3138 11.3137 14.0001 7.99999 14.0001C4.68628 14.0001 1.99999 11.3138 1.99999 8.00008C1.99999 4.68637 4.68628 2.00008 7.99999 2.00008C11.3137 2.00008 14 4.68637 14 8.00008Z" fill="#FF6262"/>
</svg>
