<svg width="18" height="18" viewBox="0 0 18 18" fill="none" xmlns="http://www.w3.org/2000/svg">
<g clip-path="url(#clip0_19035_161006)">
<g clip-path="url(#clip1_19035_161006)">
<path d="M8.99648 6.83301C6.69648 6.83301 4.83398 8.69967 4.83398 10.9997C4.83398 13.2997 6.69648 15.1663 8.99648 15.1663C11.3007 15.1663 13.1673 13.2997 13.1673 10.9997C13.1673 8.69967 11.3007 6.83301 8.99648 6.83301ZM9.00065 14.333C7.15898 14.333 5.66732 12.8413 5.66732 10.9997C5.66732 9.15801 7.15898 7.66634 9.00065 7.66634C10.8423 7.66634 12.334 9.15801 12.334 10.9997C12.334 12.8413 10.8423 14.333 9.00065 14.333Z" fill="#F6A609"/>
<path d="M9.20898 8.91699H8.58398V11.417L10.7715 12.7295L11.084 12.217L9.20898 11.1045V8.91699Z" fill="#F6A609"/>
</g>
<path d="M15 2.25H14.25V0.75H12.75V2.25H5.25V0.75H3.75V2.25H3C2.175 2.25 1.5 2.925 1.5 3.75V15.75C1.5 16.575 2.175 17.25 3 17.25H15C15.825 17.25 16.5 16.575 16.5 15.75V3.75C16.5 2.925 15.825 2.25 15 2.25ZM15 15.75H3V6H15V15.75Z" fill="#F6A609"/>
</g>
<defs>
<clipPath id="clip0_19035_161006">
<rect width="18" height="18" fill="white"/>
</clipPath>
<clipPath id="clip1_19035_161006">
<rect width="10" height="10" fill="white" transform="translate(4 6)"/>
</clipPath>
</defs>
</svg>
