<svg width="18" height="18" viewBox="0 0 18 18" fill="none" xmlns="http://www.w3.org/2000/svg">
<path d="M15.75 8.25047L17.25 6.75047C14.4525 3.95297 10.5975 2.88797 6.975 3.51797L8.91 5.45297C11.385 5.43797 13.8675 6.36797 15.75 8.25047ZM14.25 9.75047C13.44 8.94047 12.48 8.36297 11.46 8.00297L13.725 10.268L14.25 9.75047ZM6.75 12.7505L9 15.0005L11.25 12.7505C10.0125 11.5055 7.995 11.5055 6.75 12.7505ZM2.5575 1.23047L1.5 2.28797L3.7875 4.57547C2.6925 5.12297 1.665 5.84297 0.75 6.75047L2.25 8.25047C3.1725 7.32797 4.2375 6.63047 5.3775 6.16547L7.0575 7.84547C5.8425 8.16797 4.7025 8.80547 3.75 9.75047L5.25 11.2505C6.2625 10.238 7.5825 9.72047 8.9175 9.70547L14.2275 15.0155L15.285 13.958L2.5575 1.23047Z" fill="#FB4E4E"/>
</svg>
