<svg width="18" height="18" viewBox="0 0 18 18" fill="none" xmlns="http://www.w3.org/2000/svg">
<path d="M16.5002 15.0006H10.5002C10.3013 15.0006 10.1106 14.9216 9.96992 14.7809C9.82926 14.6403 9.75025 14.4495 9.75025 14.2506V3.7281C9.74952 3.5626 9.80356 3.4015 9.90395 3.26991C10.0043 3.13832 10.1454 3.04363 10.3052 3.0006C10.6427 2.9106 10.9877 3.0606 11.1527 3.3531L17.1677 13.8756C17.3027 14.1081 17.3027 14.3931 17.1677 14.6256C17.0327 14.8581 16.7852 15.0006 16.5002 15.0006ZM1.50025 15.0006C1.21525 15.0006 0.967746 14.8581 0.832746 14.6256C0.766401 14.5118 0.731445 14.3824 0.731445 14.2506C0.731445 14.1188 0.766401 13.9894 0.832746 13.8756L6.84775 3.3531C7.01275 3.0606 7.35775 2.9106 7.69525 3.0006C7.85506 3.04363 7.99616 3.13832 8.09654 3.26991C8.19693 3.4015 8.25097 3.5626 8.25025 3.7281V14.2506C8.25025 14.4495 8.17123 14.6403 8.03058 14.7809C7.88992 14.9216 7.69916 15.0006 7.50025 15.0006H1.50025ZM6.75025 13.5006V6.5556L2.78275 13.5006H6.75025Z" fill="black" fill-opacity="0.75"/>
</svg>
