<svg viewBox="0 0 32 32" fill="none" xmlns="http://www.w3.org/2000/svg">
<path d="M28.667 20.667C29.0403 20.667 29.3337 20.9603 29.3337 21.3337V22.667C29.3337 24.8803 27.547 26.667 25.3337 26.667C25.3337 24.467 23.5337 22.667 21.3337 22.667C19.1337 22.667 17.3337 24.467 17.3337 26.667H14.667C14.667 24.467 12.867 22.667 10.667 22.667C8.46699 22.667 6.66699 24.467 6.66699 26.667C4.45366 26.667 2.66699 24.8803 2.66699 22.667V20.0003C2.66699 19.267 3.26699 18.667 4.00033 18.667H16.667C18.507 18.667 20.0003 17.1737 20.0003 15.3337V8.00033C20.0003 7.26699 20.6003 6.66699 21.3337 6.66699H22.4537C23.4137 6.66699 24.2937 7.18699 24.7737 8.01366L25.627 9.50699C25.747 9.72033 25.587 10.0003 25.3337 10.0003C23.4937 10.0003 22.0003 11.4937 22.0003 13.3337V17.3337C22.0003 19.1737 23.4937 20.667 25.3337 20.667H28.667Z" fill="#BBBBBB"/>
<path d="M10.6667 29.3333C12.1394 29.3333 13.3333 28.1394 13.3333 26.6667C13.3333 25.1939 12.1394 24 10.6667 24C9.19391 24 8 25.1939 8 26.6667C8 28.1394 9.19391 29.3333 10.6667 29.3333Z" fill="#BBBBBB"/>
<path d="M21.3337 29.3333C22.8064 29.3333 24.0003 28.1394 24.0003 26.6667C24.0003 25.1939 22.8064 24 21.3337 24C19.8609 24 18.667 25.1939 18.667 26.6667C18.667 28.1394 19.8609 29.3333 21.3337 29.3333Z" fill="#BBBBBB"/>
<path d="M29.3333 16.7067V18.6667H25.3333C24.6 18.6667 24 18.0667 24 17.3333V13.3333C24 12.6 24.6 12 25.3333 12H27.0533L28.9867 15.3867C29.2133 15.7867 29.3333 16.24 29.3333 16.7067Z" fill="#BBBBBB"/>
<path d="M17.4393 2.66699H7.58602C5.19935 2.66699 3.19935 4.37366 2.75935 6.64033H8.58602C9.09268 6.64033 9.49268 7.05366 9.49268 7.56033C9.49268 8.06699 9.09268 8.46699 8.58602 8.46699H2.66602V10.307H6.13268C6.63935 10.307 7.05268 10.7203 7.05268 11.227C7.05268 11.7337 6.63935 12.1337 6.13268 12.1337H2.66602V13.9737H3.69268C4.19935 13.9737 4.61268 14.387 4.61268 14.8937C4.61268 15.4003 4.19935 15.8003 3.69268 15.8003H2.66602V16.107C2.66602 16.8403 3.26602 17.4403 3.99935 17.4403H16.1993C17.5593 17.4403 18.666 16.3337 18.666 14.9737V3.89366C18.666 3.21366 18.1193 2.66699 17.4393 2.66699Z" fill="#BBBBBB"/>
<path d="M2.75967 6.64062H2.55967H1.25301C0.746341 6.64062 0.333008 7.05396 0.333008 7.56063C0.333008 8.06729 0.746341 8.46729 1.25301 8.46729H2.46634H2.66634V7.58729C2.66634 7.26729 2.70634 6.94729 2.75967 6.64062Z" fill="#BBBBBB"/>
<path d="M2.46634 10.3066H1.25301C0.746341 10.3066 0.333008 10.72 0.333008 11.2266C0.333008 11.7333 0.746341 12.1333 1.25301 12.1333H2.46634H2.66634V10.3066H2.46634Z" fill="#BBBBBB"/>
<path d="M2.46634 13.9736H1.25301C0.746341 13.9736 0.333008 14.387 0.333008 14.8936C0.333008 15.4003 0.746341 15.8003 1.25301 15.8003H2.46634H2.66634V13.9736H2.46634Z" fill="#BBBBBB"/>
</svg>
