<svg viewBox="0 0 14 14" fill="none" xmlns="http://www.w3.org/2000/svg">
<path d="M10.1792 13.2712C9.52008 13.2712 8.82591 13.1137 8.10841 12.8103C7.40841 12.5128 6.70258 12.1045 6.01425 11.6087C5.33175 11.107 4.67258 10.547 4.04841 9.93449C3.43008 9.31033 2.87008 8.65116 2.37425 7.97449C1.87258 7.27449 1.47008 6.57449 1.18425 5.89783C0.880915 5.17449 0.729248 4.47449 0.729248 3.81533C0.729248 3.36033 0.810915 2.92866 0.968415 2.52616C1.13175 2.11199 1.39425 1.72699 1.75008 1.39449C2.19925 0.951159 2.71258 0.729492 3.26091 0.729492C3.48841 0.729492 3.72175 0.781992 3.92008 0.875326C4.14758 0.980326 4.34008 1.13783 4.48008 1.34783L5.83341 3.25533C5.95591 3.42449 6.04925 3.58783 6.11341 3.75116C6.18925 3.92616 6.23008 4.10116 6.23008 4.27033C6.23008 4.49199 6.16591 4.70783 6.04341 4.91199C5.95591 5.06949 5.82175 5.23866 5.65258 5.40783L5.25591 5.82199C5.26175 5.83949 5.26758 5.85116 5.27341 5.86283C5.34341 5.98533 5.48341 6.19533 5.75175 6.51033C6.03758 6.83699 6.30591 7.13449 6.57425 7.40866C6.91841 7.74699 7.20425 8.01533 7.47258 8.23699C7.80508 8.51699 8.02091 8.65699 8.14925 8.72116L8.13758 8.75033L8.56341 8.33033C8.74425 8.14949 8.91925 8.01533 9.08841 7.92783C9.40925 7.72949 9.81758 7.69449 10.2259 7.86366C10.3776 7.92782 10.5409 8.01533 10.7159 8.13783L12.6526 9.51449C12.8684 9.66033 13.0259 9.84699 13.1192 10.0687C13.2067 10.2903 13.2476 10.4945 13.2476 10.6987C13.2476 10.9787 13.1834 11.2587 13.0609 11.5212C12.9384 11.7837 12.7867 12.0112 12.5942 12.2212C12.2617 12.5887 11.9001 12.8512 11.4801 13.0203C11.0776 13.1837 10.6401 13.2712 10.1792 13.2712ZM3.26091 1.60449C2.94008 1.60449 2.64258 1.74449 2.35675 2.02449C2.08841 2.27533 1.90175 2.54949 1.78508 2.84699C1.66258 3.15033 1.60425 3.47116 1.60425 3.81533C1.60425 4.35783 1.73258 4.94699 1.98925 5.55366C2.25175 6.17199 2.61925 6.81366 3.08591 7.45533C3.55258 8.09699 4.08341 8.72116 4.66675 9.31033C5.25008 9.88783 5.88008 10.4245 6.52758 10.897C7.15758 11.3578 7.80508 11.7312 8.44675 11.9995C9.44425 12.4253 10.3776 12.5245 11.1476 12.2037C11.4451 12.0812 11.7076 11.8945 11.9467 11.6262C12.0809 11.4803 12.1859 11.3228 12.2734 11.1362C12.3434 10.9903 12.3784 10.8387 12.3784 10.687C12.3784 10.5937 12.3609 10.5003 12.3142 10.3953C12.2967 10.3603 12.2617 10.2962 12.1509 10.2203L10.2142 8.84366C10.0976 8.76199 9.99258 8.70366 9.89341 8.66283C9.76508 8.61033 9.71258 8.55783 9.51425 8.68033C9.39758 8.73866 9.29258 8.82616 9.17591 8.94283L8.73258 9.38033C8.50508 9.60199 8.15508 9.65449 7.88675 9.55532L7.72925 9.48533C7.49008 9.35699 7.21008 9.15866 6.90091 8.89616C6.62091 8.65699 6.31758 8.37699 5.95008 8.01533C5.66425 7.72366 5.37841 7.41449 5.08091 7.07033C4.80675 6.74949 4.60841 6.47533 4.48591 6.24783L4.41591 6.07283C4.38091 5.93866 4.36925 5.86283 4.36925 5.78116C4.36925 5.57116 4.44508 5.38449 4.59091 5.23866L5.02841 4.78366C5.14508 4.66699 5.23258 4.55616 5.29091 4.45699C5.33758 4.38116 5.35508 4.31699 5.35508 4.25866C5.35508 4.21199 5.33758 4.14199 5.30841 4.07199C5.26758 3.97866 5.20341 3.87366 5.12175 3.76283L3.76841 1.84949C3.71008 1.76783 3.64008 1.70949 3.55258 1.66866C3.45925 1.62783 3.36008 1.60449 3.26091 1.60449ZM8.13758 8.75616L8.04425 9.15283L8.20175 8.74449C8.17258 8.73866 8.14925 8.74449 8.13758 8.75616Z" fill="#666666"/>
</svg>
