<svg width="18" height="18" viewBox="0 0 18 18" fill="none" xmlns="http://www.w3.org/2000/svg">
<path d="M11.25 2.25H6.75V0.75H11.25V2.25ZM9.75 14.25C9.75 15.0225 9.945 15.75 10.2825 16.3725C9.87 16.455 9.4425 16.5 9 16.5C7.20979 16.5 5.4929 15.7888 4.22703 14.523C2.96116 13.2571 2.25 11.5402 2.25 9.75C2.25 7.95979 2.96116 6.2429 4.22703 4.97703C5.4929 3.71116 7.20979 3 9 3C10.59 3 12.0525 3.555 13.215 4.5L14.28 3.42C14.6625 3.75 15 4.095 15.3375 4.4775L14.2725 5.5425C15.2294 6.73603 15.7506 8.22024 15.75 9.75V10.0125C15.27 9.8475 14.775 9.75 14.25 9.75C11.7675 9.75 9.75 11.7675 9.75 14.25ZM9.75 5.25H8.25V10.5H9.75V5.25ZM16.905 12.66L15.84 11.6025L14.25 13.1925L12.66 11.6025L11.6025 12.66L13.1925 14.25L11.6025 15.84L12.66 16.905L14.25 15.3075L15.84 16.905L16.905 15.84L15.3075 14.25L16.905 12.66Z" fill="#F6A609"/>
</svg>
