<svg viewBox="0 0 16 16" fill="none" xmlns="http://www.w3.org/2000/svg">
<g clip-path="url(#clip0_1457_7241)">
<path d="M16.9941 4.24268L21.2289 8.49322L19.812 9.9048L18.0205 8.10662L18.0078 14.9556L16.0078 14.9519L16.0207 8.0357L14.1552 9.89424L12.7436 8.4774L16.9941 4.24268Z" fill="#52575C"/>
<path d="M4.2425 16.9468L8.47722 21.1974L9.89407 19.7858L8.04237 17.9272L15.0119 17.9402L15.0156 15.9402L8.09957 15.9273L9.90462 14.129L8.49305 12.7121L4.2425 16.9468Z" fill="#52575C"/>
<path d="M12.7119 25.4479L16.9467 29.6985L21.1972 25.4638L19.7856 24.0469L17.9973 25.8286L18.0102 18.9459L16.0102 18.9422L15.9972 25.9117L14.1288 24.0364L12.7119 25.4479Z" fill="#52575C"/>
<path d="M29.6983 16.9943L25.4636 12.7438L24.0467 14.1553L25.8549 15.9702L19.0058 15.9575L19.0021 17.9575L25.8849 17.9703L24.0362 19.8122L25.4478 21.229L29.6983 16.9943Z" fill="#52575C"/>
</g>
<defs>
<clipPath id="clip0_1457_7241">
<rect width="24" height="24" fill="white" transform="translate(17.002) rotate(45.1069)"/>
</clipPath>
</defs>
</svg>
