<svg width="50" height="50" viewBox="0 0 50 50" fill="none" xmlns="http://www.w3.org/2000/svg">
<path d="M50 0H0V1.42515C1.08311 1.42515 1.96101 2.30304 1.96101 3.38616C1.96101 4.46927 1.08311 5.34717 0 5.34717V6.82932C1.08311 6.82932 1.96101 7.70722 1.96101 8.79033C1.96101 9.87345 1.08311 10.7513 0 10.7513V12.2335C1.08311 12.2335 1.96101 13.1114 1.96101 14.1945C1.96101 15.2776 1.08311 16.1555 0 16.1555V17.6377C1.08311 17.6377 1.96101 18.5156 1.96101 19.5987C1.96101 20.6818 1.08311 21.5597 0 21.5597V23.0418C1.08311 23.0418 1.96101 23.9197 1.96101 25.0029C1.96101 26.086 1.08311 26.9639 0 26.9639V28.446C1.08311 28.446 1.96101 29.3239 1.96101 30.407C1.96101 31.4901 1.08311 32.368 0 32.368V33.8502C1.08311 33.8502 1.96101 34.7281 1.96101 35.8112C1.96101 36.8943 1.08311 37.7722 0 37.7722V39.2544C1.08311 39.2544 1.96101 40.1323 1.96101 41.2154C1.96101 42.2985 1.08311 43.1764 0 43.1764V44.6585C1.08311 44.6585 1.96101 45.5364 1.96101 46.6195C1.96101 47.7027 1.08311 48.5806 0 48.5806V50.0057H50V0Z" fill="#00C39F"/>
</svg>
