<svg viewBox="0 0 16 16" fill="none" xmlns="http://www.w3.org/2000/svg">
<path d="M5.33334 3.83301C5.06 3.83301 4.83334 3.60634 4.83334 3.33301V1.33301C4.83334 1.05967 5.06 0.833008 5.33334 0.833008C5.60667 0.833008 5.83334 1.05967 5.83334 1.33301V3.33301C5.83334 3.60634 5.60667 3.83301 5.33334 3.83301Z" fill="#6C757D"/>
<path d="M10.6667 3.83301C10.3933 3.83301 10.1667 3.60634 10.1667 3.33301V1.33301C10.1667 1.05967 10.3933 0.833008 10.6667 0.833008C10.94 0.833008 11.1667 1.05967 11.1667 1.33301V3.33301C11.1667 3.60634 10.94 3.83301 10.6667 3.83301Z" fill="#6C757D"/>
<path d="M5.66667 9.66655C5.58 9.66655 5.49333 9.65322 5.41333 9.61322C5.33333 9.57989 5.26 9.53321 5.19333 9.47321C5.07333 9.34654 5 9.17322 5 8.99988C5 8.91322 5.02 8.82655 5.05333 8.74655C5.08667 8.66655 5.13333 8.59322 5.19333 8.52655C5.26 8.46655 5.33333 8.41987 5.41333 8.38654C5.65333 8.28654 5.95334 8.33989 6.14 8.52655C6.2 8.59322 6.24667 8.66655 6.28 8.74655C6.31333 8.82655 6.33333 8.91322 6.33333 8.99988C6.33333 9.17322 6.26 9.34654 6.14 9.47321C6.01334 9.59321 5.84 9.66655 5.66667 9.66655Z" fill="#6C757D"/>
<path d="M8 9.66658C7.82667 9.66658 7.65333 9.59324 7.52666 9.47324C7.46666 9.40658 7.42 9.33325 7.38667 9.25325C7.35334 9.17325 7.33334 9.08658 7.33334 8.99992C7.33334 8.82658 7.40666 8.65325 7.52666 8.52659C7.71333 8.33992 8.00667 8.27991 8.25334 8.38657C8.33334 8.41991 8.40667 8.46659 8.47334 8.52659C8.59334 8.65325 8.66667 8.82658 8.66667 8.99992C8.66667 9.08658 8.65333 9.17325 8.61333 9.25325C8.58 9.33325 8.53334 9.40658 8.47334 9.47324C8.40667 9.53324 8.33334 9.57992 8.25334 9.61326C8.17334 9.65326 8.08667 9.66658 8 9.66658Z" fill="#6C757D"/>
<path d="M5.66667 11.9996C5.58 11.9996 5.49333 11.9796 5.41333 11.9463C5.33333 11.9129 5.26 11.8663 5.19333 11.8063C5.07333 11.6796 5 11.5129 5 11.3329C5 11.2463 5.02 11.1596 5.05333 11.0796C5.08667 10.9929 5.13333 10.9263 5.19333 10.8596C5.26 10.7996 5.33333 10.7529 5.41333 10.7196C5.65333 10.6129 5.95334 10.6729 6.14 10.8596C6.2 10.9263 6.24667 10.9929 6.28 11.0796C6.31333 11.1596 6.33333 11.2463 6.33333 11.3329C6.33333 11.5129 6.26 11.6796 6.14 11.8063C6.01334 11.9263 5.84 11.9996 5.66667 11.9996Z" fill="#6C757D"/>
<path d="M13.6667 6.55957H2.33334C2.06 6.55957 1.83334 6.3329 1.83334 6.05957C1.83334 5.78624 2.06 5.55957 2.33334 5.55957H13.6667C13.94 5.55957 14.1667 5.78624 14.1667 6.05957C14.1667 6.3329 13.94 6.55957 13.6667 6.55957Z" fill="#6C757D"/>
<path d="M12 15.8333C10.2533 15.8333 8.83334 14.4133 8.83334 12.6667C8.83334 10.92 10.2533 9.5 12 9.5C13.7467 9.5 15.1667 10.92 15.1667 12.6667C15.1667 14.4133 13.7467 15.8333 12 15.8333ZM12 10.5C10.8067 10.5 9.83334 11.4733 9.83334 12.6667C9.83334 13.86 10.8067 14.8333 12 14.8333C13.1933 14.8333 14.1667 13.86 14.1667 12.6667C14.1667 11.4733 13.1933 10.5 12 10.5Z" fill="#6C757D"/>
<path d="M12.9933 13.2002H11C10.7267 13.2002 10.5 12.9735 10.5 12.7002C10.5 12.4269 10.7267 12.2002 11 12.2002H12.9933C13.2667 12.2002 13.4933 12.4269 13.4933 12.7002C13.4933 12.9735 13.2733 13.2002 12.9933 13.2002Z" fill="#6C757D"/>
<path d="M12 14.2199C11.7267 14.2199 11.5 13.9932 11.5 13.7199V11.7266C11.5 11.4532 11.7267 11.2266 12 11.2266C12.2733 11.2266 12.5 11.4532 12.5 11.7266V13.7199C12.5 13.9932 12.2733 14.2199 12 14.2199Z" fill="#6C757D"/>
<path d="M10.2467 15.1663H5.33333C2.9 15.1663 1.5 13.7663 1.5 11.333V5.66634C1.5 3.23301 2.9 1.83301 5.33333 1.83301H10.6667C13.1 1.83301 14.5 3.23301 14.5 5.66634V10.9063C14.5 11.113 14.3733 11.2997 14.1733 11.373C13.98 11.4463 13.76 11.393 13.62 11.233C13.2067 10.7663 12.6133 10.4997 11.9933 10.4997C10.8 10.4997 9.82667 11.473 9.82667 12.6663C9.82667 13.0597 9.93334 13.4464 10.14 13.7797C10.2533 13.9797 10.4 14.1463 10.56 14.2863C10.72 14.4197 10.78 14.6397 10.7067 14.8397C10.6467 15.033 10.46 15.1663 10.2467 15.1663ZM5.33333 2.83301C3.42667 2.83301 2.5 3.75967 2.5 5.66634V11.333C2.5 13.2397 3.42667 14.1663 5.33333 14.1663H9.21334C8.96667 13.713 8.83333 13.1997 8.83333 12.6663C8.83333 10.9197 10.2533 9.49967 12 9.49967C12.5267 9.49967 13.0467 9.63301 13.5 9.87968V5.66634C13.5 3.75967 12.5733 2.83301 10.6667 2.83301H5.33333Z" fill="#6C757D"/>
</svg>
