<svg width="29" height="28" viewBox="0 0 29 28" fill="none" xmlns="http://www.w3.org/2000/svg">
<path d="M4.98021 3.99C5.42354 3.66333 5.90188 3.5 6.40354 3.5H22.5969C23.1102 3.5 23.5652 3.66333 23.9852 3.99C24.4169 4.31667 24.6852 4.73667 24.8369 5.25L26.0385 10.395C26.3302 11.6667 26.0969 12.775 25.3269 13.7317L25.1519 13.9067L25.0002 14.07C24.3352 14.7583 23.5535 15.1667 22.4452 15.1667C21.3369 15.1667 20.4619 14.7233 19.7969 14.0583C19.0619 14.7817 18.1985 15.1667 17.1835 15.1667C16.1919 15.1667 15.2935 14.8167 14.5002 14.0817C13.8469 14.735 12.9135 15.1667 11.9335 15.1667C10.8369 15.1667 9.95021 14.7817 9.21521 14.0583C8.56188 14.6883 7.68688 15.1667 6.59021 15.1667C5.49354 15.1667 4.73521 14.7467 4.04688 14.0817C3.91854 13.965 3.77854 13.825 3.63854 13.685C2.90354 12.74 2.67021 11.6667 2.96188 10.395L4.16354 5.25C4.28021 4.73667 4.53688 4.31667 4.98021 3.99ZM23.7985 10.9433L22.5385 5.79833L20.2985 5.83333L21.0102 11.48C21.0452 11.8533 21.1852 12.1683 21.4419 12.4367C21.6985 12.7167 22.0135 12.8333 22.3752 12.8333C22.8185 12.8333 23.1802 12.67 23.4719 12.3083C23.7985 11.9 23.9035 11.445 23.7985 10.9433ZM8.70188 5.83333H6.40354L5.20188 10.9433C5.09688 11.445 5.20188 11.9 5.52854 12.3083C5.78521 12.67 6.14688 12.8333 6.62521 12.8333C7.39521 12.8333 7.85021 12.4017 7.99021 11.48L8.70188 5.83333ZM13.3335 5.83333H11.0585L10.4169 11.0833V11.27C10.4169 11.6667 10.5452 12.0167 10.8135 12.355C11.0819 12.6933 11.4202 12.8333 11.8169 12.8333C12.2602 12.8333 12.6219 12.6933 12.9135 12.39C13.2052 12.075 13.3335 11.725 13.3335 11.3167V5.83333ZM17.9419 5.83333H15.6669V11.3167C15.6669 11.725 15.7952 12.075 16.0869 12.39C16.3785 12.6933 16.7052 12.8333 17.0669 12.8333C17.5452 12.8333 17.9419 12.6817 18.2452 12.3317C18.5835 11.9817 18.6769 11.5733 18.5835 11.0833L17.9419 5.83333ZM23.9735 16.87L25.6302 18.5267L23.1452 21L25.6302 23.4733L23.9735 25.13L21.5002 22.645L19.0269 25.13L17.3819 23.4733L19.8552 21L17.3819 18.5267L19.0269 16.8817L21.5002 19.355L23.9735 16.87ZM14.5002 16.415C14.8269 16.73 15.2119 16.9867 15.6319 17.1733C14.9202 18.27 14.5002 19.5883 14.5002 21C14.5002 22.2717 14.8385 23.4733 15.4335 24.5H6.33354C5.03854 24.5 4.00021 23.4617 4.00021 22.1667V16.3683C4.77021 17.0917 5.55188 17.5 6.60188 17.5C7.61688 17.5 8.53854 17.08 9.21521 16.3917C9.91521 17.0917 10.8485 17.5 11.9102 17.5C12.9252 17.5 13.8352 17.08 14.5002 16.415Z" fill="white"/>
</svg>
