<svg width="21" height="21" viewBox="0 0 21 21" fill="none" xmlns="http://www.w3.org/2000/svg">
<g clip-path="url(#clip0_20433_16674)">
<path d="M3.74996 10.5C3.74996 9.07504 4.90829 7.91671 6.33329 7.91671H9.66663V6.33337H6.33329C4.03329 6.33337 2.16663 8.20004 2.16663 10.5C2.16663 12.8 4.03329 14.6667 6.33329 14.6667H9.66663V13.0834H6.33329C4.90829 13.0834 3.74996 11.925 3.74996 10.5ZM7.16663 11.3334H13.8333V9.66671H7.16663V11.3334ZM14.6666 6.33337H11.3333V7.91671H14.6666C16.0916 7.91671 17.25 9.07504 17.25 10.5C17.25 11.925 16.0916 13.0834 14.6666 13.0834H11.3333V14.6667H14.6666C16.9666 14.6667 18.8333 12.8 18.8333 10.5C18.8333 8.20004 16.9666 6.33337 14.6666 6.33337Z" fill="black" fill-opacity="1"/>
</g>
<defs>
<clipPath id="clip0_20433_16674">
<rect width="20" height="20" fill="white" transform="translate(0.5 0.5)"/>
</clipPath>
</defs>
</svg>
