<svg width="20" height="20" viewBox="0 0 20 20" fill="none" xmlns="http://www.w3.org/2000/svg">
<path d="M4.16667 4.16666H5.83333V4.99999C5.83333 5.91666 6.58333 6.66666 7.5 6.66666H12.5C13.4167 6.66666 14.1667 5.91666 14.1667 4.99999V4.16666H15.8333V8.33333H17.5V4.16666C17.5 3.24999 16.75 2.49999 15.8333 2.49999H12.35C12 1.53333 11.0833 0.833328 10 0.833328C8.91667 0.833328 8 1.53333 7.65 2.49999H4.16667C3.25 2.49999 2.5 3.24999 2.5 4.16666V15.8333C2.5 16.75 3.25 17.5 4.16667 17.5H9.16667V15.8333H4.16667V4.16666ZM10 2.49999C10.4583 2.49999 10.8333 2.87499 10.8333 3.33333C10.8333 3.79166 10.4583 4.16666 10 4.16666C9.54167 4.16666 9.16667 3.79166 9.16667 3.33333C9.16667 2.87499 9.54167 2.49999 10 2.49999Z" fill="white"/>
<path d="M18.125 10.2083C17.7833 9.86667 17.2167 9.86667 16.875 10.2083L12.925 14.1667L11.0417 12.2917C10.7 11.95 10.1417 11.95 9.79167 12.2917C9.45 12.6333 9.45 13.2 9.79167 13.5417L12.3333 16.075C12.6583 16.4 13.1833 16.4 13.5083 16.075L18.1167 11.4583C18.4667 11.1167 18.4667 10.55 18.125 10.2083V10.2083Z" fill="white"/>
</svg>
