<svg viewBox="0 0 33 32" fill="none" xmlns="http://www.w3.org/2000/svg">
<path d="M26.4876 7.43975H25.9543L21.4476 2.93309C21.0876 2.57309 20.501 2.57309 20.1276 2.93309C19.7676 3.29309 19.7676 3.87975 20.1276 4.25309L23.3143 7.43975H10.3543L13.541 4.25309C13.901 3.89309 13.901 3.30642 13.541 2.93309C13.181 2.57309 12.5943 2.57309 12.221 2.93309L7.72764 7.43975H7.19431C5.99431 7.43975 3.50098 7.43975 3.50098 10.8531C3.50098 12.1464 3.76764 12.9998 4.32764 13.5598C4.64764 13.8931 5.03431 14.0664 5.44764 14.1598C5.83431 14.2531 6.24764 14.2664 6.64764 14.2664H27.021C27.4343 14.2664 27.821 14.2398 28.1943 14.1598C29.3143 13.8931 30.1676 13.0931 30.1676 10.8531C30.1676 7.43975 27.6743 7.43975 26.4876 7.43975Z" fill="#BBBBBB"/>
<path d="M26.2876 16H7.38091C6.55424 16 5.92758 16.7333 6.06091 17.5467L7.18091 24.4C7.55424 26.6933 8.55424 29.3333 12.9942 29.3333H20.4742C24.9676 29.3333 25.7676 27.08 26.2476 24.56L27.5942 17.5867C27.7542 16.76 27.1276 16 26.2876 16ZM20.6742 21.4L16.3409 25.4C16.1542 25.5733 15.9142 25.6667 15.6609 25.6667C15.4076 25.6667 15.1542 25.5733 14.9542 25.3733L12.9542 23.3733C12.5676 22.9867 12.5676 22.3467 12.9542 21.96C13.3542 21.5733 13.9809 21.5733 14.3809 21.96L15.7009 23.28L19.3276 19.9333C19.7276 19.56 20.3676 19.5867 20.7409 19.9867C21.1142 20.4 21.0876 21.0267 20.6742 21.4Z" fill="#BBBBBB"/>
</svg>
