<svg viewBox="0 0 25 24" xmlns="http://www.w3.org/2000/svg">
<path d="M16.7105 9.32245C17.1145 8.94589 17.1368 8.31312 16.7602 7.90911C16.3837 7.50509 15.7509 7.48283 15.3469 7.85938L12.4208 10.5866L9.69354 7.66048C9.31699 7.25647 8.68421 7.23421 8.2802 7.61076C7.87619 7.98731 7.85392 8.62008 8.23048 9.0241L10.9577 11.9502L8.03158 14.6775C7.62756 15.054 7.6053 15.6868 7.98185 16.0908C8.3584 16.4948 8.99118 16.5171 9.39519 16.1405L12.3213 13.4133L15.0485 16.3394C15.4251 16.7434 16.0579 16.7657 16.4619 16.3891C16.8659 16.0126 16.8882 15.3798 16.5116 14.9758L13.7844 12.0497L16.7105 9.32245Z" />
<path fill-rule="evenodd" clip-rule="evenodd" d="M1.37109 12C1.37109 5.92487 6.29596 1 12.3711 1C18.4462 1 23.3711 5.92487 23.3711 12C23.3711 18.0751 18.4462 23 12.3711 23C6.29596 23 1.37109 18.0751 1.37109 12ZM12.3711 21C7.40053 21 3.37109 16.9706 3.37109 12C3.37109 7.02944 7.40053 3 12.3711 3C17.3417 3 21.3711 7.02944 21.3711 12C21.3711 16.9706 17.3417 21 12.3711 21Z" />
</svg>
