<svg width="24" height="24" viewBox="0 0 17 18" fill="none" xmlns="http://www.w3.org/2000/svg">
  <path d="M1.83366 4.00033H0.166992V15.667C0.166992 16.5837 0.916992 17.3337 1.83366 17.3337H13.5003V15.667H1.83366V4.00033ZM15.167 0.666992H5.16699C4.25033 0.666992 3.50033 1.41699 3.50033 2.33366V12.3337C3.50033 13.2503 4.25033 14.0003 5.16699 14.0003H15.167C16.0837 14.0003 16.8337 13.2503 16.8337 12.3337V2.33366C16.8337 1.41699 16.0837 0.666992 15.167 0.666992ZM15.167 12.3337H5.16699V2.33366H15.167V12.3337ZM6.83366 6.50033H13.5003V8.16699H6.83366V6.50033ZM6.83366 9.00033H10.167V10.667H6.83366V9.00033ZM6.83366 4.00033H13.5003V5.66699H6.83366V4.00033Z" fill="white"/>
  </svg>
  