<svg viewBox="0 0 32 32" fill="none" xmlns="http://www.w3.org/2000/svg">
	<g>
		<path d="M31.4983 13.2365L28.4818 12.9456C28.1578 11.6596 27.6389 10.4306 26.9431 9.30147L28.8673 6.97767C29.0296 6.78187 29.0161 6.49477 28.8363 6.31491L25.6291 3.10808C25.4493 2.92822 25.1622 2.91475 24.9664 3.077L22.6464 4.99819C21.5181 4.29885 20.2872 3.78074 18.9985 3.46228L18.7078 0.445752C18.6836 0.193023 18.4713 0.000244141 18.2172 0.000244141H13.8347C13.5809 0.000244141 13.3686 0.193023 13.3444 0.445752L13.0534 3.46228C11.7648 3.78074 10.5341 4.29885 9.40577 4.99819L7.08555 3.077C6.88975 2.91475 6.60264 2.92822 6.42279 3.10808L3.21596 6.31491C3.0361 6.49477 3.02263 6.78187 3.18488 6.97767L5.10909 9.30147C4.41333 10.4306 3.89439 11.6596 3.57044 12.9456L0.553632 13.2365C0.301177 13.2607 0.108398 13.473 0.108398 13.7268V18.2735C0.108398 18.5273 0.301177 18.7396 0.553907 18.7641L3.57044 19.0548C3.88862 20.3435 4.40673 21.5741 5.10607 22.7025L3.18488 25.0227C3.02263 25.2185 3.0361 25.5056 3.21596 25.6854L6.42307 28.8926C6.60292 29.0724 6.88975 29.0859 7.08583 28.9236L9.40935 26.9994C10.5385 27.6952 11.7675 28.2138 13.0537 28.5381L13.3444 31.5546C13.3686 31.8073 13.5809 32.0004 13.835 32.0001H18.2175C18.4713 32.0004 18.6836 31.8073 18.7078 31.5546L18.9988 28.5381C20.2847 28.2141 21.5137 27.6952 22.6429 26.9994L24.9667 28.9236C25.1625 29.0859 25.4496 29.0724 25.6294 28.8926L28.8363 25.6854C29.0161 25.5056 29.0296 25.2185 28.8673 25.0227L26.9459 22.7025C27.6452 21.5741 28.1636 20.3435 28.4818 19.0548L31.4983 18.7641C31.751 18.7396 31.9438 18.5273 31.9438 18.2735V13.7268C31.9438 13.473 31.751 13.2607 31.4983 13.2365ZM30.9582 17.8258L28.0343 18.1074C27.8209 18.128 27.6452 18.2842 27.5998 18.4938C27.2932 19.9101 26.7256 21.257 25.9262 22.4654C25.8052 22.6466 25.8175 22.8853 25.9564 23.0531L27.822 25.3059L25.2496 27.8783L22.9968 26.0127C22.8312 25.8758 22.5958 25.8617 22.4154 25.9781C21.2016 26.7728 19.854 27.3413 18.4378 27.6561C18.2279 27.7015 18.0717 27.8772 18.0511 28.0906L17.7695 31.0145H14.2824L14.0008 28.0906C13.9802 27.8772 13.824 27.7015 13.6144 27.6561C12.1982 27.3413 10.8504 26.7728 9.63678 25.9781C9.4561 25.8617 9.22069 25.8758 9.05514 26.0127L6.80257 27.8783L4.23018 25.3059L6.09581 23.0531C6.23469 22.8853 6.24706 22.6466 6.12634 22.4654C5.32662 21.257 4.75874 19.9103 4.4521 18.4941C4.40673 18.2845 4.231 18.1283 4.0176 18.1077L1.09374 17.8261V14.1746L4.0176 13.893C4.231 13.8723 4.40673 13.7161 4.4521 13.5066C4.76698 12.0903 5.33542 10.7428 6.13019 9.5289C6.24651 9.34822 6.23276 9.11309 6.09553 8.94754L4.2299 6.69469L6.8023 4.12202L9.05486 5.98766C9.22262 6.12653 9.46132 6.13891 9.64255 6.01818C10.8509 5.21847 12.1976 4.65086 13.6139 4.34422C13.8235 4.29912 13.9797 4.1234 14.0003 3.90999L14.2819 0.986138H17.7692L18.0508 3.90999C18.0715 4.1234 18.2277 4.29912 18.4372 4.34422C19.8535 4.65086 21.2002 5.21847 22.4088 6.01818C22.5898 6.13891 22.8288 6.12653 22.9963 5.98766L25.2491 4.12202L27.8218 6.69469L25.9561 8.94754C25.8189 9.11309 25.8049 9.34822 25.9215 9.5289C26.7162 10.7428 27.2847 12.0903 27.5996 13.5066C27.6447 13.7161 27.8204 13.8723 28.0338 13.893L30.9576 14.1746V17.8258H30.9582Z" />
		<path d="M16.0879 6.35522C10.7695 6.35522 6.44287 10.6819 6.44287 16.0002C6.44287 21.3183 10.7695 25.6452 16.0879 25.6452C21.4062 25.6452 25.7328 21.3183 25.7328 16.0002C25.7328 10.6819 21.4062 6.35522 16.0879 6.35522ZM16.0879 24.6596C11.3055 24.6596 7.42849 20.7825 7.42849 16.0002C7.42849 11.2176 11.3055 7.34084 16.0879 7.34084C20.8702 7.34084 24.7472 11.2176 24.7472 16.0002C24.7417 20.7803 20.868 24.6541 16.0879 24.6596Z" />
		<path d="M16.043 12.2014C16.9794 12.2003 17.7384 11.4412 17.7395 10.5046V9.995C17.7395 9.05778 16.9799 8.29822 16.043 8.29822C15.1058 8.29822 14.3462 9.05778 14.3462 9.995V10.5046C14.3473 11.4412 15.1063 12.2003 16.043 12.2014ZM15.191 9.99472C15.191 9.52446 15.5724 9.14303 16.043 9.14303C16.5135 9.14303 16.8947 9.52446 16.8947 9.99472V10.5046C16.8947 10.9748 16.5135 11.3563 16.043 11.3563C15.5724 11.3563 15.191 10.9748 15.191 10.5046V9.99472Z" />
		<path d="M17.5797 12.4778H17.2577C17.1133 12.4778 16.9791 12.5515 16.9016 12.6733L16.6059 13.137L16.2737 12.9511C16.1423 12.8776 15.9814 12.8796 15.8519 12.9566L15.5766 13.1202L15.323 12.6868C15.2471 12.5573 15.1085 12.4778 14.9584 12.4778H14.5956C13.6353 12.4789 12.8568 13.2571 12.856 14.2177V17.5764C12.856 17.6663 12.8846 17.7538 12.9376 17.8261L13.9255 19.1736L14.1455 22.5669C14.1697 23.2024 14.693 23.7043 15.3288 23.7021H16.8529C17.4887 23.7043 18.0118 23.2024 18.0362 22.5672L18.2562 19.1728L19.238 17.8242C19.2905 17.7521 19.3189 17.6649 19.3189 17.5755V14.2175C19.3178 13.2571 18.5398 12.4792 17.5797 12.4778ZM18.4743 17.4383L17.5013 18.7748C17.4543 18.8395 17.4265 18.9162 17.4213 18.9959L17.1931 22.5179C17.1928 22.5221 17.1925 22.5259 17.1925 22.53C17.1865 22.7129 17.036 22.8581 16.8529 22.8576H15.3288C15.1457 22.8581 14.9952 22.7129 14.9894 22.53C14.9894 22.5259 14.9892 22.5221 14.9886 22.5179L14.7604 18.9959C14.7551 18.9156 14.7271 18.8386 14.6795 18.7735L13.7005 17.4383V14.2177C13.701 13.7236 14.1015 13.3231 14.5956 13.3226H14.7164L15.0623 13.9141C15.1382 14.0434 15.2768 14.1229 15.427 14.1229C15.5043 14.1229 15.5802 14.1014 15.6462 14.0613L16.0735 13.8077L16.5416 14.0695C16.7368 14.1787 16.9838 14.1165 17.104 13.9276L17.4892 13.3231H17.5792C18.0731 13.3237 18.4732 13.7238 18.4738 14.2177V17.4389L18.4743 17.4383Z" />
	</g>
</svg>
