<svg width="20" height="20" viewBox="0 0 20 20" fill="none" xmlns="http://www.w3.org/2000/svg">
<path d="M10.8333 5.83366H9.16667V9.16699H5.83334V10.8337H9.16667V14.167H10.8333V10.8337H14.1667V9.16699H10.8333V5.83366ZM10 1.66699C5.40001 1.66699 1.66667 5.40033 1.66667 10.0003C1.66667 14.6003 5.40001 18.3337 10 18.3337C14.6 18.3337 18.3333 14.6003 18.3333 10.0003C18.3333 5.40033 14.6 1.66699 10 1.66699ZM10 16.667C6.32501 16.667 3.33334 13.6753 3.33334 10.0003C3.33334 6.32533 6.32501 3.33366 10 3.33366C13.675 3.33366 16.6667 6.32533 16.6667 10.0003C16.6667 13.6753 13.675 16.667 10 16.667Z" fill="white"/>
</svg>
