<svg viewBox="0 0 14 14" fill="none" xmlns="http://www.w3.org/2000/svg">
<path d="M2.18773 1.0097C1.86229 0.684266 1.33465 0.684266 1.00921 1.0097C0.683777 1.33514 0.683777 1.86278 1.00921 2.18821L5.82149 7.00049L1.00926 11.8127C0.683828 12.1382 0.683827 12.6658 1.00926 12.9912C1.3347 13.3167 1.86234 13.3167 2.18778 12.9912L7.00001 8.17901L11.8122 12.9912C12.1377 13.3167 12.6653 13.3167 12.9907 12.9912C13.3162 12.6658 13.3162 12.1382 12.9907 11.8127L8.17852 7.00049L12.9908 2.18821C13.3162 1.86278 13.3162 1.33514 12.9908 1.0097C12.6654 0.684266 12.1377 0.684266 11.8123 1.0097L7.00001 5.82198L2.18773 1.0097Z" fill="#D44333"/>
</svg>
