<svg viewBox="0 0 20 20" fill="none" xmlns="http://www.w3.org/2000/svg">
<path d="M13.4916 1.66675H6.50829C3.47496 1.66675 1.66663 3.47508 1.66663 6.50841V13.4834C1.66663 16.5251 3.47496 18.3334 6.50829 18.3334H13.4833C16.5166 18.3334 18.325 16.5251 18.325 13.4917V6.50841C18.3333 3.47508 16.525 1.66675 13.4916 1.66675ZM9.99996 15.2084C8.50829 15.2084 7.34163 14.4667 6.54996 13.7334V14.3251C6.54996 14.6667 6.26663 14.9501 5.92496 14.9501C5.58329 14.9501 5.29996 14.6667 5.29996 14.3251V12.0334C5.29996 11.6917 5.58329 11.4084 5.92496 11.4084H7.99163C8.33329 11.4084 8.61663 11.6917 8.61663 12.0334C8.61663 12.3751 8.33329 12.6584 7.99163 12.6584H7.24163C7.85829 13.2751 8.81663 13.9584 9.99996 13.9584C12.1833 13.9584 13.9583 12.1834 13.9583 10.0001C13.9583 9.65842 14.2416 9.37508 14.5833 9.37508C14.925 9.37508 15.2083 9.65842 15.2083 10.0001C15.2083 12.8751 12.875 15.2084 9.99996 15.2084ZM15.2083 7.95008C15.2083 7.97508 15.2083 8.00008 15.2083 8.01675C15.2 8.10842 15.175 8.19175 15.1333 8.26675C15.0916 8.34175 15.0333 8.40841 14.9583 8.46675C14.9 8.50841 14.8333 8.54175 14.7583 8.56675C14.7 8.58342 14.6416 8.59175 14.5833 8.59175H12.5583C12.2166 8.59175 11.9333 8.30842 11.9333 7.96675C11.9333 7.62508 12.2166 7.34175 12.5583 7.34175H13.25C12.5833 6.72508 11.5083 6.04175 10.0166 6.04175C7.83329 6.04175 6.05829 7.81675 6.05829 10.0001C6.05829 10.3417 5.77496 10.6251 5.43329 10.6251C5.09163 10.6251 4.79163 10.3417 4.79163 10.0001C4.79163 7.12508 7.12496 4.79175 9.99996 4.79175C11.7916 4.79175 13.1083 5.56675 13.9583 6.30841V5.67508C13.9583 5.33341 14.2416 5.05008 14.5833 5.05008C14.925 5.05008 15.2083 5.33341 15.2083 5.67508V7.95008Z" fill="#00C39F"/>
</svg>
