<svg width="16" height="10" viewBox="0 0 16 10" fill="none" xmlns="http://www.w3.org/2000/svg">
<path d="M0.25 0V9H7.99C7.83064 8.51597 7.74962 8.00959 7.75 7.5H3.25C3.25 7.10218 3.09196 6.72064 2.81066 6.43934C2.52936 6.15804 2.14782 6 1.75 6V3C2.5825 3 3.25 2.3325 3.25 1.5H10.75C10.75 1.89782 10.908 2.27936 11.1893 2.56066C11.4706 2.84196 11.8522 3 12.25 3V3.045C12.7525 3.045 13.255 3.135 13.75 3.3V0H0.25ZM7 2.25C5.725 2.2725 4.75 3.225 4.75 4.5C4.75 5.775 5.725 6.705 7 6.75C7.285 6.75 7.5775 6.69 7.855 6.5775C8.0575 5.7525 8.395 4.9725 9.2275 4.2075C9.1375 3.21 8.1925 2.2275 7 2.25ZM14.2225 4.7025L11.32 7.6275L10.3075 6.6L9.25 7.665L11.3125 9.75L15.2725 5.76L14.2225 4.7025Z" fill="#2AC769"/>
</svg>
