<svg  viewBox="0 0 16 16" fill="none" xmlns="http://www.w3.org/2000/svg">
<path d="M11.8597 15.1605H4.13967C2.31301 15.1605 0.833008 13.6738 0.833008 11.8471V6.90713C0.833008 6.00046 1.39301 4.86046 2.11301 4.30046L5.70634 1.50046C6.78634 0.660464 8.51301 0.620464 9.63301 1.40713L13.753 4.2938C14.5463 4.84713 15.1663 6.0338 15.1663 7.00046V11.8538C15.1663 13.6738 13.6863 15.1605 11.8597 15.1605ZM6.31967 2.28713L2.72634 5.08713C2.25301 5.46046 1.83301 6.30713 1.83301 6.90713V11.8471C1.83301 13.1205 2.86634 14.1605 4.13967 14.1605H11.8597C13.133 14.1605 14.1663 13.1271 14.1663 11.8538V7.00046C14.1663 6.36047 13.7063 5.4738 13.1797 5.1138L9.05968 2.22713C8.29967 1.6938 7.04634 1.72046 6.31967 2.28713Z" fill="white"/>
<path d="M9 12.5H7C5.62 12.5 4.5 11.38 4.5 10V8C4.5 6.62 5.62 5.5 7 5.5H9C10.38 5.5 11.5 6.62 11.5 8V10C11.5 11.38 10.38 12.5 9 12.5ZM7 6.5C6.17333 6.5 5.5 7.17333 5.5 8V10C5.5 10.8267 6.17333 11.5 7 11.5H9C9.82667 11.5 10.5 10.8267 10.5 10V8C10.5 7.17333 9.82667 6.5 9 6.5H7Z" fill="white"/>
<path d="M8 12.5C7.72667 12.5 7.5 12.2733 7.5 12V6C7.5 5.72667 7.72667 5.5 8 5.5C8.27333 5.5 8.5 5.72667 8.5 6V12C8.5 12.2733 8.27333 12.5 8 12.5Z" fill="white"/>
<path d="M11 9.5H5C4.72667 9.5 4.5 9.27333 4.5 9C4.5 8.72667 4.72667 8.5 5 8.5H11C11.2733 8.5 11.5 8.72667 11.5 9C11.5 9.27333 11.2733 9.5 11 9.5Z" fill="white"/>
</svg>
