<svg viewBox="0 0 14 14" fill="none" xmlns="http://www.w3.org/2000/svg">
<path d="M4.6665 3.35352C4.42734 3.35352 4.229 3.15518 4.229 2.91602V1.16602C4.229 0.926849 4.42734 0.728516 4.6665 0.728516C4.90567 0.728516 5.104 0.926849 5.104 1.16602V2.91602C5.104 3.15518 4.90567 3.35352 4.6665 3.35352Z" fill="#00C39F"/>
<path d="M9.3335 3.35352C9.09433 3.35352 8.896 3.15518 8.896 2.91602V1.16602C8.896 0.926849 9.09433 0.728516 9.3335 0.728516C9.57266 0.728516 9.771 0.926849 9.771 1.16602V2.91602C9.771 3.15518 9.57266 3.35352 9.3335 3.35352Z" fill="#00C39F"/>
<path d="M8.75016 6.85352H4.0835C3.84433 6.85352 3.646 6.65518 3.646 6.41602C3.646 6.17685 3.84433 5.97852 4.0835 5.97852H8.75016C8.98933 5.97852 9.18766 6.17685 9.18766 6.41602C9.18766 6.65518 8.98933 6.85352 8.75016 6.85352Z" fill="#00C39F"/>
<path d="M7.00016 9.1875H4.0835C3.84433 9.1875 3.646 8.98917 3.646 8.75C3.646 8.51083 3.84433 8.3125 4.0835 8.3125H7.00016C7.23933 8.3125 7.43766 8.51083 7.43766 8.75C7.43766 8.98917 7.23933 9.1875 7.00016 9.1875Z" fill="#00C39F"/>
<path d="M8.75 13.2702H5.25C1.97167 13.2702 1.3125 11.7243 1.3125 9.22768V5.62852C1.3125 2.86352 2.24583 1.73768 4.64333 1.60352H9.33333C11.7542 1.73768 12.6875 2.86352 12.6875 5.62852V9.33268C12.6875 9.57185 12.4892 9.77018 12.25 9.77018C12.0108 9.77018 11.8125 9.57185 11.8125 9.33268V5.62852C11.8125 3.08518 10.9667 2.57185 9.31 2.47852H4.66667C3.03333 2.57185 2.1875 3.08518 2.1875 5.62852V9.22768C2.1875 11.4618 2.61333 12.3952 5.25 12.3952H8.75C8.98917 12.3952 9.1875 12.5935 9.1875 12.8327C9.1875 13.0718 8.98917 13.2702 8.75 13.2702Z" fill="#00C39F"/>
<path d="M8.75 13.2715C8.69167 13.2715 8.63917 13.2598 8.58083 13.2365C8.4175 13.1665 8.3125 13.009 8.3125 12.834V11.084C8.3125 9.67232 9.08833 8.89648 10.5 8.89648H12.25C12.425 8.89648 12.5883 9.00148 12.6525 9.16482C12.7225 9.32815 12.6817 9.51482 12.5592 9.64315L9.05917 13.1432C8.9775 13.2248 8.86667 13.2715 8.75 13.2715ZM10.5 9.77148C9.57833 9.77148 9.1875 10.1623 9.1875 11.084V11.7782L11.1942 9.77148H10.5Z" fill="#00C39F"/>
</svg>
