<svg width="20" height="20" viewBox="0 0 20 20" fill="none" xmlns="http://www.w3.org/2000/svg">
<g clip-path="url(#clip0_21196_17055)">
<path d="M14.1667 5.83325H10.8334V7.49992H14.1667C15.5417 7.49992 16.6667 8.62492 16.6667 9.99992C16.6667 11.3749 15.5417 12.4999 14.1667 12.4999H10.8334V14.1666H14.1667C16.4667 14.1666 18.3334 12.2999 18.3334 9.99992C18.3334 7.69992 16.4667 5.83325 14.1667 5.83325ZM9.16675 12.4999H5.83341C4.45841 12.4999 3.33341 11.3749 3.33341 9.99992C3.33341 8.62492 4.45841 7.49992 5.83341 7.49992H9.16675V5.83325H5.83341C3.53341 5.83325 1.66675 7.69992 1.66675 9.99992C1.66675 12.2999 3.53341 14.1666 5.83341 14.1666H9.16675V12.4999ZM6.66675 9.16659H13.3334V10.8333H6.66675V9.16659Z" fill="black" fill-opacity="1"/>
</g>
<defs>
<clipPath id="clip0_21196_17055">
<rect width="20" height="20" fill="white"/>
</clipPath>
</defs>
</svg>
