<svg width="18" height="18" viewBox="0 0 18 18" fill="none" xmlns="http://www.w3.org/2000/svg">
<path d="M13.5 6.75C14.7426 6.75 15.75 5.74264 15.75 4.5C15.75 3.25736 14.7426 2.25 13.5 2.25C12.2574 2.25 11.25 3.25736 11.25 4.5C11.25 5.74264 12.2574 6.75 13.5 6.75Z" fill="#2AC769"/>
<path d="M9.75 4.5C9.75 3.966 9.86475 3.45975 10.0665 3H4.5C3.67275 3 3 3.67275 3 4.5V13.5C3 14.3273 3.67275 15 4.5 15H13.5C14.3273 15 15 14.3273 15 13.5V7.9335C14.5274 8.14196 14.0165 8.24974 13.5 8.25C12.5054 8.25 11.5516 7.85491 10.8483 7.15165C10.1451 6.44839 9.75 5.49456 9.75 4.5Z" fill="#2AC769"/>
</svg>
