<svg width="24" height="24" viewBox="0 0 19 14" fill="none" xmlns="http://www.w3.org/2000/svg">
  <path d="M16.1663 3.66634H13.6663V0.333008H1.99967C1.08301 0.333008 0.333008 1.08301 0.333008 1.99967V11.1663H1.99967C1.99967 12.5497 3.11634 13.6663 4.49967 13.6663C5.88301 13.6663 6.99967 12.5497 6.99967 11.1663H11.9997C11.9997 12.5497 13.1163 13.6663 14.4997 13.6663C15.883 13.6663 16.9997 12.5497 16.9997 11.1663H18.6663V6.99967L16.1663 3.66634ZM15.7497 4.91634L17.383 6.99967H13.6663V4.91634H15.7497ZM4.49967 11.9997C4.04134 11.9997 3.66634 11.6247 3.66634 11.1663C3.66634 10.708 4.04134 10.333 4.49967 10.333C4.95801 10.333 5.33301 10.708 5.33301 11.1663C5.33301 11.6247 4.95801 11.9997 4.49967 11.9997ZM6.34967 9.49967C5.89134 8.99134 5.24134 8.66634 4.49967 8.66634C3.75801 8.66634 3.10801 8.99134 2.64967 9.49967H1.99967V1.99967H11.9997V9.49967H6.34967ZM14.4997 11.9997C14.0413 11.9997 13.6663 11.6247 13.6663 11.1663C13.6663 10.708 14.0413 10.333 14.4997 10.333C14.958 10.333 15.333 10.708 15.333 11.1663C15.333 11.6247 14.958 11.9997 14.4997 11.9997Z" fill="white"/>
  </svg>
  