<svg viewBox="0 0 33 32" fill="none" xmlns="http://www.w3.org/2000/svg">
<path d="M19.3003 2.66699H13.0337C11.647 2.66699 10.5137 3.78699 10.5137 5.17366V6.42699C10.5137 7.81366 11.6337 8.93366 13.0203 8.93366H19.3003C20.687 8.93366 21.807 7.81366 21.807 6.42699V5.17366C21.8203 3.78699 20.687 2.66699 19.3003 2.66699Z" fill="#BBBBBB"/>
<path d="M23.1537 6.42664C23.1537 8.54664 21.4204 10.28 19.3004 10.28H13.0337C10.9137 10.28 9.18038 8.54664 9.18038 6.42664C9.18038 5.67997 8.38038 5.21331 7.71371 5.55997C5.83371 6.55997 4.55371 8.54664 4.55371 10.8266V23.3733C4.55371 26.6533 7.23371 29.3333 10.5137 29.3333H21.8204C25.1004 29.3333 27.7804 26.6533 27.7804 23.3733V10.8266C27.7804 8.54664 26.5004 6.55997 24.6204 5.55997C23.9537 5.21331 23.1537 5.67997 23.1537 6.42664ZM20.6204 16.9733L15.287 22.3066C15.087 22.5066 14.8337 22.6 14.5804 22.6C14.327 22.6 14.0737 22.5066 13.8737 22.3066L11.8737 20.3066C11.487 19.92 11.487 19.28 11.8737 18.8933C12.2604 18.5066 12.9004 18.5066 13.287 18.8933L14.5804 20.1866L19.207 15.56C19.5937 15.1733 20.2337 15.1733 20.6204 15.56C21.007 15.9466 21.007 16.5866 20.6204 16.9733Z" fill="#BBBBBB"/>
</svg>
