<svg width="54" height="54" viewBox="0 0 64 64" fill="none" xmlns="http://www.w3.org/2000/svg">
<path d="M31.9999 5.33301C46.7275 5.33301 58.6666 17.2721 58.6666 31.9997C58.6666 46.7273 46.7275 58.6663 31.9999 58.6663C17.2723 58.6663 5.33325 46.7273 5.33325 31.9997C5.33325 17.2721 17.2723 5.33301 31.9999 5.33301ZM31.9999 8.66634C19.1133 8.66634 8.66658 19.113 8.66658 31.9997C8.66658 44.8863 19.1133 55.333 31.9999 55.333C44.8866 55.333 55.3332 44.8863 55.3332 31.9997C55.3332 19.113 44.8866 8.66634 31.9999 8.66634ZM43.5118 23.4878C44.1626 24.1387 44.1626 25.194 43.5118 25.8448L28.8451 40.5115C28.1942 41.1624 27.1389 41.1624 26.4881 40.5115L20.4881 34.5115C19.8372 33.8606 19.8372 32.8054 20.4881 32.1545C21.1389 31.5036 22.1942 31.5036 22.8451 32.1545L27.6666 36.976L41.1547 23.4878C41.8056 22.837 42.8609 22.837 43.5118 23.4878Z" fill="#00C39F"/>
</svg>
