<svg width="24" height="24" viewBox="0 0 24 24" xmlns="http://www.w3.org/2000/svg">
	<path fill-rule="evenodd" clip-rule="evenodd" d="M17.5915 15.4575C20.0352 12.319 19.8145 7.77832 16.9293 4.89313C13.8051 1.76894 8.7398 1.76894 5.61561 4.89313C2.49141 8.01733 2.49141 13.0826 5.61561 16.2068C8.50079 19.092 13.0415 19.3128 16.1799 16.869C16.1935 16.8843 16.2076 16.8993 16.2222 16.9139L20.4648 21.1566C20.8554 21.5471 21.4885 21.5471 21.8791 21.1566C22.2696 20.7661 22.2696 20.1329 21.8791 19.7424L17.6364 15.4997C17.6218 15.4851 17.6068 15.471 17.5915 15.4575ZM15.5151 6.30735C17.8582 8.65049 17.8582 12.4495 15.5151 14.7926C13.172 17.1358 9.37297 17.1358 7.02982 14.7926C4.68667 12.4495 4.68667 8.65049 7.02982 6.30735C9.37297 3.9642 13.172 3.9642 15.5151 6.30735Z" />
</svg>
