<svg width="35" height="35" viewBox="0 0 41 41" fill="none" xmlns="http://www.w3.org/2000/svg">
	<path d="M30.15 38.4002H10.85C6.28337 38.4002 2.58337 34.6835 2.58337 30.1168V17.7668C2.58337 15.5002 3.98337 12.6502 5.78337 11.2502L14.7667 4.25018C17.4667 2.15018 21.7834 2.05018 24.5834 4.01685L34.8834 11.2335C36.8667 12.6168 38.4167 15.5835 38.4167 18.0002V30.1335C38.4167 34.6835 34.7167 38.4002 30.15 38.4002ZM16.3 6.21685L7.31671 13.2169C6.13337 14.1502 5.08337 16.2669 5.08337 17.7668V30.1168C5.08337 33.3002 7.66671 35.9002 10.85 35.9002H30.15C33.3334 35.9002 35.9167 33.3168 35.9167 30.1335V18.0002C35.9167 16.4002 34.7667 14.1835 33.45 13.2835L23.15 6.06685C21.25 4.73352 18.1167 4.80018 16.3 6.21685Z" fill="#00C39F"/>
	<path d="M13 29.2501C12.6833 29.2501 12.3667 29.1334 12.1167 28.8834C11.6333 28.4001 11.6333 27.6001 12.1167 27.1167L17.45 21.7834C17.7167 21.5167 18.0667 21.3834 18.45 21.4167C18.8167 21.4501 19.15 21.6501 19.3667 21.9667L21.1833 24.7001L27.1 18.7834C27.5833 18.3001 28.3833 18.3001 28.8667 18.7834C29.35 19.2667 29.35 20.0667 28.8667 20.5501L21.8667 27.5501C21.6 27.8167 21.25 27.9501 20.8667 27.9167C20.5 27.8834 20.1667 27.6834 19.95 27.3667L18.1333 24.6334L13.8833 28.8834C13.6333 29.1334 13.3167 29.2501 13 29.2501Z" fill="#00C39F"/>
	<path d="M28 24.2498C27.3166 24.2498 26.75 23.6832 26.75 22.9998V20.9165H24.6666C23.9833 20.9165 23.4166 20.3498 23.4166 19.6665C23.4166 18.9832 23.9833 18.4165 24.6666 18.4165H28C28.6833 18.4165 29.25 18.9832 29.25 19.6665V22.9998C29.25 23.6832 28.6833 24.2498 28 24.2498Z" fill="#00C39F"/>
	</svg>
	