<svg viewBox="0 0 16 16" fill="none" xmlns="http://www.w3.org/2000/svg">
<path d="M7.99996 8.49967C5.88663 8.49967 4.16663 6.77967 4.16663 4.66634C4.16663 2.55301 5.88663 0.833008 7.99996 0.833008C10.1133 0.833008 11.8333 2.55301 11.8333 4.66634C11.8333 6.77967 10.1133 8.49967 7.99996 8.49967ZM7.99996 1.83301C6.43996 1.83301 5.16663 3.10634 5.16663 4.66634C5.16663 6.22634 6.43996 7.49967 7.99996 7.49967C9.55996 7.49967 10.8333 6.22634 10.8333 4.66634C10.8333 3.10634 9.55996 1.83301 7.99996 1.83301Z" fill="#6C757D"/>
<path d="M2.27344 15.1667C2.0001 15.1667 1.77344 14.94 1.77344 14.6667C1.77344 11.82 4.56679 9.5 8.00012 9.5C8.67345 9.5 9.33347 9.58668 9.97347 9.76668C10.2401 9.84002 10.3934 10.1133 10.3201 10.38C10.2468 10.6467 9.97345 10.8 9.70679 10.7267C9.16012 10.5734 8.58679 10.5 8.00012 10.5C5.12012 10.5 2.77344 12.3667 2.77344 14.6667C2.77344 14.94 2.54677 15.1667 2.27344 15.1667Z" fill="#6C757D"/>
<path d="M12 15.1663C11.2134 15.1663 10.4667 14.873 9.88672 14.3464C9.65339 14.1464 9.4467 13.8997 9.2867 13.6263C8.99337 13.1463 8.83337 12.5797 8.83337 11.9997C8.83337 11.1663 9.15339 10.3863 9.72673 9.79301C10.3267 9.17301 11.1334 8.83301 12 8.83301C12.9067 8.83301 13.7667 9.21969 14.3534 9.88635C14.8734 10.4664 15.1667 11.213 15.1667 11.9997C15.1667 12.253 15.1334 12.5063 15.0667 12.7463C15 13.0463 14.8734 13.3597 14.7 13.633C14.1467 14.5797 13.1067 15.1663 12 15.1663ZM12 9.83301C11.4067 9.83301 10.86 10.0663 10.4467 10.4863C10.0534 10.893 9.83337 11.4263 9.83337 11.9997C9.83337 12.393 9.94002 12.7797 10.1467 13.113C10.2534 13.2997 10.3934 13.4663 10.5534 13.6063C10.9534 13.973 11.4667 14.173 12 14.173C12.7534 14.173 13.4667 13.773 13.8534 13.1263C13.9667 12.9397 14.0534 12.7264 14.1001 12.5197C14.1467 12.3464 14.1667 12.1797 14.1667 12.0063C14.1667 11.473 13.9667 10.9597 13.6067 10.5597C13.2067 10.093 12.62 9.83301 12 9.83301Z" fill="#6C757D"/>
<path d="M12.9998 12.4863H11.0065C10.7331 12.4863 10.5065 12.2597 10.5065 11.9863C10.5065 11.713 10.7331 11.4863 11.0065 11.4863H12.9998C13.2731 11.4863 13.4998 11.713 13.4998 11.9863C13.4998 12.2597 13.2731 12.4863 12.9998 12.4863Z" fill="#6C757D"/>
</svg>
