<svg width="18" height="18" viewBox="0 0 18 18" fill="none" xmlns="http://www.w3.org/2000/svg">
<g clip-path="url(#clip0_19135_162697)">
<path d="M16.5 2.25H1.5C0.675 2.25 0 2.925 0 3.75V14.25C0 15.075 0.675 15.75 1.5 15.75H16.5C17.325 15.75 17.9925 15.075 17.9925 14.25L18 3.75C18 2.925 17.325 2.25 16.5 2.25ZM6 4.5C7.245 4.5 8.25 5.505 8.25 6.75C8.25 7.995 7.245 9 6 9C4.755 9 3.75 7.995 3.75 6.75C3.75 5.505 4.755 4.5 6 4.5ZM10.5 13.5H1.5V12.75C1.5 11.25 4.5 10.425 6 10.425C7.5 10.425 10.5 11.25 10.5 12.75V13.5ZM13.3875 10.5H14.6175L15.75 12L14.2575 13.4925C13.275 12.7575 12.5475 11.7075 12.21 10.5C12.075 10.02 12 9.5175 12 9C12 8.4825 12.075 7.98 12.21 7.5C12.5475 6.285 13.275 5.2425 14.2575 4.5075L15.75 6L14.6175 7.5H13.3875C13.2225 7.9725 13.125 8.475 13.125 9C13.125 9.525 13.2225 10.0275 13.3875 10.5Z" fill="#F6A609"/>
</g>
<defs>
<clipPath id="clip0_19135_162697">
<rect width="18" height="18" fill="white"/>
</clipPath>
</defs>
</svg>
