<svg width="21" height="20" viewBox="0 0 21 20" fill="none" xmlns="http://www.w3.org/2000/svg">
<path d="M16 16.9989C16.2761 16.9989 16.5 17.2227 16.5 17.4989C16.5 17.7443 16.3231 17.9485 16.0899 17.9908L16 17.9989H5C4.72386 17.9989 4.5 17.775 4.5 17.4989C4.5 17.2534 4.67688 17.0493 4.91012 17.0069L5 16.9989H16ZM10.5001 2.0011C10.7456 2.0011 10.9497 2.1781 10.992 2.41137L11 2.50124L10.996 14.2951L14.6414 10.6468C14.8148 10.473 15.0842 10.4535 15.2792 10.5883L15.3485 10.6461C15.5222 10.8195 15.5418 11.0889 15.407 11.2839L15.3492 11.3532L10.8574 15.8532C10.785 15.9259 10.6957 15.9715 10.6021 15.9902L10.4961 16C10.3351 16 10.1919 15.9239 10.1005 15.8057L5.64386 11.3538C5.44846 11.1587 5.44823 10.8421 5.64336 10.6467C5.8168 10.473 6.08621 10.4535 6.28117 10.5884L6.35046 10.6462L9.996 14.2871L10 2.50095C10.0001 2.22481 10.224 2.0011 10.5001 2.0011Z" fill="white"/>
</svg>
