<svg viewBox="0 0 44 33" fill="none" xmlns="http://www.w3.org/2000/svg">
<path d="M38 8.49219H32V0.492188H4C1.8 0.492188 0 2.29219 0 4.49219V26.4922H4C4 29.8122 6.68 32.4922 10 32.4922C13.32 32.4922 16 29.8122 16 26.4922H28C28 29.8122 30.68 32.4922 34 32.4922C37.32 32.4922 40 29.8122 40 26.4922H44V16.4922L38 8.49219ZM37 11.4922L40.92 16.4922H32V11.4922H37ZM10 28.4922C8.9 28.4922 8 27.5922 8 26.4922C8 25.3922 8.9 24.4922 10 24.4922C11.1 24.4922 12 25.3922 12 26.4922C12 27.5922 11.1 28.4922 10 28.4922ZM14.44 22.4922C13.34 21.2722 11.78 20.4922 10 20.4922C8.22 20.4922 6.66 21.2722 5.56 22.4922H4V4.49219H28V22.4922H14.44ZM34 28.4922C32.9 28.4922 32 27.5922 32 26.4922C32 25.3922 32.9 24.4922 34 24.4922C35.1 24.4922 36 25.3922 36 26.4922C36 27.5922 35.1 28.4922 34 28.4922Z" fill="white"/>
</svg>
