<svg width="20" height="20" viewBox="0 0 20 20" fill="none" xmlns="http://www.w3.org/2000/svg">
<path d="M10.875 13.5419H9.30836C8.20003 13.5419 7.29169 12.6085 7.29169 11.4585C7.29169 11.1169 7.57502 10.8335 7.91669 10.8335C8.25835 10.8335 8.54169 11.1169 8.54169 11.4585C8.54169 11.9169 8.88336 12.2919 9.30836 12.2919H10.875C11.2 12.2919 11.4584 12.0002 11.4584 11.6419C11.4584 11.1919 11.3334 11.1252 11.05 11.0252L8.54169 10.1502C8.00835 9.95852 7.29169 9.57519 7.29169 8.35019C7.29169 7.30853 8.1167 6.4502 9.12503 6.4502H10.6917C11.8 6.4502 12.7084 7.38353 12.7084 8.53353C12.7084 8.8752 12.425 9.15853 12.0834 9.15853C11.7417 9.15853 11.4584 8.8752 11.4584 8.53353C11.4584 8.0752 11.1167 7.7002 10.6917 7.7002H9.12503C8.80003 7.7002 8.54169 7.99186 8.54169 8.35019C8.54169 8.80019 8.66668 8.86685 8.95001 8.96685L11.4584 9.84186C11.9917 10.0335 12.7084 10.4169 12.7084 11.6419C12.7084 12.6919 11.8833 13.5419 10.875 13.5419Z" fill="#25282B"/>
<path d="M10 13.875C9.96985 13.875 9.93857 13.8627 9.91293 13.8371C9.88728 13.8114 9.875 13.7801 9.875 13.75V6.25C9.875 6.21985 9.88728 6.18857 9.91293 6.16293C9.93857 6.13728 9.96985 6.125 10 6.125C10.0301 6.125 10.0614 6.13728 10.0871 6.16293C10.1127 6.18857 10.125 6.21985 10.125 6.25V13.75C10.125 13.7801 10.1127 13.8114 10.0871 13.8371C10.0614 13.8627 10.0301 13.875 10 13.875Z" fill="#262626" stroke="#25282B"/>
<path d="M10 18.9587C5.05835 18.9587 1.04169 14.942 1.04169 10.0003C1.04169 5.05866 5.05835 1.04199 10 1.04199C10.3417 1.04199 10.625 1.32533 10.625 1.66699C10.625 2.00866 10.3417 2.29199 10 2.29199C5.75002 2.29199 2.29169 5.75033 2.29169 10.0003C2.29169 14.2503 5.75002 17.7087 10 17.7087C14.25 17.7087 17.7084 14.2503 17.7084 10.0003C17.7084 9.65866 17.9917 9.37533 18.3334 9.37533C18.675 9.37533 18.9584 9.65866 18.9584 10.0003C18.9584 14.942 14.9417 18.9587 10 18.9587Z" fill="#25282B"/>
<path d="M18.3333 5.62533C17.9917 5.62533 17.7083 5.34199 17.7083 5.00033V2.29199H15C14.6583 2.29199 14.375 2.00866 14.375 1.66699C14.375 1.32533 14.6583 1.04199 15 1.04199H18.3333C18.675 1.04199 18.9583 1.32533 18.9583 1.66699V5.00033C18.9583 5.34199 18.675 5.62533 18.3333 5.62533Z" fill="#262626"/>
<path d="M14.1666 6.45853C14.0083 6.45853 13.85 6.40019 13.725 6.27519C13.4833 6.03353 13.4833 5.63353 13.725 5.39186L17.8916 1.2252C18.1333 0.983529 18.5333 0.983529 18.7749 1.2252C19.0166 1.46686 19.0166 1.86686 18.7749 2.10853L14.6083 6.27519C14.4833 6.40019 14.325 6.45853 14.1666 6.45853Z" fill="#262626"/>
</svg>

