<svg viewBox="0 0 25 25" xmlns="http://www.w3.org/2000/svg">
	<path fill-rule="evenodd" clip-rule="evenodd" d="M12.0688 5.79239L13.1558 4.7054C15.3037 2.55751 18.7861 2.55751 20.934 4.7054C23.0819 6.85328 23.0819 10.3357 20.934 12.4836L12.0952 21.3224L12.0934 21.3206L12.067 21.3469L3.22821 12.5081C1.08032 10.3602 1.08032 6.87781 3.22821 4.72993C5.37609 2.58205 8.8585 2.58205 11.0064 4.72993L12.0688 5.79239ZM12.0934 18.4922L7.15714 13.5559L5.70633 12.1549L5.70488 12.1564L4.64242 11.0939C3.27559 9.72706 3.27559 7.51098 4.64242 6.14414C6.00925 4.77731 8.22533 4.77731 9.59217 6.14414L12.0678 8.61974L12.075 8.6125L12.0761 8.61358L14.57 6.11961C15.9369 4.75277 18.153 4.75277 19.5198 6.11961C20.8866 7.48644 20.8866 9.70252 19.5198 11.0694L16.9804 13.6088L16.9786 13.607L12.0934 18.4922Z" />
</svg>
