<svg width="16" height="16" viewBox="0 0 16 16" fill="none" xmlns="http://www.w3.org/2000/svg">
<path d="M12.8933 9.65967L12.2266 8.55301C12.0866 8.30634 11.96 7.83967 11.96 7.56634V5.87967C11.96 4.31301 11.04 2.95967 9.71331 2.32634C9.36665 1.71301 8.72665 1.33301 7.99332 1.33301C7.26665 1.33301 6.61332 1.72634 6.26665 2.34634C4.96665 2.99301 4.06665 4.33301 4.06665 5.87967V7.56634C4.06665 7.83967 3.93998 8.30634 3.79998 8.54634L3.12665 9.65967C2.85998 10.1063 2.79998 10.5997 2.96665 11.053C3.12665 11.4997 3.50665 11.8463 3.99998 12.013C5.29332 12.453 6.65332 12.6663 8.01332 12.6663C9.37332 12.6663 10.7333 12.453 12.0266 12.0197C12.4933 11.8663 12.8533 11.513 13.0266 11.053C13.2 10.593 13.1533 10.0863 12.8933 9.65967Z" fill="white"/>
<path d="M9.88666 13.3397C9.60666 14.113 8.86666 14.6663 7.99999 14.6663C7.47333 14.6663 6.95333 14.453 6.58666 14.073C6.37333 13.873 6.21333 13.6063 6.12 13.333C6.20666 13.3463 6.29333 13.353 6.38666 13.3663C6.53999 13.3863 6.69999 13.4063 6.85999 13.4197C7.23999 13.453 7.62666 13.473 8.01333 13.473C8.39333 13.473 8.77333 13.453 9.14666 13.4197C9.28666 13.4063 9.42666 13.3997 9.55999 13.3797C9.66666 13.3663 9.77333 13.353 9.88666 13.3397Z" fill="white"/>
</svg>

