<svg viewBox="0 0 14 14" fill="none" xmlns="http://www.w3.org/2000/svg">
<path d="M9.33301 13.2712H4.66634C2.90467 13.2712 1.89551 12.262 1.89551 10.5003V4.81283C1.89551 2.97533 2.82884 2.04199 4.66634 2.04199C4.90551 2.04199 5.10384 2.24033 5.10384 2.47949C5.10384 2.71283 5.19718 2.93449 5.36051 3.09782C5.52384 3.26116 5.74551 3.35449 5.97884 3.35449H8.02051C8.50467 3.35449 8.89551 2.96366 8.89551 2.47949C8.89551 2.24033 9.09384 2.04199 9.33301 2.04199C11.1705 2.04199 12.1038 2.97533 12.1038 4.81283V10.5003C12.1038 12.262 11.0947 13.2712 9.33301 13.2712ZM4.28716 2.92866C3.36549 3.00449 2.77051 3.41866 2.77051 4.81283V10.5003C2.77051 11.7953 3.37134 12.3962 4.66634 12.3962H9.33301C10.628 12.3962 11.2288 11.7953 11.2288 10.5003V4.81283C11.2288 3.41866 10.6339 3.01033 9.71219 2.92866C9.51386 3.67533 8.83134 4.22949 8.02051 4.22949H5.97884C5.51217 4.22949 5.07468 4.04866 4.74218 3.71616C4.52051 3.49449 4.36883 3.22616 4.28716 2.92866Z" fill="#666666"/>
<path d="M8.02116 4.22949H5.97949C5.51283 4.22949 5.07533 4.04866 4.74283 3.71616C4.41033 3.38366 4.22949 2.94616 4.22949 2.47949C4.22949 1.51699 5.01699 0.729492 5.97949 0.729492H8.02116C8.48783 0.729492 8.92532 0.910328 9.25782 1.24283C9.59032 1.57533 9.77116 2.01283 9.77116 2.47949C9.77116 3.44199 8.98366 4.22949 8.02116 4.22949ZM5.97949 1.60449C5.49533 1.60449 5.10449 1.99533 5.10449 2.47949C5.10449 2.71283 5.19783 2.93449 5.36116 3.09782C5.52449 3.26116 5.74616 3.35449 5.97949 3.35449H8.02116C8.50533 3.35449 8.89616 2.96366 8.89616 2.47949C8.89616 2.24616 8.80282 2.02449 8.63949 1.86116C8.47616 1.69783 8.25449 1.60449 8.02116 1.60449H5.97949Z" fill="#666666"/>
<path d="M7.00033 8.02051H4.66699C4.42783 8.02051 4.22949 7.82217 4.22949 7.58301C4.22949 7.34384 4.42783 7.14551 4.66699 7.14551H7.00033C7.23949 7.14551 7.43783 7.34384 7.43783 7.58301C7.43783 7.82217 7.23949 8.02051 7.00033 8.02051Z" fill="#666666"/>
<path d="M9.33366 10.3545H4.66699C4.42783 10.3545 4.22949 10.1562 4.22949 9.91699C4.22949 9.67783 4.42783 9.47949 4.66699 9.47949H9.33366C9.57283 9.47949 9.77116 9.67783 9.77116 9.91699C9.77116 10.1562 9.57283 10.3545 9.33366 10.3545Z" fill="#666666"/>
</svg>
