<svg width="32" height="32" viewBox="0 0 32 32" fill="none" xmlns="http://www.w3.org/2000/svg">
<g id="ph:chat-circle-dots-bold">
<path id="Vector" d="M14.9999 16C14.9999 16.3955 14.8826 16.7822 14.6629 17.1111C14.4431 17.44 14.1308 17.6964 13.7653 17.8477C13.3999 17.9991 12.9977 18.0387 12.6098 17.9615C12.2218 17.8844 11.8654 17.6939 11.5857 17.4142C11.306 17.1345 11.1155 16.7781 11.0384 16.3902C10.9612 16.0022 11.0008 15.6001 11.1522 15.2346C11.3036 14.8692 11.5599 14.5568 11.8888 14.337C12.2177 14.1173 12.6044 14 12.9999 14C13.5304 14 14.0391 14.2107 14.4142 14.5858C14.7892 14.9608 14.9999 15.4695 14.9999 16ZM18.9999 14C18.6044 14 18.2177 14.1173 17.8888 14.337C17.5599 14.5568 17.3036 14.8692 17.1522 15.2346C17.0008 15.6001 16.9612 16.0022 17.0384 16.3902C17.1155 16.7781 17.306 17.1345 17.5857 17.4142C17.8654 17.6939 18.2218 17.8844 18.6098 17.9615C18.9977 18.0387 19.3999 17.9991 19.7653 17.8477C20.1308 17.6964 20.4431 17.44 20.6629 17.1111C20.8826 16.7822 20.9999 16.3955 20.9999 16C20.9999 15.4695 20.7892 14.9608 20.4142 14.5858C20.0391 14.2107 19.5304 14 18.9999 14ZM29.4999 16C29.5004 18.3124 28.9069 20.5862 27.7763 22.6034C26.6456 24.6206 25.0158 26.3136 23.043 27.52C21.0702 28.7264 18.8205 29.4059 16.5097 29.4932C14.1989 29.5805 11.9044 29.0728 9.84619 28.0187L5.79244 29.375C5.35114 29.5237 4.87708 29.5462 4.42367 29.44C3.97026 29.3337 3.55554 29.103 3.22625 28.7737C2.89696 28.4444 2.66619 28.0297 2.55995 27.5762C2.45371 27.1228 2.47622 26.6488 2.62494 26.2075L3.97619 22.1537C3.04831 20.3362 2.54454 18.3319 2.50278 16.2917C2.46102 14.2514 2.88234 12.2282 3.73507 10.3742C4.58781 8.52022 5.84976 6.88368 7.42604 5.58762C9.00233 4.29157 10.8519 3.36974 12.8358 2.89143C14.8196 2.41313 16.8861 2.3908 18.8798 2.82613C20.8735 3.26146 22.7426 4.14311 24.3466 5.40481C25.9505 6.6665 27.2475 8.2754 28.1401 10.1105C29.0327 11.9457 29.4976 13.9593 29.4999 16ZM26.4999 16C26.4993 14.3894 26.1282 12.8006 25.4153 11.3564C24.7024 9.91215 23.6669 8.65129 22.3888 7.67133C21.1106 6.69136 19.6242 6.01856 18.0445 5.70495C16.4647 5.39135 14.834 5.44536 13.2785 5.8628C11.7229 6.28024 10.2843 7.04993 9.07379 8.11232C7.86331 9.1747 6.91344 10.5013 6.29767 11.9895C5.6819 13.4777 5.41674 15.0877 5.52269 16.6947C5.62864 18.3018 6.10287 19.863 6.90869 21.2575C7.0152 21.4414 7.08142 21.6458 7.10297 21.8572C7.12452 22.0686 7.10091 22.2821 7.03369 22.4837L5.79244 26.2075L9.51619 24.9662C9.66938 24.9152 9.82974 24.889 9.99119 24.8887C10.2546 24.8892 10.5133 24.959 10.7412 25.0912C12.3375 26.0149 14.1489 26.5018 15.9931 26.503C17.8374 26.5042 19.6494 26.0196 21.2469 25.098C22.8444 24.1765 24.1709 22.8504 25.0931 21.2532C26.0153 19.6561 26.5005 17.8442 26.4999 16Z" fill="white"/>
</g>
</svg>
