<svg viewBox="0 0 14 14" fill="none" xmlns="http://www.w3.org/2000/svg">
<path d="M5.82771 13.1537C5.79854 13.1537 5.76937 13.1538 5.74021 13.1421C3.50604 12.6871 1.69187 11.0421 1.01521 8.86042C0.945207 8.62708 1.07354 8.38208 1.30104 8.31208C1.53438 8.24208 1.77937 8.37042 1.84937 8.59792C2.43271 10.4762 3.99021 11.8879 5.91521 12.2787C6.15438 12.3254 6.30604 12.5588 6.25354 12.7979C6.21271 13.0079 6.02604 13.1537 5.82771 13.1537Z" fill="#666666"/>
<path d="M12.8038 6.84283C12.5821 6.84283 12.3896 6.67366 12.3663 6.45199C12.0863 3.68699 9.77631 1.60449 6.99964 1.60449C4.21714 1.60449 1.91298 3.68699 1.63298 6.44616C1.60964 6.68533 1.39964 6.86616 1.15464 6.83699C0.915476 6.81366 0.740472 6.59783 0.763806 6.35866C1.09047 3.15033 3.77381 0.729492 6.99964 0.729492C10.2313 0.729492 12.9146 3.15033 13.2355 6.35866C13.2588 6.59783 13.0838 6.81366 12.8446 6.83699C12.833 6.84283 12.8155 6.84283 12.8038 6.84283Z" fill="#666666"/>
<path d="M8.17255 13.1537C7.96839 13.1537 7.78755 13.0137 7.74672 12.8037C7.70005 12.5645 7.85172 12.337 8.08505 12.2903C9.99838 11.8995 11.5559 10.4995 12.1451 8.63284C12.2151 8.3995 12.4659 8.27117 12.6934 8.347C12.9267 8.417 13.0492 8.66784 12.9792 8.89534C12.2909 11.0653 10.4826 12.6928 8.26005 13.1478C8.23089 13.1478 8.20172 13.1537 8.17255 13.1537Z" fill="#666666"/>
</svg>
