<svg viewBox="0 0 16 16" fill="none" xmlns="http://www.w3.org/2000/svg">
<path d="M7.02669 14.6263C6.87336 14.6263 6.72669 14.5597 6.62669 14.4264L5.95335 13.5263C5.81335 13.3397 5.6267 13.233 5.4267 13.2197C5.2267 13.2063 5.02668 13.2997 4.86668 13.4663C3.90001 14.4997 3.16669 14.413 2.81335 14.2797C2.45335 14.1397 1.84668 13.6797 1.84668 12.1997V4.69301C1.84668 1.73301 2.70001 0.833008 5.49335 0.833008H10.5267C13.32 0.833008 14.1734 1.73301 14.1734 4.69301V7.533C14.1734 7.80633 13.9467 8.033 13.6734 8.033C13.4 8.033 13.1734 7.80633 13.1734 7.533V4.69301C13.1734 2.28635 12.7534 1.83301 10.5267 1.83301H5.49335C3.26668 1.83301 2.84668 2.28635 2.84668 4.69301V12.1997C2.84668 12.8997 3.02001 13.2863 3.18001 13.3463C3.30001 13.393 3.6267 13.3263 4.13336 12.7863C4.50003 12.3997 4.98002 12.193 5.48002 12.2197C5.97335 12.2463 6.44002 12.5064 6.75336 12.9264L7.43335 13.8263C7.60002 14.0463 7.55335 14.3597 7.33335 14.5263C7.23335 14.5997 7.12669 14.6263 7.02669 14.6263Z" fill="#6C757D"/>
<path d="M12.1333 14.7667C10.68 14.7667 9.5 13.5867 9.5 12.1333C9.5 10.68 10.68 9.5 12.1333 9.5C13.5867 9.5 14.7667 10.68 14.7667 12.1333C14.7667 13.5867 13.5867 14.7667 12.1333 14.7667ZM12.1333 10.5C11.2333 10.5 10.5 11.2333 10.5 12.1333C10.5 13.0333 11.2333 13.7667 12.1333 13.7667C13.0333 13.7667 13.7667 13.0333 13.7667 12.1333C13.7667 11.2333 13.0333 10.5 12.1333 10.5Z" fill="#6C757D"/>
<path d="M14.6666 15.167C14.54 15.167 14.4133 15.1203 14.3133 15.0203L13.6466 14.3536C13.4533 14.1603 13.4533 13.8403 13.6466 13.647C13.84 13.4536 14.16 13.4536 14.3533 13.647L15.02 14.3136C15.2133 14.507 15.2133 14.827 15.02 15.0203C14.92 15.1203 14.7933 15.167 14.6666 15.167Z" fill="#6C757D"/>
<path d="M10.6667 5.16699H5.33334C5.06 5.16699 4.83334 4.94033 4.83334 4.66699C4.83334 4.39366 5.06 4.16699 5.33334 4.16699H10.6667C10.94 4.16699 11.1667 4.39366 11.1667 4.66699C11.1667 4.94033 10.94 5.16699 10.6667 5.16699Z" fill="#6C757D"/>
<path d="M10 7.83301H6C5.72667 7.83301 5.5 7.60634 5.5 7.33301C5.5 7.05967 5.72667 6.83301 6 6.83301H10C10.2733 6.83301 10.5 7.05967 10.5 7.33301C10.5 7.60634 10.2733 7.83301 10 7.83301Z" fill="#6C757D"/>
</svg>
