<?xml version="1.0" standalone="no"?>
<!DOCTYPE svg PUBLIC "-//W3C//DTD SVG 1.0//EN" "http://www.w3.org/TR/2001/REC-SVG-20010904/DTD/svg10.dtd">
<svg xmlns="http://www.w3.org/2000/svg" xmlns:xlink="http://www.w3.org/1999/xlink" id="body_1" width="24" height="24">

<g transform="matrix(1.5 0 0 1.5 0 0)">
    <path d="M12.9585 9.83329C 13.5835 9.83329 14.1335 9.49163 14.4168 8.97496L14.4168 8.97496L17.4002 3.56663C 17.7085 3.01663 17.3085 2.33329 16.6752 2.33329L16.6752 2.33329L4.34183 2.33329L3.5585 0.666626L0.833496 0.666626L0.833496 2.33329L2.50016 2.33329L5.50016 8.65829L4.37516 10.6916C 3.76683 11.8083 4.56683 13.1666 5.8335 13.1666L5.8335 13.1666L15.8335 13.1666L15.8335 11.5L5.8335 11.5L6.75016 9.83329L12.9585 9.83329zM5.1335 3.99996L15.2585 3.99996L12.9585 8.16663L7.1085 8.16663L5.1335 3.99996zM5.8335 14C 4.91683 14 4.17516 14.75 4.17516 15.6666C 4.17516 16.5833 4.91683 17.3333 5.8335 17.3333C 6.75016 17.3333 7.50016 16.5833 7.50016 15.6666C 7.50016 14.75 6.75016 14 5.8335 14zM14.1668 14C 13.2502 14 12.5085 14.75 12.5085 15.6666C 12.5085 16.5833 13.2502 17.3333 14.1668 17.3333C 15.0835 17.3333 15.8335 16.5833 15.8335 15.6666C 15.8335 14.75 15.0835 14 14.1668 14z" stroke="none" fill="#FFFFFF" fill-rule="nonzero" />
</g>
</svg>