<svg width="40" height="40" viewBox="0 0 40 40" fill="none" xmlns="http://www.w3.org/2000/svg">
  <path d="M19.9998 23.3332V26.6665C17.3477 26.6665 14.8041 27.7201 12.9288 29.5954C11.0534 31.4708 9.99984 34.0143 9.99984 36.6665H6.6665C6.6665 33.1303 8.07126 29.7389 10.5717 27.2384C13.0722 24.7379 16.4636 23.3332 19.9998 23.3332ZM19.9998 21.6665C14.4748 21.6665 9.99984 17.1915 9.99984 11.6665C9.99984 6.1415 14.4748 1.6665 19.9998 1.6665C25.5248 1.6665 29.9998 6.1415 29.9998 11.6665C29.9998 17.1915 25.5248 21.6665 19.9998 21.6665ZM19.9998 18.3332C23.6832 18.3332 26.6665 15.3498 26.6665 11.6665C26.6665 7.98317 23.6832 4.99984 19.9998 4.99984C16.3165 4.99984 13.3332 7.98317 13.3332 11.6665C13.3332 15.3498 16.3165 18.3332 19.9998 18.3332ZM24.3248 31.3532C24.1135 30.4639 24.1135 29.5374 24.3248 28.6482L22.6715 27.6932L24.3382 24.8065L25.9915 25.7615C26.6551 25.133 27.4573 24.6694 28.3332 24.4082V22.4998H31.6665V24.4082C32.5532 24.6715 33.3532 25.1415 34.0082 25.7615L35.6615 24.8065L37.3282 27.6932L35.6748 28.6482C35.8859 29.5369 35.8859 30.4627 35.6748 31.3515L37.3282 32.3065L35.6615 35.1932L34.0082 34.2382C33.3446 34.8667 32.5424 35.3303 31.6665 35.5915V37.4998H28.3332V35.5915C27.4573 35.3303 26.6551 34.8667 25.9915 34.2382L24.3382 35.1932L22.6715 32.3065L24.3248 31.3532ZM29.9998 32.4998C30.6629 32.4998 31.2988 32.2364 31.7676 31.7676C32.2364 31.2988 32.4998 30.6629 32.4998 29.9998C32.4998 29.3368 32.2364 28.7009 31.7676 28.2321C31.2988 27.7632 30.6629 27.4998 29.9998 27.4998C29.3368 27.4998 28.7009 27.7632 28.2321 28.2321C27.7632 28.7009 27.4998 29.3368 27.4998 29.9998C27.4998 30.6629 27.7632 31.2988 28.2321 31.7676C28.7009 32.2364 29.3368 32.4998 29.9998 32.4998Z" fill="#33CFB2"/>
  </svg>
  