<svg width="16" height="16" viewBox="0 0 16 16" fill="none" xmlns="http://www.w3.org/2000/svg">
<path d="M10 15.1673H6.00004C2.38004 15.1673 0.833374 13.6207 0.833374 10.0007L0.833374 6.00065C0.833374 2.38065 2.38004 0.833984 6.00004 0.833984L10 0.833984C13.62 0.833984 15.1667 2.38065 15.1667 6.00065V10.0007C15.1667 13.6207 13.62 15.1673 10 15.1673ZM6.00004 1.83398C2.92671 1.83398 1.83337 2.92732 1.83337 6.00065L1.83337 10.0007C1.83337 13.074 2.92671 14.1673 6.00004 14.1673H10C13.0734 14.1673 14.1667 13.074 14.1667 10.0007V6.00065C14.1667 2.92732 13.0734 1.83398 10 1.83398L6.00004 1.83398Z" fill="#00c39f "/>
<path d="M10.3533 9.47471C10.2266 9.47471 10.1 9.42805 9.99998 9.32805L7.99998 7.32805L5.99998 9.32805C5.80665 9.52138 5.48665 9.52138 5.29332 9.32805C5.09998 9.13471 5.09998 8.81471 5.29332 8.62138L7.64665 6.26805C7.83998 6.07471 8.15998 6.07471 8.35332 6.26805L10.7066 8.62138C10.9 8.81471 10.9 9.13471 10.7066 9.32805C10.6066 9.42805 10.48 9.47471 10.3533 9.47471Z" fill="#00c39f "/>
</svg>
