<svg width="18" height="18" viewBox="0 0 18 18" fill="none" xmlns="http://www.w3.org/2000/svg">
<g clip-path="url(#clip0_19035_161002)">
<g clip-path="url(#clip1_19035_161002)">
<path d="M11.9173 8.67051L11.3298 8.08301L9.00065 10.4122L6.67148 8.08301L6.08398 8.67051L8.41315 10.9997L6.08398 13.3288L6.67148 13.9163L9.00065 11.5872L11.3298 13.9163L11.9173 13.3288L9.58815 10.9997L11.9173 8.67051Z" fill="#FB4E4E"/>
</g>
<path d="M15 2.25H14.25V0.75H12.75V2.25H5.25V0.75H3.75V2.25H3C2.175 2.25 1.5 2.925 1.5 3.75V15.75C1.5 16.575 2.175 17.25 3 17.25H15C15.825 17.25 16.5 16.575 16.5 15.75V3.75C16.5 2.925 15.825 2.25 15 2.25ZM15 15.75H3V6H15V15.75Z" fill="#FB4E4E"/>
</g>
<defs>
<clipPath id="clip0_19035_161002">
<rect width="18" height="18" fill="white"/>
</clipPath>
<clipPath id="clip1_19035_161002">
<rect width="10" height="10" fill="white" transform="translate(4 6)"/>
</clipPath>
</defs>
</svg>
