<svg width="18" height="18" viewBox="0 0 18 18" fill="none" xmlns="http://www.w3.org/2000/svg">
<path d="M15 4.5H1.5V1.5H15V4.5ZM12.375 9H11.25V12.75L13.9575 14.37L14.52 13.455L12.375 12.1875V9ZM17.25 12C17.25 14.9025 14.9025 17.25 12 17.25C10.215 17.25 8.6475 16.3575 7.695 15H2.25V5.25H14.25V7.26C16.02 8.1075 17.25 9.9075 17.25 12ZM6 9H7.695C8.1225 8.3925 8.67 7.875 9.3075 7.5H6.375C6.165 7.5 6 7.665 6 7.875V9ZM15.75 12C15.75 9.93 14.07 8.25 12 8.25C9.93 8.25 8.25 9.93 8.25 12C8.25 14.07 9.93 15.75 12 15.75C14.07 15.75 15.75 14.07 15.75 12Z" fill="#007EFF"/>
</svg>
