<svg viewBox="0 0 32 32" fill="none" xmlns="http://www.w3.org/2000/svg">
<path d="M22.6663 11.6262C22.4129 11.6262 22.1596 11.5329 21.9596 11.3329L19.2929 8.66624C18.9063 8.27957 18.9063 7.63957 19.2929 7.2529C19.6796 6.86624 20.3196 6.86624 20.7063 7.2529L22.6663 9.2129L27.2929 4.59957C27.6796 4.2129 28.3196 4.2129 28.7063 4.59957C29.0929 4.98624 29.0929 5.62624 28.7063 6.0129L23.3729 11.3462C23.1729 11.5196 22.9196 11.6262 22.6663 11.6262Z" fill="#BBBBBB"/>
<path d="M14.7337 19.9337L12.267 22.4003C11.747 22.9203 10.9203 22.9203 10.387 22.4137C10.2403 22.267 10.0937 22.1337 9.94699 21.987C8.57366 20.6003 7.33366 19.147 6.22699 17.627C5.13366 16.107 4.25366 14.587 3.61366 13.0803C2.98699 11.5603 2.66699 10.107 2.66699 8.72033C2.66699 7.81366 2.82699 6.94699 3.14699 6.14699C3.46699 5.33366 3.97366 4.58699 4.68033 3.92033C5.53366 3.08033 6.46699 2.66699 7.45366 2.66699C7.82699 2.66699 8.20033 2.74699 8.53366 2.90699C8.88033 3.06699 9.18699 3.30699 9.42699 3.65366L12.5203 8.01366C12.7603 8.34699 12.9337 8.65366 13.0537 8.94699C13.1737 9.22699 13.2403 9.50699 13.2403 9.76033C13.2403 10.0803 13.147 10.4003 12.9603 10.707C12.787 11.0137 12.5337 11.3337 12.2137 11.6537L11.2003 12.707C11.0537 12.8537 10.987 13.027 10.987 13.2403C10.987 13.347 11.0003 13.4403 11.027 13.547C11.067 13.6537 11.107 13.7337 11.1337 13.8137C11.3737 14.2537 11.787 14.827 12.3737 15.5203C12.9737 16.2137 13.6137 16.9203 14.307 17.627C14.4403 17.7603 14.587 17.8937 14.7203 18.027C15.2537 18.547 15.267 19.4003 14.7337 19.9337Z" fill="#BBBBBB"/>
<path d="M29.2931 24.4397C29.2931 24.8131 29.2265 25.1997 29.0931 25.5731C29.0531 25.6797 29.0131 25.7864 28.9598 25.8931C28.7331 26.3731 28.4398 26.8264 28.0531 27.2531C27.3998 27.9731 26.6798 28.4931 25.8665 28.8264C25.8531 28.8264 25.8398 28.8397 25.8265 28.8397C25.0398 29.1597 24.1865 29.3331 23.2665 29.3331C21.9065 29.3331 20.4531 29.0131 18.9198 28.3597C17.3865 27.7064 15.8531 26.8264 14.3331 25.7197C13.8131 25.3331 13.2931 24.9464 12.7998 24.5331L17.1598 20.1731C17.5331 20.4531 17.8665 20.6664 18.1465 20.8131C18.2131 20.8397 18.2931 20.8797 18.3865 20.9197C18.4931 20.9597 18.5998 20.9731 18.7198 20.9731C18.9465 20.9731 19.1198 20.8931 19.2665 20.7464L20.2798 19.7464C20.6131 19.4131 20.9331 19.1597 21.2398 18.9997C21.5465 18.8131 21.8531 18.7197 22.1865 18.7197C22.4398 18.7197 22.7065 18.7731 22.9998 18.8931C23.2931 19.0131 23.5998 19.1864 23.9331 19.4131L28.3465 22.5464C28.6931 22.7864 28.9331 23.0664 29.0798 23.3997C29.2131 23.7331 29.2931 24.0664 29.2931 24.4397Z" fill="#BBBBBB"/>
</svg>
