<svg viewBox="0 0 16 16" fill="none" xmlns="http://www.w3.org/2000/svg">
<path d="M8.00022 8.8669C7.91355 8.8669 7.82688 8.84692 7.74688 8.80025L1.86023 5.39359C1.62023 5.25359 1.54021 4.94691 1.68021 4.70691C1.82021 4.46691 2.12021 4.38689 2.36688 4.52689L8.00022 7.7869L13.6002 4.54691C13.8402 4.40691 14.1469 4.49359 14.2869 4.72693C14.4269 4.96693 14.3402 5.27357 14.1069 5.41357L8.26023 8.80025C8.17356 8.84025 8.08689 8.8669 8.00022 8.8669Z" fill="white"/>
<path d="M8 14.907C7.72667 14.907 7.5 14.6804 7.5 14.407V8.36035C7.5 8.08702 7.72667 7.86035 8 7.86035C8.27333 7.86035 8.5 8.08702 8.5 8.36035V14.407C8.5 14.6804 8.27333 14.907 8 14.907Z" fill="white"/>
<path d="M8.00041 15.1663C7.41374 15.1663 6.83374 15.0397 6.37374 14.7863L2.81374 12.8064C1.84707 12.273 1.09375 10.9863 1.09375 9.87967V6.11299C1.09375 5.00633 1.84707 3.72636 2.81374 3.18636L6.37374 1.21301C7.28707 0.706341 8.71374 0.706341 9.62707 1.21301L13.1871 3.19299C14.1537 3.72632 14.9071 5.013 14.9071 6.11967V9.88635C14.9071 10.993 14.1537 12.273 13.1871 12.813L9.62707 14.7863C9.16708 15.0397 8.58707 15.1663 8.00041 15.1663ZM8.00041 1.833C7.58041 1.833 7.16708 1.91967 6.86041 2.08634L3.30041 4.06632C2.66041 4.42632 2.09375 5.37966 2.09375 6.11967V9.88635C2.09375 10.6197 2.66041 11.5797 3.30041 11.9397L6.86041 13.9197C7.46708 14.2597 8.53373 14.2597 9.1404 13.9197L12.7004 11.9397C13.3404 11.5797 13.9071 10.6263 13.9071 9.88635V6.11967C13.9071 5.38633 13.3404 4.42632 12.7004 4.06632L9.1404 2.08634C8.83373 1.91967 8.42041 1.833 8.00041 1.833Z" fill="white"/>
<path d="M11.3338 9.32637C11.0604 9.32637 10.8338 9.09971 10.8338 8.82637V6.67973L4.75378 3.17305C4.51378 3.03305 4.43377 2.72637 4.57377 2.49304C4.71377 2.25304 5.01378 2.17303 5.25378 2.31303L11.5804 5.96639C11.7338 6.05305 11.8338 6.2197 11.8338 6.3997V8.83972C11.8338 9.09972 11.6071 9.32637 11.3338 9.32637Z" fill="white"/>
</svg>
