<svg viewBox="0 0 16 16" fill="none" xmlns="http://www.w3.org/2000/svg">
<path d="M7.34016 1.33325C4.02683 1.33325 1.3335 4.02659 1.3335 7.33992C1.3335 10.6533 4.02683 13.3466 7.34016 13.3466C10.6535 13.3466 13.3468 10.6533 13.3468 7.33992C13.3468 4.02659 10.6535 1.33325 7.34016 1.33325ZM9.00016 7.83325H5.66683C5.3935 7.83325 5.16683 7.60659 5.16683 7.33325C5.16683 7.05992 5.3935 6.83325 5.66683 6.83325H9.00016C9.2735 6.83325 9.50016 7.05992 9.50016 7.33325C9.50016 7.60659 9.2735 7.83325 9.00016 7.83325Z" fill="white"/>
<path d="M14.6599 12.6333C14.4399 12.2267 13.9732 12 13.3465 12C12.8732 12 12.4665 12.1933 12.2265 12.5267C11.9865 12.86 11.9332 13.3067 12.0799 13.7533C12.3665 14.62 12.8665 14.8133 13.1399 14.8467C13.1799 14.8533 13.2199 14.8533 13.2665 14.8533C13.5599 14.8533 14.0132 14.7267 14.4532 14.0667C14.8065 13.5533 14.8732 13.04 14.6599 12.6333Z" fill="white"/>
</svg>
