<svg width="16" height="16" viewBox="0 0 16 16" fill="none" xmlns="http://www.w3.org/2000/svg">
<path d="M1.33334 7.99992C1.33334 9.31846 1.72434 10.6074 2.45688 11.7037C3.18942 12.8 4.23061 13.6545 5.44879 14.1591C6.66696 14.6637 8.0074 14.7957 9.30061 14.5385C10.5938 14.2813 11.7817 13.6463 12.7141 12.714C13.6464 11.7816 14.2813 10.5937 14.5386 9.30052C14.7958 8.00731 14.6638 6.66687 14.1592 5.4487C13.6546 4.23052 12.8001 3.18933 11.7038 2.45679C10.6075 1.72425 9.31855 1.33325 8.00001 1.33325C7.12453 1.33325 6.25762 1.50569 5.44879 1.84072C4.63995 2.17575 3.90502 2.66682 3.28596 3.28587C2.03572 4.53612 1.33334 6.23181 1.33334 7.99992ZM10.4 9.14658C10.5732 8.789 10.6643 8.39723 10.6667 7.99992C10.6667 7.29267 10.3857 6.6144 9.88563 6.1143C9.38553 5.6142 8.70725 5.33325 8.00001 5.33325V6.66658L5.92001 4.66658L8.00001 2.66659V3.99992C9.06088 3.99992 10.0783 4.42135 10.8284 5.17149C11.5786 5.92164 12 6.93905 12 7.99992C12.0014 8.75357 11.7861 9.49173 11.38 10.1266M4.00001 7.99992C3.99867 7.24627 4.21387 6.5081 4.62001 5.87325L5.60001 6.85325C5.42681 7.21083 5.3357 7.6026 5.33334 7.99992C5.33334 8.70716 5.61429 9.38544 6.11439 9.88554C6.61449 10.3856 7.29277 10.6666 8.00001 10.6666V9.33325L10 11.3333L8.00001 13.3333V11.9999C6.93914 11.9999 5.92173 11.5785 5.17158 10.8283C4.42144 10.0782 4.00001 9.06078 4.00001 7.99992Z" fill="white"/>
</svg>
