<svg viewBox="0 0 24 24" xmlns="http://www.w3.org/2000/svg">
<path d="M18.9932 7.04834H18.4463V4.93896C18.4463 3.32354 17.132 2.00928 15.5166 2.00928H8.3291C6.71367 2.00928 5.39941 3.32354 5.39941 4.93896V7.04834H4.85254C3.23711 7.04834 1.92285 8.3626 1.92285 9.97803V14.6655C1.92285 16.281 3.23711 17.5952 4.85254 17.5952H5.39941V20.2515C5.39941 21.2207 6.18797 22.0093 7.15723 22.0093H16.6885C17.6577 22.0093 18.4463 21.2207 18.4463 20.2515V17.5952H18.9932C20.6086 17.5952 21.9229 16.281 21.9229 14.6655V9.97803C21.9229 8.3626 20.6086 7.04834 18.9932 7.04834ZM6.57129 4.93896C6.57129 3.96971 7.35984 3.18115 8.3291 3.18115H15.5166C16.4859 3.18115 17.2744 3.96971 17.2744 4.93896V7.04834H6.57129V4.93896ZM17.2744 20.2515C17.2744 20.5746 17.0116 20.8374 16.6885 20.8374H7.15723C6.83414 20.8374 6.57129 20.5746 6.57129 20.2515V14.4702H17.2744V20.2515ZM20.751 14.6655C20.751 15.6348 19.9624 16.4233 18.9932 16.4233H18.4463V14.4702H18.7979C19.1214 14.4702 19.3838 14.2079 19.3838 13.8843C19.3838 13.5607 19.1214 13.2983 18.7979 13.2983H5.04785C4.72426 13.2983 4.46191 13.5607 4.46191 13.8843C4.46191 14.2079 4.72426 14.4702 5.04785 14.4702H5.39941V16.4233H4.85254C3.88328 16.4233 3.09473 15.6348 3.09473 14.6655V9.97803C3.09473 9.00877 3.88328 8.22021 4.85254 8.22021H18.9932C19.9624 8.22021 20.751 9.00877 20.751 9.97803V14.6655Z" />
</svg>
