<svg viewBox="0 0 16 16" fill="none" xmlns="http://www.w3.org/2000/svg">
<path fill-rule="evenodd" clip-rule="evenodd" d="M5.99967 2.33301H2.66634C2.48225 2.33301 2.33301 2.48225 2.33301 2.66634V5.99967C2.33301 6.18377 2.48225 6.33301 2.66634 6.33301H5.99967C6.18377 6.33301 6.33301 6.18377 6.33301 5.99967V2.66634C6.33301 2.48225 6.18377 2.33301 5.99967 2.33301ZM2.66634 1.33301C1.92996 1.33301 1.33301 1.92996 1.33301 2.66634V5.99967C1.33301 6.73605 1.92996 7.33301 2.66634 7.33301H5.99967C6.73605 7.33301 7.33301 6.73605 7.33301 5.99967V2.66634C7.33301 1.92996 6.73605 1.33301 5.99967 1.33301H2.66634Z" fill="white"/>
<path fill-rule="evenodd" clip-rule="evenodd" d="M13.3327 2.33301H9.99935C9.81525 2.33301 9.66602 2.48225 9.66602 2.66634V5.99967C9.66602 6.18377 9.81525 6.33301 9.99935 6.33301H13.3327C13.5168 6.33301 13.666 6.18377 13.666 5.99967V2.66634C13.666 2.48225 13.5168 2.33301 13.3327 2.33301ZM9.99935 1.33301C9.26297 1.33301 8.66602 1.92996 8.66602 2.66634V5.99967C8.66602 6.73605 9.26297 7.33301 9.99935 7.33301H13.3327C14.0691 7.33301 14.666 6.73605 14.666 5.99967V2.66634C14.666 1.92996 14.0691 1.33301 13.3327 1.33301H9.99935Z" fill="white"/>
<path fill-rule="evenodd" clip-rule="evenodd" d="M5.99967 9.66602H2.66634C2.48225 9.66602 2.33301 9.81525 2.33301 9.99935V13.3327C2.33301 13.5168 2.48225 13.666 2.66634 13.666H5.99967C6.18377 13.666 6.33301 13.5168 6.33301 13.3327V9.99935C6.33301 9.81525 6.18377 9.66602 5.99967 9.66602ZM2.66634 8.66602C1.92996 8.66602 1.33301 9.26297 1.33301 9.99935V13.3327C1.33301 14.0691 1.92996 14.666 2.66634 14.666H5.99967C6.73605 14.666 7.33301 14.0691 7.33301 13.3327V9.99935C7.33301 9.26297 6.73605 8.66602 5.99967 8.66602H2.66634Z" fill="white"/>
<path fill-rule="evenodd" clip-rule="evenodd" d="M13.3327 9.66602H9.99935C9.81525 9.66602 9.66602 9.81525 9.66602 9.99935V13.3327C9.66602 13.5168 9.81525 13.666 9.99935 13.666H13.3327C13.5168 13.666 13.666 13.5168 13.666 13.3327V9.99935C13.666 9.81525 13.5168 9.66602 13.3327 9.66602ZM9.99935 8.66602C9.26297 8.66602 8.66602 9.26297 8.66602 9.99935V13.3327C8.66602 14.0691 9.26297 14.666 9.99935 14.666H13.3327C14.0691 14.666 14.666 14.0691 14.666 13.3327V9.99935C14.666 9.26297 14.0691 8.66602 13.3327 8.66602H9.99935Z" fill="white"/>
</svg>
