<svg viewBox="0 0 18 18" fill="none" xmlns="http://www.w3.org/2000/svg">
<path d="M12 17.0625H6C3.735 17.0625 2.4375 15.765 2.4375 13.5V6.1875C2.4375 3.825 3.6375 2.625 6 2.625C6.3075 2.625 6.5625 2.88 6.5625 3.1875C6.5625 3.4875 6.6825 3.7725 6.8925 3.9825C7.1025 4.1925 7.3875 4.3125 7.6875 4.3125H10.3125C10.935 4.3125 11.4375 3.81 11.4375 3.1875C11.4375 2.88 11.6925 2.625 12 2.625C14.3625 2.625 15.5625 3.825 15.5625 6.1875V13.5C15.5625 15.765 14.265 17.0625 12 17.0625ZM5.51248 3.765C4.32748 3.8625 3.5625 4.395 3.5625 6.1875V13.5C3.5625 15.165 4.335 15.9375 6 15.9375H12C13.665 15.9375 14.4375 15.165 14.4375 13.5V6.1875C14.4375 4.395 13.6725 3.87 12.4875 3.765C12.2325 4.725 11.355 5.4375 10.3125 5.4375H7.6875C7.0875 5.4375 6.525 5.205 6.0975 4.7775C5.8125 4.4925 5.61748 4.1475 5.51248 3.765Z" fill="#25282B"/>
<path d="M10.3125 4.9375H7.6875C7.22037 4.9375 6.78497 4.75786 6.45106 4.42394C6.11714 4.09003 5.9375 3.65463 5.9375 3.1875C5.9375 2.22614 6.72614 1.4375 7.6875 1.4375H10.3125C10.7796 1.4375 11.215 1.61714 11.5489 1.95106C11.8829 2.28497 12.0625 2.72037 12.0625 3.1875C12.0625 4.14886 11.2739 4.9375 10.3125 4.9375ZM7.6875 1.5625C6.78886 1.5625 6.0625 2.28886 6.0625 3.1875C6.0625 3.62162 6.23625 4.03336 6.53895 4.33605C6.84164 4.63875 7.25338 4.8125 7.6875 4.8125H10.3125C11.2111 4.8125 11.9375 4.08614 11.9375 3.1875C11.9375 2.75338 11.7637 2.34164 11.4611 2.03895C11.1584 1.73625 10.7466 1.5625 10.3125 1.5625H7.6875Z" fill="#262626" stroke="#25282B"/>
<path d="M9 10.3125H6C5.6925 10.3125 5.4375 10.0575 5.4375 9.75C5.4375 9.4425 5.6925 9.1875 6 9.1875H9C9.3075 9.1875 9.5625 9.4425 9.5625 9.75C9.5625 10.0575 9.3075 10.3125 9 10.3125Z" fill="#25282B"/>
<path d="M12 13.3125H6C5.6925 13.3125 5.4375 13.0575 5.4375 12.75C5.4375 12.4425 5.6925 12.1875 6 12.1875H12C12.3075 12.1875 12.5625 12.4425 12.5625 12.75C12.5625 13.0575 12.3075 13.3125 12 13.3125Z" fill="#262626"/>
</svg>
