<svg width="32" height="33" viewBox="0 0 32 33" fill="none" xmlns="http://www.w3.org/2000/svg">
<g clip-path="url(#clip0_24043_28067)">
<path d="M23.9993 15.1673V17.834H29.3327V15.1673H23.9993ZM21.3327 23.9806C22.6127 24.9273 24.2794 26.1807 25.5993 27.1673C26.1327 26.4606 26.666 25.7407 27.1993 25.034C25.8793 24.0473 24.2127 22.794 22.9327 21.834C22.3994 22.554 21.866 23.274 21.3327 23.9806ZM27.1993 7.96732C26.666 7.26065 26.1327 6.54065 25.5993 5.83398C24.2794 6.82065 22.6127 8.07398 21.3327 9.03398C21.866 9.74065 22.3994 10.4607 22.9327 11.1673C24.2127 10.2073 25.8793 8.96732 27.1993 7.96732ZM5.33268 12.5007C3.86602 12.5007 2.66602 13.7007 2.66602 15.1673V17.834C2.66602 19.3007 3.86602 20.5007 5.33268 20.5007H6.66602V25.834H9.33268V20.5007H10.666L17.3327 24.5007V8.50065L10.666 12.5007H5.33268ZM20.666 16.5007C20.666 14.7273 19.8927 13.1273 18.666 12.034V20.954C19.8927 19.874 20.666 18.274 20.666 16.5007Z" fill="#2244B1"/>
</g>
<defs>
<clipPath id="clip0_24043_28067">
<rect width="32" height="32" fill="white" transform="translate(0 0.5)"/>
</clipPath>
</defs>
</svg>
