<svg width="21" height="21" viewBox="0 0 21 21" fill="none" xmlns="http://www.w3.org/2000/svg">
<path d="M14.2999 0.331147C13.461 0.0211279 12.539 0.0211284 11.7001 0.331147L7.39337 1.92273C6.70625 2.17666 6.25 2.83169 6.25 3.56423V6.35743C7.05071 6.2294 7.87632 6.30772 8.64657 6.59237L12.9533 8.18395C13.4674 8.37397 13.8993 8.7069 14.2107 9.12785C14.6275 9.044 15.0586 9 15.5 9C17.1249 9 18.6105 9.5962 19.75 10.5818V3.56422C19.75 2.83169 19.2937 2.17666 18.6066 1.92273L14.2999 0.331147ZM9.76921 5.20905C9.37772 5.07373 9.17006 4.64667 9.30538 4.25518C9.4407 3.8637 9.86776 3.65604 10.2593 3.79136L12.9178 4.71031C12.9708 4.72863 13.0284 4.7286 13.0813 4.71025L15.7318 3.79185C16.1232 3.65624 16.5504 3.86357 16.686 4.25496C16.8216 4.64634 16.6143 5.07356 16.2229 5.20918L13.5725 6.12758C13.2017 6.25604 12.7986 6.25619 12.4278 6.12801L9.76921 5.20905ZM12.6066 9.12195C12.8077 9.19626 12.989 9.30491 13.1449 9.43979C12.0902 9.84997 11.169 10.5275 10.4647 11.3893C10.269 11.2223 9.99242 11.1605 9.73178 11.2508L6.99959 12.1976L4.25925 11.2503C3.86776 11.115 3.4407 11.3227 3.30538 11.7142C3.17006 12.1057 3.37772 12.5327 3.76921 12.668L6.24989 13.5255V16.2243C6.24989 16.6386 6.58567 16.9743 6.99989 16.9743C7.4141 16.9743 7.74989 16.6386 7.74989 16.2243V13.5251L9.53855 12.9053C9.19213 13.7001 9 14.5776 9 15.5C9 16.799 9.38107 18.0091 10.0375 19.0244L8.29992 19.6665C7.46103 19.9766 6.53897 19.9766 5.70008 19.6665L1.39337 18.075C0.706254 17.821 0.25 17.166 0.25 16.4335V10.7634C0.25 10.0309 0.706252 9.37588 1.39337 9.12195L5.70008 7.53037C6.53897 7.22035 7.46103 7.22035 8.29992 7.53037L12.6066 9.12195ZM21 15.5C21 18.5376 18.5376 21 15.5 21C12.4624 21 10 18.5376 10 15.5C10 12.4624 12.4624 10 15.5 10C18.5376 10 21 12.4624 21 15.5ZM18.5 16C18.7761 16 19 15.7761 19 15.5C19 15.2239 18.7761 15 18.5 15H13.7071L15.3536 13.3536C15.5488 13.1583 15.5488 12.8417 15.3536 12.6464C15.1583 12.4512 14.8417 12.4512 14.6464 12.6464L12.1464 15.1464C11.9512 15.3417 11.9512 15.6583 12.1464 15.8536L14.6464 18.3536C14.8417 18.5488 15.1583 18.5488 15.3536 18.3536C15.5488 18.1583 15.5488 17.8417 15.3536 17.6464L13.7071 16H18.5Z" fill="#52575C"/>
</svg>
