<svg viewBox="0 0 24 24" fill="none" xmlns="http://www.w3.org/2000/svg">
<path d="M5.5 4.25C5.5 4.05109 5.57902 3.86032 5.71967 3.71967C5.86032 3.57902 6.05109 3.5 6.25 3.5H12V8C12 8.53043 12.2107 9.03914 12.5858 9.41421C12.9609 9.78929 13.4696 10 14 10H18.5V11.43C18.979 11.23 19.49 11.129 20 11.129V9.664C20 9.2 19.816 8.755 19.487 8.427L13.573 2.513C13.245 2.18476 12.8 2.00023 12.336 2H6.25C5.65326 2 5.08097 2.23705 4.65901 2.65901C4.23705 3.08097 4 3.65326 4 4.25V19.75C4 20.3467 4.23705 20.919 4.65901 21.341C5.08097 21.7629 5.65326 22 6.25 22H11.684C11.4075 21.5417 11.2294 21.0309 11.161 20.5H6.25C6.05109 20.5 5.86032 20.421 5.71967 20.2803C5.57902 20.1397 5.5 19.9489 5.5 19.75V4.25ZM17.44 8.5H14C13.8674 8.5 13.7402 8.44732 13.6464 8.35355C13.5527 8.25979 13.5 8.13261 13.5 8V4.56L17.44 8.5ZM22.03 12.97C21.4916 12.4316 20.7614 12.1292 20 12.1292C19.2386 12.1292 18.5084 12.4316 17.97 12.97L12.97 17.97C12.699 18.2356 12.4833 18.5523 12.3354 18.9018C12.1876 19.2512 12.1104 19.6265 12.1085 20.006C12.1066 20.3855 12.1799 20.7615 12.3243 21.1125C12.4686 21.4634 12.6811 21.7823 12.9494 22.0506C13.2177 22.3189 13.5366 22.5314 13.8875 22.6757C14.2385 22.8201 14.6145 22.8934 14.994 22.8915C15.3735 22.8896 15.7488 22.8124 16.0982 22.6646C16.4477 22.5167 16.7644 22.301 17.03 22.03L22.03 17.03C22.5684 16.4916 22.8708 15.7614 22.8708 15C22.8708 14.2386 22.5684 13.5084 22.03 12.97ZM19.03 14.03C19.1574 13.9026 19.3086 13.8016 19.475 13.7326C19.6415 13.6637 19.8199 13.6282 20 13.6282C20.1801 13.6282 20.3585 13.6637 20.525 13.7326C20.6914 13.8016 20.8426 13.9026 20.97 14.03C21.0974 14.1574 21.1984 14.3086 21.2674 14.475C21.3363 14.6415 21.3718 14.8199 21.3718 15C21.3718 15.1801 21.3363 15.3585 21.2674 15.525C21.1984 15.6914 21.0974 15.8426 20.97 15.97L19 17.94L17.06 16L19.03 14.03ZM17.03 18.97C17.1705 19.1106 17.2493 19.3012 17.2493 19.5C17.2493 19.6988 17.1705 19.8894 17.03 20.03L16.03 21.03C15.9613 21.1037 15.8785 21.1628 15.7865 21.2038C15.6945 21.2448 15.5952 21.2668 15.4945 21.2686C15.3938 21.2704 15.2938 21.2518 15.2004 21.2141C15.107 21.1764 15.0222 21.1203 14.951 21.049C14.8797 20.9778 14.8236 20.893 14.7859 20.7996C14.7482 20.7062 14.7296 20.6062 14.7314 20.5055C14.7332 20.4048 14.7552 20.3055 14.7962 20.2135C14.8372 20.1215 14.8963 20.0387 14.97 19.97L15.97 18.97C16.1106 18.8295 16.3012 18.7507 16.5 18.7507C16.6988 18.7507 16.8894 18.8295 17.03 18.97Z" fill="#00C39F"/>
</svg>
