<svg width="19" height="18" viewBox="0 0 19 18" fill="none" xmlns="http://www.w3.org/2000/svg">
<path d="M15.7501 0C17.545 0 19.0001 1.45507 19.0001 3.25V14.75C19.0001 16.5449 17.545 18 15.7501 18H4.2501C2.45518 18 1.0001 16.5449 1.0001 14.75L0.999814 6.37208C1.23448 6.45505 1.48702 6.5002 1.7501 6.5002C2.9928 6.5002 4.0002 5.4928 4.0002 4.2501C4.0002 3.0074 2.9928 2 1.7501 2C1.56887 2 1.39265 2.02142 1.22383 2.06188C1.69846 0.854666 2.87447 0 4.2501 0H15.7501ZM11.2461 10.0031H6.74786L6.64609 10.0099C6.28002 10.0596 5.99786 10.3734 5.99786 10.7531C5.99786 11.1327 6.28002 11.4465 6.64609 11.4962L6.74786 11.5031H11.2461L11.3479 11.4962C11.714 11.4465 11.9961 11.1327 11.9961 10.7531C11.9961 10.3388 11.6603 10.0031 11.2461 10.0031ZM13.2523 6.49623H6.74786L6.64609 6.50307C6.28002 6.55274 5.99786 6.86653 5.99786 7.24623C5.99786 7.62592 6.28002 7.93972 6.64609 7.98938L6.74786 7.99623H13.2523L13.3541 7.98938C13.7202 7.93972 14.0023 7.62592 14.0023 7.24623C14.0023 6.83201 13.6666 6.49623 13.2523 6.49623ZM1.7501 3C2.44051 3 3.0002 3.55969 3.0002 4.2501C3.0002 4.94051 2.44051 5.5002 1.7501 5.5002C1.05969 5.5002 0.5 4.94051 0.5 4.2501C0.5 3.55969 1.05969 3 1.7501 3Z" fill="#52575C"/>
</svg>
