<svg width="35" height="35" viewBox="0 0 41 41" fill="none" xmlns="http://www.w3.org/2000/svg">
	<path d="M20.4997 22.6668C20.283 22.6668 20.0664 22.6168 19.8664 22.5001L5.14971 13.9835C4.54971 13.6335 4.34968 12.8668 4.69968 12.2668C5.04968 11.6668 5.79968 11.4667 6.41634 11.8167L20.4997 19.9668L34.4997 11.8668C35.0997 11.5168 35.8664 11.7335 36.2164 12.3168C36.5664 12.9168 36.3497 13.6834 35.7664 14.0334L21.1497 22.5001C20.9331 22.6001 20.7164 22.6668 20.4997 22.6668Z" fill="#00C39F"/>
	<path d="M20.5 37.7666C19.8167 37.7666 19.25 37.1999 19.25 36.5166V21.3999C19.25 20.7166 19.8167 20.1499 20.5 20.1499C21.1833 20.1499 21.75 20.7166 21.75 21.3999V36.5166C21.75 37.1999 21.1833 37.7666 20.5 37.7666Z" fill="#00C39F"/>
	<path d="M20.4998 38.4164C19.0331 38.4164 17.5664 38.0997 16.4331 37.4497L7.53309 32.5164C5.11642 31.1831 3.21643 27.9664 3.21643 25.1998V15.7664C3.21643 12.9997 5.11642 9.79978 7.53309 8.44978L16.4331 3.51641C18.6997 2.24974 22.2664 2.24974 24.5497 3.51641L33.4497 8.44978C35.8664 9.78311 37.7664 12.9997 37.7664 15.7664V25.1998C37.7664 25.3164 37.7664 25.4831 37.7164 25.6997C37.6164 26.1331 37.2997 26.483 36.8831 26.6164C36.4664 26.7497 35.9998 26.6664 35.6664 26.3664C33.7664 24.6998 30.7997 24.6331 28.7664 26.2498C27.4831 27.2664 26.7331 28.8164 26.7331 30.4664C26.7331 31.4497 26.9997 32.4165 27.5164 33.2498C27.6497 33.4831 27.7831 33.6664 27.9331 33.8331C28.1831 34.1164 28.2831 34.4997 28.2164 34.8664C28.1498 35.2331 27.9164 35.5664 27.5831 35.7331L24.5331 37.4165C23.4164 38.0998 21.9664 38.4164 20.4998 38.4164ZM20.4998 5.08308C19.4664 5.08308 18.4164 5.29975 17.6664 5.71642L8.76641 10.6498C7.14974 11.5498 5.74975 13.933 5.74975 15.7664V25.1998C5.74975 27.0331 7.16641 29.4331 8.76641 30.3164L17.6664 35.2497C19.1831 36.0997 21.8331 36.0997 23.3497 35.2497L25.2164 34.2164C24.5997 33.0997 24.2664 31.7997 24.2664 30.4664C24.2664 28.033 25.3498 25.7831 27.2331 24.2831C29.5164 22.4664 32.7497 22.0831 35.2831 23.1831V15.7498C35.2831 13.9165 33.8664 11.5164 32.2664 10.6331L23.3664 5.69974C22.5831 5.29974 21.5331 5.08308 20.4998 5.08308Z" fill="#00C39F"/>
	<path d="M32.1667 38.4168C27.8 38.4168 24.25 34.8668 24.25 30.5002C24.25 28.0668 25.3333 25.8168 27.2167 24.3168C28.6167 23.2001 30.3833 22.5835 32.1667 22.5835C36.5333 22.5835 40.0833 26.1335 40.0833 30.5002C40.0833 32.7668 39.1 34.9335 37.3833 36.4335C35.9333 37.7168 34.0833 38.4168 32.1667 38.4168ZM32.1667 25.0835C30.9333 25.0835 29.7667 25.5001 28.7833 26.2834C27.5 27.3001 26.75 28.8502 26.75 30.5002C26.75 33.4835 29.1833 35.9168 32.1667 35.9168C33.4667 35.9168 34.7333 35.4335 35.75 34.5668C36.9167 33.5335 37.5833 32.0668 37.5833 30.5002C37.5833 27.5168 35.15 25.0835 32.1667 25.0835Z" fill="#00C39F"/>
	<path d="M30.4998 33.4165C30.0831 33.4165 29.6664 33.1999 29.4331 32.8165C29.0831 32.2165 29.2664 31.4498 29.8664 31.0998L31.3498 30.2165V28.4165C31.3498 27.7332 31.9165 27.1665 32.5998 27.1665C33.2831 27.1665 33.8498 27.7332 33.8498 28.4165V30.9165C33.8498 31.3498 33.6164 31.7665 33.2498 31.9832L31.1664 33.2332C30.9331 33.3665 30.7164 33.4165 30.4998 33.4165Z" fill="#00C39F"/>
	</svg>
	