<svg viewBox="0 0 24 24" fill="none" xmlns="http://www.w3.org/2000/svg">
<path d="M3.59998 4.8001C3.59998 4.48184 3.7264 4.17661 3.95145 3.95157C4.17649 3.72653 4.48172 3.6001 4.79998 3.6001H7.19998C7.51824 3.6001 7.82346 3.72653 8.0485 3.95157C8.27355 4.17661 8.39998 4.48184 8.39998 4.8001V19.2001C8.39998 19.5184 8.27355 19.8236 8.0485 20.0486C7.82346 20.2737 7.51824 20.4001 7.19998 20.4001H4.79998C4.48172 20.4001 4.17649 20.2737 3.95145 20.0486C3.7264 19.8236 3.59998 19.5184 3.59998 19.2001V4.8001ZM7.19998 4.8001H4.79998V19.2001H7.19998V4.8001ZM9.59998 4.8001C9.59998 4.48184 9.7264 4.17661 9.95145 3.95157C10.1765 3.72653 10.4817 3.6001 10.8 3.6001H13.2C13.5182 3.6001 13.8235 3.72653 14.0485 3.95157C14.2735 4.17661 14.4 4.48184 14.4 4.8001V15.5317L13.2 16.7317V4.8001H10.8V19.2001H11.37C11.3512 19.2617 11.334 19.3237 11.3184 19.3861L11.064 20.4001H10.8C10.4817 20.4001 10.1765 20.2737 9.95145 20.0486C9.7264 19.8236 9.59998 19.5184 9.59998 19.2001V4.8001ZM20.4 4.8001V10.8037C19.9908 10.8229 19.584 10.9141 19.2 11.0785V4.8001H16.8V13.1317L15.6 14.3317V4.8001C15.6 4.48184 15.7264 4.17661 15.9514 3.95157C16.1765 3.72653 16.4817 3.6001 16.8 3.6001H19.2C19.5182 3.6001 19.8235 3.72653 20.0485 3.95157C20.2735 4.17661 20.4 4.48184 20.4 4.8001ZM13.176 18.4525L18.972 12.6565C19.393 12.2358 19.964 11.9995 20.5592 11.9997C21.1545 12 21.7252 12.2366 22.146 12.6577C22.5667 13.0788 22.803 13.6497 22.8027 14.2449C22.8025 14.8402 22.5658 15.411 22.1448 15.8317L16.3488 21.6265C16.0111 21.9643 15.5881 22.204 15.1248 22.3201L13.3272 22.7689C13.1484 22.8134 12.9612 22.811 12.7837 22.7618C12.6062 22.7126 12.4444 22.6183 12.3141 22.4881C12.1838 22.3579 12.0893 22.1963 12.04 22.0188C11.9906 21.8413 11.988 21.6541 12.0324 21.4753L12.4824 19.6777C12.5975 19.214 12.8373 18.7907 13.176 18.4537V18.4525Z" fill="white"/>
</svg>
