<svg viewBox="0 0 40 40" xmlns="http://www.w3.org/2000/svg">
	<path d="M18.8333 24.1667V27.5H22.1667V24.1667H25.5V20.8333H22.1667V17.5H18.8333V20.8333H15.5V24.1667H18.8333Z" />
	<path fill-rule="evenodd" clip-rule="evenodd"
		d="M7.16667 2.5C5.32572 2.5 3.83333 3.99238 3.83333 5.83333V7.5C3.83333 7.59444 3.83726 7.68796 3.84496 7.78042C1.8969 8.46352 0.5 10.3186 0.5 12.5V32.5C0.5 35.2614 2.73858 37.5 5.5 37.5H35.5C38.2614 37.5 40.5 35.2614 40.5 32.5V12.5C40.5 9.73858 38.2614 7.5 35.5 7.5H20.29C19.5499 4.62462 16.9397 2.5 13.8333 2.5H7.16667ZM16.7207 7.5C16.1444 6.50366 15.0671 5.83333 13.8333 5.83333H7.16667V7.5H16.7207ZM5.5 10.8333C4.57953 10.8333 3.83333 11.5795 3.83333 12.5V32.5C3.83333 33.4205 4.57953 34.1667 5.5 34.1667H35.5C36.4205 34.1667 37.1667 33.4205 37.1667 32.5V12.5C37.1667 11.5795 36.4205 10.8333 35.5 10.8333H5.5Z" />
</svg>