<svg viewBox="0 0 16 16" fill="none" xmlns="http://www.w3.org/2000/svg">
<path d="M9.99967 8.63379H5.33301C5.05967 8.63379 4.83301 8.40712 4.83301 8.13379C4.83301 7.86046 5.05967 7.63379 5.33301 7.63379H9.99967C10.273 7.63379 10.4997 7.86046 10.4997 8.13379C10.4997 8.40712 10.273 8.63379 9.99967 8.63379Z" fill="white"/>
<path d="M8.25301 11.2998H5.33301C5.05967 11.2998 4.83301 11.0731 4.83301 10.7998C4.83301 10.5265 5.05967 10.2998 5.33301 10.2998H8.25301C8.52634 10.2998 8.75301 10.5265 8.75301 10.7998C8.75301 11.0731 8.52634 11.2998 8.25301 11.2998Z" fill="white"/>
<path d="M9.33301 4.49967H6.66634C6.02634 4.49967 4.83301 4.49967 4.83301 2.66634C4.83301 0.833008 6.02634 0.833008 6.66634 0.833008H9.33301C9.97301 0.833008 11.1663 0.833008 11.1663 2.66634C11.1663 3.30634 11.1663 4.49967 9.33301 4.49967ZM6.66634 1.83301C6.00634 1.83301 5.83301 1.83301 5.83301 2.66634C5.83301 3.49967 6.00634 3.49967 6.66634 3.49967H9.33301C10.1663 3.49967 10.1663 3.32634 10.1663 2.66634C10.1663 1.83301 9.99301 1.83301 9.33301 1.83301H6.66634Z" fill="white"/>
<path d="M10 15.1669H6C2.25333 15.1669 1.5 13.4469 1.5 10.6669V6.66695C1.5 3.62695 2.6 2.32695 5.30667 2.18695C5.57333 2.17361 5.82 2.38028 5.83333 2.66028C5.84667 2.94028 5.63333 3.16695 5.36 3.18028C3.46667 3.28695 2.5 3.85361 2.5 6.66695V10.6669C2.5 13.1336 2.98667 14.1669 6 14.1669H10C13.0133 14.1669 13.5 13.1336 13.5 10.6669V6.66695C13.5 3.85361 12.5333 3.28695 10.64 3.18028C10.3667 3.16695 10.1533 2.92695 10.1667 2.65361C10.18 2.38028 10.42 2.16695 10.6933 2.18028C13.4 2.32695 14.5 3.62695 14.5 6.66028V10.6603C14.5 13.4469 13.7467 15.1669 10 15.1669Z" fill="white"/>
</svg>
