<svg viewBox="0 0 40 40" xmlns="http://www.w3.org/2000/svg">
	<path d="M39.9439 22.2641C39.9438 22.2639 39.9438 22.2638 39.9437 22.2636L32.3915 3.3008C32.2312 2.89789 31.7745 2.7012 31.3716 2.86148C31.3713 2.86158 31.371 2.86167 31.3707 2.86187L0.732602 15.0617C0.607655 15.1157 0.499296 15.2018 0.418517 15.3114C0.163716 15.4438 0.00274824 15.7059 0 15.9929V36.4084C0 36.8421 0.351578 37.1936 0.785211 37.1936H33.7641C34.1977 37.1936 34.5493 36.8421 34.5493 36.4084V25.2584L39.5055 23.2844C39.9083 23.1237 40.1045 22.6669 39.9439 22.2641ZM32.9788 35.6232H1.57042V16.7782H32.9788V35.6232ZM13.1012 15.2117L26.2488 9.97274C27.4222 11.2061 29.0481 11.9071 30.7504 11.9138L32.0617 15.2117H13.1012ZM34.5493 23.5718V15.9929C34.5493 15.5593 34.1977 15.2077 33.7641 15.2077H33.7515L32.0876 11.0288C32.0692 10.994 32.0477 10.9608 32.0232 10.9299C31.939 10.5517 31.5888 10.2937 31.2027 10.3253C29.6187 10.4697 28.0692 9.80245 27.0858 8.55229C26.8411 8.25028 26.4111 8.17519 26.0784 8.37641C26.0411 8.38082 26.0041 8.38769 25.9677 8.39682L9.91642 14.7884C9.72218 14.8646 9.56681 15.0157 9.48534 15.2077H4.61076L31.2231 4.61132L38.195 22.1176L34.5493 23.5718Z" />
	<path d="M3.70127 30.3223C5.22575 30.7729 6.41868 31.9644 6.87116 33.4883C6.97039 33.8209 7.27633 34.0488 7.62339 34.0489C7.66412 34.0464 7.70456 34.0403 7.74431 34.0309C7.77955 34.0409 7.81557 34.0482 7.85189 34.0528H26.6969C26.7293 34.0486 26.7613 34.042 26.7927 34.0332C27.185 34.1286 27.5804 33.888 27.6759 33.4957C27.6762 33.4943 27.6766 33.4929 27.6769 33.4914C28.1282 31.9659 29.3213 30.7728 30.8468 30.3215C31.2167 30.2084 31.4466 29.8398 31.3854 29.4578C31.3959 29.4197 31.4035 29.3808 31.4082 29.3416V23.0599C31.4036 23.0205 31.3957 22.9817 31.3846 22.9437C31.4462 22.5616 31.2162 22.1927 30.846 22.08C29.3205 21.6288 28.1277 20.4351 27.6777 18.9093C27.564 18.5368 27.1917 18.3063 26.8077 18.3706C26.7713 18.3605 26.7343 18.3531 26.6969 18.3486H7.85189C7.81233 18.3533 7.77317 18.3612 7.73489 18.3722C7.35298 18.3113 6.98453 18.5411 6.87116 18.9108C6.41957 20.436 5.22654 21.6288 3.70127 22.08C3.33133 22.193 3.10146 22.5617 3.16261 22.9437C3.1524 22.9819 3.14504 23.0206 3.14062 23.0599V29.3416C3.14514 29.3785 3.1525 29.415 3.16261 29.4507C3.09822 29.8352 3.32858 30.208 3.70127 30.3223ZM4.71105 23.3787C6.28775 22.7454 7.53741 21.4958 8.17068 19.9191H26.3774C27.0109 21.4958 28.2609 22.7454 29.8378 23.3787V29.0228C28.2616 29.6567 27.0121 30.9062 26.3781 32.4824H8.17068C7.53672 30.9062 6.28726 29.6567 4.71105 29.0228V23.3787Z" />
	<path d="M17.2747 30.9118C19.8767 30.9118 21.986 28.8025 21.986 26.2005C21.986 23.5985 19.8767 21.4893 17.2747 21.4893C14.6727 21.4893 12.5635 23.5985 12.5635 26.2005C12.566 28.8014 14.6738 30.9092 17.2747 30.9118ZM17.2747 23.0597C19.0094 23.0597 20.4156 24.4659 20.4156 26.2005C20.4156 27.9351 19.0094 29.3413 17.2747 29.3413C15.5401 29.3413 14.1339 27.9351 14.1339 26.2005C14.1339 24.4659 15.5401 23.0597 17.2747 23.0597Z" />
	<path d="M8.63778 27.3781C9.28823 27.3781 9.81559 26.8507 9.81559 26.2003C9.81559 25.5498 9.28823 25.0225 8.63778 25.0225C7.98733 25.0225 7.45996 25.5498 7.45996 26.2003C7.45996 26.8508 7.98733 27.3781 8.63778 27.3781ZM8.63778 25.8077C8.85459 25.8077 9.03038 25.9835 9.03038 26.2003C9.03038 26.4171 8.85459 26.5929 8.63778 26.5929C8.42096 26.5929 8.24517 26.4171 8.24517 26.2003C8.24517 25.9835 8.42096 25.8077 8.63778 25.8077Z" />
	<path d="M25.9122 27.3781C26.5626 27.3781 27.09 26.8507 27.09 26.2003C27.09 25.5498 26.5626 25.0225 25.9122 25.0225C25.2617 25.0225 24.7344 25.5498 24.7344 26.2003C24.7344 26.8508 25.2617 27.3781 25.9122 27.3781ZM25.9122 25.8077C26.129 25.8077 26.3048 25.9835 26.3048 26.2003C26.3048 26.4171 26.129 26.5929 25.9122 26.5929C25.6954 26.5929 25.5196 26.4171 25.5196 26.2003C25.5196 25.9835 25.6954 25.8077 25.9122 25.8077Z" />
</svg>
