<svg width="35" height="35" viewBox="0 0 41 41" fill="none" xmlns="http://www.w3.org/2000/svg">
	<path d="M11.9667 31.9998C11.2833 31.9998 10.7167 31.4331 10.7167 30.7498V27.2998C10.7167 26.6165 11.2833 26.0498 11.9667 26.0498C12.65 26.0498 13.2167 26.6165 13.2167 27.2998V30.7498C13.2167 31.4498 12.65 31.9998 11.9667 31.9998Z" fill="#00C39F"/>
	<path d="M20.5 32.0002C19.8167 32.0002 19.25 31.4335 19.25 30.7502V23.8335C19.25 23.1502 19.8167 22.5835 20.5 22.5835C21.1833 22.5835 21.75 23.1502 21.75 23.8335V30.7502C21.75 31.4502 21.1833 32.0002 20.5 32.0002Z" fill="#00C39F"/>
	<path d="M29.0333 32C28.35 32 27.7833 31.4333 27.7833 30.75V20.3833C27.7833 19.7 28.35 19.1333 29.0333 19.1333C29.7167 19.1333 30.2833 19.7 30.2833 20.3833V30.75C30.2833 31.45 29.7333 32 29.0333 32Z" fill="#00C39F"/>
	<path d="M11.9667 22.4669C11.4 22.4669 10.9 22.0835 10.75 21.5169C10.5833 20.8502 10.9833 20.1669 11.6667 20.0002C17.8 18.4669 23.2 15.1169 27.3167 10.3335L28.0833 9.43352C28.5333 8.91686 29.3167 8.85019 29.85 9.30019C30.3667 9.75019 30.4333 10.5335 29.9833 11.0669L29.2167 11.9669C24.7667 17.1669 18.9 20.7835 12.2667 22.4335C12.1667 22.4669 12.0667 22.4669 11.9667 22.4669Z" fill="#00C39F"/>
	<path d="M29.0334 16.3667C28.35 16.3667 27.7834 15.8 27.7834 15.1167V11.5H24.15C23.4667 11.5 22.9 10.9333 22.9 10.25C22.9 9.56667 23.4667 9 24.15 9H29.0334C29.7167 9 30.2834 9.56667 30.2834 10.25V15.1333C30.2834 15.8167 29.7334 16.3667 29.0334 16.3667Z" fill="#00C39F"/>
	<path d="M25.5 38.4168H15.5C6.45004 38.4168 2.58337 34.5502 2.58337 25.5002V15.5002C2.58337 6.45016 6.45004 2.5835 15.5 2.5835H25.5C34.55 2.5835 38.4167 6.45016 38.4167 15.5002V25.5002C38.4167 34.5502 34.55 38.4168 25.5 38.4168ZM15.5 5.0835C7.81671 5.0835 5.08337 7.81683 5.08337 15.5002V25.5002C5.08337 33.1835 7.81671 35.9168 15.5 35.9168H25.5C33.1834 35.9168 35.9167 33.1835 35.9167 25.5002V15.5002C35.9167 7.81683 33.1834 5.0835 25.5 5.0835H15.5Z" fill="#00C39F"/>
	</svg>
	