<svg viewBox="0 0 49 48" fill="none" xmlns="http://www.w3.org/2000/svg">
<path d="M22.6666 41.5C11.9066 41.5 3.16663 32.76 3.16663 22C3.16663 11.24 11.9066 2.5 22.6666 2.5C33.4266 2.5 42.1666 11.24 42.1666 22C42.1666 32.76 33.4266 41.5 22.6666 41.5ZM22.6666 5.5C13.5666 5.5 6.16663 12.9 6.16663 22C6.16663 31.1 13.5666 38.5 22.6666 38.5C31.7666 38.5 39.1666 31.1 39.1666 22C39.1666 12.9 31.7666 5.5 22.6666 5.5Z" fill="white"/>
<path d="M27.6666 23.5H17.6666C16.8466 23.5 16.1666 22.82 16.1666 22C16.1666 21.18 16.8466 20.5 17.6666 20.5H27.6666C28.4866 20.5 29.1666 21.18 29.1666 22C29.1666 22.82 28.4866 23.5 27.6666 23.5Z" fill="white"/>
<path d="M22.6666 28.5C21.8466 28.5 21.1666 27.82 21.1666 27V17C21.1666 16.18 21.8466 15.5 22.6666 15.5C23.4866 15.5 24.1666 16.18 24.1666 17V27C24.1666 27.82 23.4866 28.5 22.6666 28.5Z" fill="white"/>
<path d="M40.9868 45.58C40.8268 45.58 40.6668 45.56 40.5268 45.54C39.5868 45.42 37.8868 44.78 36.9268 41.92C36.4268 40.42 36.6068 38.92 37.4268 37.78C38.2468 36.64 39.6268 36 41.2068 36C43.2468 36 44.8468 36.78 45.5668 38.16C46.2868 39.54 46.0868 41.3 44.9468 43C43.5268 45.14 41.9868 45.58 40.9868 45.58ZM39.7868 40.98C40.1268 42.02 40.6068 42.54 40.9268 42.58C41.2468 42.62 41.8468 42.24 42.4668 41.34C43.0468 40.48 43.0868 39.86 42.9468 39.58C42.8068 39.3 42.2468 39 41.2068 39C40.5868 39 40.1268 39.2 39.8668 39.54C39.6268 39.88 39.5868 40.4 39.7868 40.98Z" fill="white"/>
</svg>
