<svg width="18" height="18" viewBox="0 0 18 18" fill="none" xmlns="http://www.w3.org/2000/svg">
<path d="M15.75 5.25H2.25V2.25H15.75V5.25ZM9.75 14.25C9.75 14.775 9.8475 15.2775 10.0125 15.75H3V6H15V9.8175C14.7525 9.78 14.505 9.75 14.25 9.75C11.7675 9.75 9.75 11.7675 9.75 14.25ZM11.25 9.75V8.625C11.25 8.415 11.085 8.25 10.875 8.25H7.125C6.915 8.25 6.75 8.415 6.75 8.625V9.75H11.25ZM16.905 12.66L15.84 11.6025L14.25 13.1925L12.66 11.6025L11.6025 12.66L13.1925 14.25L11.6025 15.84L12.66 16.905L14.25 15.3075L15.84 16.905L16.905 15.84L15.3075 14.25L16.905 12.66Z" fill="#FB4E4E"/>
</svg>
