<svg width="116" height="115" viewBox="0 0 116 115" fill="none" xmlns="http://www.w3.org/2000/svg">
<path d="M101.945 98.9033C98.932 102.008 96.2363 103.834 94.1727 105.212C74.0448 118.652 51.036 114.778 43.9225 113.454C32.4456 111.318 22.757 109.811 14.4332 102.29C-4.48116 85.2026 -3.56118 49.555 10.8917 27.4725C12.6054 24.8544 27.0364 3.46325 50.0947 0.448674C50.6585 0.374841 51.0792 0.33289 51.448 0.293876C55.0151 -0.0836807 77.1193 -2.07718 95.1435 13.0234C97.7234 15.1851 101.876 19.084 105.726 25.0301C119.804 46.7732 119.849 80.4479 101.945 98.9029V98.9033Z" fill="#F4F7FA"/>
<path d="M27.4354 17.6074C27.4354 17.6074 24.7414 17.3888 22.2776 21.1736C28.704 19.7099 32.1675 20.9236 32.1675 20.9236C32.1675 20.9236 30.3439 17.4333 27.4354 17.6074Z" fill="#808285"/>
<path d="M44.1931 18.0413C43.0797 16.7304 42.1266 15.2831 41.3627 13.7418C42.5159 12.7262 42.6334 10.7088 42.1748 9.24217C41.7163 7.77558 40.4977 6.60851 39.0684 6.04385C37.6391 5.47919 36.0253 5.48045 34.5381 5.86724C32.7334 6.33708 30.9992 7.46472 30.2814 9.18596C29.5636 10.9072 30.1862 13.2166 31.8898 13.9746C31.0537 16.2584 29.9273 18.5141 28.3567 20.3713C32.8521 20.409 37.3492 20.4472 41.843 20.3176C42.5759 20.2966 43.352 20.2572 43.9598 19.8477C44.5677 19.4383 44.6671 18.6005 44.1927 18.0418L44.1931 18.0413ZM38.9203 11.8482C38.0964 12.4237 36.9969 12.5101 36.0706 12.1406C35.5298 11.9249 35.0273 11.5432 34.7764 10.9999C34.5436 10.4957 34.5499 9.89618 34.7114 9.36257C34.8813 8.80211 35.2354 8.31548 35.683 7.96184C36.2963 7.4773 39.3914 6.65423 40.0991 9.17883C40.3777 10.1726 39.7438 11.2726 38.9199 11.8482H38.9203Z" fill="#BCBEC0"/>
<path d="M32.0968 20.398C32.6984 18.2031 33.472 16.0498 34.4654 14.0055C32.7265 13.4765 31.4252 11.7519 31.3925 9.93503C31.3673 8.53387 32.0998 7.16334 33.2241 6.33691C31.9366 6.93261 30.8215 7.89119 30.2816 9.18579C29.5639 10.907 30.1864 13.2164 31.89 13.9745C31.0539 16.2583 29.9276 18.514 28.3569 20.3711C29.6037 20.3816 30.8501 20.3913 32.0968 20.398Z" fill="#D1D3D4"/>
<path d="M10.8938 19.0381H68.8811L76.2916 103.566L19.0079 110.472L10.8938 19.0381Z" fill="#009C7F"/>
<path d="M53.9973 27.867C53.9973 27.867 59.2303 25.9281 57.5342 19.0381H50.2817L53.9977 27.867H53.9973Z" fill="#00896F"/>
<path d="M10.8938 19.0381L8.71655 20.6242L16.8806 109.631L19.0079 110.472L10.8938 19.0381Z" fill="#33CFB2"/>
<path d="M76.2916 103.566L71.1833 45.2973L67.1002 22.6007L15.8184 21.5889C15.8184 21.5889 15.2629 88.3413 25.7204 109.663L76.2916 103.566Z" fill="#00896F"/>
<path d="M16.8285 23.2229C34.0678 22.9137 51.307 22.6045 68.5458 22.2949C70.2704 47.7657 73.2594 73.1489 78.2025 98.1952C60.9922 98.7216 43.6959 101.126 26.7835 104.36C22.0623 87.2124 16.8281 38.4321 16.8281 23.2229H16.8285Z" fill="white"/>
<path d="M51.7785 22.596L53.9969 27.8675C53.9969 27.8675 57.4133 26.6039 57.8337 22.4873C55.815 22.5234 53.7967 22.5599 51.7781 22.596H51.7785Z" fill="#E6E7E8"/>
<path d="M32.9968 18.2503C36.6495 18.0838 40.3017 17.9177 43.9544 17.7511C43.2395 16.8781 42.5939 15.9489 42.0267 14.9731C40.7791 15.073 39.5504 15.3356 38.3556 15.7291C36.4771 16.3479 34.7067 17.2565 32.9968 18.2503Z" fill="#808285"/>
<path d="M30.262 27.8509L53.9973 27.8673C55.247 25.161 54.7021 21.9099 53.7058 18.9716C53.3798 18.0105 52.5265 17.328 51.5159 17.2345C43.8071 16.5226 35.917 16.4714 27.4358 17.6074C30.0791 18.9989 30.4965 24.041 30.2624 27.8509H30.262Z" fill="#BCBEC0"/>
<path d="M54.3451 21.2114L29.7993 21.2797C30.1672 22.7048 30.3103 24.3438 30.3174 25.9187L54.6115 25.7903C54.8393 24.3124 54.6933 22.7493 54.3451 21.2109V21.2114Z" fill="#D1D3D4"/>
<path d="M41.0862 17.2718C39.6343 17.3024 38.1471 17.3993 36.8164 17.9816C36.5786 18.0856 36.3076 18.2778 36.3554 18.5333C36.3969 18.7548 36.6516 18.855 36.8697 18.9125C40.2128 19.7909 43.7077 19.7507 47.13 19.4981C47.8025 19.4486 51.2513 19.5468 51.1057 18.6302C50.9115 17.4056 47.9124 17.5529 47.0684 17.4769C45.0803 17.2986 43.0822 17.2303 41.0862 17.2722V17.2718Z" fill="#D1D3D4"/>
<path d="M33.6849 19.1921C34.6017 19.1921 35.3449 18.9044 35.3449 18.5494C35.3449 18.1945 34.6017 17.9067 33.6849 17.9067C32.7681 17.9067 32.0249 18.1945 32.0249 18.5494C32.0249 18.9044 32.7681 19.1921 33.6849 19.1921Z" fill="#D1D3D4"/>
<path d="M66.3958 46.7568L57.003 47.233L55.2075 35.8433L64.6003 35.3672L66.3962 46.7568H66.3958ZM57.9712 46.0399L65.0693 45.6804L63.6316 36.5607L56.5336 36.9202L57.9712 46.0399Z" fill="#BCBEC0"/>
<path d="M69.2628 66.6232L59.868 67.0561L58.1245 55.6585L67.5194 55.2256L69.2628 66.6232ZM60.8417 65.8676L67.9414 65.5404L66.5453 56.414L59.4455 56.7413L60.8412 65.8676H60.8417Z" fill="#BCBEC0"/>
<path d="M63.5592 87.0128L61.6147 75.6475L71.0008 75.0488L72.9452 86.4141L63.5592 87.0128ZM62.9555 76.7067L64.5123 85.8071L71.6049 85.3549L70.0481 76.2545L62.9555 76.7067Z" fill="#BCBEC0"/>
<path d="M22.2846 42.2619C21.9007 42.2619 21.5836 41.9569 21.5714 41.5706C21.5588 41.1762 21.868 40.8465 22.2623 40.8339L51.8569 39.8875C52.2554 39.8762 52.581 40.1841 52.5936 40.5784C52.6062 40.9728 52.297 41.3025 51.9026 41.3151L22.3081 42.2615C22.3001 42.2615 22.2925 42.2619 22.2846 42.2619Z" fill="#808285"/>
<path d="M22.8568 45.2575C22.473 45.2575 22.1558 44.9525 22.1437 44.5661C22.1311 44.1718 22.4403 43.8421 22.8346 43.8295L52.4292 42.8831C52.8323 42.8726 53.1533 43.1797 53.1658 43.574C53.1784 43.9683 52.8692 44.2981 52.4749 44.3107L22.8803 45.2571C22.8724 45.2571 22.8648 45.2575 22.8573 45.2575H22.8568Z" fill="#808285"/>
<path d="M23.4291 48.2532C23.0453 48.2532 22.7281 47.9482 22.7159 47.5618C22.7034 47.1675 23.0125 46.8378 23.4069 46.8252L38.2042 46.352C38.604 46.3386 38.9282 46.6486 38.9408 47.0429C38.9534 47.4372 38.6442 47.767 38.2499 47.7796L23.4526 48.2528C23.4446 48.2528 23.4371 48.2532 23.4295 48.2532H23.4291Z" fill="#808285"/>
<path d="M21.6269 39.2823C21.243 39.2823 20.9259 38.9774 20.9137 38.591C20.9011 38.1967 21.2103 37.8669 21.6046 37.8543L36.4019 37.3811C36.803 37.3702 37.126 37.6777 37.1386 38.0721C37.1512 38.4664 36.842 38.7961 36.4476 38.8087L21.6504 39.2819C21.6424 39.2819 21.6348 39.2819 21.6269 39.2819V39.2823Z" fill="#00C39F"/>
<path d="M26.2872 63.6937C25.9231 63.6937 25.6122 63.4164 25.5774 63.0468C25.5405 62.6541 25.8287 62.3059 26.2213 62.269L55.7001 59.4856C56.0911 59.4457 56.441 59.7365 56.4779 60.1295C56.5148 60.5222 56.2266 60.8704 55.834 60.9073L26.3552 63.6907C26.3325 63.6928 26.3099 63.6941 26.2872 63.6941V63.6937Z" fill="#808285"/>
<path d="M27.0443 66.648C26.6802 66.648 26.3693 66.3707 26.3345 66.0011C26.2976 65.6084 26.5858 65.2603 26.9784 65.2233L56.4572 62.4399C56.8478 62.4017 57.1981 62.6908 57.235 63.0839C57.2719 63.4765 56.9837 63.8247 56.591 63.8616L27.1123 66.6451C27.0896 66.6471 27.0669 66.648 27.0443 66.648Z" fill="#808285"/>
<path d="M27.8016 69.6023C27.4374 69.6023 27.1266 69.325 27.0913 68.9555C27.0544 68.5628 27.3422 68.2142 27.7353 68.1773L42.4747 66.7853C42.8648 66.7522 43.2155 67.0366 43.2524 67.4293C43.2893 67.8219 43.0016 68.1706 42.6085 68.2075L27.8691 69.5994C27.8464 69.6015 27.8238 69.6023 27.8011 69.6023H27.8016Z" fill="#808285"/>
<path d="M25.4457 60.7608C25.0815 60.7608 24.7707 60.4835 24.7359 60.1139C24.6989 59.7213 24.9871 59.3731 25.3798 59.3362L40.1192 57.9442C40.5097 57.9065 40.86 58.1951 40.897 58.5882C40.9339 58.9808 40.6457 59.329 40.253 59.3659L25.5136 60.7575C25.491 60.7596 25.4683 60.7608 25.4457 60.7608Z" fill="#00C39F"/>
<path d="M29.7852 84.5868C29.4261 84.5868 29.1169 84.3166 29.0762 83.9512C29.0326 83.5594 29.3153 83.2062 29.7072 83.163L59.1364 79.8988C59.5278 79.8535 59.8811 80.1375 59.9247 80.5297C59.9683 80.9216 59.6856 81.2748 59.2938 81.318L29.8645 84.5822C29.838 84.5851 29.8112 84.5868 29.7852 84.5868Z" fill="#808285"/>
<path d="M30.5906 87.5288C30.2315 87.5288 29.9223 87.2586 29.8816 86.8932C29.838 86.5014 30.1208 86.1482 30.5126 86.105L59.9419 82.8408C60.3333 82.795 60.6865 83.0795 60.7301 83.4717C60.7738 83.8635 60.491 84.2168 60.0992 84.26L30.6699 87.5242C30.6435 87.5271 30.6166 87.5288 30.5906 87.5288Z" fill="#808285"/>
<path d="M31.3955 90.4704C31.0364 90.4704 30.7273 90.2003 30.6866 89.8349C30.6429 89.4431 30.9257 89.0898 31.3175 89.0466L46.0322 87.4148C46.424 87.3703 46.7768 87.6535 46.8204 88.0457C46.8636 88.4375 46.5813 88.7907 46.1895 88.834L31.4748 90.4658C31.4484 90.4688 31.4215 90.4704 31.3955 90.4704Z" fill="#808285"/>
<path d="M28.8958 81.6689C28.5367 81.6689 28.2275 81.3988 28.1868 81.0334C28.1432 80.6416 28.4259 80.2883 28.8178 80.2451L43.5324 78.6128C43.9259 78.5667 44.2774 78.8515 44.3211 79.2437C44.3647 79.6356 44.082 79.9888 43.6901 80.032L28.9755 81.6643C28.9486 81.6672 28.9222 81.6689 28.8958 81.6689Z" fill="#00C39F"/>
<path d="M54.7395 36.9919C56.7808 37.6619 58.6736 38.5684 60.2199 40.1986C62.226 37.6165 64.0341 35.2786 66.8637 33.2671C64.1826 36.512 62.1014 40.0929 60.7024 43.8701C59.3843 41.3279 57.301 38.8679 54.7395 36.9923V36.9919Z" fill="#39B54A"/>
<path d="M57.6311 57.7746C59.6724 58.4446 61.5652 59.3511 63.1115 60.9813C65.1176 58.3993 66.9257 56.0613 69.7553 54.0498C67.0742 57.2947 64.993 60.8756 63.594 64.6529C62.2759 62.1106 60.1926 59.6506 57.6311 57.775V57.7746Z" fill="#39B54A"/>
<path d="M61.218 77.1979C63.2593 77.8679 65.1522 78.7745 66.6985 80.4047C68.7045 77.8226 70.5126 75.4847 73.3422 73.4731C70.6611 76.718 68.58 80.299 67.1809 84.0762C65.8628 81.534 63.7795 79.074 61.218 77.1984V77.1979Z" fill="#39B54A"/>
<path d="M84.7359 79.5793L70.8342 77.8799V57.3769L84.7359 54.7437V79.5793Z" fill="url(#paint0_linear_13396_108364)"/>
<path d="M101.693 78.4991L84.7358 79.5793V54.7437L101.693 57.0845V78.4991Z" fill="url(#paint1_linear_13396_108364)"/>
<g style="mix-blend-mode:soft-light">
<path d="M91.1279 55.6265V65.753L96.7728 66.2027V56.4055L91.1279 55.6265Z" fill="white"/>
</g>
<path d="M107.785 109.206L81.9961 111.02V73.2485L107.785 75.0625V109.206Z" fill="url(#paint2_linear_13396_108364)"/>
<path d="M81.996 111.02L60.8533 108.435V75.6599L81.996 73.2485V111.02Z" fill="url(#paint3_linear_13396_108364)"/>
<g style="mix-blend-mode:soft-light">
<path d="M91.1252 73.8906V89.2169H99.7658V74.4985L91.1252 73.8906Z" fill="white"/>
</g>
<path d="M87.0664 50.6899C98.7011 50.6899 108.133 41.2582 108.133 29.6235C108.133 17.9889 98.7011 8.55713 87.0664 8.55713C75.4318 8.55713 66 17.9889 66 29.6235C66 41.2582 75.4318 50.6899 87.0664 50.6899Z" fill="#F59E0B"/>
<path d="M84 41.5023C84 40.7597 84.167 40.1364 84.504 39.6354C84.841 39.1344 85.2555 38.7587 85.7505 38.5112C86.2456 38.2637 86.7883 38.1414 87.3788 38.1414C87.9692 38.1414 88.512 38.2637 89.007 38.5112C89.502 38.7587 89.9166 39.1344 90.2535 39.6354C90.5905 40.1364 90.7575 40.7597 90.7575 41.5023C90.7575 42.2448 90.5875 42.8591 90.2535 43.3482C89.9166 43.8373 89.502 44.2041 89.007 44.4516C88.512 44.6991 87.9692 44.8214 87.3788 44.8214C86.7883 44.8214 86.2456 44.6991 85.7505 44.4516C85.2555 44.2041 84.841 43.8373 84.504 43.3482C84.167 42.8591 84 42.2448 84 41.5023ZM90.1253 15V36.7994H84.5994V15.003H90.1253V15Z" fill="white"/>
<defs>
<linearGradient id="paint0_linear_13396_108364" x1="84.9091" y1="56.4464" x2="69.6521" y2="82.2138" gradientUnits="userSpaceOnUse">
<stop stop-color="#FFC444"/>
<stop offset="0.31" stop-color="#FBA94A"/>
<stop offset="1" stop-color="#F36F56"/>
</linearGradient>
<linearGradient id="paint1_linear_13396_108364" x1="98.8686" y1="57.0719" x2="83.0435" y2="83.7987" gradientUnits="userSpaceOnUse">
<stop stop-color="#FFC444"/>
<stop offset="0.31" stop-color="#FBA94A"/>
<stop offset="1" stop-color="#F36F56"/>
</linearGradient>
<linearGradient id="paint2_linear_13396_108364" x1="104.179" y1="75.5403" x2="79.2622" y2="117.622" gradientUnits="userSpaceOnUse">
<stop stop-color="#FFC444"/>
<stop offset="0.31" stop-color="#FBA94A"/>
<stop offset="1" stop-color="#F36F56"/>
</linearGradient>
<linearGradient id="paint3_linear_13396_108364" x1="81.9104" y1="75.6313" x2="58.7067" y2="114.82" gradientUnits="userSpaceOnUse">
<stop stop-color="#FFC444"/>
<stop offset="0.31" stop-color="#FBA94A"/>
<stop offset="1" stop-color="#F36F56"/>
</linearGradient>
</defs>
</svg>
