<svg viewBox="0 0 20 20" xmlns="http://www.w3.org/2000/svg">
	<path d="M10.0001 2.5C8.59607 2.5 7.25082 2.81822 6.00195 3.35052L6.95405 4.30261C7.9188 3.95311 8.94155 3.75 10.0001 3.75C13.8661 3.75 17.3409 6.25307 18.7124 10.0001C18.1898 11.428 17.3586 12.6714 16.3198 13.6683L17.1988 14.5474C18.4187 13.3712 19.3865 11.8998 19.9667 10.2021C20.0113 10.0709 20.0113 9.92928 19.9667 9.79806C18.475 5.43278 14.4698 2.5 10.0001 2.5Z" />
	<path d="M12.4829 9.83168L13.6102 10.9589C13.6922 10.651 13.7499 10.3336 13.7499 10.0001C13.7499 7.93217 12.0678 6.25 9.99989 6.25C9.66639 6.25 9.34893 6.30777 9.04102 6.38979L10.1683 7.51705C11.4107 7.60157 12.3984 8.5893 12.4829 9.83168Z" />
	<path d="M1.24989 2.13383L3.78424 4.66819C2.10574 5.9376 0.758235 7.67711 0.0334227 9.79813C-0.0111409 9.92935 -0.0111409 10.071 0.0334227 10.2022C1.52514 14.5675 5.53031 17.5003 9.99999 17.5003C11.858 17.5003 13.6129 16.9543 15.161 16.045L17.8663 18.7503L18.7501 17.8665L2.13365 1.25L1.24985 2.1338L1.24989 2.13383ZM10 16.2503C6.13403 16.2503 2.65923 13.7472 1.28774 10.0002C1.96417 8.15193 3.17977 6.64855 4.67638 5.56034L6.94989 7.83385C6.51296 8.44703 6.24997 9.19159 6.24997 10.0002C6.24997 12.068 7.9321 13.7502 10 13.7502C10.8086 13.7502 11.5532 13.4872 12.1663 13.0503L14.2463 15.1302C12.9554 15.8298 11.5176 16.2503 10 16.2503ZM7.85415 8.73815L11.2621 12.1461C10.8902 12.3657 10.4623 12.5003 10 12.5003C8.62121 12.5003 7.5 11.379 7.5 10.0002C7.5 9.53793 7.63457 9.11001 7.85415 8.73815Z" />
</svg>
