<svg viewBox="0 0 16 16" fill="none" xmlns="http://www.w3.org/2000/svg">
<path d="M5.33334 3.83301C5.06 3.83301 4.83334 3.60634 4.83334 3.33301V1.33301C4.83334 1.05967 5.06 0.833008 5.33334 0.833008C5.60667 0.833008 5.83334 1.05967 5.83334 1.33301V3.33301C5.83334 3.60634 5.60667 3.83301 5.33334 3.83301Z" fill="#6C757D"/>
<path d="M10.6667 3.83301C10.3933 3.83301 10.1667 3.60634 10.1667 3.33301V1.33301C10.1667 1.05967 10.3933 0.833008 10.6667 0.833008C10.94 0.833008 11.1667 1.05967 11.1667 1.33301V3.33301C11.1667 3.60634 10.94 3.83301 10.6667 3.83301Z" fill="#6C757D"/>
<path d="M5.66667 9.66679C5.49333 9.66679 5.32 9.59345 5.19333 9.47345C5.16666 9.44012 5.13333 9.40679 5.11333 9.37346C5.08667 9.33346 5.06667 9.29346 5.05333 9.25346C5.03333 9.21346 5.02 9.17347 5.01334 9.13347C5.00667 9.0868 5 9.04012 5 9.00012C5 8.82679 5.07333 8.65346 5.19333 8.5268C5.44 8.28013 5.88667 8.28013 6.14 8.5268C6.26 8.65346 6.33333 8.82679 6.33333 9.00012C6.33333 9.04012 6.32666 9.0868 6.32 9.13347C6.31333 9.17347 6.3 9.21346 6.28 9.25346C6.26667 9.29346 6.24667 9.33346 6.22 9.37346C6.19333 9.40679 6.16667 9.44012 6.14 9.47345C6.01334 9.59345 5.84 9.66679 5.66667 9.66679Z" fill="#6C757D"/>
<path d="M8 9.66658C7.91334 9.66658 7.82667 9.64659 7.74667 9.61326C7.66 9.57992 7.58666 9.53324 7.52666 9.47324C7.5 9.43991 7.46667 9.40658 7.44667 9.37325C7.42 9.33325 7.4 9.29325 7.38667 9.25325C7.36667 9.21325 7.35334 9.17326 7.34667 9.13326C7.34001 9.08659 7.33334 9.03992 7.33334 8.99992C7.33334 8.82658 7.40666 8.65325 7.52666 8.52659C7.58666 8.46659 7.66 8.41991 7.74667 8.38657C7.98667 8.27991 8.28667 8.33992 8.47334 8.52659C8.59334 8.65325 8.66667 8.82658 8.66667 8.99992C8.66667 9.03992 8.66 9.08659 8.65333 9.13326C8.64667 9.17326 8.63333 9.21325 8.61333 9.25325C8.6 9.29325 8.58 9.33325 8.55334 9.37325C8.52667 9.40658 8.50001 9.43991 8.47334 9.47324C8.34667 9.59324 8.17334 9.66658 8 9.66658Z" fill="#6C757D"/>
<path d="M5.66667 12.0003C5.48667 12.0003 5.32 11.927 5.19333 11.807C5.07333 11.6803 5 11.507 5 11.3337C5 11.1603 5.07333 10.987 5.19333 10.8603C5.22666 10.8337 5.26 10.8003 5.29333 10.7803C5.33334 10.7537 5.37333 10.7337 5.41333 10.7203C5.45333 10.7003 5.49334 10.687 5.53334 10.6803C5.66667 10.6537 5.8 10.667 5.92 10.7203C6.00667 10.7537 6.07334 10.8003 6.14 10.8603C6.26 10.987 6.33333 11.1603 6.33333 11.3337C6.33333 11.507 6.26 11.6803 6.14 11.807C6.07334 11.867 6.00667 11.9137 5.92 11.947C5.84 11.9803 5.75333 12.0003 5.66667 12.0003Z" fill="#6C757D"/>
<path d="M13.6667 6.55957H2.33334C2.06 6.55957 1.83334 6.3329 1.83334 6.05957C1.83334 5.78624 2.06 5.55957 2.33334 5.55957H13.6667C13.94 5.55957 14.1667 5.78624 14.1667 6.05957C14.1667 6.3329 13.94 6.55957 13.6667 6.55957Z" fill="#6C757D"/>
<path d="M12 15.8333C10.2533 15.8333 8.83334 14.4133 8.83334 12.6667C8.83334 10.92 10.2533 9.5 12 9.5C13.7467 9.5 15.1667 10.92 15.1667 12.6667C15.1667 14.4133 13.7467 15.8333 12 15.8333ZM12 10.5C10.8067 10.5 9.83334 11.4733 9.83334 12.6667C9.83334 13.86 10.8067 14.8333 12 14.8333C13.1933 14.8333 14.1667 13.86 14.1667 12.6667C14.1667 11.4733 13.1933 10.5 12 10.5Z" fill="#6C757D"/>
<path d="M12.7133 13.9069C12.5866 13.9069 12.4599 13.8603 12.3599 13.7603L10.9533 12.3536C10.7599 12.1603 10.7599 11.8403 10.9533 11.647C11.1466 11.4536 11.4666 11.4536 11.6599 11.647L13.0666 13.0536C13.2599 13.2469 13.2599 13.567 13.0666 13.7603C12.9666 13.8603 12.8399 13.9069 12.7133 13.9069Z" fill="#6C757D"/>
<path d="M11.2867 13.9265C11.1601 13.9265 11.0334 13.8798 10.9334 13.7798C10.7401 13.5865 10.7401 13.2665 10.9334 13.0731L12.3401 11.6665C12.5334 11.4732 12.8534 11.4732 13.0468 11.6665C13.2401 11.8598 13.2401 12.1798 13.0468 12.3731L11.6401 13.7798C11.5401 13.8732 11.4134 13.9265 11.2867 13.9265Z" fill="#6C757D"/>
<path d="M10.2467 15.1663H5.33333C2.9 15.1663 1.5 13.7663 1.5 11.333V5.66634C1.5 3.23301 2.9 1.83301 5.33333 1.83301H10.6667C13.1 1.83301 14.5 3.23301 14.5 5.66634V10.9063C14.5 11.113 14.3733 11.2997 14.1733 11.373C13.98 11.4463 13.76 11.393 13.62 11.233C13.2067 10.7663 12.6133 10.4997 11.9933 10.4997C10.8 10.4997 9.82667 11.473 9.82667 12.6663C9.82667 13.0597 9.93334 13.4464 10.14 13.7797C10.2533 13.9797 10.4 14.1463 10.56 14.2863C10.72 14.4197 10.78 14.6397 10.7067 14.8397C10.6467 15.033 10.46 15.1663 10.2467 15.1663ZM5.33333 2.83301C3.42667 2.83301 2.5 3.75967 2.5 5.66634V11.333C2.5 13.2397 3.42667 14.1663 5.33333 14.1663H9.21334C8.96667 13.713 8.83333 13.1997 8.83333 12.6663C8.83333 10.9197 10.2533 9.49967 12 9.49967C12.5267 9.49967 13.0467 9.63301 13.5 9.87968V5.66634C13.5 3.75967 12.5733 2.83301 10.6667 2.83301H5.33333Z" fill="#6C757D"/>
</svg>
