<svg viewBox="0 0 25 25" fill="none" xmlns="http://www.w3.org/2000/svg">
  <path
    d="M2.08105 18.2256C2.08105 18.7753 2.52662 19.2208 3.07625 19.2208H11.0859C11.6355 19.2208 12.0811 18.7753 12.0811 18.2256C12.0811 17.676 11.6355 17.2304 11.0859 17.2304H3.07625C2.52662 17.2304 2.08105 17.676 2.08105 18.2256Z" />
  <path
    d="M2.08105 12.2211C2.08105 12.7707 2.52662 13.2163 3.07625 13.2163H21.0859C21.6355 13.2163 22.0811 12.7707 22.0811 12.2211C22.0811 11.6714 21.6355 11.2259 21.0859 11.2259H3.07625C2.52662 11.2259 2.08105 11.6714 2.08105 12.2211Z" />
  <path
    d="M3.07625 7.21121C2.52662 7.21121 2.08105 6.76565 2.08105 6.21602C2.08105 5.66639 2.52662 5.22083 3.07625 5.22083H15.0859C15.6355 5.22083 16.0811 5.66639 16.0811 6.21602C16.0811 6.76565 15.6355 7.21121 15.0859 7.21121H3.07625Z" />
</svg>