<svg width="32" height="33" viewBox="0 0 32 33" fill="none" xmlns="http://www.w3.org/2000/svg">
<g clip-path="url(#clip0_24043_28187)">
<path d="M26.666 3.16602H10.666C9.19935 3.16602 7.99935 4.36602 7.99935 5.83268V21.8327C7.99935 23.2993 9.19935 24.4993 10.666 24.4993H26.666C28.1327 24.4993 29.3327 23.2993 29.3327 21.8327V5.83268C29.3327 4.36602 28.1327 3.16602 26.666 3.16602ZM16.626 19.166L11.9993 14.4993L13.866 12.6193L16.626 15.3927L23.466 8.49935L25.3327 10.3793L16.626 19.166ZM5.33268 8.49935H2.66602V27.166C2.66602 28.6327 3.86602 29.8327 5.33268 29.8327H23.9993V27.166H5.33268V8.49935Z" fill="#2244B1"/>
</g>
<defs>
<clipPath id="clip0_24043_28187">
<rect width="32" height="32" fill="white" transform="translate(0 0.5)"/>
</clipPath>
</defs>
</svg>
