<svg width="35" height="35" viewBox="0 0 41 41" fill="none" xmlns="http://www.w3.org/2000/svg">
	<path d="M27.7999 38.4164H5.89983C4.3165 38.4164 2.84985 37.6832 1.89985 36.3998C0.933179 35.0998 0.64986 33.4664 1.13319 31.9164L8.14985 9.36633C8.78318 7.26633 10.7165 5.83301 12.9165 5.83301H33.4165C35.4332 5.83301 37.2499 7.03315 38.0165 8.89982C38.4332 9.86649 38.5165 10.9665 38.2665 12.0498L32.6499 34.5997C32.1165 36.8497 30.1165 38.4164 27.7999 38.4164ZM12.9332 8.34969C11.8498 8.34969 10.8665 9.06646 10.5498 10.1165L3.5332 32.6665C3.29986 33.4498 3.43318 34.2665 3.93318 34.9331C4.39985 35.5665 5.13318 35.9331 5.91652 35.9331H27.8165C28.9665 35.9331 29.9665 35.1497 30.2332 34.0331L35.8498 11.4663C35.9832 10.9163 35.9499 10.3664 35.7332 9.8831C35.3332 8.9331 34.4499 8.33301 33.4332 8.33301H12.9332V8.34969Z" fill="#00C39F"/>
	<path d="M35.1333 38.4168H27.1666C26.4833 38.4168 25.9166 37.8501 25.9166 37.1668C25.9166 36.4834 26.4833 35.9168 27.1666 35.9168H35.1333C35.8166 35.9168 36.45 35.6335 36.9166 35.1335C37.3833 34.6335 37.6166 33.9668 37.5666 33.2835L35.9166 10.5835C35.8666 9.90019 36.3833 9.30011 37.0666 9.25011C37.75 9.21678 38.3499 9.71668 38.3999 10.4L40.05 33.1002C40.15 34.4669 39.6666 35.8335 38.7333 36.8335C37.8166 37.8502 36.5 38.4168 35.1333 38.4168Z" fill="#00C39F"/>
	<path d="M16.6329 12.3832C16.5329 12.3832 16.4329 12.3665 16.3329 12.3498C15.6662 12.1831 15.2496 11.5164 15.4163 10.8331L17.1496 3.63318C17.3162 2.96651 17.9829 2.54977 18.6662 2.71643C19.3329 2.8831 19.7496 3.54982 19.5829 4.23316L17.8496 11.4333C17.7163 11.9999 17.1996 12.3832 16.6329 12.3832Z" fill="#00C39F"/>
	<path d="M27.7999 12.4001C27.7166 12.4001 27.6166 12.4 27.5332 12.3667C26.8666 12.2167 26.4333 11.55 26.5666 10.8833L28.1332 3.65006C28.2832 2.96673 28.9499 2.55013 29.6166 2.68347C30.2832 2.8168 30.7165 3.49995 30.5832 4.16662L29.0165 11.4001C28.8999 12.0001 28.3832 12.4001 27.7999 12.4001Z" fill="#00C39F"/>
	<path d="M26.667 21.75H13.3336C12.6503 21.75 12.0836 21.1833 12.0836 20.5C12.0836 19.8167 12.6503 19.25 13.3336 19.25H26.667C27.3503 19.25 27.917 19.8167 27.917 20.5C27.917 21.1833 27.3503 21.75 26.667 21.75Z" fill="#00C39F"/>
	<path d="M25.0003 28.4165H11.667C10.9837 28.4165 10.417 27.8498 10.417 27.1665C10.417 26.4832 10.9837 25.9165 11.667 25.9165H25.0003C25.6837 25.9165 26.2503 26.4832 26.2503 27.1665C26.2503 27.8498 25.6837 28.4165 25.0003 28.4165Z" fill="#00C39F"/>
	</svg>
	