<svg width="24" height="24" viewBox="0 0 15 18" fill="none" xmlns="http://www.w3.org/2000/svg">
  <path d="M12.4997 4.00033H10.833C10.833 2.15866 9.34134 0.666992 7.49967 0.666992C5.65801 0.666992 4.16634 2.15866 4.16634 4.00033H2.49967C1.58301 4.00033 0.833008 4.75033 0.833008 5.66699V15.667C0.833008 16.5837 1.58301 17.3337 2.49967 17.3337H12.4997C13.4163 17.3337 14.1663 16.5837 14.1663 15.667V5.66699C14.1663 4.75033 13.4163 4.00033 12.4997 4.00033ZM7.49967 2.33366C8.41634 2.33366 9.16634 3.08366 9.16634 4.00033H5.83301C5.83301 3.08366 6.58301 2.33366 7.49967 2.33366ZM12.4997 15.667H2.49967V5.66699H4.16634V7.33366C4.16634 7.79199 4.54134 8.16699 4.99967 8.16699C5.45801 8.16699 5.83301 7.79199 5.83301 7.33366V5.66699H9.16634V7.33366C9.16634 7.79199 9.54134 8.16699 9.99967 8.16699C10.458 8.16699 10.833 7.79199 10.833 7.33366V5.66699H12.4997V15.667Z" fill="white"/>
  </svg>
  