<svg width="17" height="16" viewBox="0 0 17 16" fill="none" xmlns="http://www.w3.org/2000/svg">
<g clip-path="url(#clip0_1577_16729)">
<path d="M6.83821 10.8759L4.00979 8.04744L4.95259 7.10464L6.83821 8.99025L10.6094 5.21902L11.5523 6.16183L6.83821 10.8759Z" fill="#19C9A8"/>
<path fill-rule="evenodd" clip-rule="evenodd" d="M0.676453 8.00008C0.676453 3.94999 3.9597 0.666748 8.00979 0.666748C12.0599 0.666748 15.3431 3.94999 15.3431 8.00008C15.3431 12.0502 12.0599 15.3334 8.00979 15.3334C3.9597 15.3334 0.676453 12.0502 0.676453 8.00008ZM8.00979 14.0001C4.69608 14.0001 2.00979 11.3138 2.00979 8.00008C2.00979 4.68637 4.69608 2.00008 8.00979 2.00008C11.3235 2.00008 14.0098 4.68637 14.0098 8.00008C14.0098 11.3138 11.3235 14.0001 8.00979 14.0001Z" fill="#19C9A8"/>
</g>
<defs>
<clipPath id="clip0_1577_16729">
<rect width="16" height="16" fill="white" transform="translate(0.00976562)"/>
</clipPath>
</defs>
</svg>
