<svg width="40" height="40" viewBox="0 0 40 40" fill="none" xmlns="http://www.w3.org/2000/svg">
<path d="M23.8602 9.81578L26.601 11.8434C26.9095 12.0716 26.7536 12.5766 26.3635 12.5791L25.5034 12.5843C25.5025 12.5843 25.5018 12.5843 25.5009 12.5843C25.2797 12.5843 25.099 12.4052 25.0976 12.184C25.0936 11.5368 24.5661 11.0141 23.9186 11.0194C23.2714 11.0234 22.75 11.5512 22.7539 12.1984C22.7617 13.4488 23.6084 14.5007 24.7557 14.8246V14.8813C24.7557 15.5285 25.2804 16.0532 25.9275 16.0532C26.5747 16.0532 27.0993 15.5285 27.0993 14.8813V14.8222C27.5559 14.6956 27.9739 14.4522 28.3157 14.1059C28.8315 13.5836 29.1129 12.8917 29.1079 12.1559V12.1485C29.102 11.289 28.6859 10.4705 27.9948 9.9593L25.2541 7.93172C24.9429 7.70141 25.1064 7.20516 25.4941 7.20516H26.3555C26.5779 7.20516 26.7589 7.38586 26.7589 7.60797C26.7589 8.25516 27.2836 8.77984 27.9307 8.77984C28.5778 8.77984 29.1025 8.25516 29.1025 7.60797C29.1025 6.35133 28.2536 5.28977 27.0993 4.96461V4.9082C27.0993 4.26102 26.5746 3.73633 25.9275 3.73633C25.2804 3.73633 24.7557 4.26102 24.7557 4.9082V4.96305C23.5986 5.28641 22.7471 6.3493 22.7471 7.60797C22.7471 8.47477 23.1632 9.30008 23.8602 9.81578Z" fill="white"/>
<path d="M25.927 19.7902C31.3846 19.7902 35.8246 15.3513 35.8246 9.89508C35.8246 4.43883 31.3845 0 25.927 0C20.4694 0 16.0293 4.43891 16.0293 9.89515C16.0293 15.3514 20.4694 19.7902 25.927 19.7902ZM25.927 2.34375C30.0923 2.34375 33.4809 5.73133 33.4809 9.89515C33.4809 14.059 30.0923 17.4466 25.927 17.4466C21.7617 17.4466 18.373 14.059 18.373 9.89515C18.373 5.73133 21.7617 2.34375 25.927 2.34375Z" fill="white"/>
<path d="M39.1941 22.4362C37.9267 20.8045 35.6386 20.4975 33.9916 21.6402L29.5329 24.623C28.9133 23.4694 27.695 22.683 26.2962 22.683H23.1156C21.5102 21.1772 19.3668 20.3223 17.156 20.3223C15.4967 20.3223 13.8826 20.791 12.4883 21.6779C11.232 22.477 10.2043 23.5809 9.49813 24.8842L8.9011 25.2493L8.74641 24.7969C8.53704 24.1846 7.8711 23.8578 7.25875 24.067L0.793208 26.2763C0.181099 26.4855 -0.146089 27.1519 0.0632864 27.7644L3.97524 39.2067C4.18469 39.8194 4.85086 40.1456 5.4629 39.9365L11.9284 37.7274C12.5059 37.5301 12.8841 36.8998 12.6454 36.2015L22.9048 35.8839C25.6988 35.8801 28.3782 35.0221 30.6541 33.4022L38.391 27.8989C40.1648 26.6363 40.5309 24.156 39.1941 22.4362ZM5.81383 37.3398L2.66008 28.1152L6.90782 26.6638C7.3654 28.0023 9.5893 34.507 10.0616 35.8885L5.81383 37.3398ZM37.0323 25.9891L29.2955 31.4924C27.4134 32.832 25.197 33.5401 22.8863 33.5401C22.8742 33.5401 22.862 33.5402 22.85 33.5406L11.8521 33.881L9.67789 27.5214L10.9994 26.7133C10.9997 26.7131 10.9999 26.7129 11.0002 26.7126C11.1948 26.5936 11.3469 26.4188 11.4397 26.2297C12.5182 24.0315 14.7086 22.6659 17.156 22.6659C18.9246 22.6659 20.5673 23.3739 21.7814 24.6595C22.005 24.8964 22.3263 25.0265 22.6334 25.0265H26.2962C27.0284 25.0265 27.624 25.6218 27.624 26.3536C27.624 27.0777 27.0383 27.6807 26.2962 27.6807H19.6845C19.0373 27.6807 18.5127 28.2054 18.5127 28.8526C18.5127 29.4998 19.0374 30.0244 19.6845 30.0244H26.2962C27.2777 30.0244 28.1998 29.6423 28.8919 28.9491C29.3761 28.4651 29.7079 27.8696 29.8645 27.2209L35.3036 23.582C35.3102 23.5777 35.3166 23.5732 35.3231 23.5687C35.9645 23.1206 36.853 23.2426 37.3435 23.8741C37.8608 24.5397 37.7194 25.5002 37.0323 25.9891Z" fill="white"/>
</svg>
