<svg viewBox="0 0 20 20" fill="none" xmlns="http://www.w3.org/2000/svg">
<path d="M11.6667 1.6665H5.00001C4.55798 1.6665 4.13406 1.8421 3.8215 2.15466C3.50894 2.46722 3.33334 2.89114 3.33334 3.33317V16.6665C3.33334 17.5915 4.07501 18.3332 5.00001 18.3332H15C15.925 18.3332 16.6667 17.5915 16.6667 16.6665V6.6665L11.6667 1.6665ZM15 16.6665H5.00001V3.33317H10.8333V7.49984H15V16.6665ZM10.75 12.0832L13.1667 15.8332H11.6667L10 12.9998L8.33334 15.8332H6.83334L9.25001 12.0832L6.83334 8.33317H8.33334L10 11.1665L11.6667 8.33317H13.1667L10.75 12.0832Z" fill="white"/>
</svg>
