<svg width="24" height="20" viewBox="0 0 24 20" fill="none" xmlns="http://www.w3.org/2000/svg">
<path d="M21.3335 2.99935H12.0002L10.3552 1.35435C9.91183 0.911016 9.31683 0.666016 8.6985 0.666016H2.66683C1.3835 0.666016 0.333496 1.71602 0.333496 2.99935V16.9994C0.333496 18.2827 1.3835 19.3327 2.66683 19.3327H21.3335C22.6168 19.3327 23.6668 18.2827 23.6668 16.9994V5.33268C23.6668 4.04935 22.6168 2.99935 21.3335 2.99935ZM17.7635 15.1443L15.5002 13.826L13.2368 15.1443C12.7935 15.401 12.2568 15.0043 12.3735 14.5027L12.9685 11.936L10.9968 10.2327C10.6118 9.89435 10.8102 9.25268 11.3235 9.20602L13.9252 8.98435L14.9518 6.58102C15.1502 6.11435 15.8268 6.11435 16.0252 6.58102L17.0518 8.98435L19.6535 9.20602C20.1668 9.25268 20.3768 9.89435 19.9802 10.2327L18.0085 11.936L18.6035 14.5027C18.7318 15.0043 18.1952 15.401 17.7635 15.1443V15.1443Z" fill="#00C39F"/>
</svg>
