<svg viewBox="0 0 14 14" fill="none" xmlns="http://www.w3.org/2000/svg">
<path d="M6.99995 7.75817C6.92412 7.75817 6.84828 7.74069 6.77828 7.69985L1.62745 4.71903C1.41745 4.59653 1.34744 4.32818 1.46994 4.11818C1.59244 3.90818 1.85494 3.83817 2.07078 3.96067L6.99995 6.81317L11.8999 3.97818C12.1099 3.85568 12.3783 3.93153 12.5008 4.13569C12.6233 4.34569 12.5475 4.61401 12.3433 4.73651L7.22746 7.69985C7.15162 7.73485 7.07578 7.75817 6.99995 7.75817Z" fill="#00C39F"/>
<path d="M7 13.0428C6.76083 13.0428 6.5625 12.8445 6.5625 12.6053V7.31445C6.5625 7.07529 6.76083 6.87695 7 6.87695C7.23917 6.87695 7.4375 7.07529 7.4375 7.31445V12.6053C7.4375 12.8445 7.23917 13.0428 7 13.0428Z" fill="#00C39F"/>
<path d="M6.99985 13.2702C6.46901 13.2702 5.96151 13.1476 5.57651 12.9318L2.46151 11.2052C1.61568 10.7385 0.950684 9.61266 0.950684 8.64433V5.34264C0.950684 4.37431 1.61568 3.25434 2.46151 2.78184L5.57651 1.05516C6.36985 0.611823 7.61818 0.611823 8.41734 1.05516L11.5323 2.78184C12.3782 3.2485 13.0432 4.37431 13.0432 5.34264V7.47766C13.0432 7.71683 12.8448 7.91516 12.6057 7.91516C12.3665 7.91516 12.1682 7.71683 12.1682 7.47766V5.34264C12.1682 4.70098 11.6723 3.86101 11.1123 3.55184L7.99734 1.82516C7.46651 1.52766 6.53901 1.52766 6.00817 1.82516L2.89318 3.55184C2.32734 3.86684 1.83734 4.70098 1.83734 5.34264V8.64433C1.83734 9.286 2.33318 10.126 2.89318 10.4352L6.00817 12.1618C6.52151 12.4476 7.48984 12.4476 7.99734 12.1618C8.20734 12.0451 8.47569 12.121 8.59235 12.331C8.70902 12.541 8.63318 12.8093 8.42318 12.926C8.03818 13.1476 7.53068 13.2702 6.99985 13.2702Z" fill="#00C39F"/>
<path d="M11.2002 12.9208C9.9285 12.9208 8.896 11.8883 8.896 10.6167C8.896 9.34501 9.9285 8.3125 11.2002 8.3125C12.4718 8.3125 13.5043 9.34501 13.5043 10.6167C13.5043 11.8883 12.4718 12.9208 11.2002 12.9208ZM11.2002 9.1875C10.4127 9.1875 9.771 9.82917 9.771 10.6167C9.771 11.4042 10.4127 12.0458 11.2002 12.0458C11.9877 12.0458 12.6293 11.4042 12.6293 10.6167C12.6293 9.82917 11.9877 9.1875 11.2002 9.1875Z" fill="#00C39F"/>
<path d="M13.4168 13.2713C13.306 13.2713 13.1952 13.2305 13.1077 13.143L12.5243 12.5597C12.3552 12.3905 12.3552 12.1105 12.5243 11.9413C12.6935 11.7722 12.9735 11.7722 13.1427 11.9413L13.726 12.5247C13.8952 12.6938 13.8952 12.9739 13.726 13.143C13.6385 13.2305 13.5277 13.2713 13.4168 13.2713Z" fill="#00C39F"/>
</svg>
