<svg width="18" height="18" viewBox="0 0 18 18" fill="none" xmlns="http://www.w3.org/2000/svg">
<path d="M3.75 2.25C3.35218 2.25 2.97064 2.40804 2.68934 2.68934C2.40804 2.97064 2.25 3.35218 2.25 3.75V14.25C2.25 14.6478 2.40804 15.0294 2.68934 15.3107C2.97064 15.592 3.35218 15.75 3.75 15.75H9.6075C9.3375 15.285 9.15 14.775 9.06 14.25H3.75V3.75H12.1275L14.25 5.8725V9.06C14.775 9.15 15.285 9.3375 15.75 9.6075V5.25L12.75 2.25H3.75ZM4.5 4.5V7.5H11.25V4.5H4.5ZM9 9C7.755 9 6.75 10.005 6.75 11.25C6.75 12.495 7.755 13.5 9 13.5C9 12.0825 9.6675 10.755 10.7925 9.9075C10.3875 9.375 9.75 9 9 9ZM12.75 10.5V12.75H10.5V14.25H12.75V16.5H14.25V14.25H16.5V12.75H14.25V10.5H12.75Z" fill="white"/>
</svg>
