<svg width="21" height="20" viewBox="0 0 21 20" fill="none" xmlns="http://www.w3.org/2000/svg">
<path d="M11.3333 2.5C9.34422 2.5 7.43656 3.29018 6.03004 4.6967C4.62352 6.10322 3.83334 8.01088 3.83334 10H1.33334L4.57501 13.2417L4.63334 13.3583L8.00001 10H5.50001C5.50001 8.4529 6.11459 6.96917 7.20855 5.87521C8.30252 4.78125 9.78625 4.16667 11.3333 4.16667C12.8804 4.16667 14.3642 4.78125 15.4581 5.87521C16.5521 6.96917 17.1667 8.4529 17.1667 10C17.1667 11.5471 16.5521 13.0308 15.4581 14.1248C14.3642 15.2188 12.8804 15.8333 11.3333 15.8333C9.72501 15.8333 8.26668 15.175 7.21668 14.1167L6.03334 15.3C7.39168 16.6667 9.25001 17.5 11.3333 17.5C13.3225 17.5 15.2301 16.7098 16.6366 15.3033C18.0432 13.8968 18.8333 11.9891 18.8333 10C18.8333 8.01088 18.0432 6.10322 16.6366 4.6967C15.2301 3.29018 13.3225 2.5 11.3333 2.5Z" fill="#00C39F"/>
</svg>
