<svg width="20" height="20" viewBox="0 0 20 20" fill="none" xmlns="http://www.w3.org/2000/svg">
<g clip-path="url(#clip0_20280_184454)">
<path d="M16.6665 1.66675H3.33317C2.49984 1.66675 1.6665 2.41675 1.6665 3.33341V5.84175C1.6665 6.44175 2.02484 6.95842 2.49984 7.25008V16.6667C2.49984 17.5834 3.4165 18.3334 4.1665 18.3334H15.8332C16.5832 18.3334 17.4998 17.5834 17.4998 16.6667V7.25008C17.9748 6.95842 18.3332 6.44175 18.3332 5.84175V3.33341C18.3332 2.41675 17.4998 1.66675 16.6665 1.66675ZM12.4998 11.6667H7.49984V10.0001H12.4998V11.6667ZM16.6665 5.83342H3.33317V3.33341L16.6665 3.31675V5.83342Z" fill="#2244B1"/>
</g>
<defs>
<clipPath id="clip0_20280_184454">
<rect width="20" height="20" fill="white"/>
</clipPath>
</defs>
</svg>
