<svg viewBox="0 0 33 32" fill="none" xmlns="http://www.w3.org/2000/svg">
<path d="M23.801 7.08036L16.2676 3.02703C15.4676 2.60036 14.521 2.60036 13.721 3.02703L6.20095 7.08036C5.65428 7.38703 5.30762 7.9737 5.30762 8.6137C5.30762 9.26703 5.64095 9.8537 6.20095 10.147L13.7343 14.2004C14.1343 14.4137 14.5743 14.5204 15.0009 14.5204C15.4276 14.5204 15.8809 14.4137 16.2676 14.2004L23.801 10.147C24.3476 9.8537 24.6943 9.26703 24.6943 8.6137C24.6943 7.9737 24.3476 7.38703 23.801 7.08036Z" fill="#BBBBBB"/>
<path d="M12.4943 15.6135L5.49431 12.1201C4.94764 11.8401 4.33431 11.8801 3.81431 12.1868C3.30764 12.5068 3.00098 13.0535 3.00098 13.6535V20.2668C3.00098 21.4135 3.64098 22.4401 4.66764 22.9601L11.6676 26.4535C11.9076 26.5735 12.1743 26.6401 12.441 26.6401C12.7476 26.6401 13.0676 26.5468 13.3476 26.3868C13.8543 26.0668 14.161 25.5201 14.161 24.9201V18.3068C14.1476 17.1601 13.5076 16.1335 12.4943 15.6135Z" fill="#BBBBBB"/>
<path d="M27.0012 13.6535V16.9335C26.3612 16.7468 25.6812 16.6668 25.0012 16.6668C23.1878 16.6668 21.4145 17.2935 20.0145 18.4135C18.0945 19.9201 17.0012 22.2001 17.0012 24.6668C17.0012 25.3201 17.0812 25.9735 17.2545 26.6001C17.0545 26.5735 16.8545 26.4935 16.6678 26.3735C16.1612 26.0668 15.8545 25.5201 15.8545 24.9201V18.3068C15.8545 17.1601 16.4945 16.1335 17.5078 15.6135L24.5078 12.1201C25.0545 11.8401 25.6678 11.8801 26.1878 12.1868C26.6945 12.5068 27.0012 13.0535 27.0012 13.6535Z" fill="#BBBBBB"/>
<path d="M29.641 20.8934C28.5476 19.5467 26.881 18.6934 25.001 18.6934C23.5876 18.6934 22.281 19.1867 21.2543 20.0134C19.8676 21.1067 19.001 22.8 19.001 24.6934C19.001 25.8134 19.321 26.88 19.8676 27.7867C20.2276 28.3867 20.681 28.9067 21.2143 29.3334H21.2276C22.2543 30.1867 23.5743 30.6934 25.001 30.6934C26.521 30.6934 27.8943 30.1334 28.9476 29.2C29.4143 28.8 29.8143 28.32 30.1343 27.7867C30.681 26.88 31.001 25.8134 31.001 24.6934C31.001 23.2534 30.4943 21.92 29.641 20.8934ZM28.0143 23.9467L24.8143 26.9067C24.6276 27.08 24.3743 27.1734 24.1343 27.1734C23.881 27.1734 23.6276 27.08 23.4276 26.88L21.9476 25.4C21.561 25.0134 21.561 24.3734 21.9476 23.9867C22.3343 23.6 22.9743 23.6 23.361 23.9867L24.161 24.7867L26.6543 22.48C27.0543 22.1067 27.6943 22.1334 28.0676 22.5334C28.4543 22.9467 28.4276 23.5734 28.0143 23.9467Z" fill="#BBBBBB"/>
</svg>
