<svg width="24" height="24" viewBox="0 0 15 14" fill="none" xmlns="http://www.w3.org/2000/svg">
  <path d="M7.49967 1.91634C8.46634 1.91634 9.24967 2.69967 9.24967 3.66634C9.24967 4.63301 8.46634 5.41634 7.49967 5.41634C6.53301 5.41634 5.74967 4.63301 5.74967 3.66634C5.74967 2.69967 6.53301 1.91634 7.49967 1.91634ZM7.49967 9.41634C9.97467 9.41634 12.583 10.633 12.583 11.1663V12.083H2.41634V11.1663C2.41634 10.633 5.02467 9.41634 7.49967 9.41634ZM7.49967 0.333008C5.65801 0.333008 4.16634 1.82467 4.16634 3.66634C4.16634 5.50801 5.65801 6.99967 7.49967 6.99967C9.34134 6.99967 10.833 5.50801 10.833 3.66634C10.833 1.82467 9.34134 0.333008 7.49967 0.333008ZM7.49967 7.83301C5.27467 7.83301 0.833008 8.94967 0.833008 11.1663V13.6663H14.1663V11.1663C14.1663 8.94967 9.72467 7.83301 7.49967 7.83301Z" fill="white"/>
  </svg>
  