<svg width="64" height="64" viewBox="0 0 64 64" fill="none" xmlns="http://www.w3.org/2000/svg">
<g clip-path="url(#clip0_20705_198530)">
<path d="M37.653 10.6673L42.533 16.0007H53.333V48.0007H10.6663V16.0007H21.4663L26.3463 10.6673H37.653ZM39.9997 5.33398H23.9997L19.1197 10.6673H10.6663C7.73301 10.6673 5.33301 13.0673 5.33301 16.0007V48.0007C5.33301 50.934 7.73301 53.334 10.6663 53.334H53.333C56.2663 53.334 58.6663 50.934 58.6663 48.0007V16.0007C58.6663 13.0673 56.2663 10.6673 53.333 10.6673H44.8797L39.9997 5.33398ZM31.9997 24.0007C36.3997 24.0007 39.9997 27.6007 39.9997 32.0007C39.9997 36.4007 36.3997 40.0007 31.9997 40.0007C27.5997 40.0007 23.9997 36.4007 23.9997 32.0007C23.9997 27.6007 27.5997 24.0007 31.9997 24.0007ZM31.9997 18.6673C24.6397 18.6673 18.6663 24.6407 18.6663 32.0007C18.6663 39.3607 24.6397 45.334 31.9997 45.334C39.3597 45.334 45.333 39.3607 45.333 32.0007C45.333 24.6407 39.3597 18.6673 31.9997 18.6673Z" fill="#CACCCF"/>
</g>
<defs>
<clipPath id="clip0_20705_198530">
<rect width="64" height="64" fill="white"/>
</clipPath>
</defs>
</svg>
