<svg viewBox="0 0 18 18" fill="none" xmlns="http://www.w3.org/2000/svg">
<path d="M8.99999 3.74062C9.69743 3.04318 10.6434 2.65137 11.6297 2.65137C12.616 2.65137 13.5619 3.04318 14.2594 3.74062C14.9568 4.43806 15.3486 5.38398 15.3486 6.37031C15.3486 7.35663 14.9568 8.30256 14.2594 8.99999L8.99999 14.2594C8.65466 14.6047 8.24469 14.8786 7.79348 15.0655C7.34228 15.2524 6.85869 15.3486 6.37031 15.3486C5.38398 15.3486 4.43806 14.9568 3.74062 14.2594C3.04318 13.5619 2.65137 12.616 2.65137 11.6297C2.65137 10.6434 3.04318 9.69743 3.74062 8.99999L8.99999 3.74062ZM11.2546 10.5024L13.5071 8.24987C14.0017 7.75105 14.2786 7.07662 14.2772 6.37415C14.2757 5.67169 13.9961 4.99839 13.4994 4.5016C13.0028 4.00481 12.3296 3.72498 11.6271 3.72335C10.9247 3.72171 10.2501 3.9984 9.75118 4.49287L7.49762 6.74537L11.2546 10.5024ZM8.84487 12.0324C8.89419 11.983 8.9333 11.9244 8.95997 11.8598C8.98664 11.7953 9.00034 11.7262 9.00029 11.6564C9.00024 11.5866 8.98644 11.5175 8.95968 11.453C8.93293 11.3885 8.89373 11.33 8.84434 11.2807C8.79494 11.2313 8.73632 11.1922 8.67181 11.1655C8.6073 11.1389 8.53817 11.1252 8.46837 11.1252C8.39857 11.1253 8.32945 11.1391 8.26498 11.1658C8.20051 11.1926 8.14194 11.2318 8.09262 11.2812L6.49887 12.8749C6.44955 12.9243 6.41043 12.983 6.38377 13.0475C6.3571 13.112 6.3434 13.1811 6.34345 13.2509C6.34355 13.3919 6.39965 13.527 6.4994 13.6267C6.59916 13.7263 6.7344 13.7822 6.87537 13.7821C7.01634 13.782 7.15151 13.7259 7.25112 13.6261L8.84487 12.0324Z" fill="white"/>
</svg>
