<svg viewBox="0 0 16 16" fill="none" xmlns="http://www.w3.org/2000/svg">
<path d="M8.00004 15.1666C4.04671 15.1666 0.833374 11.9533 0.833374 7.99992C0.833374 4.04659 4.04671 0.833252 8.00004 0.833252C11.9534 0.833252 15.1667 4.04659 15.1667 7.99992C15.1667 11.9533 11.9534 15.1666 8.00004 15.1666ZM8.00004 1.83325C4.60004 1.83325 1.83337 4.59992 1.83337 7.99992C1.83337 11.3999 4.60004 14.1666 8.00004 14.1666C11.4 14.1666 14.1667 11.3999 14.1667 7.99992C14.1667 4.59992 11.4 1.83325 8.00004 1.83325Z" fill="#D44333"/>
<path d="M3.26664 13.1666C3.13998 13.1666 3.01331 13.12 2.91331 13.02C2.71998 12.8266 2.71998 12.5066 2.91331 12.3133L12.2466 2.97996C12.44 2.78663 12.76 2.78663 12.9533 2.97996C13.1466 3.17329 13.1466 3.49329 12.9533 3.68663L3.61998 13.02C3.51998 13.12 3.39331 13.1666 3.26664 13.1666Z" fill="#D44333"/>
</svg>
