<svg width="24" height="24" viewBox="0 0 21 20" fill="none" xmlns="http://www.w3.org/2000/svg">
  <g clip-path="url(#clip0_18644_5484)">
  <path d="M14.6669 12.4997H16.3335V14.1663H14.6669V12.4997ZM14.6669 9.16634H16.3335V10.833H14.6669V9.16634ZM14.6669 5.83301H16.3335V7.49967H14.6669V5.83301ZM11.9502 5.83301L13.0002 6.53301V5.83301H11.9502Z" fill="white"/>
  <path d="M8.83301 2.5V3.75833L10.4997 4.86667V4.16667H17.9997V15.8333H14.6663V17.5H19.6663V2.5H8.83301Z" fill="white"/>
  <path d="M7.30801 4.75L12.9997 8.54167V17.5H1.33301V8.73333L7.30801 4.75ZM8.83301 15.8333H11.333V9.3L7.30801 6.74167L2.99967 9.48333V15.8333H5.49967V10.8333H8.83301V15.8333Z" fill="white"/>
  </g>
  <defs>
  <clipPath id="clip0_18644_5484">
  <rect width="20" height="20" fill="white" transform="translate(0.5)"/>
  </clipPath>
  </defs>
  </svg>
  