<svg viewBox="0 0 20 20" xmlns="http://www.w3.org/2000/svg">
  <path
    d="M10.0002 6.04102C7.8169 6.04102 6.04053 7.81739 6.04053 10.0007C6.04053 12.1839 7.8169 13.9603 10.0002 13.9603C12.1835 13.9603 13.9598 12.1839 13.9598 10.0007C13.9598 7.81739 12.1835 6.04102 10.0002 6.04102ZM10.0002 12.627C8.55193 12.627 7.37386 11.4489 7.37386 10.0007C7.37386 8.55241 8.55193 7.37435 10.0002 7.37435C11.4484 7.37435 12.6265 8.55241 12.6265 10.0007C12.6265 11.4489 11.4484 12.627 10.0002 12.627Z" />
  <path
    d="M10 3.4375C5.77505 3.4375 1.87497 5.90268 0.0644125 9.71813C-0.0215249 9.89945 -0.0215249 10.1097 0.0647376 10.2907C1.88115 14.1013 5.78091 16.5632 10 16.5632C14.2191 16.5632 18.1188 14.1013 19.9353 10.2907C20.0215 10.1097 20.0215 9.89944 19.9356 9.71812C18.125 5.90268 14.2249 3.4375 10 3.4375ZM10 15.2299C6.39907 15.2299 3.06247 13.1885 1.41077 10.0033C3.05759 6.81414 6.39386 4.77084 10 4.77084C13.6061 4.77084 16.9424 6.81414 18.5892 10.0033C16.9375 13.1885 13.6009 15.2299 10 15.2299Z" />
</svg>