<svg viewBox="0 0 16 16" fill="none" xmlns="http://www.w3.org/2000/svg">
<path d="M10.0004 15.1668H6.00042C5.12042 15.1668 4.38709 15.0802 3.76709 14.8935C3.54042 14.8268 3.39376 14.6068 3.40709 14.3735C3.57376 12.3802 5.59376 10.8135 8.00042 10.8135C10.4071 10.8135 12.4204 12.3735 12.5938 14.3735C12.6138 14.6135 12.4671 14.8268 12.2338 14.8935C11.6138 15.0802 10.8804 15.1668 10.0004 15.1668ZM4.48042 14.0402C4.92042 14.1268 5.42042 14.1668 6.00042 14.1668H10.0004C10.5804 14.1668 11.0804 14.1268 11.5204 14.0402C11.1671 12.7602 9.70709 11.8135 8.00042 11.8135C6.29376 11.8135 4.83376 12.7602 4.48042 14.0402Z" fill="white"/>
<path d="M9.99967 1.33301H5.99967C2.66634 1.33301 1.33301 2.66634 1.33301 5.99967V9.99967C1.33301 12.5197 2.09301 13.8997 3.90634 14.413C4.05301 12.6797 5.83301 11.313 7.99967 11.313C10.1663 11.313 11.9463 12.6797 12.093 14.413C13.9063 13.8997 14.6663 12.5197 14.6663 9.99967V5.99967C14.6663 2.66634 13.333 1.33301 9.99967 1.33301ZM7.99967 9.44633C6.67967 9.44633 5.61301 8.37302 5.61301 7.05302C5.61301 5.73302 6.67967 4.66634 7.99967 4.66634C9.31967 4.66634 10.3863 5.73302 10.3863 7.05302C10.3863 8.37302 9.31967 9.44633 7.99967 9.44633Z" stroke="white" stroke-linecap="round" stroke-linejoin="round"/>
</svg>
