<svg width="17" height="17" viewBox="0 0 17 17" fill="none" xmlns="http://www.w3.org/2000/svg">
<path d="M5.50453 4.80781L0.644531 9.67531L5.51203 14.5353L10.3795 9.67531L5.50453 4.80781ZM2.76703 9.67531L5.51203 6.93031L8.24953 9.67531L5.50453 12.4203L2.76703 9.67531ZM14.5195 4.98031C13.207 3.66031 11.4745 3.00031 9.74953 3.00031V0.570312L6.56953 3.75031L9.74953 6.93031V4.50031C11.092 4.50031 12.4345 5.01031 13.462 6.03781C15.5095 8.08531 15.5095 11.4153 13.462 13.4628C12.4345 14.4903 11.092 15.0003 9.74953 15.0003C9.02203 15.0003 8.29453 14.8428 7.61953 14.5428L6.50203 15.6603C7.51453 16.2153 8.63203 16.5003 9.74953 16.5003C11.4745 16.5003 13.207 15.8403 14.5195 14.5203C17.1595 11.8878 17.1595 7.61281 14.5195 4.98031Z" fill="black" fill-opacity="0.75"/>
</svg>
