<svg width="24" height="20" viewBox="0 0 24 20" fill="none" xmlns="http://www.w3.org/2000/svg">
<path d="M20.16 8.49672C20.3137 8.09547 20.4 7.65672 20.4 7.19922C20.4 5.21172 18.7875 3.59922 16.8 3.59922C16.0613 3.59922 15.3713 3.82422 14.8013 4.20672C13.7625 2.40672 11.8238 1.19922 9.6 1.19922C6.285 1.19922 3.6 3.88422 3.6 7.19922C3.6 7.30047 3.60375 7.40172 3.6075 7.50297C1.5075 8.24172 0 10.2442 0 12.5992C0 15.5805 2.41875 17.9992 5.4 17.9992H19.2C21.8513 17.9992 24 15.8505 24 13.1992C24 10.878 22.35 8.93922 20.16 8.49672ZM15.1763 11.823L11.2238 15.7755C10.9913 16.008 10.6088 16.008 10.3763 15.7755L6.42375 11.823C6.045 11.4442 6.315 10.7992 6.8475 10.7992H9.3V6.59922C9.3 6.26922 9.57 5.99922 9.9 5.99922H11.7C12.03 5.99922 12.3 6.26922 12.3 6.59922V10.7992H14.7525C15.285 10.7992 15.555 11.4442 15.1763 11.823Z" fill="#25282B"/>
</svg>
