<svg width="25" height="23" viewBox="0 0 25 23" fill="none" xmlns="http://www.w3.org/2000/svg">
<path d="M10.827 1.60723C10.9811 1.29475 11.2196 1.03164 11.5154 0.847654C11.8113 0.66367 12.1528 0.566162 12.5012 0.566162C12.8496 0.566162 13.191 0.66367 13.4869 0.847654C13.7828 1.03164 14.0212 1.29475 14.1753 1.60723L16.77 6.8619L22.5707 7.70423C22.9155 7.7543 23.2394 7.8999 23.5058 8.12453C23.7722 8.34916 23.9704 8.64387 24.0779 8.9753C24.1855 9.30673 24.1981 9.66165 24.1144 9.99989C24.0307 10.3381 23.854 10.6462 23.6043 10.8892L19.4067 14.9796L20.3983 20.7569C20.4573 21.1001 20.4191 21.4529 20.2881 21.7755C20.1571 22.0981 19.9384 22.3777 19.6569 22.5825C19.3753 22.7874 19.0421 22.9094 18.6948 22.9348C18.3475 22.9602 18 22.888 17.6917 22.7262L12.5 19.9962L7.31067 22.7262C7.0023 22.888 6.65484 22.9602 6.30756 22.9348C5.96028 22.9094 5.62703 22.7874 5.34546 22.5825C5.0639 22.3777 4.84525 22.0981 4.71422 21.7755C4.5832 21.4529 4.54502 21.1001 4.60401 20.7569L5.59334 14.9796L1.39567 10.8892C1.14592 10.6461 0.969252 10.3378 0.885672 9.99938C0.802093 9.66096 0.814944 9.30591 0.922769 8.97441C1.03059 8.64293 1.22909 8.34825 1.49576 8.12376C1.76244 7.89928 2.08665 7.75395 2.43167 7.70423L8.23234 6.86423L10.827 1.60723Z" fill="#00C39F"/>
</svg>
