<svg width="24" height="24" viewBox="0 0 24 24" fill="none" xmlns="http://www.w3.org/2000/svg">
<g id="Style=Rounded" clip-path="url(#clip0_16158_235292)">
<path id="Vector" d="M11.1511 3.40187L7.4311 9.48187C7.0211 10.1419 7.5011 11.0019 8.2811 11.0019H15.7111C16.4911 11.0019 16.9711 10.1419 16.5611 9.48187L12.8511 3.40187C12.4611 2.76188 11.5411 2.76188 11.1511 3.40187Z" fill="white"/>
<path id="Vector_2" d="M17.5 22C19.9853 22 22 19.9853 22 17.5C22 15.0147 19.9853 13 17.5 13C15.0147 13 13 15.0147 13 17.5C13 19.9853 15.0147 22 17.5 22Z" fill="white"/>
<path id="Vector_3" d="M4 21.5H10C10.55 21.5 11 21.05 11 20.5V14.5C11 13.95 10.55 13.5 10 13.5H4C3.45 13.5 3 13.95 3 14.5V20.5C3 21.05 3.45 21.5 4 21.5Z" fill="white"/>
</g>
<defs>
<clipPath id="clip0_16158_235292">
<rect width="24" height="24" fill="white"/>
</clipPath>
</defs>
</svg>
