<svg width="21" height="14" viewBox="0 0 21 14" fill="none" xmlns="http://www.w3.org/2000/svg">
<path d="M16.625 5.36634C16.0583 2.49134 13.5333 0.333008 10.5 0.333008C8.09167 0.333008 6 1.69967 4.95833 3.69967C2.45 3.96634 0.5 6.09134 0.5 8.66634C0.5 11.4247 2.74167 13.6663 5.5 13.6663H16.3333C18.6333 13.6663 20.5 11.7997 20.5 9.49967C20.5 7.29967 18.7917 5.51634 16.625 5.36634ZM16.3333 11.9997H5.5C3.65833 11.9997 2.16667 10.508 2.16667 8.66634C2.16667 6.95801 3.44167 5.53301 5.13333 5.35801L6.025 5.26634L6.44167 4.47467C7.23333 2.94967 8.78333 1.99967 10.5 1.99967C12.6833 1.99967 14.5667 3.54967 14.9917 5.69134L15.2417 6.94134L16.5167 7.03301C17.8167 7.11634 18.8333 8.20801 18.8333 9.49967C18.8333 10.8747 17.7083 11.9997 16.3333 11.9997ZM11.7083 5.33301H9.29167V7.83301H7.16667L10.5 11.1663L13.8333 7.83301H11.7083V5.33301Z" fill="#A0A4A8"/>
</svg>
