<svg viewBox="0 0 50 51" fill="none" xmlns="http://www.w3.org/2000/svg">
<path d="M37.8962 37.4795H15.7086C13.6461 37.4795 11.667 36.6045 10.2711 35.0837C8.87531 33.5628 8.16699 31.5211 8.33366 29.4586L10.0628 8.70866C10.1253 8.06283 9.89614 7.43784 9.45864 6.95867C9.02114 6.4795 8.41698 6.22949 7.77115 6.22949H4.16699C3.31283 6.22949 2.60449 5.52116 2.60449 4.66699C2.60449 3.81283 3.31283 3.10449 4.16699 3.10449H7.792C9.31284 3.10449 10.7503 3.75032 11.7711 4.85448C12.3336 5.47948 12.7503 6.20867 12.9795 7.02117H39.0003C41.1045 7.02117 43.042 7.85449 44.4586 9.35449C45.8545 10.8753 46.5628 12.8545 46.3962 14.9587L45.2711 30.5837C45.042 34.3962 41.7087 37.4795 37.8962 37.4795ZM13.0837 10.1253L11.4587 29.7086C11.3545 30.917 11.7503 32.0628 12.5628 32.9586C13.3753 33.8545 14.5003 34.3336 15.7086 34.3336H37.8962C40.0628 34.3336 42.0212 32.5003 42.1878 30.3337L43.3128 14.7087C43.3961 13.4795 43.0003 12.3128 42.1878 11.4587C41.3753 10.5837 40.2503 10.1045 39.0211 10.1045H13.0837V10.1253Z" fill="white"/>
<path d="M33.8542 47.8958C31.5625 47.8958 29.6875 46.0208 29.6875 43.7292C29.6875 41.4375 31.5625 39.5625 33.8542 39.5625C36.1458 39.5625 38.0208 41.4375 38.0208 43.7292C38.0208 46.0208 36.1458 47.8958 33.8542 47.8958ZM33.8542 42.6875C33.2708 42.6875 32.8125 43.1458 32.8125 43.7292C32.8125 44.3125 33.2708 44.7708 33.8542 44.7708C34.4375 44.7708 34.8958 44.3125 34.8958 43.7292C34.8958 43.1458 34.4375 42.6875 33.8542 42.6875Z" fill="white"/>
<path d="M17.1872 47.8958C14.8955 47.8958 13.0205 46.0208 13.0205 43.7292C13.0205 41.4375 14.8955 39.5625 17.1872 39.5625C19.4788 39.5625 21.3538 41.4375 21.3538 43.7292C21.3538 46.0208 19.4788 47.8958 17.1872 47.8958ZM17.1872 42.6875C16.6038 42.6875 16.1455 43.1458 16.1455 43.7292C16.1455 44.3125 16.6038 44.7708 17.1872 44.7708C17.7705 44.7708 18.2288 44.3125 18.2288 43.7292C18.2288 43.1458 17.7705 42.6875 17.1872 42.6875Z" fill="white"/>
<path d="M43.75 18.7295H18.75C17.8958 18.7295 17.1875 18.0212 17.1875 17.167C17.1875 16.3128 17.8958 15.6045 18.75 15.6045H43.75C44.6042 15.6045 45.3125 16.3128 45.3125 17.167C45.3125 18.0212 44.6042 18.7295 43.75 18.7295Z" fill="white"/>
</svg>
