<svg viewBox="0 0 24 24" xmlns="http://www.w3.org/2000/svg">
<path fill-rule="evenodd" clip-rule="evenodd" d="M12.3145 2C6.79161 2 2.31445 6.47715 2.31445 12C2.31445 17.5228 6.79161 22 12.3145 22C17.8373 22 22.3145 17.5228 22.3145 12C22.3145 6.47715 17.8373 2 12.3145 2ZM4.31445 12C4.31445 16.4183 7.89618 20 12.3145 20C16.7327 20 20.3145 16.4183 20.3145 12C20.3145 7.58172 16.7327 4 12.3145 4C7.89618 4 4.31445 7.58172 4.31445 12Z"/>
<path d="M11.5035 16.6791C11.5035 16.2257 11.871 15.8582 12.3244 15.8582C12.7778 15.8582 13.1453 16.2257 13.1453 16.6791C13.1453 17.1325 12.7778 17.5 12.3244 17.5C11.871 17.5 11.5035 17.1325 11.5035 16.6791ZM12.598 6.5C15.5533 6.6204 16.8339 9.59751 15.0936 11.8194C14.6339 12.3667 13.9005 12.7279 13.5284 13.1985C13.3385 13.4318 13.2427 13.6839 13.1944 13.9455C13.1121 14.3913 12.7778 14.7637 12.3244 14.7637C11.871 14.7637 11.4948 14.3958 11.515 13.9429C11.5405 13.3725 11.6226 12.8861 11.8866 12.509C12.2478 11.9617 12.9811 11.6333 13.4408 11.2721C14.7871 10.0353 14.4368 8.29503 12.598 8.15274C11.9799 8.15274 11.4344 8.5006 11.1547 9.01754C10.939 9.41629 10.5887 9.80547 10.1353 9.80547C9.68198 9.80547 9.30402 9.43233 9.41472 8.99269C9.77575 7.55886 11.0692 6.5 12.598 6.5Z"/>
</svg>
