<svg width="42" height="42" viewBox="0 0 42 42" fill="none" xmlns="http://www.w3.org/2000/svg">
<g clip-path="url(#clip0_1593_16266)">
<path d="M29.0715 4.84857C26.5266 2.71789 23.2492 3.16023 17.6194 5.47595L12.1262 7.73583C9.13924 8.96431 6.98908 10.103 5.57141 11.3994C5.71232 11.2516 5.8586 11.1026 6.00596 10.9526L10.7613 6.11209C18.3304 -1.59164 21.9359 -2.01318 29.0715 4.84857Z" fill="#00977B"/>
<path d="M8.20647 30.9725C7.20829 30.7502 6.24669 30.4885 5.32704 30.1918C-1.58273 22.9578 -1.76989 19.2931 4.76234 12.2529C2.66919 14.8435 3.10481 18.1796 5.37974 23.9103L7.59982 29.502C7.80526 30.0166 8.0064 30.5071 8.20647 30.9725Z" fill="#00977B"/>
<path d="M31.4908 7.2742C28.7953 7.39464 24.0356 7.49318 18.4241 9.70379L14.4336 11.345C7.71421 14.1086 6.82145 16.2502 9.53631 23.0911L11.1487 27.151C11.9575 29.1898 12.718 30.5124 13.5516 31.7463C11.6875 31.6095 9.89664 31.3456 8.209 30.9701C8.00786 30.5047 7.80779 30.0142 7.60342 29.5007L5.38335 23.909C3.10842 18.1772 2.67279 14.8422 4.76594 12.2516C4.76594 12.2505 4.76702 12.2505 4.76702 12.2505C5.02517 11.9724 5.29407 11.6888 5.57373 11.3987C6.9914 10.1023 9.14156 8.96364 12.1285 7.73516L17.6217 5.47528C23.2526 3.15956 26.5289 2.71722 29.0738 4.8479C29.0781 4.85009 29.0814 4.85338 29.0857 4.85666C29.3524 5.11396 29.6235 5.38002 29.8999 5.65703C30.37 6.1574 31.4908 7.2742 31.4908 7.2742Z" fill="#1E6A56"/>
<path d="M12.0376 36.9959C14.5825 39.1265 17.8599 38.6842 23.4897 36.3685L28.9829 34.1086C31.9699 32.8801 34.12 31.7414 35.5377 30.4451C35.3968 30.5929 35.2505 30.7418 35.1032 30.8918L30.3478 35.7324C22.7787 43.4361 19.1732 43.8576 12.0376 36.9959Z" fill="#00977B"/>
<path d="M32.9015 10.8721C33.8997 11.0943 34.8613 11.356 35.7809 11.6527C42.6907 18.8867 42.8779 22.5514 36.3456 29.5916C38.4388 27.0011 38.0032 23.6649 35.7282 17.9342L33.5081 12.3425C33.3027 11.8279 33.1026 11.3374 32.9015 10.8721Z" fill="#00977B"/>
<path d="M9.6189 34.5693C12.3144 34.4489 17.074 34.3503 22.6855 32.1397L26.676 30.4985C33.3954 27.7349 34.2882 25.5933 31.5733 18.7524L29.961 14.6925C29.1521 12.6538 28.3917 11.3311 27.5581 10.0972C29.4221 10.234 31.213 10.4979 32.9006 10.8735C33.1018 11.3388 33.3019 11.8293 33.5062 12.3428L35.7263 17.9345C38.0012 23.6663 38.4369 27.0014 36.3437 29.5919C36.3437 29.593 36.3426 29.593 36.3426 29.593C36.0845 29.8711 35.8156 30.1547 35.5359 30.4448C34.1182 31.7412 31.9681 32.8799 28.9811 34.1084L23.4879 36.3682C17.8571 38.684 14.5807 39.1263 12.0358 36.9956C12.0315 36.9934 12.0283 36.9901 12.024 36.9869C11.7572 36.7296 11.4862 36.4635 11.2097 36.1865C10.7397 35.6872 9.6189 34.5693 9.6189 34.5693Z" fill="#1E6A56"/>
<path d="M27.5146 18.6652H22.77V13.8356C22.77 13.2126 22.5216 12.6487 22.1214 12.2392C21.7202 11.8308 21.1663 11.5779 20.5532 11.5779C19.3281 11.5779 18.3353 12.5885 18.3353 13.8356V23.1795H27.5146C28.1266 23.1795 28.6806 22.9265 29.0828 22.5192C29.484 22.1108 29.7325 21.547 29.7325 20.9229C29.7325 19.6769 28.7397 18.6652 27.5146 18.6652Z" fill="#3763AF"/>
<path d="M17.5483 18.2349V23.6086H14.0149C12.5575 23.6086 11.3754 22.4053 11.3754 20.9218C11.3754 19.4382 12.5575 18.2349 14.0149 18.2349H17.5483Z" fill="#00977B"/>
<path d="M17.9142 23.9817H23.1934V27.5784C23.1934 29.062 22.0113 30.2653 20.5538 30.2653C19.0963 30.2653 17.9142 29.062 17.9142 27.5784V23.9817Z" fill="#00977B"/>
</g>
<defs>
<clipPath id="clip0_1593_16266">
<rect width="42" height="42" fill="white"/>
</clipPath>
</defs>
</svg>
