<svg width="20" height="20" fill="none" xmlns="http://www.w3.org/2000/svg" name="icon-checkbox-down"><g clip-path="url(#icon-checkbox-down_svg__clip0_24744_44559)"><path d="M15.833 4.167v11.666H4.167V4.167h11.666zm0-1.667H4.167C3.25 2.5 2.5 3.25 2.5 4.167v11.666c0 .917.75 1.667 1.667 1.667h11.666c.917 0 1.667-.75 1.667-1.667V4.167c0-.917-.75-1.667-1.667-1.667z" fill="#000" fill-opacity="0.45"></path><g clip-path="url(#icon-checkbox-down_svg__clip1_24744_44559)"><path d="M7.322 8.01L10 10.683l2.678-2.671.822.822-3.5 3.5-3.5-3.5.822-.822z" fill="#000" fill-opacity="0.45"></path></g></g><defs><clipPath id="icon-checkbox-down_svg__clip0_24744_44559"><path fill="#fff" d="M0 0h20v20H0z"></path></clipPath><clipPath id="icon-checkbox-down_svg__clip1_24744_44559"><path fill="#fff" transform="translate(3 3)" d="M0 0h14v14H0z"></path></clipPath></defs></svg>