<svg width="20" height="20" viewBox="0 0 20 20" fill="none" xmlns="http://www.w3.org/2000/svg">
<path d="M14.2744 5.55398C14.4163 5.48229 14.5837 5.48229 14.7256 5.55398L18.2256 7.32313C18.3939 7.40821 18.5 7.58076 18.5 7.76936V12.2343C18.5 12.4229 18.3939 12.5954 18.2256 12.6805L14.7256 14.4496C14.5837 14.5213 14.4163 14.5213 14.2744 14.4496L10.7744 12.6805C10.6061 12.5954 10.5 12.4229 10.5 12.2343V7.76936C10.5 7.58076 10.6061 7.40821 10.7744 7.32313L14.2744 5.55398ZM15.4022 4.21528C14.8349 3.92852 14.1651 3.92852 13.5978 4.21528L10.0978 5.98443C9.42449 6.32475 9 7.01496 9 7.76936V12.2343C9 12.9887 9.4245 13.6789 10.0978 14.0192L13.5978 15.7883C14.1651 16.0751 14.8349 16.0751 15.4022 15.7883L18.9022 14.0192C19.5755 13.6789 20 12.9887 20 12.2343V7.76936C20 7.01496 19.5755 6.32475 18.9022 5.98443L15.4022 4.21528ZM2 5.74511C2 5.33089 2.33579 4.99511 2.75 4.99511H7.25C7.66421 4.99511 8 5.33089 8 5.74511C8 6.15932 7.66421 6.49511 7.25 6.49511H2.75C2.33579 6.49511 2 6.15932 2 5.74511ZM0 9.74511C0 9.33089 0.335786 8.99511 0.75 8.99511H5.25C5.66421 8.99511 6 9.33089 6 9.74511C6 10.1593 5.66421 10.4951 5.25 10.4951H0.75C0.335786 10.4951 0 10.1593 0 9.74511ZM2.75 12.9951C2.33579 12.9951 2 13.3309 2 13.7451C2 14.1593 2.33579 14.4951 2.75 14.4951H7.25C7.66421 14.4951 8 14.1593 8 13.7451C8 13.3309 7.66421 12.9951 7.25 12.9951H2.75ZM11.5816 8.40494C11.7694 8.03578 12.221 7.88882 12.5902 8.07669L14.5 9.04862L16.4098 8.07669C16.779 7.88882 17.2306 8.03578 17.4184 8.40494C17.6063 8.7741 17.4593 9.22566 17.0902 9.41353L15.25 10.35V12.2525C15.25 12.6667 14.9142 13.0025 14.5 13.0025C14.0858 13.0025 13.75 12.6667 13.75 12.2525V10.35L11.9098 9.41353C11.5407 9.22566 11.3937 8.7741 11.5816 8.40494Z" fill="white"/>
</svg>
