<svg width="16" height="16" viewBox="0 0 16 16" fill="none" xmlns="http://www.w3.org/2000/svg">
<path d="M10 15.1663H6.00004C2.38004 15.1663 0.833374 13.6197 0.833374 9.99967V5.99967C0.833374 2.37967 2.38004 0.833008 6.00004 0.833008H10C13.62 0.833008 15.1667 2.37967 15.1667 5.99967V9.99967C15.1667 13.6197 13.62 15.1663 10 15.1663ZM6.00004 1.83301C2.92671 1.83301 1.83337 2.92634 1.83337 5.99967V9.99967C1.83337 13.073 2.92671 14.1663 6.00004 14.1663H10C13.0734 14.1663 14.1667 13.073 14.1667 9.99967V5.99967C14.1667 2.92634 13.0734 1.83301 10 1.83301H6.00004Z" fill="#00c39f "/>
<path d="M7.99998 9.93956C7.87332 9.93956 7.74665 9.89289 7.64665 9.79289L5.29332 7.43956C5.09998 7.24622 5.09998 6.92622 5.29332 6.73289C5.48665 6.53956 5.80665 6.53956 5.99998 6.73289L7.99998 8.73289L9.99998 6.73289C10.1933 6.53956 10.5133 6.53956 10.7066 6.73289C10.9 6.92622 10.9 7.24622 10.7066 7.43956L8.35332 9.79289C8.25332 9.89289 8.12665 9.93956 7.99998 9.93956Z" fill="#00c39f "/>
</svg>
