<svg viewBox="0 0 24 24" xmlns="http://www.w3.org/2000/svg">
  <path
    d="M8.51367 2C6.85682 2 5.51367 3.34315 5.51367 5C5.51367 6.65685 6.85682 8 8.51367 8H15.5137C17.1705 8 18.5137 6.65685 18.5137 5C18.5137 3.34315 17.1705 2 15.5137 2H8.51367Z" />
  <path
    d="M15.5137 9C13.8568 9 12.5137 10.3431 12.5137 12C12.5137 13.6569 13.8568 15 15.5137 15C17.1705 15 18.5137 13.6569 18.5137 12C18.5137 10.3431 17.1705 9 15.5137 9Z" />
  <path d="M5.51367 12C5.51367 10.3431 6.85682 9 8.51367 9H11.5137V15H8.51367C6.85682 15 5.51367 13.6569 5.51367 12Z" />
  <path
    d="M8.51367 16C6.85682 16 5.51367 17.3431 5.51367 19C5.51367 20.6569 6.85682 22 8.51367 22C10.1705 22 11.5137 20.6569 11.5137 19V16H8.51367Z" />
</svg>