<svg viewBox="0 0 50 51" fill="none" xmlns="http://www.w3.org/2000/svg">
<path d="M39.583 18.7295C35.2705 18.7295 31.7705 15.2295 31.7705 10.917C31.7705 6.60449 35.2705 3.10449 39.583 3.10449C43.8955 3.10449 47.3955 6.60449 47.3955 10.917C47.3955 15.2295 43.8955 18.7295 39.583 18.7295ZM39.583 6.22949C36.9997 6.22949 34.8955 8.33366 34.8955 10.917C34.8955 13.5003 36.9997 15.6045 39.583 15.6045C42.1663 15.6045 44.2705 13.5003 44.2705 10.917C44.2705 8.33366 42.1663 6.22949 39.583 6.22949Z" fill="white"/>
<path d="M24.9997 29.1455H14.583C13.7288 29.1455 13.0205 28.4372 13.0205 27.583C13.0205 26.7288 13.7288 26.0205 14.583 26.0205H24.9997C25.8538 26.0205 26.5622 26.7288 26.5622 27.583C26.5622 28.4372 25.8538 29.1455 24.9997 29.1455Z" fill="white"/>
<path d="M33.333 37.4795H14.583C13.7288 37.4795 13.0205 36.7712 13.0205 35.917C13.0205 35.0628 13.7288 34.3545 14.583 34.3545H33.333C34.1872 34.3545 34.8955 35.0628 34.8955 35.917C34.8955 36.7712 34.1872 37.4795 33.333 37.4795Z" fill="white"/>
<path d="M31.2503 47.8962H18.7503C7.43783 47.8962 2.60449 43.0628 2.60449 31.7503V19.2503C2.60449 7.93783 7.43783 3.10449 18.7503 3.10449H29.167C30.0212 3.10449 30.7295 3.81283 30.7295 4.66699C30.7295 5.52116 30.0212 6.22949 29.167 6.22949H18.7503C9.14616 6.22949 5.72949 9.64616 5.72949 19.2503V31.7503C5.72949 41.3545 9.14616 44.7712 18.7503 44.7712H31.2503C40.8545 44.7712 44.2712 41.3545 44.2712 31.7503V21.3337C44.2712 20.4795 44.9795 19.7712 45.8337 19.7712C46.6878 19.7712 47.3962 20.4795 47.3962 21.3337V31.7503C47.3962 43.0628 42.5628 47.8962 31.2503 47.8962Z" fill="white"/>
</svg>
