<svg width="18" height="18" viewBox="0 0 18 18" fill="none" xmlns="http://www.w3.org/2000/svg">
<g clip-path="url(#clip0_19026_160829)">
<path d="M4.5 3V5.3775C4.5 5.775 4.6575 6.1575 4.9425 6.4425L7.5 9L4.935 11.565C4.6575 11.85 4.5 12.2325 4.5 12.63V15C4.5 15.825 5.175 16.5 6 16.5H12C12.825 16.5 13.5 15.825 13.5 15V12.63C13.5 12.2325 13.3425 11.85 13.065 11.5725L10.5 9L13.0575 6.45C13.3425 6.165 13.5 5.7825 13.5 5.385V3C13.5 2.175 12.825 1.5 12 1.5H6C5.175 1.5 4.5 2.175 4.5 3Z" fill="#F6A609"/>
</g>
<defs>
<clipPath id="clip0_19026_160829">
<rect width="18" height="18" fill="white"/>
</clipPath>
</defs>
</svg>
