<svg width="32" height="33" viewBox="0 0 32 33" fill="none" xmlns="http://www.w3.org/2000/svg">
<g clip-path="url(#clip0_24043_28194)">
<path d="M25.3333 4.50065H19.76C19.2 2.95398 17.7333 1.83398 16 1.83398C14.2667 1.83398 12.8 2.95398 12.24 4.50065H6.66667C5.2 4.50065 4 5.70065 4 7.16732V25.834C4 27.3006 5.2 28.5006 6.66667 28.5006H25.3333C26.8 28.5006 28 27.3006 28 25.834V7.16732C28 5.70065 26.8 4.50065 25.3333 4.50065ZM16 4.50065C16.7333 4.50065 17.3333 5.10065 17.3333 5.83398C17.3333 6.56732 16.7333 7.16732 16 7.16732C15.2667 7.16732 14.6667 6.56732 14.6667 5.83398C14.6667 5.10065 15.2667 4.50065 16 4.50065ZM13.3333 23.1673L8 17.834L9.88 15.954L13.3333 19.394L22.12 10.6073L24 12.5007L13.3333 23.1673Z" fill="#2244B1"/>
</g>
<defs>
<clipPath id="clip0_24043_28194">
<rect width="32" height="32" fill="white" transform="translate(0 0.5)"/>
</clipPath>
</defs>
</svg>
