<svg width="21" height="20" viewBox="0 0 21 20" fill="none" xmlns="http://www.w3.org/2000/svg">
<path d="M17.7031 18.333H2.70312C2.36146 18.333 2.07812 18.0497 2.07812 17.708C2.07812 17.3663 2.36146 17.083 2.70312 17.083H17.7031C18.0448 17.083 18.3281 17.3663 18.3281 17.708C18.3281 18.0497 18.0448 18.333 17.7031 18.333Z" fill="#52575C"/>
<path d="M16.0531 2.90005C14.4364 1.28338 12.8531 1.24172 11.1948 2.90005L10.1864 3.90838C10.1031 3.99172 10.0698 4.12505 10.1031 4.24172C10.7364 6.45005 12.5031 8.21672 14.7114 8.85005C14.7448 8.85838 14.7781 8.86672 14.8114 8.86672C14.9031 8.86672 14.9864 8.83338 15.0531 8.76672L16.0531 7.75838C16.8781 6.94172 17.2781 6.15005 17.2781 5.35005C17.2864 4.52505 16.8864 3.72505 16.0531 2.90005Z" fill="#52575C"/>
<path d="M13.2116 9.60866C12.9699 9.49199 12.7366 9.37533 12.5116 9.24199C12.3282 9.13366 12.1532 9.01699 11.9782 8.89199C11.8366 8.80033 11.6699 8.66699 11.5116 8.53366C11.4949 8.52533 11.4366 8.47533 11.3699 8.40866C11.0949 8.17533 10.7866 7.87533 10.5116 7.54199C10.4866 7.52533 10.4449 7.46699 10.3866 7.39199C10.3032 7.29199 10.1616 7.12533 10.0366 6.93366C9.93656 6.80866 9.81989 6.62533 9.71156 6.44199C9.57823 6.21699 9.46156 5.99199 9.34489 5.75866V5.75866C9.19193 5.43088 8.76172 5.3335 8.50594 5.58928L3.81989 10.2753C3.71156 10.3837 3.61156 10.592 3.58656 10.7337L3.13656 13.9253C3.05323 14.492 3.21156 15.0253 3.56156 15.3837C3.86156 15.6753 4.27823 15.8337 4.72823 15.8337C4.82823 15.8337 4.92823 15.8253 5.02823 15.8087L8.22823 15.3587C8.37823 15.3337 8.58656 15.2337 8.68656 15.1253L13.3803 10.4315C13.631 10.1809 13.5368 9.7496 13.2116 9.60866V9.60866Z" fill="#52575C"/>
</svg>
