<svg width="25" height="24" viewBox="0 0 25 24" fill="none" xmlns="http://www.w3.org/2000/svg">
<path fill-rule="evenodd" clip-rule="evenodd" d="M11.6602 17H4.66016C3.0033 17 1.66016 15.6569 1.66016 14V6C1.66016 4.34315 3.0033 3 4.66016 3H20.6602C22.317 3 23.6602 4.34315 23.6602 6V14C23.6602 15.6569 22.317 17 20.6602 17H13.6602V19H16.6602C17.2124 19 17.6602 19.4477 17.6602 20C17.6602 20.5523 17.2124 21 16.6602 21H8.66016C8.10787 21 7.66016 20.5523 7.66016 20C7.66016 19.4477 8.10787 19 8.66016 19H11.6602V17ZM4.66016 5H20.6602C21.2124 5 21.6602 5.44772 21.6602 6V14C21.6602 14.5523 21.2124 15 20.6602 15H4.66016C4.10787 15 3.66016 14.5523 3.66016 14V6C3.66016 5.44772 4.10787 5 4.66016 5Z" fill="090909"/>
</svg>
