<svg width="16" height="16" viewBox="0 0 16 16" fill="none" xmlns="http://www.w3.org/2000/svg">
<path d="M5.33329 7.33341C4.9651 7.33341 4.66663 7.63189 4.66663 8.00008C4.66663 8.36827 4.9651 8.66675 5.33329 8.66675H10.6666C11.0348 8.66675 11.3333 8.36827 11.3333 8.00008C11.3333 7.63189 11.0348 7.33341 10.6666 7.33341H5.33329Z" fill="#F6A609"/>
<path fill-rule="evenodd" clip-rule="evenodd" d="M15.3333 8.00008C15.3333 12.0502 12.05 15.3334 7.99996 15.3334C3.94987 15.3334 0.666626 12.0502 0.666626 8.00008C0.666626 3.94999 3.94987 0.666748 7.99996 0.666748C12.05 0.666748 15.3333 3.94999 15.3333 8.00008ZM14 8.00008C14 11.3138 11.3137 14.0001 7.99996 14.0001C4.68625 14.0001 1.99996 11.3138 1.99996 8.00008C1.99996 4.68637 4.68625 2.00008 7.99996 2.00008C11.3137 2.00008 14 4.68637 14 8.00008Z" fill="#F6A609"/>
</svg>
