<svg width="32" height="33" viewBox="0 0 32 33" fill="none" xmlns="http://www.w3.org/2000/svg">
<g clip-path="url(#clip0_24043_28199)">
<path fill-rule="evenodd" clip-rule="evenodd" d="M26.666 4.5H5.33268C3.86602 4.5 2.66602 5.7 2.66602 7.16667V25.8333C2.66602 27.3 3.86602 28.5 5.33268 28.5H26.666C28.1327 28.5 29.3327 27.3 29.3327 25.8333V7.16667C29.3327 5.7 28.1327 4.5 26.666 4.5ZM11.9993 23.1667H7.99935C7.26602 23.1667 6.66602 22.5667 6.66602 21.8333C6.66602 21.1 7.26602 20.5 7.99935 20.5H11.9993C12.7327 20.5 13.3327 21.1 13.3327 21.8333C13.3327 22.5667 12.7327 23.1667 11.9993 23.1667ZM11.9993 17.8333H7.99935C7.26602 17.8333 6.66602 17.2333 6.66602 16.5C6.66602 15.7667 7.26602 15.1667 7.99935 15.1667H11.9993C12.7327 15.1667 13.3327 15.7667 13.3327 16.5C13.3327 17.2333 12.7327 17.8333 11.9993 17.8333ZM11.9993 12.5H7.99935C7.26602 12.5 6.66602 11.9 6.66602 11.1667C6.66602 10.4333 7.26602 9.83333 7.99935 9.83333H11.9993C12.7327 9.83333 13.3327 10.4333 13.3327 11.1667C13.3327 11.9 12.7327 12.5 11.9993 12.5ZM24.9327 15.3267L20.706 19.5533C20.186 20.0733 19.3327 20.0733 18.8127 19.5533L16.9327 17.66C16.4127 17.14 16.4127 16.3 16.9327 15.78C17.4527 15.26 18.2927 15.26 18.8127 15.78L19.7593 16.7267L23.0527 13.4333C23.5727 12.9133 24.4127 12.9133 24.9327 13.4333L24.946 13.4467C25.4527 13.9667 25.4527 14.82 24.9327 15.3267Z" fill="#2244B1"/>
</g>
<defs>
<clipPath id="clip0_24043_28199">
<rect width="32" height="32" fill="white" transform="translate(0 0.5)"/>
</clipPath>
</defs>
</svg>
