<svg viewBox="0 0 16 16" fill="none" xmlns="http://www.w3.org/2000/svg">
<path d="M7.2865 15.1667C6.9665 15.1667 6.64652 15.0867 6.35319 14.9267C5.75986 14.5934 5.40649 14 5.40649 13.3267V9.76003C5.40649 9.42003 5.18648 8.92001 4.97982 8.66001L2.44649 6.00002C2.02649 5.58002 1.69983 4.84668 1.69983 4.30668V2.76003C1.69983 1.6867 2.51318 0.84668 3.54651 0.84668H12.4398C13.4598 0.84668 14.2865 1.67336 14.2865 2.69336V4.17336C14.2865 4.87336 13.8665 5.68001 13.4665 6.07334C13.2732 6.26668 12.9532 6.26668 12.7598 6.07334C12.5665 5.88001 12.5665 5.56001 12.7598 5.36668C13.0065 5.12001 13.2865 4.56669 13.2865 4.17336V2.69336C13.2865 2.22669 12.9065 1.84668 12.4398 1.84668H3.54651C3.07318 1.84668 2.69983 2.2467 2.69983 2.76003V4.30668C2.69983 4.55335 2.89983 5.04003 3.15983 5.30003L5.72652 8.00002C6.06652 8.42002 6.39982 9.1267 6.39982 9.76003V13.3267C6.39982 13.7667 6.69984 13.98 6.83317 14.0533C7.11984 14.2133 7.45986 14.2067 7.72652 14.0467L8.65983 13.4467C8.85316 13.3334 9.03984 12.9667 9.03984 12.72C9.03984 12.4467 9.2665 12.22 9.53984 12.22C9.81317 12.22 10.0398 12.4467 10.0398 12.72C10.0398 13.32 9.66649 14.0067 9.19316 14.2934L8.26652 14.8934C7.96652 15.0734 7.6265 15.1667 7.2865 15.1667Z" fill="#52575C"/>
<path d="M10.7134 11.5137C9.26009 11.5137 8.08008 10.3337 8.08008 8.88041C8.08008 7.42708 9.26009 6.24707 10.7134 6.24707C12.1668 6.24707 13.3468 7.42708 13.3468 8.88041C13.3468 10.3337 12.1668 11.5137 10.7134 11.5137ZM10.7134 7.24707C9.81342 7.24707 9.08008 7.98041 9.08008 8.88041C9.08008 9.78041 9.81342 10.5137 10.7134 10.5137C11.6134 10.5137 12.3468 9.78041 12.3468 8.88041C12.3468 7.98041 11.6134 7.24707 10.7134 7.24707Z" fill="#52575C"/>
<path d="M13.2466 11.913C13.12 11.913 12.9933 11.8664 12.8933 11.7664L12.2267 11.0997C12.0333 10.9064 12.0333 10.5864 12.2267 10.393C12.42 10.1997 12.74 10.1997 12.9333 10.393L13.6 11.0597C13.7933 11.253 13.7933 11.573 13.6 11.7664C13.5067 11.8597 13.3733 11.913 13.2466 11.913Z" fill="#52575C"/>
</svg>
