<svg width="60" height="20" viewBox="0 0 60 20" fill="none" xmlns="http://www.w3.org/2000/svg">
	<path d="M5.19861 5.08057C5.19861 4.6228 6.30984 4.25171 7.68062 4.25171H52.3568C53.7276 4.25171 54.8388 4.6228 54.8388 5.08057C54.8388 5.53833 53.7276 5.90943 52.3568 5.90943H7.68062C6.30984 5.90943 5.19861 5.53833 5.19861 5.08057Z" fill="#B7BEC5" />
	<path d="M5.19861 10.0804C5.19861 9.62267 6.30984 9.25157 7.68062 9.25157H52.3568C53.7276 9.25157 54.8388 9.62267 54.8388 10.0804C54.8388 10.5382 53.7276 10.9093 52.3568 10.9093H7.68062C6.30984 10.9093 5.19861 10.5382 5.19861 10.0804Z" fill="#B7BEC5" />
	<path d="M7.68062 14.2514C6.30984 14.2514 5.19861 14.6225 5.19861 15.0803C5.19861 15.5381 6.30984 15.9092 7.68062 15.9092H52.3568C53.7276 15.9092 54.8388 15.5381 54.8388 15.0803C54.8388 14.6225 53.7276 14.2514 52.3568 14.2514H7.68062Z" fill="#B7BEC5" />
</svg>
