<svg viewBox="0 0 16 16" fill="none" xmlns="http://www.w3.org/2000/svg">
<path d="M8 8.49967C5.88666 8.49967 4.16666 6.77967 4.16666 4.66634C4.16666 2.55301 5.88666 0.833008 8 0.833008C10.1133 0.833008 11.8333 2.55301 11.8333 4.66634C11.8333 6.77967 10.1133 8.49967 8 8.49967ZM8 1.83301C6.44 1.83301 5.16666 3.10634 5.16666 4.66634C5.16666 6.22634 6.44 7.49967 8 7.49967C9.56 7.49967 10.8333 6.22634 10.8333 4.66634C10.8333 3.10634 9.56 1.83301 8 1.83301Z" fill="#6C757D"/>
<path d="M10.5467 15.1663C10.2934 15.1663 10.0534 15.0729 9.88004 14.8996C9.67337 14.6929 9.58003 14.3929 9.6267 14.0796L9.75337 13.1796C9.7867 12.9463 9.92671 12.6729 10.0934 12.4996L12.4534 10.1396C13.4 9.19294 14.2334 9.73294 14.64 10.1396C14.9867 10.4863 15.1667 10.8596 15.1667 11.2329C15.1667 11.6129 14.9934 11.9662 14.64 12.3196L12.28 14.6796C12.1134 14.8463 11.8334 14.9863 11.6 15.0196L10.7 15.1462C10.6467 15.1596 10.6 15.1663 10.5467 15.1663ZM13.54 10.6129C13.42 10.6129 13.3134 10.6929 13.16 10.8463L10.8 13.2063C10.78 13.2263 10.7467 13.2929 10.7467 13.3196L10.6267 14.1529L11.46 14.0329C11.4867 14.0263 11.5534 13.9929 11.5734 13.9729L13.9334 11.6129C14.04 11.5062 14.1667 11.3529 14.1667 11.2329C14.1667 11.1329 14.0867 10.9929 13.9334 10.8463C13.7734 10.6863 13.6534 10.6129 13.54 10.6129Z" fill="#6C757D"/>
<path d="M13.9467 12.8132C13.9001 12.8132 13.8534 12.8066 13.8134 12.7933C12.9334 12.5466 12.2334 11.8466 11.9867 10.9666C11.9134 10.6999 12.0667 10.4266 12.3334 10.3533C12.6001 10.2799 12.8734 10.4332 12.9467 10.6999C13.1001 11.2466 13.5334 11.6799 14.0801 11.8332C14.3467 11.9066 14.5001 12.1866 14.4267 12.4466C14.3667 12.6666 14.1667 12.8132 13.9467 12.8132Z" fill="#6C757D"/>
<path d="M2.27344 15.1667C2.0001 15.1667 1.77344 14.94 1.77344 14.6667C1.77344 11.82 4.56679 9.5 8.00012 9.5C8.72679 9.5 9.44678 9.60668 10.1201 9.80668C10.3868 9.88668 10.5335 10.1667 10.4535 10.4267C10.3735 10.6933 10.0935 10.84 9.83346 10.76C9.24679 10.5867 8.63346 10.4933 8.00012 10.4933C5.12012 10.4933 2.77344 12.36 2.77344 14.66C2.77344 14.94 2.54677 15.1667 2.27344 15.1667Z" fill="#6C757D"/>
</svg>
