<svg viewBox="0 0 24 24" xmlns="http://www.w3.org/2000/svg">
  <g>
    <path
      d="M24.3921 13.401C24.392 13.4009 24.392 13.4009 24.392 13.4007L19.8607 2.02304C19.7645 1.78129 19.4905 1.66327 19.2488 1.75944C19.2486 1.7595 19.2484 1.75956 19.2482 1.75968L0.865342 9.07957C0.790374 9.11196 0.725359 9.16366 0.676892 9.22938C0.524011 9.30883 0.42743 9.46607 0.425781 9.63832V21.8876C0.425781 22.1478 0.636728 22.3587 0.896908 22.3587H20.6842C20.9444 22.3587 21.1553 22.1478 21.1553 21.8876V15.1976L24.1291 14.0132C24.3708 13.9168 24.4885 13.6427 24.3921 13.401ZM20.2131 21.4165H1.36803V10.1094H20.2131V21.4165ZM8.28652 9.16955L16.1751 6.0262C16.8791 6.76622 17.8546 7.18682 18.876 7.19082L19.6628 9.16955H8.28652ZM21.1553 14.1856V9.63832C21.1553 9.37814 20.9444 9.1672 20.6842 9.1672H20.6767L19.6784 6.65986C19.6673 6.63896 19.6544 6.61905 19.6397 6.6005C19.5892 6.37359 19.3791 6.21877 19.1474 6.23773C18.197 6.32436 17.2673 5.92402 16.6773 5.17393C16.5305 4.99272 16.2724 4.94767 16.0728 5.0684C16.0505 5.07105 16.0282 5.07517 16.0064 5.08065L6.37564 8.91561C6.25909 8.96131 6.16587 9.05195 6.11699 9.1672H3.19224L19.1596 2.80935L23.3428 13.3131L21.1553 14.1856Z" />
    <path
      d="M2.64669 18.2358C3.56138 18.5062 4.27714 19.2211 4.54862 20.1354C4.60816 20.335 4.79172 20.4717 4.99996 20.4718C5.0244 20.4703 5.04867 20.4666 5.07252 20.461C5.09366 20.467 5.11527 20.4714 5.13706 20.4742H16.4441C16.4635 20.4716 16.4827 20.4677 16.5016 20.4624C16.737 20.5196 16.9742 20.3753 17.0315 20.1399C17.0316 20.139 17.0319 20.1382 17.0321 20.1373C17.3028 19.222 18.0187 18.5061 18.934 18.2354C19.156 18.1675 19.2939 17.9463 19.2572 17.7171C19.2635 17.6943 19.268 17.671 19.2708 17.6474V13.8784C19.2681 13.8548 19.2634 13.8315 19.2567 13.8087C19.2936 13.5794 19.1557 13.3581 18.9335 13.2904C18.0182 13.0197 17.3025 12.3035 17.0325 11.388C16.9643 11.1645 16.741 11.0263 16.5105 11.0648C16.4887 11.0588 16.4665 11.0543 16.4441 11.0516H5.13706C5.11333 11.0545 5.08983 11.0592 5.06686 11.0658C4.83772 11.0293 4.61664 11.1671 4.54862 11.389C4.27767 12.3041 3.56185 13.0197 2.64669 13.2904C2.42473 13.3583 2.28681 13.5795 2.32349 13.8087C2.31737 13.8316 2.31295 13.8548 2.3103 13.8784V17.6474C2.31301 17.6695 2.31743 17.6915 2.32349 17.7129C2.28486 17.9436 2.42308 18.1672 2.64669 18.2358ZM3.25256 14.0697C4.19858 13.6897 4.94837 12.9399 5.32834 11.9939H16.2523C16.6325 12.9399 17.3825 13.6897 18.3286 14.0697V17.4561C17.3829 17.8365 16.6332 18.5862 16.2528 19.5319H5.32834C4.94796 18.5862 4.19828 17.8365 3.25256 17.4561V14.0697Z" />
    <path
      d="M10.7906 18.5897C12.3518 18.5897 13.6174 17.3241 13.6174 15.7629C13.6174 14.2017 12.3518 12.9362 10.7906 12.9362C9.22943 12.9362 7.96387 14.2017 7.96387 15.7629C7.9654 17.3235 9.23008 18.5881 10.7906 18.5897ZM10.7906 13.8784C11.8314 13.8784 12.6751 14.7221 12.6751 15.7629C12.6751 16.8037 11.8314 17.6474 10.7906 17.6474C9.74985 17.6474 8.90612 16.8037 8.90612 15.7629C8.90612 14.7221 9.74985 13.8784 10.7906 13.8784Z" />
    <path
      d="M5.60806 16.4697C5.99833 16.4697 6.31475 16.1532 6.31475 15.763C6.31475 15.3727 5.99833 15.0563 5.60806 15.0563C5.21779 15.0563 4.90137 15.3727 4.90137 15.763C4.90137 16.1533 5.21779 16.4697 5.60806 16.4697ZM5.60806 15.5274C5.73815 15.5274 5.84362 15.6329 5.84362 15.763C5.84362 15.8931 5.73815 15.9985 5.60806 15.9985C5.47797 15.9985 5.37249 15.8931 5.37249 15.763C5.37249 15.6329 5.47797 15.5274 5.60806 15.5274Z" />
    <path
      d="M15.973 16.4697C16.3633 16.4697 16.6797 16.1532 16.6797 15.763C16.6797 15.3727 16.3633 15.0563 15.973 15.0563C15.5828 15.0563 15.2664 15.3727 15.2664 15.763C15.2664 16.1533 15.5828 16.4697 15.973 16.4697ZM15.973 15.5274C16.1031 15.5274 16.2086 15.6329 16.2086 15.763C16.2086 15.8931 16.1031 15.9985 15.973 15.9985C15.843 15.9985 15.7375 15.8931 15.7375 15.763C15.7375 15.6329 15.843 15.5274 15.973 15.5274Z" />
  </g>
</svg>