<svg width="24" height="24" viewBox="0 0 17 18" fill="none" xmlns="http://www.w3.org/2000/svg">
  <path d="M14.692 9.81699C14.7254 9.55033 14.7504 9.28366 14.7504 9.00033C14.7504 8.71699 14.7254 8.45033 14.692 8.18366L16.4504 6.80866C16.6087 6.68366 16.6504 6.45866 16.5504 6.27533L14.8837 3.39199C14.8087 3.25866 14.667 3.18366 14.517 3.18366C14.467 3.18366 14.417 3.19199 14.3754 3.20866L12.3004 4.04199C11.867 3.70866 11.4004 3.43366 10.892 3.22533L10.5754 1.01699C10.5504 0.816992 10.3754 0.666992 10.167 0.666992H6.83369C6.62535 0.666992 6.45035 0.816992 6.42535 1.01699L6.10869 3.22533C5.60035 3.43366 5.13369 3.71699 4.70035 4.04199L2.62535 3.20866C2.57535 3.19199 2.52535 3.18366 2.47535 3.18366C2.33369 3.18366 2.19202 3.25866 2.11702 3.39199L0.450354 6.27533C0.342021 6.45866 0.392021 6.68366 0.550355 6.80866L2.30869 8.18366C2.27535 8.45033 2.25035 8.72533 2.25035 9.00033C2.25035 9.27533 2.27535 9.55033 2.30869 9.81699L0.550355 11.192C0.392021 11.317 0.350354 11.542 0.450354 11.7253L2.11702 14.6087C2.19202 14.742 2.33369 14.817 2.48369 14.817C2.53369 14.817 2.58369 14.8087 2.62535 14.792L4.70035 13.9587C5.13369 14.292 5.60035 14.567 6.10869 14.7753L6.42535 16.9837C6.45035 17.1837 6.62535 17.3337 6.83369 17.3337H10.167C10.3754 17.3337 10.5504 17.1837 10.5754 16.9837L10.892 14.7753C11.4004 14.567 11.867 14.2837 12.3004 13.9587L14.3754 14.792C14.4254 14.8087 14.4754 14.817 14.5254 14.817C14.667 14.817 14.8087 14.742 14.8837 14.6087L16.5504 11.7253C16.6504 11.542 16.6087 11.317 16.4504 11.192L14.692 9.81699ZM13.042 8.39199C13.0754 8.65033 13.0837 8.82533 13.0837 9.00033C13.0837 9.17533 13.067 9.35866 13.042 9.60866L12.9254 10.5503L13.667 11.1337L14.567 11.8337L13.9837 12.842L12.9254 12.417L12.0587 12.067L11.3087 12.6337C10.9504 12.9003 10.6087 13.1003 10.267 13.242L9.38369 13.6003L9.25035 14.542L9.08369 15.667H7.91702L7.75869 14.542L7.62535 13.6003L6.74202 13.242C6.38369 13.092 6.05035 12.9003 5.71702 12.6503L4.95869 12.067L4.07535 12.4253L3.01702 12.8503L2.43369 11.842L3.33369 11.142L4.07535 10.5587L3.95869 9.61699C3.93369 9.35866 3.91702 9.16699 3.91702 9.00033C3.91702 8.83366 3.93369 8.64199 3.95869 8.39199L4.07535 7.45033L3.33369 6.86699L2.43369 6.16699L3.01702 5.15866L4.07535 5.58366L4.94202 5.93366L5.69202 5.36699C6.05035 5.10033 6.39202 4.90033 6.73369 4.75866L7.61702 4.40033L7.75035 3.45866L7.91702 2.33366H9.07535L9.23369 3.45866L9.36702 4.40033L10.2504 4.75866C10.6087 4.90866 10.942 5.10033 11.2754 5.35033L12.0337 5.93366L12.917 5.57533L13.9754 5.15033L14.5587 6.15866L13.667 6.86699L12.9254 7.45033L13.042 8.39199ZM8.50035 5.66699C6.65869 5.66699 5.16702 7.15866 5.16702 9.00033C5.16702 10.842 6.65869 12.3337 8.50035 12.3337C10.342 12.3337 11.8337 10.842 11.8337 9.00033C11.8337 7.15866 10.342 5.66699 8.50035 5.66699ZM8.50035 10.667C7.58369 10.667 6.83369 9.91699 6.83369 9.00033C6.83369 8.08366 7.58369 7.33366 8.50035 7.33366C9.41702 7.33366 10.167 8.08366 10.167 9.00033C10.167 9.91699 9.41702 10.667 8.50035 10.667Z" fill="white"/>
  </svg>
  