<svg width="16" height="16" viewBox="0 0 14 14" fill="none" xmlns="http://www.w3.org/2000/svg">
  <path d="M6.99998 0.333252C3.31331 0.333252 0.333313 3.31325 0.333313 6.99992C0.333313 10.6866 3.31331 13.6666 6.99998 13.6666C10.6866 13.6666 13.6666 10.6866 13.6666 6.99992C13.6666 3.31325 10.6866 0.333252 6.99998 0.333252ZM6.99998 12.3333C4.05998 12.3333 1.66665 9.93992 1.66665 6.99992C1.66665 4.05992 4.05998 1.66659 6.99998 1.66659C9.93998 1.66659 12.3333 4.05992 12.3333 6.99992C12.3333 9.93992 9.93998 12.3333 6.99998 12.3333ZM9.39331 3.66659L6.99998 6.05992L4.60665 3.66659L3.66665 4.60659L6.05998 6.99992L3.66665 9.39325L4.60665 10.3333L6.99998 7.93992L9.39331 10.3333L10.3333 9.39325L7.93998 6.99992L10.3333 4.60659L9.39331 3.66659Z" fill="#A0A4A8"/>
  </svg>
  