<svg width="40" height="40" viewBox="0 0 40 40" fill="none" xmlns="http://www.w3.org/2000/svg">
<path d="M37.2594 11.0394L37.2298 10.9882C37.1888 10.9031 37.1415 10.8217 37.0886 10.7442L31.5239 1.12344C31.123 0.43047 30.3767 0 29.5762 0H10.4248C9.62303 0 8.87615 0.431485 8.47544 1.12633L2.81996 10.9378C2.76902 11.0262 2.7323 11.1187 2.70637 11.2127C2.62676 11.4276 2.58301 11.6599 2.58301 11.9022V37.2433C2.58301 38.7633 3.81965 39.9999 5.33966 39.9999H34.6604C36.1804 39.9999 37.417 38.7633 37.417 37.2433V11.8093C37.417 11.7753 37.416 11.7416 37.4142 11.708C37.4301 11.4824 37.3812 11.2499 37.2594 11.0394ZM21.2124 2.34461H29.5217L33.8992 9.91283H21.2124V2.34461ZM10.4794 2.34461H18.8678V9.91283H6.11692L10.4794 2.34461ZM35.0724 37.2434C35.0724 37.4705 34.8875 37.6554 34.6604 37.6554H5.33966C5.11247 37.6554 4.92762 37.4705 4.92762 37.2434V12.2574H35.0724V37.2434V37.2434Z" fill="white"/>
<path d="M25.3215 21.0962C24.8638 20.6385 24.1215 20.6385 23.6637 21.0962L18.4291 26.3308L16.4163 24.318C15.9586 23.8602 15.2162 23.8602 14.7584 24.318C14.3006 24.7757 14.3006 25.518 14.7584 25.9758L17.6003 28.8176C17.8292 29.0465 18.1293 29.161 18.4292 29.161C18.7291 29.161 19.0293 29.0465 19.2581 28.8176L25.3215 22.7541C25.7794 22.2963 25.7794 21.554 25.3215 21.0962Z" fill="white"/>
</svg>
