<svg xmlns="http://www.w3.org/2000/svg" width="116" height="115" viewBox="0 0 116 115" fill="none">
<g clip-path="url(#clip0_13396_107390)">
<path d="M101.944 98.9033C98.9319 102.008 96.2362 103.834 94.1726 105.212C74.0446 118.652 51.0359 114.778 43.9223 113.454C32.4454 111.318 22.7569 109.811 14.433 102.29C-4.48129 85.2026 -3.56131 49.555 10.8916 27.4725C12.6053 24.8544 27.0363 3.46325 50.0945 0.448674C50.6584 0.374841 51.0791 0.33289 51.4479 0.293876C55.0149 -0.0836807 77.1192 -2.07718 95.1434 13.0234C97.7233 15.1851 101.876 19.084 105.726 25.0301C119.804 46.7732 119.849 80.4479 101.944 98.9029V98.9033Z" fill="#F4F7FA"/>
<path d="M76.6074 8.63559L15.0196 6.73816C12.0352 6.64629 9.6012 8.82143 9.6012 11.5969V99.3516C9.6012 102.127 12.0348 104.194 15.0196 103.969L76.607 99.3218C79.187 99.1271 81.2669 96.8954 81.2669 94.3355V13.4138C81.2669 10.8544 79.187 8.7153 76.607 8.63559H76.6074Z" fill="url(#paint0_linear_13396_107390)"/>
<g style="mix-blend-mode:soft-light" opacity="0">
<path d="M11.3384 99.7524V11.1192C11.3384 9.52176 12.7379 8.26744 14.4583 8.31736L77.0945 10.138C78.5825 10.1812 79.7844 11.4146 79.7844 12.8929V94.9226C79.7844 96.4009 78.5821 97.688 77.0945 97.7979L14.4583 102.415C12.7379 102.541 11.3384 101.349 11.3384 99.7519V99.7524Z" fill="white"/>
</g>
<path d="M76.6074 8.63559L15.0196 6.73816C12.0352 6.64629 9.6012 8.82143 9.6012 11.5969V15.2021L81.2669 16.7384V13.4138C81.2669 10.8544 79.187 8.7153 76.607 8.63559H76.6074Z" fill="url(#paint1_linear_13396_107390)"/>
<path d="M19.2222 11.3588C19.2222 12.2578 18.4394 12.9676 17.472 12.9445C16.5025 12.921 15.7151 12.1705 15.7151 11.2682C15.7151 10.3658 16.5025 9.65602 17.472 9.68287C18.4394 9.70971 19.2222 10.4602 19.2222 11.3588Z" fill="white"/>
<path d="M25.3159 11.5169C25.3159 12.41 24.5436 13.1152 23.5892 13.0921C22.6328 13.0691 21.8558 12.3236 21.8558 11.4275C21.8558 10.5315 22.6328 9.82585 23.5892 9.85228C24.5436 9.87871 25.3159 10.6238 25.3159 11.5169Z" fill="white"/>
<path d="M31.3287 11.6726C31.3287 12.5594 30.5669 13.2604 29.6251 13.2378C28.6812 13.2151 27.9148 12.4747 27.9148 11.5845C27.9148 10.6943 28.6812 9.99373 29.6251 10.0197C30.5669 10.0458 31.3287 10.7858 31.3287 11.673V11.6726Z" fill="white"/>
<path d="M44.5978 33.53L19.2486 33.4897C18.8354 33.4888 18.5002 33.1813 18.5002 32.8025V31.1895C18.5002 30.8107 18.8354 30.5053 19.2486 30.5078L44.5978 30.65C44.9829 30.6521 45.2946 30.95 45.2946 31.3154V32.8701C45.2946 33.2355 44.9829 33.5308 44.5978 33.5304V33.53Z" fill="white"/>
<path d="M20.232 34.0977L22.4113 42.0901C22.5489 42.5952 23.0431 42.9451 23.609 42.9388L40.4837 42.7492C41.0232 42.7433 41.4926 42.3917 41.6235 41.8967L43.6787 34.1157L20.2316 34.0977H20.232ZM26.4877 41.6211C26.4877 41.9383 26.21 42.1979 25.8668 42.2017L25.2745 42.208C24.9305 42.2114 24.6515 41.9567 24.6515 41.6387V35.4443C24.6515 35.1263 24.9305 34.8687 25.2745 34.8683H25.8668C26.2095 34.8683 26.4877 35.125 26.4877 35.4422V41.6211ZM29.7808 41.5901C29.7808 41.9055 29.5056 42.1644 29.1654 42.1681L28.5785 42.174C28.2379 42.1774 27.9614 41.924 27.9614 41.6073V35.4405C27.9614 35.1242 28.2379 34.8675 28.5785 34.8675H29.1654C29.5052 34.8675 29.7808 35.1229 29.7808 35.4388V41.5901ZM33.0446 41.559C33.0446 41.8732 32.7715 42.1308 32.435 42.1342L31.8532 42.14C31.5155 42.1434 31.2415 41.8908 31.2415 41.5758V35.4367C31.2415 35.1217 31.5155 34.8662 31.8532 34.8662H32.435C32.7719 34.8662 33.0446 35.1208 33.0446 35.435V41.559ZM36.2794 41.5284C36.2794 41.8413 36.0088 42.0977 35.6749 42.101L35.0985 42.1069C34.7637 42.1102 34.4923 41.859 34.4923 41.5452V35.4334C34.4923 35.1196 34.7641 34.8654 35.0985 34.8654H35.6749C36.0088 34.8654 36.2794 35.1187 36.2794 35.4317V41.5284ZM39.4857 41.4982C39.4857 41.8095 39.2176 42.0649 38.8866 42.0683L38.3153 42.0742C37.9834 42.0775 37.7145 41.8271 37.7145 41.515V35.4304C37.7145 35.1183 37.9839 34.8649 38.3153 34.8649H38.8866C39.2176 34.8649 39.4857 35.1171 39.4857 35.4288V41.4982Z" fill="white"/>
<path d="M23.0795 29.7162C22.6944 30.0228 22.1096 29.9821 21.7732 29.6247C21.4363 29.2669 21.4766 28.7282 21.863 28.422C22.2489 28.1157 22.8337 28.1581 23.1689 28.5155C23.5041 28.8725 23.4638 29.4099 23.0795 29.7162Z" fill="white"/>
<path d="M31.2142 22.1218C31.087 21.9837 30.8244 21.9988 30.6277 22.1553L22.6013 28.5293C22.3999 28.6891 22.342 28.9312 22.472 29.0696C22.6021 29.2081 22.8706 29.1905 23.0719 29.0302L31.0883 22.6549C31.2851 22.4985 31.3417 22.2598 31.2146 22.1222L31.2142 22.1218Z" fill="white"/>
<path d="M40.9878 29.8365C41.3541 30.1402 41.9087 30.1079 42.2271 29.7643C42.5451 29.4212 42.5069 28.8972 42.1419 28.5935C41.7765 28.2893 41.2215 28.3204 40.9023 28.6635C40.5826 29.0071 40.6212 29.5323 40.9874 29.8365H40.9878Z" fill="white"/>
<path d="M33.0713 22.1539C33.1976 22.0209 33.4585 22.0448 33.654 22.2071L41.443 28.686C41.6343 28.845 41.6893 29.0816 41.5659 29.2146C41.4426 29.3476 41.1875 29.3262 40.9958 29.1672L33.1972 22.6896C33.0013 22.5268 32.9451 22.2873 33.0713 22.1539Z" fill="white"/>
<path d="M74.1148 25.909L47.9749 25.5755V22.3218L74.1148 22.7748V25.909Z" fill="white"/>
<path d="M74.1148 31.3964L47.9749 31.2718V28.0181L74.1148 28.2622V31.3964Z" fill="white"/>
<path d="M74.1148 36.8838L47.9749 36.9681V33.7148L74.1148 33.7497V36.8838Z" fill="white"/>
<path d="M74.1148 42.3705L47.9749 42.6641V39.4104L74.1148 39.2363V42.3705Z" fill="white"/>
<path d="M64.8487 51.4084L18.5002 52.5247V49.1363L64.8487 48.2314V51.4084Z" fill="white"/>
<path d="M64.8487 56.9695L18.5002 58.4566V55.0683L64.8487 53.793V56.9695Z" fill="white"/>
<path d="M64.8487 62.531L18.5002 64.389V61.0006L64.8487 59.3545V62.531Z" fill="white"/>
<path d="M64.8487 68.0925L18.5002 70.3214V66.933L64.8487 64.916V68.0925Z" fill="white"/>
<path d="M74.1148 51.1853L68.0177 51.3322V48.1699L74.1148 48.0508V51.1853Z" fill="white"/>
<path d="M74.1148 56.6722L68.0177 56.8677V53.7055L74.1148 53.5381V56.6722Z" fill="white"/>
<path d="M74.1148 62.1595L68.0177 62.4041V59.2419L74.1148 59.0254V62.1595Z" fill="white"/>
<path d="M74.1148 67.6468L68.0177 67.9401V64.7778L74.1148 64.5127V67.6468Z" fill="white"/>
<path d="M64.8487 77.1179L18.5002 79.9483V76.56L64.8487 73.9414V77.1179Z" fill="white"/>
<path d="M64.8487 82.6794L18.5002 85.8807V82.4923L64.8487 79.5029V82.6794Z" fill="white"/>
<path d="M64.8487 88.241L18.5002 91.8131V88.4247L64.8487 85.0645V88.241Z" fill="white"/>
<path d="M64.8487 93.8025L18.5002 97.7454V94.3571L64.8487 90.626V93.8025Z" fill="white"/>
<path d="M74.1148 76.5511L68.0177 76.9237V73.7614L74.1148 73.417V76.5511Z" fill="white"/>
<path d="M74.1148 82.0384L68.0177 82.4592V79.2974L74.1148 78.9043V82.0384Z" fill="url(#paint2_linear_13396_107390)"/>
<path d="M74.1148 87.5257L68.0177 87.9956V84.8333L74.1148 84.3916V87.5257Z" fill="url(#paint3_linear_13396_107390)"/>
<path d="M74.1148 93.013L68.0177 93.5316V90.3697L74.1148 89.8789V93.013Z" fill="url(#paint4_linear_13396_107390)"/>
<path d="M84.7359 79.5798L70.8342 77.8804V57.3774L84.7359 54.7441V79.5798Z" fill="url(#paint5_linear_13396_107390)"/>
<path d="M101.693 78.4996L84.7358 79.5798V54.7441L101.693 57.085V78.4996Z" fill="url(#paint6_linear_13396_107390)"/>
<g style="mix-blend-mode:soft-light">
<path d="M91.1279 55.627V65.7534L96.7728 66.2032V56.406L91.1279 55.627Z" fill="white"/>
</g>
<path d="M107.785 109.207L81.996 111.021V73.249L107.785 75.063V109.207Z" fill="url(#paint7_linear_13396_107390)"/>
<path d="M81.996 111.021L60.8533 108.436V75.6604L81.996 73.249V111.021Z" fill="url(#paint8_linear_13396_107390)"/>
<g style="mix-blend-mode:soft-light">
<path d="M91.1254 73.8916V89.2179H99.766V74.4995L91.1254 73.8916Z" fill="white"/>
</g>
<path d="M88.0664 51.1328C99.7011 51.1328 109.133 41.7011 109.133 30.0664C109.133 18.4318 99.7011 9 88.0664 9C76.4317 9 67 18.4318 67 30.0664C67 41.7011 76.4317 51.1328 88.0664 51.1328Z" fill="#F59E0B"/>
<path d="M85 41.5023C85 40.7597 85.167 40.1364 85.504 39.6354C85.841 39.1344 86.2555 38.7587 86.7505 38.5112C87.2456 38.2637 87.7883 38.1414 88.3788 38.1414C88.9692 38.1414 89.512 38.2637 90.007 38.5112C90.502 38.7587 90.9166 39.1344 91.2535 39.6354C91.5905 40.1364 91.7575 40.7597 91.7575 41.5023C91.7575 42.2448 91.5875 42.8591 91.2535 43.3482C90.9166 43.8373 90.502 44.2041 90.007 44.4516C89.512 44.6991 88.9692 44.8214 88.3788 44.8214C87.7883 44.8214 87.2456 44.6991 86.7505 44.4516C86.2555 44.2041 85.841 43.8373 85.504 43.3482C85.167 42.8591 85 42.2448 85 41.5023ZM91.1253 15V36.7994H85.5994V15.003H91.1253V15Z" fill="white"/>
</g>
<defs>
<linearGradient id="paint0_linear_13396_107390" x1="9.60162" y1="55.3603" x2="81.2673" y2="55.3603" gradientUnits="userSpaceOnUse">
<stop stop-color="#66DBC5"/>
<stop offset="1" stop-color="#00C39F"/>
</linearGradient>
<linearGradient id="paint1_linear_13396_107390" x1="45.8152" y1="10.5964" x2="39.6941" y2="65.9206" gradientUnits="userSpaceOnUse">
<stop stop-color="#009198"/>
<stop offset="1" stop-color="#255F73"/>
</linearGradient>
<linearGradient id="paint2_linear_13396_107390" x1="24.8911" y1="80.6818" x2="192.084" y2="80.6818" gradientUnits="userSpaceOnUse">
<stop stop-color="#AA80F9"/>
<stop offset="1" stop-color="#6165D7"/>
</linearGradient>
<linearGradient id="paint3_linear_13396_107390" x1="0.130502" y1="86.1934" x2="0.172453" y2="86.1934" gradientUnits="userSpaceOnUse">
<stop stop-color="#AA80F9"/>
<stop offset="1" stop-color="#6165D7"/>
</linearGradient>
<linearGradient id="paint4_linear_13396_107390" x1="0.130502" y1="91.7054" x2="0.172453" y2="91.7054" gradientUnits="userSpaceOnUse">
<stop stop-color="#AA80F9"/>
<stop offset="1" stop-color="#6165D7"/>
</linearGradient>
<linearGradient id="paint5_linear_13396_107390" x1="84.9091" y1="56.4469" x2="69.6521" y2="82.2143" gradientUnits="userSpaceOnUse">
<stop stop-color="#FFC444"/>
<stop offset="0.31" stop-color="#FBA94A"/>
<stop offset="1" stop-color="#F36F56"/>
</linearGradient>
<linearGradient id="paint6_linear_13396_107390" x1="98.8686" y1="57.0724" x2="83.0435" y2="83.7992" gradientUnits="userSpaceOnUse">
<stop stop-color="#FFC444"/>
<stop offset="0.31" stop-color="#FBA94A"/>
<stop offset="1" stop-color="#F36F56"/>
</linearGradient>
<linearGradient id="paint7_linear_13396_107390" x1="104.179" y1="75.5408" x2="79.262" y2="117.622" gradientUnits="userSpaceOnUse">
<stop stop-color="#FFC444"/>
<stop offset="0.31" stop-color="#FBA94A"/>
<stop offset="1" stop-color="#F36F56"/>
</linearGradient>
<linearGradient id="paint8_linear_13396_107390" x1="81.9104" y1="75.6318" x2="58.7067" y2="114.82" gradientUnits="userSpaceOnUse">
<stop stop-color="#FFC444"/>
<stop offset="0.31" stop-color="#FBA94A"/>
<stop offset="1" stop-color="#F36F56"/>
</linearGradient>
<clipPath id="clip0_13396_107390">
<rect width="115.739" height="115" fill="white" transform="translate(0.130371)"/>
</clipPath>
</defs>
</svg>