<svg width="20" height="20" viewBox="0 0 20 20" fill="none" xmlns="http://www.w3.org/2000/svg">
<path d="M10 15C10.6904 15 11.25 14.4404 11.25 13.75C11.25 13.0596 10.6904 12.5 10 12.5C9.30964 12.5 8.75 13.0596 8.75 13.75C8.75 14.4404 9.30964 15 10 15Z" fill="black" fill-opacity="0.75"/>
<path d="M3.89769 1.25C3.54945 1.24993 3.20806 1.34685 2.9118 1.52989C2.61554 1.71293 2.37611 1.97486 2.22035 2.28633L1.00941 4.7082C0.891078 4.94636 0.824473 5.20686 0.813971 5.47258C0.803468 5.73831 0.849305 6.00325 0.948471 6.25H11.8157C11.8421 6.25003 11.8681 6.24334 11.8913 6.23056C11.9145 6.21779 11.934 6.19934 11.9481 6.17695L14.8973 1.48945C14.9121 1.46586 14.9204 1.43872 14.9212 1.41085C14.922 1.38298 14.9154 1.3554 14.902 1.33097C14.8885 1.30654 14.8688 1.28615 14.8448 1.27191C14.8209 1.25768 14.7935 1.25011 14.7657 1.25H3.89769Z" fill="black" fill-opacity="0.75"/>
<path d="M18.9911 4.70937L17.7802 2.2875C17.6555 2.03593 17.4754 1.8158 17.2536 1.64358C17.0318 1.47137 16.774 1.35151 16.4993 1.29297L13.379 6.25L11.6408 9.02656C10.5781 8.65746 9.42212 8.65746 8.35951 9.02656L7.44857 7.57344C7.43453 7.55098 7.41501 7.53245 7.39185 7.51961C7.36868 7.50676 7.34263 7.50001 7.31615 7.5H1.99779C1.96976 7.50005 1.94226 7.50763 1.91817 7.52196C1.89409 7.53628 1.8743 7.55683 1.86088 7.58143C1.84746 7.60603 1.8409 7.63379 1.8419 7.6618C1.84289 7.68981 1.8514 7.71704 1.86654 7.74062L5.09701 12.7691C4.95147 13.4947 4.96879 14.2435 5.14772 14.9615C5.32666 15.6796 5.66275 16.349 6.13174 16.9214C6.60072 17.4938 7.19092 17.9549 7.85975 18.2716C8.52857 18.5883 9.25935 18.7525 9.99935 18.7525C10.7394 18.7525 11.4701 18.5883 12.1389 18.2716C12.8078 17.9549 13.398 17.4938 13.867 16.9214C14.336 16.349 14.672 15.6796 14.851 14.9615C15.0299 14.2435 15.0472 13.4947 14.9017 12.7691L18.8915 6.5625C19.0667 6.28849 19.1679 5.9738 19.1854 5.64906C19.2029 5.32431 19.1359 5.00058 18.9911 4.70937ZM10.163 16.2449C9.65575 16.2781 9.15042 16.1558 8.71442 15.8944C8.27843 15.633 7.93249 15.2449 7.72273 14.7818C7.51297 14.3187 7.44936 13.8027 7.54039 13.3026C7.63142 12.8024 7.87275 12.3419 8.23222 11.9825C8.59168 11.623 9.05219 11.3817 9.55233 11.2907C10.0525 11.1996 10.5685 11.2632 11.0315 11.473C11.4946 11.6827 11.8827 12.0287 12.1441 12.4647C12.4055 12.9007 12.5278 13.406 12.4947 13.9133C12.4545 14.5184 12.1959 15.0883 11.7672 15.5172C11.3384 15.946 10.7685 16.2046 10.1634 16.2449H10.163Z" fill="black" fill-opacity="0.75"/>
</svg>
