<svg width="20" height="20" viewBox="0 0 20 20" fill="none" xmlns="http://www.w3.org/2000/svg">
<path d="M6.66661 15.4184C6.92244 15.585 7.24911 15.635 7.55578 15.5292L9.66911 14.8092C9.8836 14.7361 10.1163 14.7361 10.3308 14.8092L12.4441 15.5292C12.7508 15.6342 13.0774 15.585 13.3333 15.4184V18.6634L9.99994 17.5317L6.66661 18.6634V15.4184ZM9.73078 13.4434L8.01244 14.0292C7.82007 14.0947 7.6104 14.0877 7.42286 14.0094C7.23532 13.9311 7.08284 13.787 6.99411 13.6042L6.15661 11.8834C6.07966 11.7244 5.95418 11.5939 5.79828 11.5109L4.13161 10.6275C3.96009 10.5363 3.82583 10.388 3.75203 10.2083C3.67823 10.0286 3.66953 9.82881 3.72744 9.64337L4.31911 7.74921C4.36959 7.5875 4.36959 7.41425 4.31911 7.25254L3.72744 5.35837C3.66938 5.17273 3.67809 4.97263 3.75206 4.79273C3.82603 4.61284 3.96059 4.46448 4.13244 4.37337L5.79828 3.49004C5.95405 3.40721 6.07952 3.27707 6.15661 3.11837L6.99411 1.39504C7.08298 1.21237 7.23552 1.06845 7.42304 0.990335C7.61057 0.912224 7.82017 0.905303 8.01244 0.970872L9.73078 1.55671C9.90528 1.61626 10.0946 1.61626 10.2691 1.55671L11.9874 0.970872C12.1798 0.905364 12.3895 0.912407 12.577 0.990677C12.7646 1.06895 12.917 1.21305 13.0058 1.39587L13.8433 3.11754C13.9202 3.27655 14.0457 3.40699 14.2016 3.49004L15.8683 4.37337C16.0398 4.46459 16.1741 4.61286 16.2479 4.79256C16.3217 4.97227 16.3304 5.1721 16.2724 5.35754L15.6808 7.25171C15.6303 7.41341 15.6303 7.58667 15.6808 7.74837L16.2724 9.64254C16.3305 9.82818 16.3218 10.0283 16.2478 10.2082C16.1739 10.3881 16.0393 10.5364 15.8674 10.6275L14.2016 11.5109C14.0458 11.5937 13.9204 11.7238 13.8433 11.8825L13.0058 13.605C12.9169 13.7877 12.7644 13.9316 12.5768 14.0097C12.3893 14.0879 12.1797 14.0948 11.9874 14.0292L10.2691 13.4434C10.0946 13.3838 9.90528 13.3838 9.73078 13.4434ZM9.99994 5.00004C9.77893 5.00004 9.56697 5.08784 9.41069 5.24412C9.25441 5.4004 9.16661 5.61236 9.16661 5.83337V9.16671C9.16661 9.38772 9.25441 9.59968 9.41069 9.75596C9.56697 9.91224 9.77893 10 9.99994 10C10.221 10 10.4329 9.91224 10.5892 9.75596C10.7455 9.59968 10.8333 9.38772 10.8333 9.16671V5.83337C10.8333 5.61236 10.7455 5.4004 10.5892 5.24412C10.4329 5.08784 10.221 5.00004 9.99994 5.00004Z" fill="black" fill-opacity="0.75"/>
</svg>
