<svg width="20" height="20" viewBox="0 0 20 20" fill="none" xmlns="http://www.w3.org/2000/svg">
<path d="M9.1665 8.33341H10.8332C12.0115 8.33341 12.6007 8.33341 12.9665 8.70008C13.3332 9.06591 13.3332 9.65508 13.3332 10.8334V15.8334C13.3332 14.6551 13.3332 14.0659 13.6998 13.7001C14.0648 13.3334 14.654 13.3334 15.8332 13.3334C17.0115 13.3334 17.6007 13.3334 17.9665 13.7001C18.3332 14.0659 18.3332 14.6551 18.3332 15.8334V18.3334H1.6665C1.6665 17.1551 1.6665 16.5659 2.03317 16.2001C2.39817 15.8334 2.98734 15.8334 4.1665 15.8334C5.34484 15.8334 5.934 15.8334 6.29984 16.2001C6.6665 16.5651 6.6665 17.1542 6.6665 18.3334V10.8334C6.6665 9.65508 6.6665 9.06591 7.03317 8.70008C7.39817 8.33341 7.98734 8.33341 9.1665 8.33341ZM9.28817 2.51925C9.60484 1.95008 9.76317 1.66675 9.99984 1.66675C10.2365 1.66675 10.3948 1.95008 10.7115 2.51925L10.7932 2.66591C10.8832 2.82758 10.9282 2.90758 10.9982 2.96091C11.069 3.01425 11.1565 3.03425 11.3315 3.07341L11.4898 3.11008C12.1048 3.24925 12.4123 3.31841 12.4857 3.55341C12.559 3.78925 12.349 4.03425 11.9298 4.52425L11.8215 4.65091C11.7023 4.79008 11.6423 4.85925 11.6157 4.94591C11.589 5.03258 11.5982 5.12508 11.6157 5.31091L11.6323 5.48008C11.6957 6.13425 11.7273 6.46175 11.5365 6.60675C11.3448 6.75258 11.0565 6.61925 10.4807 6.35425L10.3323 6.28591C10.1682 6.21091 10.0865 6.17258 9.99984 6.17258C9.91317 6.17258 9.8315 6.21091 9.66734 6.28591L9.519 6.35425C8.94317 6.61925 8.65484 6.75258 8.46317 6.60675C8.2715 6.46175 8.304 6.13425 8.36734 5.48008L8.384 5.31091C8.4015 5.12508 8.41067 5.03258 8.384 4.94591C8.35734 4.86008 8.29734 4.79008 8.17817 4.65091L8.06984 4.52425C7.65067 4.03425 7.44067 3.78925 7.514 3.55341C7.58734 3.31841 7.89484 3.24925 8.50984 3.11008L8.66817 3.07341C8.84317 3.03425 8.93067 3.01508 9.0015 2.96091C9.0715 2.90758 9.1165 2.82758 9.2065 2.66591L9.28817 2.51925Z" fill="black" fill-opacity="0.75"/>
</svg>
