<svg width="20" height="20" viewBox="0 0 20 20" fill="none" xmlns="http://www.w3.org/2000/svg">
<path fill-rule="evenodd" clip-rule="evenodd" d="M9.99984 13.3334C11.5469 13.3334 13.0307 12.7188 14.1246 11.6249C15.2186 10.5309 15.8332 9.04718 15.8332 7.50008C15.8332 5.95299 15.2186 4.46925 14.1246 3.37529C13.0307 2.28133 11.5469 1.66675 9.99984 1.66675C8.45274 1.66675 6.96901 2.28133 5.87505 3.37529C4.78109 4.46925 4.1665 5.95299 4.1665 7.50008C4.1665 9.04718 4.78109 10.5309 5.87505 11.6249C6.96901 12.7188 8.45274 13.3334 9.99984 13.3334ZM9.99984 5.00008C9.76317 5.00008 9.60484 5.28341 9.28817 5.85258L9.2065 5.99925C9.1165 6.16091 9.0715 6.24091 9.0015 6.29425C8.93067 6.34758 8.84317 6.36758 8.66817 6.40675L8.50984 6.44341C7.89484 6.58258 7.58734 6.65175 7.514 6.88675C7.44067 7.12258 7.65067 7.36758 8.06984 7.85758L8.17817 7.98425C8.29734 8.12341 8.35734 8.19258 8.384 8.27925C8.41067 8.36591 8.4015 8.45841 8.384 8.64425L8.36734 8.81341C8.304 9.46758 8.27234 9.79508 8.46317 9.94008C8.65484 10.0851 8.94317 9.95258 9.519 9.68758L9.66734 9.61925C9.8315 9.54425 9.91317 9.50675 9.99984 9.50675C10.0865 9.50675 10.1682 9.54425 10.3323 9.61925L10.4807 9.68758C11.0565 9.95341 11.3448 10.0851 11.5365 9.94008C11.7282 9.79508 11.6957 9.46758 11.6323 8.81341L11.6157 8.64425C11.5982 8.45841 11.589 8.36591 11.6157 8.27925C11.6423 8.19341 11.7023 8.12341 11.8215 7.98425L11.9298 7.85758C12.349 7.36758 12.559 7.12258 12.4857 6.88675C12.4123 6.65175 12.1048 6.58258 11.4898 6.44341L11.3315 6.40675C11.1565 6.36758 11.069 6.34841 10.9982 6.29425C10.9282 6.24091 10.8832 6.16091 10.7932 5.99925L10.7115 5.85258C10.3948 5.28341 10.2365 5.00008 9.99984 5.00008Z" fill="black" fill-opacity="0.75"/>
<path d="M5.91071 13.2842L5.59488 14.4358C5.07155 16.3458 4.80988 17.3008 5.15905 17.8233C5.28155 18.0067 5.44571 18.1533 5.63655 18.2508C6.17988 18.5275 7.01988 18.09 8.69905 17.215C9.25738 16.9233 9.53738 16.7783 9.83405 16.7467C9.94429 16.7349 10.0555 16.7349 10.1657 16.7467C10.4624 16.7783 10.7415 16.9242 11.3007 17.215C12.9799 18.09 13.8199 18.5275 14.3632 18.2508C14.554 18.1533 14.7182 18.0067 14.8407 17.8233C15.1907 17.3008 14.9282 16.3458 14.4049 14.4358L14.089 13.2842C12.894 14.1315 11.4648 14.5856 9.99988 14.5833C8.53495 14.5857 7.10569 14.1316 5.91071 13.2842Z" fill="black" fill-opacity="0.75"/>
</svg>
