<svg width="20" height="20" viewBox="0 0 20 20" fill="none" xmlns="http://www.w3.org/2000/svg">
<path d="M9.99401 7.43116C8.77526 7.43116 7.55026 7.90616 6.62526 8.86241C5.72544 9.78716 5.22491 11.0284 5.23151 12.3187C5.23151 13.6249 5.72526 14.8499 6.62526 15.7749C7.06155 16.2279 7.5848 16.5882 8.16366 16.8341C8.74252 17.0801 9.36507 17.2066 9.99401 17.2062C11.269 17.2062 12.4628 16.6999 13.3628 15.7749C15.219 13.8687 15.219 10.7687 13.3628 8.86241C12.9268 8.40894 12.4036 8.04836 11.8247 7.80239C11.2458 7.55643 10.623 7.43015 9.99401 7.43116ZM10.3753 9.78741L10.894 10.8624C10.9565 10.9874 11.0753 11.0812 11.2128 11.0999L12.369 11.2749C12.7128 11.3249 12.8565 11.7624 12.6003 12.0124L11.8003 12.8124C11.6815 12.9312 11.644 13.1062 11.694 13.2687L12.0628 14.3374C12.1878 14.6937 11.8378 15.0312 11.494 14.8812L10.1565 14.2812C10.1037 14.2564 10.0461 14.2436 9.98776 14.2436C9.92944 14.2436 9.87183 14.2564 9.81901 14.2812L8.48151 14.8812C8.14401 15.0312 7.78776 14.6937 7.91276 14.3374L8.28151 13.2687C8.33776 13.1062 8.29401 12.9312 8.17526 12.8124L7.37526 12.0124C7.12526 11.7624 7.26276 11.3249 7.60651 11.2749L8.76276 11.0999C8.90026 11.0812 9.01901 10.9937 9.08151 10.8624L9.60026 9.78741C9.76901 9.46241 10.219 9.46241 10.3753 9.78741Z" fill="black" fill-opacity="0.75"/>
<path d="M4.45004 1.25C4.06567 1.25 3.75004 1.56875 3.75004 1.9625V5.58125C3.75004 5.83125 3.88254 6.06875 4.09692 6.19375L6.02629 7.33625C5.30043 7.94723 4.71755 8.71013 4.31883 9.57107C3.92012 10.432 3.71528 11.37 3.71879 12.3187C3.71879 15.8706 6.52817 18.75 9.99379 18.75C13.4594 18.75 16.2688 15.8706 16.2688 12.3187C16.2724 11.3753 16.0699 10.4424 15.6756 9.58522C15.2812 8.72808 14.7045 7.96738 13.9857 7.35625L15.9107 6.19375C16.12 6.06875 16.25 5.83125 16.25 5.58125V1.9625C16.25 1.56875 15.9413 1.25 15.5644 1.25H4.45004ZM13.5313 1.875V7.00625C13.0309 6.65488 12.4812 6.3796 11.9 6.18937V1.875H13.5313ZM8.15004 1.875V6.16938C7.57264 6.3515 7.02513 6.61746 6.52504 6.95875V1.875H8.15004ZM10 17.975C8.52504 17.975 7.13754 17.3875 6.10004 16.3188C5.05586 15.2499 4.47435 13.813 4.48129 12.3187C4.48129 10.8062 5.05629 9.3875 6.10004 8.31875C6.60648 7.79538 7.21299 7.3792 7.88352 7.09498C8.55405 6.81075 9.27489 6.66428 10.0032 6.66428C10.7314 6.66428 11.4523 6.81075 12.1228 7.09498C12.7933 7.3792 13.3999 7.79538 13.9063 8.31875C16.0563 10.525 16.0563 14.1125 13.9063 16.3188C12.8563 17.3875 11.4688 17.975 10 17.975Z" fill="black" fill-opacity="0.75"/>
</svg>
