<svg width="20" height="20" viewBox="0 0 20 20" fill="none" xmlns="http://www.w3.org/2000/svg">
<g clip-path="url(#clip0_20118_181991)">
<path d="M9.99986 6.66675C11.547 6.66675 13.0307 7.28133 14.1246 8.37529C15.2186 9.46925 15.8332 10.953 15.8332 12.5001C15.8332 14.0472 15.2186 15.5309 14.1246 16.6249C13.0307 17.7188 11.547 18.3334 9.99986 18.3334C8.45276 18.3334 6.96903 17.7188 5.87507 16.6249C4.7811 15.5309 4.16652 14.0472 4.16652 12.5001C4.16652 10.953 4.7811 9.46925 5.87507 8.37529C6.96903 7.28133 8.45276 6.66675 9.99986 6.66675ZM9.99986 10.8334C9.55783 10.8334 9.13391 11.009 8.82134 11.3216C8.50878 11.6341 8.33319 12.0581 8.33319 12.5001C8.33319 12.9421 8.50878 13.366 8.82134 13.6786C9.13391 13.9912 9.55783 14.1667 9.99986 14.1667C10.4419 14.1667 10.8658 13.9912 11.1784 13.6786C11.4909 13.366 11.6665 12.9421 11.6665 12.5001C11.6665 12.0581 11.4909 11.6341 11.1784 11.3216C10.8658 11.009 10.4419 10.8334 9.99986 10.8334ZM7.84986 1.66675C8.12042 1.66672 8.38691 1.73257 8.62633 1.85859C8.86575 1.98461 9.07089 2.16703 9.22402 2.39008L9.29652 2.50675L10.7424 5.03675C9.73501 4.93482 8.71746 5.03872 7.7515 5.34213C6.78554 5.64554 5.89133 6.14213 5.12319 6.80175L4.92986 6.97341L2.96569 3.53675C2.86154 3.35464 2.80491 3.14924 2.801 2.93949C2.79709 2.72974 2.84604 2.52237 2.94333 2.33651C3.04062 2.15064 3.18312 1.99225 3.35771 1.87594C3.5323 1.75962 3.73336 1.68911 3.94236 1.67091L4.04986 1.66675H7.84986ZM15.9482 1.66675C16.1672 1.66667 16.3823 1.72412 16.5721 1.83334C16.7619 1.94255 16.9196 2.09971 17.0296 2.28907C17.1396 2.47843 17.1978 2.69335 17.1986 2.91232C17.1994 3.13128 17.1426 3.34661 17.034 3.53675L15.0699 6.97341C14.3703 6.33075 13.555 5.82681 12.6674 5.48841L10.9632 2.50675C10.9243 2.43887 10.8809 2.37372 10.8332 2.31175C10.989 2.11098 11.1886 1.94848 11.4168 1.83669C11.645 1.7249 11.8957 1.66677 12.1499 1.66675H15.9482Z" fill="black" fill-opacity="0.75"/>
</g>
<defs>
<clipPath id="clip0_20118_181991">
<rect width="20" height="20" fill="white"/>
</clipPath>
</defs>
</svg>
