<svg width="20" height="20" viewBox="0 0 20 20" fill="none" xmlns="http://www.w3.org/2000/svg">
<path d="M9.65404 15.2817C9.21938 15.2005 8.88339 14.8863 8.60548 14.6267C8.45857 14.4901 8.25755 14.3021 8.15386 14.2748C8.14036 14.2708 8.11542 14.2668 8.07193 14.2668C7.93536 14.2668 7.74258 14.3111 7.55614 14.3535C7.31111 14.4097 7.05706 14.4678 6.7977 14.4678C6.55319 14.4678 6.33733 14.414 6.15326 14.3079C6.09519 14.274 6.04134 14.2363 5.99258 14.1963L4.11719 18.2465L6.44817 18.1768L7.90248 20L9.87017 15.7493L10.0871 15.2817C10.0174 15.2955 9.94498 15.3027 9.87017 15.3027C9.79565 15.3026 9.72325 15.2955 9.65404 15.2817Z" fill="black" fill-opacity="0.75"/>
<path d="M13.5878 14.307C13.4038 14.4139 13.1869 14.4677 12.9434 14.4677C12.9434 14.4677 12.9434 14.4677 12.9426 14.4677C12.683 14.4677 12.43 14.4096 12.185 14.3534C11.9986 14.311 11.8058 14.2667 11.6681 14.2667C11.6257 14.2667 11.6 14.2707 11.5862 14.2746C11.4828 14.3019 11.2818 14.4899 11.1356 14.6265C11.0665 14.691 10.9941 14.7586 10.9179 14.8251L10.1802 16.4184L11.8379 19.9998L13.293 18.1766L15.624 18.2463L13.7478 14.1951C13.6987 14.2362 13.6457 14.273 13.5878 14.307Z" fill="black" fill-opacity="0.75"/>
<path d="M9.8701 4.01318C7.7401 4.01318 6.01318 5.7401 6.01318 7.8701C6.01318 10.0001 7.74006 11.727 9.8701 11.727C12.0001 11.727 13.727 10.0001 13.727 7.8701C13.727 5.7401 12.0001 4.01318 9.8701 4.01318Z" fill="black" fill-opacity="0.75"/>
<path d="M15.7317 9.44096C15.8747 8.90658 16.7402 8.4494 16.7402 7.86997C16.7402 7.29081 15.8747 6.83362 15.7317 6.29928C15.584 5.74635 16.1006 4.91789 15.8209 4.43421C15.5366 3.94332 14.5585 3.97862 14.16 3.58002C13.7614 3.18221 13.7969 2.20368 13.3058 1.91916C12.8224 1.63965 11.9936 2.15621 11.441 2.00852C10.9074 1.86613 10.4494 1 9.86997 1C9.29159 1 8.83362 1.86613 8.29925 2.00852C7.74713 2.15621 6.91867 1.63965 6.43421 1.91916C5.94414 2.20371 5.97858 3.18221 5.5808 3.58002C5.18251 3.97862 4.20368 3.94332 3.91994 4.43421C3.63965 4.91789 4.15699 5.74635 4.0093 6.29928C3.86609 6.83362 3 7.29081 3 7.86997C3 8.4494 3.86609 8.90658 4.0093 9.44096C4.15699 9.99385 3.63965 10.8223 3.91994 11.306C4.20368 11.7969 5.18251 11.7614 5.5808 12.1599C5.76405 12.3432 5.85504 12.6486 5.94807 12.9523C6.02686 13.2111 6.1072 13.4689 6.24539 13.6497C6.29842 13.7198 6.36047 13.7784 6.43421 13.8208C6.91789 14.1006 7.74713 13.584 8.29925 13.7317C8.6408 13.8226 8.95081 14.2083 9.28101 14.4758C9.46745 14.6267 9.66131 14.7402 9.86997 14.7402C10.0789 14.7402 10.2725 14.6267 10.4597 14.4758C10.7838 14.2138 11.0882 13.8378 11.4208 13.7381C11.4272 13.7357 11.4346 13.7333 11.441 13.7318C11.9936 13.584 12.8223 14.1006 13.3058 13.8209C13.3797 13.7784 13.4426 13.719 13.4956 13.649C13.7961 13.2544 13.8218 12.4975 14.1599 12.16C14.5585 11.7614 15.5365 11.7969 15.8208 11.3061C16.1006 10.8223 15.584 9.99385 15.7317 9.44096ZM9.86997 12.45C9.78087 12.45 9.69259 12.4477 9.60505 12.4421C8.5032 12.3795 7.50607 11.9279 6.74923 11.2214C5.85077 10.385 5.2899 9.19355 5.2899 7.86997C5.2899 5.3406 7.3406 3.2899 9.86997 3.2899C12.3996 3.2899 14.45 5.34064 14.45 7.86997C14.45 10.3996 12.3996 12.45 9.86997 12.45Z" fill="black" fill-opacity="0.75"/>
</svg>
