<svg width="20" height="20" viewBox="0 0 20 20" fill="none" xmlns="http://www.w3.org/2000/svg">
<path fill-rule="evenodd" clip-rule="evenodd" d="M11.1965 4.81917C10.8294 4.61903 10.418 4.51416 9.99988 4.51416C9.58176 4.51416 9.17032 4.61903 8.80322 4.81917L4.80738 6.9975C4.41313 7.21264 4.08411 7.53001 3.85491 7.91626C3.62571 8.30251 3.5048 8.74337 3.50488 9.1925V13.3075C3.5048 13.7566 3.62571 14.1975 3.85491 14.5837C4.08411 14.97 4.41313 15.2874 4.80738 15.5025L8.80322 17.6808C9.17032 17.881 9.58176 17.9858 9.99988 17.9858C10.418 17.9858 10.8294 17.881 11.1965 17.6808L15.1915 15.5025C15.586 15.2875 15.9151 14.9702 16.1445 14.5839C16.3738 14.1976 16.4949 13.7567 16.4949 13.3075V9.19167C16.4949 8.74245 16.3738 8.30153 16.1445 7.91528C15.9151 7.52902 15.586 7.21169 15.1915 6.99667L11.1965 4.81917ZM9.99988 8.75C9.76322 8.75 9.60488 9.03333 9.28822 9.6025L9.20655 9.74917C9.11655 9.91084 9.07155 9.99084 9.00155 10.0442C8.93072 10.0975 8.84322 10.1175 8.66822 10.1567L8.50988 10.1933C7.89488 10.3325 7.58738 10.4017 7.51405 10.6367C7.44072 10.8725 7.65072 11.1175 8.06988 11.6075L8.17822 11.7342C8.29738 11.8733 8.35738 11.9425 8.38405 12.0292C8.41072 12.1158 8.40155 12.2083 8.38405 12.3942L8.36738 12.5633C8.30405 13.2175 8.27238 13.545 8.46322 13.69C8.65488 13.835 8.94322 13.7025 9.51905 13.4375L9.66738 13.3692C9.83155 13.2942 9.91322 13.2567 9.99988 13.2567C10.0865 13.2567 10.1682 13.2942 10.3324 13.3692L10.4807 13.4375C11.0565 13.7033 11.3449 13.835 11.5365 13.69C11.7282 13.545 11.6957 13.2175 11.6324 12.5633L11.6157 12.3942C11.5982 12.2083 11.589 12.1158 11.6157 12.0292C11.6424 11.9433 11.7024 11.8733 11.8215 11.7342L11.9299 11.6075C12.349 11.1175 12.559 10.8725 12.4857 10.6367C12.4124 10.4017 12.1049 10.3325 11.4899 10.1933L11.3315 10.1567C11.1565 10.1175 11.069 10.0983 10.9982 10.0442C10.9282 9.99084 10.8832 9.91084 10.7932 9.74917L10.7115 9.6025C10.3949 9.03417 10.2365 8.75 9.99988 8.75Z" fill="black" fill-opacity="0.75"/>
<path d="M9.16634 1.66675H10.833C12.4047 1.66675 13.1897 1.66675 13.678 2.15508C14.1663 2.64341 14.1663 3.42841 14.1663 5.00008V5.01508L11.7947 3.72175C11.244 3.42154 10.6269 3.26424 9.99967 3.26424C9.3725 3.26424 8.75533 3.42154 8.20467 3.72175L5.83301 5.01508V5.00008C5.83301 3.42841 5.83301 2.64341 6.32134 2.15508C6.80967 1.66675 7.59467 1.66675 9.16634 1.66675Z" fill="black" fill-opacity="0.75"/>
</svg>
