<svg width="20" height="20" viewBox="0 0 20 20" fill="none" xmlns="http://www.w3.org/2000/svg">
<path d="M11.5785 14.2C11.2785 14.2 11.0785 14.1 10.7785 14L9.57846 13.5L8.37846 14C8.17846 14.1 7.87846 14.2 7.57846 14.2C7.37846 14.2 7.27846 14.2 7.07846 14.1L6.57846 18L9.57846 16L12.5785 18L11.9785 14.1C11.8785 14.2 11.6785 14.2 11.5785 14.2ZM14.4785 7.9C14.3785 7.7 14.3785 7.4 14.4785 7.2L15.0785 6C15.2785 5.6 15.0785 5.1 14.5785 4.9L13.2785 4.4C13.0785 4.3 12.8785 4.1 12.7785 3.9L12.2785 2.6C12.1785 2.2 11.8785 2 11.5785 2C11.4785 2 11.2785 2 11.1785 2.1L9.87846 2.7H9.57846C9.47846 2.7 9.37846 2.7 9.27846 2.6L7.97846 2.1C7.87846 2 7.67846 2 7.57846 2C7.27846 2 6.97846 2.2 6.77846 2.5L6.27846 3.9C6.27846 4.1 6.07846 4.3 5.87846 4.4L4.47846 4.9C4.07846 5 3.87846 5.5 4.07846 6L4.67846 7.3C4.77846 7.5 4.77846 7.8 4.67846 8L4.07846 9.2C3.87846 9.6 4.07846 10.1 4.57846 10.3L5.87846 10.8C6.07846 10.9 6.27846 11.1 6.37846 11.3L6.87846 12.6C6.97846 13 7.27846 13.2 7.57846 13.2C7.67846 13.2 7.77846 13.2 7.87846 13.1L9.17846 12.5C9.27846 12.5 9.37846 12.4 9.47846 12.4C9.57846 12.4 9.67846 12.4 9.77846 12.5L11.0785 13.1C11.1785 13.2 11.2785 13.2 11.3785 13.2C11.6785 13.2 11.9785 13 12.1785 12.7L12.6785 11.4C12.7785 11.2 12.9785 11 13.1785 10.9L14.4785 10.4C14.8785 10.2 15.1785 9.7 14.9785 9.3L14.4785 7.9ZM9.57846 11.6C7.37846 11.6 5.57846 9.8 5.57846 7.6C5.57846 5.4 7.37846 3.6 9.57846 3.6C11.7785 3.6 13.5785 5.4 13.5785 7.6C13.5785 9.8 11.7785 11.6 9.57846 11.6Z" fill="black" fill-opacity="0.75"/>
<path d="M12.2 7.6C12.2 8.28956 11.9261 8.95088 11.4385 9.43848C10.9509 9.92607 10.2896 10.2 9.6 10.2C8.91044 10.2 8.24912 9.92607 7.76152 9.43848C7.27393 8.95088 7 8.28956 7 7.6C7 6.91044 7.27393 6.24912 7.76152 5.76152C8.24912 5.27393 8.91044 5 9.6 5C10.2896 5 10.9509 5.27393 11.4385 5.76152C11.9261 6.24912 12.2 6.91044 12.2 7.6Z" fill="black" fill-opacity="0.75"/>
</svg>
