<svg width="20" height="20" viewBox="0 0 20 20" fill="none" xmlns="http://www.w3.org/2000/svg">
<path d="M14.1665 1.66675H10.8332V5.04925C12.0259 5.18035 13.1694 5.59744 14.1665 6.26508V1.66675ZM9.1665 1.66675H5.83317V6.26508C6.83024 5.59744 7.97374 5.18035 9.1665 5.04925V1.66675ZM9.99984 18.3334C11.5469 18.3334 13.0307 17.7188 14.1246 16.6249C15.2186 15.5309 15.8332 14.0472 15.8332 12.5001C15.8332 10.953 15.2186 9.46925 14.1246 8.37529C13.0307 7.28133 11.5469 6.66675 9.99984 6.66675C8.45274 6.66675 6.96901 7.28133 5.87505 8.37529C4.78109 9.46925 4.1665 10.953 4.1665 12.5001C4.1665 14.0472 4.78109 15.5309 5.87505 16.6249C6.96901 17.7188 8.45274 18.3334 9.99984 18.3334ZM8.979 11.2342L9.99984 9.16675L11.0207 11.2342L13.3023 11.5651L11.6515 13.1751L12.0415 15.4476L9.99984 14.3751L7.959 15.4476L8.349 13.1751L6.69817 11.5651L8.979 11.2342Z" fill="black" fill-opacity="0.75"/>
</svg>
