<svg width="20" height="20" viewBox="0 0 20 20" fill="none" xmlns="http://www.w3.org/2000/svg">
<path fill-rule="evenodd" clip-rule="evenodd" d="M10.0003 13.3334C11.5474 13.3334 13.0312 12.7188 14.1251 11.6249C15.2191 10.5309 15.8337 9.04718 15.8337 7.50008C15.8337 5.95299 15.2191 4.46925 14.1251 3.37529C13.0312 2.28133 11.5474 1.66675 10.0003 1.66675C8.45323 1.66675 6.9695 2.28133 5.87554 3.37529C4.78157 4.46925 4.16699 5.95299 4.16699 7.50008C4.16699 9.04718 4.78157 10.5309 5.87554 11.6249C6.9695 12.7188 8.45323 13.3334 10.0003 13.3334ZM10.0003 5.00008C9.76366 5.00008 9.60533 5.28341 9.28866 5.85258L9.20699 5.99925C9.11699 6.16091 9.07199 6.24091 9.00199 6.29425C8.93116 6.34758 8.84366 6.36758 8.66866 6.40675L8.51033 6.44341C7.89533 6.58258 7.58783 6.65175 7.51449 6.88675C7.44116 7.12258 7.65116 7.36758 8.07033 7.85758L8.17866 7.98425C8.29783 8.12341 8.35783 8.19258 8.38449 8.27925C8.41116 8.36591 8.40199 8.45841 8.38449 8.64425L8.36783 8.81341C8.30449 9.46758 8.27283 9.79508 8.46366 9.94008C8.65533 10.0851 8.94366 9.95258 9.51949 9.68758L9.66783 9.61925C9.83199 9.54425 9.91366 9.50675 10.0003 9.50675C10.087 9.50675 10.1687 9.54425 10.3328 9.61925L10.4812 9.68758C11.057 9.95341 11.3453 10.0851 11.537 9.94008C11.7287 9.79508 11.6962 9.46758 11.6328 8.81341L11.6162 8.64425C11.5987 8.45841 11.5895 8.36591 11.6162 8.27925C11.6428 8.19341 11.7028 8.12341 11.822 7.98425L11.9303 7.85758C12.3495 7.36758 12.5595 7.12258 12.4862 6.88675C12.4128 6.65175 12.1053 6.58258 11.4903 6.44341L11.332 6.40675C11.157 6.36758 11.0695 6.34841 10.9987 6.29425C10.9287 6.24091 10.8837 6.16091 10.7937 5.99925L10.712 5.85258C10.3953 5.28341 10.237 5.00008 10.0003 5.00008Z" fill="black" fill-opacity="0.75"/>
<path d="M3.74594 10.8292L2.49344 12.125C2.04344 12.5917 1.81844 12.8242 1.74011 13.0217C1.56261 13.4717 1.71511 13.97 2.10094 14.2067C2.27094 14.31 2.57594 14.3425 3.18844 14.4067C3.53344 14.4434 3.70678 14.4617 3.85094 14.5175C4.17511 14.6417 4.42594 14.9025 4.54678 15.2375C4.60011 15.3875 4.61761 15.5659 4.65261 15.9234C4.71511 16.5567 4.74678 16.8734 4.84678 17.0492C5.07511 17.4492 5.55761 17.6067 5.99178 17.4225C6.18178 17.3425 6.40678 17.1092 6.85761 16.6434L8.92594 14.5017C7.83639 14.3343 6.80089 13.9151 5.90169 13.2774C5.0025 12.6397 4.26437 11.802 3.74594 10.8292ZM11.0751 14.5025L13.1434 16.6442C13.5934 17.1109 13.8184 17.3434 14.0084 17.4242C14.4426 17.6075 14.9251 17.45 15.1534 17.05C15.2534 16.875 15.2843 16.5584 15.3468 15.925C15.3826 15.5667 15.4001 15.3884 15.4534 15.2384C15.5734 14.9034 15.8251 14.6425 16.1493 14.5184C16.2934 14.4625 16.4659 14.445 16.8118 14.4084C17.4234 14.3434 17.7293 14.3109 17.8993 14.2075C18.2851 13.9709 18.4376 13.4717 18.2601 13.0225C18.1818 12.825 17.9568 12.5917 17.5068 12.1259L16.2543 10.8292C15.7358 11.802 14.9977 12.6406 14.0985 13.2782C13.1993 13.9159 12.1638 14.3351 11.0743 14.5025H11.0751Z" fill="black" fill-opacity="0.75"/>
</svg>
