<svg width="20" height="20" viewBox="0 0 20 20" fill="none" xmlns="http://www.w3.org/2000/svg">
<path d="M10.0002 5.83327C11.7683 5.83327 13.464 6.53565 14.7142 7.78589C15.9645 9.03613 16.6668 10.7318 16.6668 12.4999C16.6668 14.268 15.9645 15.9637 14.7142 17.214C13.464 18.4642 11.7683 19.1666 10.0002 19.1666C8.23205 19.1666 6.53636 18.4642 5.28612 17.214C4.03588 15.9637 3.3335 14.268 3.3335 12.4999C3.3335 10.7318 4.03588 9.03613 5.28612 7.78589C6.53636 6.53565 8.23205 5.83327 10.0002 5.83327ZM10.0002 8.74994L8.8985 10.9833L6.4335 11.3416L8.21683 13.0791L7.796 15.5341L10.0002 14.3749L12.2043 15.5333L11.7835 13.0791L13.5668 11.3408L11.1018 10.9824L10.0002 8.74994ZM10.8335 1.66577L15.0002 1.6666V4.1666L13.8643 5.11494C12.9217 4.62071 11.8927 4.31287 10.8335 4.20827V1.66577ZM9.16683 1.66577V4.20744C8.10795 4.31214 7.07918 4.61998 6.13683 5.1141L5.00016 4.1666V1.6666L9.16683 1.66577Z" fill="black" fill-opacity="0.75"/>
</svg>
