<svg width="20" height="20" viewBox="0 0 20 20" fill="none" xmlns="http://www.w3.org/2000/svg">
<path d="M16.6668 1.66675H3.3335V3.33341L8.17516 6.96675C6.70578 7.45127 5.48889 8.49939 4.79197 9.88075C4.09504 11.2621 3.97509 12.8637 4.4585 14.3334C4.69766 15.0615 5.07801 15.7353 5.57781 16.3162C6.07761 16.8972 6.68705 17.3739 7.37125 17.7191C8.05546 18.0643 8.80101 18.2712 9.56525 18.328C10.3295 18.3848 11.0974 18.2904 11.8252 18.0501C12.9922 17.6665 14.0084 16.9242 14.7288 15.9291C15.4492 14.934 15.837 13.7369 15.837 12.5084C15.837 11.2799 15.4492 10.0828 14.7288 9.0877C14.0084 8.0926 12.9922 7.35034 11.8252 6.96675L16.6668 3.33341V1.66675ZM12.4502 16.2501L10.0002 14.8167L7.55016 16.2501L8.20016 13.4751L6.04183 11.6084L8.8835 11.3667L10.0002 8.75008L11.1168 11.3667L13.9585 11.6084L11.8002 13.4751L12.4502 16.2501Z" fill="black" fill-opacity="0.75"/>
</svg>
