<svg width="28" height="28" viewBox="0 0 28 28" fill="none" xmlns="http://www.w3.org/2000/svg">
<path d="M21.0002 3.5H7.00016V8.16667H21.0002M22.1668 14C21.8574 14 21.5607 13.8771 21.3419 13.6583C21.1231 13.4395 21.0002 13.1428 21.0002 12.8333C21.0002 12.5239 21.1231 12.2272 21.3419 12.0084C21.5607 11.7896 21.8574 11.6667 22.1668 11.6667C22.4762 11.6667 22.773 11.7896 22.9918 12.0084C23.2106 12.2272 23.3335 12.5239 23.3335 12.8333C23.3335 13.1428 23.2106 13.4395 22.9918 13.6583C22.773 13.8771 22.4762 14 22.1668 14ZM18.6668 22.1667H9.3335V16.3333H18.6668M22.1668 9.33333H5.8335C4.90524 9.33333 4.015 9.70208 3.35862 10.3585C2.70225 11.0148 2.3335 11.9051 2.3335 12.8333V19.8333H7.00016V24.5H21.0002V19.8333H25.6668V12.8333C25.6668 11.9051 25.2981 11.0148 24.6417 10.3585C23.9853 9.70208 23.0951 9.33333 22.1668 9.33333Z" fill="#00C39F"/>
</svg>
