<svg width="35" height="35" viewBox="0 0 41 41" fill="none" xmlns="http://www.w3.org/2000/svg">
<path d="M20.5 23.8337H27.1667V17.167H20.5V12.167L12.1667 20.5003L20.5 28.8337V23.8337ZM32.1667 5.50033H25.2C24.5 3.56699 22.6667 2.16699 20.5 2.16699C18.3333 2.16699 16.5 3.56699 15.8 5.50033H8.83333C8.6 5.50033 8.38333 5.51699 8.16667 5.56699C7.63586 5.67836 7.14007 5.91707 6.72198 6.26257C6.3039 6.60807 5.97605 7.05001 5.76667 7.55033C5.6 7.93366 5.5 8.36699 5.5 8.83366V32.167C5.5 32.617 5.6 33.067 5.76667 33.467C5.93333 33.867 6.18333 34.217 6.48333 34.5337C6.93333 34.9837 7.51667 35.317 8.16667 35.4503C8.38333 35.4837 8.6 35.5003 8.83333 35.5003H32.1667C34 35.5003 35.5 34.0003 35.5 32.167V8.83366C35.5 7.00033 34 5.50033 32.1667 5.50033ZM20.5 5.08366C21.1833 5.08366 21.75 5.65033 21.75 6.33366C21.75 7.01699 21.1833 7.58366 20.5 7.58366C19.8167 7.58366 19.25 7.01699 19.25 6.33366C19.25 5.65033 19.8167 5.08366 20.5 5.08366ZM32.1667 32.167H8.83333V8.83366H32.1667V32.167Z" fill="#00C39F"/>
</svg>
