<svg width="21" height="20" viewBox="0 0 21 20" fill="none" xmlns="http://www.w3.org/2000/svg">
<path d="M14.25 10.8327C13.25 10.8327 11.6917 11.116 10.5 11.666C9.30833 11.1077 7.75 10.8327 6.75 10.8327C4.94167 10.8327 1.33333 11.7327 1.33333 13.541V15.8327H19.6667V13.541C19.6667 11.7327 16.0583 10.8327 14.25 10.8327ZM10.9167 14.5827H2.58333V13.541C2.58333 13.091 4.71667 12.0827 6.75 12.0827C8.78333 12.0827 10.9167 13.091 10.9167 13.541V14.5827ZM18.4167 14.5827H12.1667V13.541C12.1667 13.1577 12 12.8243 11.7333 12.5243C12.4667 12.2743 13.3667 12.0827 14.25 12.0827C16.2833 12.0827 18.4167 13.091 18.4167 13.541V14.5827ZM6.75 9.99935C8.35833 9.99935 9.66667 8.69102 9.66667 7.08268C9.66667 5.47435 8.35833 4.16602 6.75 4.16602C5.14167 4.16602 3.83333 5.47435 3.83333 7.08268C3.83333 8.69102 5.14167 9.99935 6.75 9.99935ZM6.75 5.41602C7.66667 5.41602 8.41667 6.16602 8.41667 7.08268C8.41667 7.99935 7.66667 8.74935 6.75 8.74935C5.83333 8.74935 5.08333 7.99935 5.08333 7.08268C5.08333 6.16602 5.83333 5.41602 6.75 5.41602ZM14.25 9.99935C15.8583 9.99935 17.1667 8.69102 17.1667 7.08268C17.1667 5.47435 15.8583 4.16602 14.25 4.16602C12.6417 4.16602 11.3333 5.47435 11.3333 7.08268C11.3333 8.69102 12.6417 9.99935 14.25 9.99935ZM14.25 5.41602C15.1667 5.41602 15.9167 6.16602 15.9167 7.08268C15.9167 7.99935 15.1667 8.74935 14.25 8.74935C13.3333 8.74935 12.5833 7.99935 12.5833 7.08268C12.5833 6.16602 13.3333 5.41602 14.25 5.41602Z" fill="#52575C"/>
</svg>
