<svg width="28" height="28" viewBox="0 0 28 28" fill="none" xmlns="http://www.w3.org/2000/svg">
<path d="M25.7788 22.6422C25.7983 22.4866 25.8129 22.3311 25.8129 22.1658C25.8129 22.0005 25.7983 21.845 25.7788 21.6894L26.8045 20.8873C26.8969 20.8144 26.9212 20.6832 26.8629 20.5762L25.8906 18.8943C25.8323 18.7873 25.7011 18.7484 25.5941 18.7873L24.3837 19.2734C24.1309 19.079 23.8587 18.9186 23.5622 18.797L23.3775 17.5089C23.3629 17.3922 23.2608 17.3047 23.1393 17.3047H21.1948C21.0733 17.3047 20.9712 17.3922 20.9566 17.5089L20.7719 18.797C20.4754 18.9186 20.2031 19.0839 19.9504 19.2734L18.74 18.7873C18.6281 18.7436 18.5018 18.7873 18.4434 18.8943L17.4712 20.5762C17.408 20.6832 17.4372 20.8144 17.5295 20.8873L18.5552 21.6894C18.5358 21.845 18.5212 22.0054 18.5212 22.1658C18.5212 22.3262 18.5358 22.4866 18.5552 22.6422L17.5295 23.4443C17.4372 23.5172 17.4129 23.6484 17.4712 23.7554L18.4434 25.4373C18.5018 25.5443 18.633 25.5832 18.74 25.5443L19.9504 25.0582C20.2031 25.2526 20.4754 25.413 20.7719 25.5345L20.9566 26.8227C20.9712 26.9394 21.0733 27.0269 21.1948 27.0269H23.1393C23.2608 27.0269 23.3629 26.9394 23.3775 26.8227L23.5622 25.5345C23.8587 25.413 24.1309 25.2477 24.3837 25.0582L25.5941 25.5443C25.7059 25.588 25.8323 25.5443 25.8906 25.4373L26.8629 23.7554C26.9212 23.6484 26.8969 23.5172 26.8045 23.4443L25.7788 22.6422V22.6422ZM22.167 23.8672C21.2288 23.8672 20.4656 23.104 20.4656 22.1658C20.4656 21.2276 21.2288 20.4644 22.167 20.4644C23.1052 20.4644 23.8684 21.2276 23.8684 22.1658C23.8684 23.104 23.1052 23.8672 22.167 23.8672Z" fill="white"/>
<path d="M4.48021 3.99C4.92354 3.66333 5.40188 3.5 5.90354 3.5H22.0969C22.6102 3.5 23.0652 3.66333 23.4852 3.99C23.9169 4.31667 24.1852 4.73667 24.3369 5.25L25.5385 10.395C25.8302 11.6667 25.5969 12.775 24.8269 13.7317L24.6519 13.9067L24.5002 14.07C23.8352 14.7583 23.0535 15.1667 21.9452 15.1667C20.8369 15.1667 19.9619 14.7233 19.2969 14.0583C18.5619 14.7817 17.6985 15.1667 16.6835 15.1667C15.6919 15.1667 14.7935 14.8167 14.0002 14.0817C13.3469 14.735 12.4135 15.1667 11.4335 15.1667C10.3369 15.1667 9.45021 14.7817 8.71521 14.0583C8.06188 14.6883 7.18688 15.1667 6.09021 15.1667C4.99354 15.1667 4.23521 14.7467 3.54688 14.0817C3.41854 13.965 3.27854 13.825 3.13854 13.685C2.40354 12.74 2.17021 11.6667 2.46188 10.395L3.66354 5.25C3.78021 4.73667 4.03688 4.31667 4.48021 3.99ZM23.2985 10.9433L22.0385 5.79833L19.7985 5.83333L20.5102 11.48C20.5452 11.8533 20.6852 12.1683 20.9419 12.4367C21.1985 12.7167 21.5135 12.8333 21.8752 12.8333C22.3185 12.8333 22.6802 12.67 22.9719 12.3083C23.2985 11.9 23.4035 11.445 23.2985 10.9433ZM8.20188 5.83333H5.90354L4.70188 10.9433C4.59688 11.445 4.70188 11.9 5.02854 12.3083C5.28521 12.67 5.64688 12.8333 6.12521 12.8333C6.89521 12.8333 7.35021 12.4017 7.49021 11.48L8.20188 5.83333ZM12.8335 5.83333H10.5585L9.91688 11.0833V11.27C9.91688 11.6667 10.0452 12.0167 10.3135 12.355C10.5819 12.6933 10.9202 12.8333 11.3169 12.8333C11.7602 12.8333 12.1219 12.6933 12.4135 12.39C12.7052 12.075 12.8335 11.725 12.8335 11.3167V5.83333ZM17.4419 5.83333H15.1669V11.3167C15.1669 11.725 15.2952 12.075 15.5869 12.39C15.8785 12.6933 16.2052 12.8333 16.5669 12.8333C17.0452 12.8333 17.4419 12.6817 17.7452 12.3317C18.0835 11.9817 18.1769 11.5733 18.0835 11.0833L17.4419 5.83333ZM14.0002 16.415C14.3269 16.73 14.7119 16.9867 15.1319 17.1733C14.4202 18.27 14.0002 19.5883 14.0002 21C14.0002 22.2717 14.3385 23.4733 14.9335 24.5H5.83354C4.53854 24.5 3.50021 23.4617 3.50021 22.1667V16.3683C4.27021 17.0917 5.05188 17.5 6.10188 17.5C7.11688 17.5 8.03854 17.08 8.71521 16.3917C9.41521 17.0917 10.3485 17.5 11.4102 17.5C12.4252 17.5 13.3352 17.08 14.0002 16.415Z" fill="white"/>
</svg>
