<svg width="28" height="28" viewBox="0 0 28 28" fill="none" xmlns="http://www.w3.org/2000/svg">
<g clip-path="url(#clip0_19091_162734)">
<path d="M24.9783 13.51L14.4783 3.00999C14.0583 2.58999 13.475 2.33333 12.8333 2.33333H4.66666C3.38333 2.33333 2.33333 3.38333 2.33333 4.66666V12.8333C2.33333 13.475 2.58999 14.0583 3.02166 14.49L13.5217 24.99C13.9417 25.41 14.525 25.6667 15.1667 25.6667C15.8083 25.6667 16.3917 25.41 16.8117 24.9783L24.9783 16.8117C25.41 16.3917 25.6667 15.8083 25.6667 15.1667C25.6667 14.525 25.3983 13.93 24.9783 13.51ZM6.41666 8.16666C5.44833 8.16666 4.66666 7.38499 4.66666 6.41666C4.66666 5.44833 5.44833 4.66666 6.41666 4.66666C7.38499 4.66666 8.16666 5.44833 8.16666 6.41666C8.16666 7.38499 7.38499 8.16666 6.41666 8.16666Z" fill="white"/>
</g>
<defs>
<clipPath id="clip0_19091_162734">
<rect width="28" height="28" fill="white"/>
</clipPath>
</defs>
</svg>
