<svg width="29" height="28" viewBox="0 0 29 28" fill="none" xmlns="http://www.w3.org/2000/svg">
<path fill-rule="evenodd" clip-rule="evenodd" d="M2.8335 7C2.8335 6.07174 3.20225 5.1815 3.85862 4.52513C4.515 3.86875 5.40524 3.5 6.3335 3.5H22.6668C23.5951 3.5 24.4853 3.86875 25.1417 4.52513C25.7981 5.1815 26.1668 6.07174 26.1668 7V18.6667C26.1668 19.5949 25.7981 20.4852 25.1417 21.1415C24.4853 21.7979 23.5951 22.1667 22.6668 22.1667H17.7995C17.4901 22.1667 17.1934 22.2897 16.9747 22.5085L14.7965 24.6867C13.3965 26.0878 11.0002 25.095 11.0002 23.114C11.0002 22.8628 10.9004 22.6218 10.7227 22.4441C10.545 22.2665 10.3041 22.1667 10.0528 22.1667H6.3335C5.40524 22.1667 4.515 21.7979 3.85862 21.1415C3.20225 20.4852 2.8335 19.5949 2.8335 18.6667V7ZM8.66683 7C8.35741 7 8.06066 7.12292 7.84187 7.34171C7.62308 7.5605 7.50016 7.85725 7.50016 8.16667C7.50016 8.47609 7.62308 8.77283 7.84187 8.99162C8.06066 9.21042 8.35741 9.33333 8.66683 9.33333H20.3335C20.6429 9.33333 20.9397 9.21042 21.1585 8.99162C21.3772 8.77283 21.5002 8.47609 21.5002 8.16667C21.5002 7.85725 21.3772 7.5605 21.1585 7.34171C20.9397 7.12292 20.6429 7 20.3335 7H8.66683ZM8.66683 11.6667C8.35741 11.6667 8.06066 11.7896 7.84187 12.0084C7.62308 12.2272 7.50016 12.5239 7.50016 12.8333C7.50016 13.1428 7.62308 13.4395 7.84187 13.6583C8.06066 13.8771 8.35741 14 8.66683 14H20.3335C20.6429 14 20.9397 13.8771 21.1585 13.6583C21.3772 13.4395 21.5002 13.1428 21.5002 12.8333C21.5002 12.5239 21.3772 12.2272 21.1585 12.0084C20.9397 11.7896 20.6429 11.6667 20.3335 11.6667H8.66683ZM8.66683 16.3333C8.35741 16.3333 8.06066 16.4562 7.84187 16.675C7.62308 16.8938 7.50016 17.1906 7.50016 17.5C7.50016 17.8094 7.62308 18.1062 7.84187 18.325C8.06066 18.5437 8.35741 18.6667 8.66683 18.6667H13.3335C13.6429 18.6667 13.9397 18.5437 14.1585 18.325C14.3772 18.1062 14.5002 17.8094 14.5002 17.5C14.5002 17.1906 14.3772 16.8938 14.1585 16.675C13.9397 16.4562 13.6429 16.3333 13.3335 16.3333H8.66683Z" fill="#00C39F"/>
</svg>
