<svg width="18" height="18" viewBox="0 0 18 18" fill="none" xmlns="http://www.w3.org/2000/svg">
<path d="M9.00005 7.16406L11.7261 6.07506L4.97615 3.37506L2.64875 4.30566C2.53132 4.35241 2.42104 4.41542 2.32115 4.49286L9.00005 7.16406ZM1.83155 5.26776C1.81056 5.36323 1.79999 5.46071 1.80005 5.55846V12.4399C1.8 12.7097 1.88084 12.9734 2.03212 13.1969C2.1834 13.4203 2.39818 13.5934 2.64875 13.6936L7.83005 15.7663C8.06405 15.8599 8.30525 15.9238 8.55005 15.9589V7.95426L1.83155 5.26776ZM9.45005 15.9598C9.69683 15.9243 9.93852 15.8596 10.17 15.7672L15.3513 13.6945C15.6021 13.5942 15.8169 13.4211 15.9682 13.1974C16.1195 12.9738 16.2003 12.7099 16.2 12.4399V5.55846C16.2 5.45946 16.1892 5.36136 16.1685 5.26686L9.45005 7.95426V15.9598ZM15.6789 4.49376L12.9375 5.59086L6.18755 2.89086L7.83005 2.23206C8.58111 1.9316 9.41898 1.9316 10.17 2.23206L15.3513 4.30476C15.4688 4.35152 15.579 4.41453 15.6789 4.49196V4.49376Z" fill="#007EFF"/>
</svg>
