<svg width="29" height="28" viewBox="0 0 29 28" fill="none" xmlns="http://www.w3.org/2000/svg">
<g clip-path="url(#clip0_15923_156398)">
<path d="M13.3333 11.667V14.0003H11V16.3337H8.66667V14.0003H7.26667C6.8 15.4003 5.51667 16.3337 4 16.3337C2.01667 16.3337 0.5 14.817 0.5 12.8337C0.5 10.8503 2.01667 9.33366 4 9.33366C5.51667 9.33366 6.8 10.267 7.26667 11.667H13.3333ZM4 11.667C3.3 11.667 2.83333 12.1337 2.83333 12.8337C2.83333 13.5337 3.3 14.0003 4 14.0003C4.7 14.0003 5.16667 13.5337 5.16667 12.8337C5.16667 12.1337 4.7 11.667 4 11.667ZM19.1667 16.3337C22.3167 16.3337 28.5 17.8503 28.5 21.0003V23.3337H9.83333V21.0003C9.83333 17.8503 16.0167 16.3337 19.1667 16.3337ZM19.1667 14.0003C16.6 14.0003 14.5 11.9003 14.5 9.33366C14.5 6.76699 16.6 4.66699 19.1667 4.66699C21.7333 4.66699 23.8333 6.76699 23.8333 9.33366C23.8333 11.9003 21.7333 14.0003 19.1667 14.0003Z" fill="#00C39F"/>
</g>
<defs>
<clipPath id="clip0_15923_156398">
<rect width="28" height="28" fill="white" transform="translate(0.5)"/>
</clipPath>
</defs>
</svg>
