<svg width="20" height="21" viewBox="0 0 20 21" fill="none" xmlns="http://www.w3.org/2000/svg">
<path d="M9.99992 8C10.663 8 11.2988 8.26339 11.7677 8.73223C12.2365 9.20107 12.4999 9.83696 12.4999 10.5C12.4999 11.163 12.2365 11.7989 11.7677 12.2678C11.2988 12.7366 10.663 13 9.99992 13C9.33688 13 8.70099 12.7366 8.23215 12.2678C7.76331 11.7989 7.49992 11.163 7.49992 10.5C7.49992 9.83696 7.76331 9.20107 8.23215 8.73223C8.70099 8.26339 9.33688 8 9.99992 8ZM9.99992 4.25C14.1666 4.25 17.7249 6.84167 19.1666 10.5C17.7249 14.1583 14.1666 16.75 9.99992 16.75C5.83325 16.75 2.27492 14.1583 0.833252 10.5C2.27492 6.84167 5.83325 4.25 9.99992 4.25ZM2.64992 10.5C4.02492 13.3 6.86659 15.0833 9.99992 15.0833C13.1333 15.0833 15.9749 13.3 17.3499 10.5C15.9749 7.7 13.1333 5.91667 9.99992 5.91667C6.86659 5.91667 4.02492 7.7 2.64992 10.5Z" fill="#A0A4A8"/>
</svg>
