<svg width="18" height="18" viewBox="0 0 18 18" fill="none" xmlns="http://www.w3.org/2000/svg">
<g clip-path="url(#clip0_21956_1819)">
<path d="M12.75 8.25V9.75H11.655L15.165 13.26C16.005 12.0525 16.5 10.5825 16.5 9C16.5 4.86 13.14 1.5 9 1.5C7.4175 1.5 5.9475 1.995 4.74 2.835L10.155 8.25H12.75ZM1.7025 1.7025L0.75 2.655L2.835 4.74C1.995 5.9475 1.5 7.4175 1.5 9C1.5 13.14 4.86 16.5 9 16.5C10.5825 16.5 12.0525 16.005 13.26 15.165L15.345 17.25L16.2975 16.2975L8.25 8.25L1.7025 1.7025ZM5.25 9.75V8.25H6.345L7.845 9.75H5.25Z" fill="#FB4E4E"/>
</g>
<defs>
<clipPath id="clip0_21956_1819">
<rect width="18" height="18" fill="white"/>
</clipPath>
</defs>
</svg>
