<svg width="29" height="28" viewBox="0 0 29 28" fill="none" xmlns="http://www.w3.org/2000/svg">
<path d="M6.33317 7.29199C6.33317 6.5958 6.60973 5.92812 7.10202 5.43584C7.5943 4.94355 8.26198 4.66699 8.95817 4.66699H18.8748C19.571 4.66699 20.2387 4.94355 20.731 5.43584C21.2233 5.92812 21.4998 6.5958 21.4998 7.29199V16.3337H25.5832V20.1253C25.5832 21.1309 25.1837 22.0954 24.4726 22.8064C23.7615 23.5175 22.7971 23.917 21.7915 23.917H15.6665V22.167H19.7498V7.29199C19.7498 7.05993 19.6576 6.83737 19.4936 6.67327C19.3295 6.50918 19.1069 6.41699 18.8748 6.41699H8.95817C8.72611 6.41699 8.50355 6.50918 8.33945 6.67327C8.17536 6.83737 8.08317 7.05993 8.08317 7.29199V16.3337H6.33317V7.29199ZM21.4998 22.167H21.7915C22.333 22.167 22.8523 21.9519 23.2352 21.569C23.6181 21.1861 23.8332 20.6668 23.8332 20.1253V18.0837H21.4998V22.167ZM17.1248 19.2503H15.6665C15.6673 18.6191 15.4626 18.0048 15.0832 17.5003H17.1248C17.3569 17.5003 17.5795 17.5925 17.7436 17.7566C17.9076 17.9207 17.9998 18.1433 17.9998 18.3753C17.9998 18.6074 17.9076 18.8299 17.7436 18.994C17.5795 19.1581 17.3569 19.2503 17.1248 19.2503ZM9.83317 10.2087C9.83317 9.97659 9.92536 9.75403 10.0895 9.58994C10.2535 9.42585 10.4761 9.33366 10.7082 9.33366H17.1248C17.3569 9.33366 17.5795 9.42585 17.7436 9.58994C17.9076 9.75403 17.9998 9.97659 17.9998 10.2087C17.9998 10.4407 17.9076 10.6633 17.7436 10.8274C17.5795 10.9915 17.3569 11.0837 17.1248 11.0837H10.7082C10.4761 11.0837 10.2535 10.9915 10.0895 10.8274C9.92536 10.6633 9.83317 10.4407 9.83317 10.2087ZM9.83317 14.292C9.83317 14.0599 9.92536 13.8374 10.0895 13.6733C10.2535 13.5092 10.4761 13.417 10.7082 13.417H17.1248C17.3569 13.417 17.5795 13.5092 17.7436 13.6733C17.9076 13.8374 17.9998 14.0599 17.9998 14.292C17.9998 14.5241 17.9076 14.7466 17.7436 14.9107C17.5795 15.0748 17.3569 15.167 17.1248 15.167H10.7082C10.4761 15.167 10.2535 15.0748 10.0895 14.9107C9.92536 14.7466 9.83317 14.5241 9.83317 14.292ZM1.6665 19.2503C1.6665 18.7862 1.85088 18.3411 2.17907 18.0129C2.50726 17.6847 2.95238 17.5003 3.4165 17.5003H12.7498C13.214 17.5003 13.6591 17.6847 13.9873 18.0129C14.3155 18.3411 14.4998 18.7862 14.4998 19.2503V23.917C14.4998 24.3811 14.3155 24.8262 13.9873 25.1544C13.6591 25.4826 13.214 25.667 12.7498 25.667H3.4165C2.95238 25.667 2.50726 25.4826 2.17907 25.1544C1.85088 24.8262 1.6665 24.3811 1.6665 23.917V19.2503ZM13.3332 19.8337C13.0238 19.8337 12.727 19.7107 12.5082 19.492C12.2894 19.2732 12.1665 18.9764 12.1665 18.667H10.9998C10.9998 19.2858 11.2457 19.8793 11.6833 20.3169C12.1208 20.7545 12.7143 21.0003 13.3332 21.0003V19.8337ZM13.3332 22.167C12.7143 22.167 12.1208 22.4128 11.6833 22.8504C11.2457 23.288 10.9998 23.8815 10.9998 24.5003H12.1665C12.1665 24.1909 12.2894 23.8942 12.5082 23.6754C12.727 23.4566 13.0238 23.3337 13.3332 23.3337V22.167ZM3.99984 18.667C3.99984 18.9764 3.87692 19.2732 3.65813 19.492C3.43934 19.7107 3.14259 19.8337 2.83317 19.8337V21.0003C3.45201 21.0003 4.0455 20.7545 4.48309 20.3169C4.92067 19.8793 5.1665 19.2858 5.1665 18.667H3.99984ZM5.1665 24.5003C5.1665 23.8815 4.92067 23.288 4.48309 22.8504C4.0455 22.4128 3.45201 22.167 2.83317 22.167V23.3337C3.14259 23.3337 3.43934 23.4566 3.65813 23.6754C3.87692 23.8942 3.99984 24.1909 3.99984 24.5003H5.1665ZM10.1248 21.5837C10.1248 21.0422 9.90973 20.5229 9.52685 20.14C9.14396 19.7571 8.62465 19.542 8.08317 19.542C7.54169 19.542 7.02238 19.7571 6.63949 20.14C6.25661 20.5229 6.0415 21.0422 6.0415 21.5837C6.0415 22.1251 6.25661 22.6444 6.63949 23.0273C7.02238 23.4102 7.54169 23.6253 8.08317 23.6253C8.62465 23.6253 9.14396 23.4102 9.52685 23.0273C9.90973 22.6444 10.1248 22.1251 10.1248 21.5837Z" fill="#00C39F"/>
</svg>
