<svg width="20" height="20" viewBox="0 0 20 20" fill="none" xmlns="http://www.w3.org/2000/svg">
<path d="M15 4.99935H13.3333C13.3333 3.15768 11.8417 1.66602 10 1.66602C8.15834 1.66602 6.66668 3.15768 6.66668 4.99935H5.00001C4.08334 4.99935 3.33334 5.74935 3.33334 6.66602V16.666C3.33334 17.5827 4.08334 18.3327 5.00001 18.3327H15C15.9167 18.3327 16.6667 17.5827 16.6667 16.666V6.66602C16.6667 5.74935 15.9167 4.99935 15 4.99935ZM10 3.33268C10.9167 3.33268 11.6667 4.08268 11.6667 4.99935H8.33334C8.33334 4.08268 9.08334 3.33268 10 3.33268ZM15 16.666H5.00001V6.66602H6.66668V8.33268C6.66668 8.79102 7.04168 9.16602 7.50001 9.16602C7.95834 9.16602 8.33334 8.79102 8.33334 8.33268V6.66602H11.6667V8.33268C11.6667 8.79102 12.0417 9.16602 12.5 9.16602C12.9583 9.16602 13.3333 8.79102 13.3333 8.33268V6.66602H15V16.666Z" fill="#52575C"/>
</svg>
