<svg width="28" height="28" viewBox="0 0 28 28" fill="none" xmlns="http://www.w3.org/2000/svg">
<path d="M23.3333 21C24.6167 21 25.655 19.95 25.655 18.6667L25.6667 5.83333C25.6667 4.55 24.6167 3.5 23.3333 3.5H4.66667C3.38333 3.5 2.33333 4.55 2.33333 5.83333V18.6667C2.33333 19.95 3.38333 21 4.66667 21H0C0 22.2833 1.05 23.3333 2.33333 23.3333H25.6667C26.95 23.3333 28 22.2833 28 21H23.3333ZM5.83333 5.83333H22.1667C22.8083 5.83333 23.3333 6.35833 23.3333 7V17.5C23.3333 18.1417 22.8083 18.6667 22.1667 18.6667H5.83333C5.19167 18.6667 4.66667 18.1417 4.66667 17.5V7C4.66667 6.35833 5.19167 5.83333 5.83333 5.83333ZM14 22.1667C13.3583 22.1667 12.8333 21.6417 12.8333 21C12.8333 20.3583 13.3583 19.8333 14 19.8333C14.6417 19.8333 15.1667 20.3583 15.1667 21C15.1667 21.6417 14.6417 22.1667 14 22.1667Z" fill="#19C9A8"/>
</svg>
