<svg width="20" height="20" viewBox="0 0 20 20" fill="none" xmlns="http://www.w3.org/2000/svg">
<g clip-path="url(#clip0_15816_146089)">
<path d="M9.16669 5.83332H10.8334V7.49999H9.16669V5.83332ZM10 14.1667C10.4584 14.1667 10.8334 13.7917 10.8334 13.3333V9.99999C10.8334 9.54166 10.4584 9.16666 10 9.16666C9.54169 9.16666 9.16669 9.54166 9.16669 9.99999V13.3333C9.16669 13.7917 9.54169 14.1667 10 14.1667ZM10 1.66666C5.40002 1.66666 1.66669 5.39999 1.66669 9.99999C1.66669 14.6 5.40002 18.3333 10 18.3333C14.6 18.3333 18.3334 14.6 18.3334 9.99999C18.3334 5.39999 14.6 1.66666 10 1.66666ZM10 16.6667C6.32502 16.6667 3.33335 13.675 3.33335 9.99999C3.33335 6.32499 6.32502 3.33332 10 3.33332C13.675 3.33332 16.6667 6.32499 16.6667 9.99999C16.6667 13.675 13.675 16.6667 10 16.6667Z" fill="#00C39F"/>
</g>
<defs>
<clipPath id="clip0_15816_146089">
<rect width="20" height="20" fill="white"/>
</clipPath>
</defs>
</svg>
