<svg width="28" height="28" viewBox="0 0 28 28" fill="none" xmlns="http://www.w3.org/2000/svg">
<path d="M14 5.33703C15.1487 4.18831 16.7067 3.54297 18.3313 3.54297C19.9558 3.54297 21.5138 4.18831 22.6625 5.33703C23.8112 6.48575 24.4566 8.04375 24.4566 9.66828C24.4566 11.2928 23.8112 12.8508 22.6625 13.9995L14 22.662C13.4312 23.2308 12.756 23.682 12.0128 23.9898C11.2697 24.2977 10.4732 24.4561 9.66877 24.4561C8.04424 24.4561 6.48624 23.8108 5.33752 22.662C4.1888 21.5133 3.54346 19.9553 3.54346 18.3308C3.54346 16.7062 4.1888 15.1483 5.33752 13.9995L14 5.33703ZM17.7135 16.474L21.4235 12.764C22.2382 11.9424 22.6942 10.8316 22.6918 9.67461C22.6895 8.51761 22.2289 7.40866 21.4109 6.59042C20.5929 5.77217 19.484 5.31128 18.327 5.30858C17.17 5.30589 16.0591 5.76161 15.2373 6.57603L11.5255 10.286L17.7135 16.474ZM13.7445 18.994C13.8258 18.9127 13.8902 18.8161 13.9341 18.7099C13.978 18.6036 14.0006 18.4898 14.0005 18.3748C14.0004 18.2598 13.9777 18.146 13.9336 18.0398C13.8896 17.9336 13.825 17.8371 13.7436 17.7559C13.6623 17.6747 13.5657 17.6102 13.4595 17.5663C13.3532 17.5224 13.2394 17.4998 13.1244 17.4999C13.0094 17.5 12.8956 17.5227 12.7894 17.5668C12.6832 17.6109 12.5868 17.6754 12.5055 17.7568L9.88052 20.3818C9.79928 20.4631 9.73486 20.5597 9.69094 20.6659C9.64702 20.7722 9.62445 20.8861 9.62453 21.001C9.6247 21.2332 9.71709 21.4558 9.88139 21.6199C10.0457 21.784 10.2684 21.8761 10.5006 21.8759C10.7328 21.8757 10.9555 21.7833 11.1195 21.619L13.7445 18.994Z" fill="#00C39F"/>
</svg>
