<svg width="29" height="28" viewBox="0 0 29 28" fill="none" xmlns="http://www.w3.org/2000/svg">
<path d="M14.4998 2.33301C18.3615 2.33301 21.4998 5.43634 21.4998 9.27467C21.4998 14.478 14.4998 22.1663 14.4998 22.1663C14.4998 22.1663 7.49984 14.478 7.49984 9.27467C7.49984 5.43634 10.6382 2.33301 14.4998 2.33301ZM14.4998 6.99967C13.881 6.99967 13.2875 7.24551 12.8499 7.68309C12.4123 8.12068 12.1665 8.71417 12.1665 9.33301C12.1665 9.95185 12.4123 10.5453 12.8499 10.9829C13.2875 11.4205 13.881 11.6663 14.4998 11.6663C15.1187 11.6663 15.7122 11.4205 16.1498 10.9829C16.5873 10.5453 16.8332 9.95185 16.8332 9.33301C16.8332 8.71417 16.5873 8.12068 16.1498 7.68309C15.7122 7.24551 15.1187 6.99967 14.4998 6.99967ZM23.8332 22.1663C23.8332 24.7447 19.6565 26.833 14.4998 26.833C9.34317 26.833 5.1665 24.7447 5.1665 22.1663C5.1665 20.6613 6.58984 19.3197 8.79484 18.468L9.5415 19.5297C8.2815 20.0547 7.49984 20.778 7.49984 21.583C7.49984 23.193 10.6382 24.4997 14.4998 24.4997C18.3615 24.4997 21.4998 23.193 21.4998 21.583C21.4998 20.778 20.7182 20.0547 19.4582 19.5297L20.2048 18.468C22.4098 19.3197 23.8332 20.6613 23.8332 22.1663Z" fill="#00C39F"/>
</svg>
