<svg width="24" height="20" viewBox="0 0 24 20" fill="none" xmlns="http://www.w3.org/2000/svg">
<path d="M20.16 8.49751C20.3137 8.09626 20.4 7.65751 20.4 7.20001C20.4 5.21251 18.7875 3.60001 16.8 3.60001C16.0613 3.60001 15.3713 3.82501 14.8013 4.20751C13.7625 2.40751 11.8238 1.20001 9.6 1.20001C6.285 1.20001 3.6 3.88501 3.6 7.20001C3.6 7.30126 3.60375 7.40251 3.6075 7.50376C1.5075 8.24251 0 10.245 0 12.6C0 15.5813 2.41875 18 5.4 18H19.2C21.8513 18 24 15.8513 24 13.2C24 10.8788 22.35 8.94001 20.16 8.49751ZM15.1763 11.8238L11.2238 15.7763C10.9913 16.0088 10.6088 16.0088 10.3763 15.7763L6.42375 11.8238C6.045 11.445 6.315 10.8 6.8475 10.8H9.3V6.60001C9.3 6.27001 9.57 6.00001 9.9 6.00001H11.7C12.03 6.00001 12.3 6.27001 12.3 6.60001V10.8H14.7525C15.285 10.8 15.555 11.445 15.1763 11.8238Z" fill="#25282B"/>
</svg>
