<svg width="29" height="28" viewBox="0 0 29 28" fill="none" xmlns="http://www.w3.org/2000/svg">
<g clip-path="url(#clip0_15923_157773)">
<path d="M23.8335 4.66699H5.16683C3.87183 4.66699 2.84516 5.70533 2.84516 7.00033L2.8335 21.0003C2.8335 22.2953 3.87183 23.3337 5.16683 23.3337H23.8335C25.1285 23.3337 26.1668 22.2953 26.1668 21.0003V7.00033C26.1668 5.70533 25.1285 4.66699 23.8335 4.66699ZM22.6668 21.0003H6.3335C5.69183 21.0003 5.16683 20.4753 5.16683 19.8337V14.0003H23.8335V19.8337C23.8335 20.4753 23.3085 21.0003 22.6668 21.0003ZM23.8335 9.33366H5.16683V8.16699C5.16683 7.52533 5.69183 7.00033 6.3335 7.00033H22.6668C23.3085 7.00033 23.8335 7.52533 23.8335 8.16699V9.33366Z" fill="#00C39F"/>
</g>
<defs>
<clipPath id="clip0_15923_157773">
<rect width="28" height="28" fill="white" transform="translate(0.5)"/>
</clipPath>
</defs>
</svg>
