<svg width="21" height="20" viewBox="0 0 21 20" fill="none" xmlns="http://www.w3.org/2000/svg">
<path d="M18.3417 9.64996L10.8417 2.14996C10.5417 1.84996 10.125 1.66663 9.66669 1.66663H3.83335C2.91669 1.66663 2.16669 2.41663 2.16669 3.33329V9.16663C2.16669 9.62496 2.35002 10.0416 2.65835 10.35L10.1584 17.85C10.4584 18.15 10.875 18.3333 11.3334 18.3333C11.7917 18.3333 12.2084 18.15 12.5084 17.8416L18.3417 12.0083C18.65 11.7083 18.8334 11.2916 18.8334 10.8333C18.8334 10.375 18.6417 9.94996 18.3417 9.64996ZM11.3334 16.675L3.83335 9.16663V3.33329H9.66669V3.32496L17.1667 10.825L11.3334 16.675V16.675Z" fill="#A0A4A8"/>
<path d="M5.91669 6.66663C6.60704 6.66663 7.16669 6.10698 7.16669 5.41663C7.16669 4.72627 6.60704 4.16663 5.91669 4.16663C5.22633 4.16663 4.66669 4.72627 4.66669 5.41663C4.66669 6.10698 5.22633 6.66663 5.91669 6.66663Z" fill="#A0A4A8"/>
</svg>
