<svg width="29" height="28" viewBox="0 0 29 28" fill="none" xmlns="http://www.w3.org/2000/svg">
<path d="M12.1668 18.6667V17.5H4.00016V22.1667C4.00016 23.4617 5.0385 24.5 6.3335 24.5H22.6668C23.9618 24.5 25.0002 23.4617 25.0002 22.1667V17.5H16.8335V18.6667H12.1668ZM23.8335 8.16667H19.1668V5.83333L16.8335 3.5H12.1668L9.8335 5.83333V8.16667H5.16683C3.8835 8.16667 2.8335 9.21667 2.8335 10.5V14C2.8335 15.295 3.87183 16.3333 5.16683 16.3333H12.1668V14H16.8335V16.3333H23.8335C25.1168 16.3333 26.1668 15.2833 26.1668 14V10.5C26.1668 9.21667 25.1168 8.16667 23.8335 8.16667ZM16.8335 8.16667H12.1668V5.83333H16.8335V8.16667Z" fill="#00C39F"/>
</svg>
