<svg width="28" height="28" viewBox="0 0 28 28" fill="none" xmlns="http://www.w3.org/2000/svg">
<path d="M11.6668 4.66699C10.4292 4.66699 9.24217 5.15866 8.367 6.03383C7.49183 6.909 7.00016 8.09598 7.00016 9.33366C7.00016 10.5713 7.49183 11.7583 8.367 12.6335C9.24217 13.5087 10.4292 14.0003 11.6668 14.0003C12.9045 14.0003 14.0915 13.5087 14.9667 12.6335C15.8418 11.7583 16.3335 10.5713 16.3335 9.33366C16.3335 8.09598 15.8418 6.909 14.9667 6.03383C14.0915 5.15866 12.9045 4.66699 11.6668 4.66699ZM19.8335 14.0003C19.6818 14.0003 19.5535 14.1053 19.5302 14.2453L19.3085 15.7853C18.9585 15.937 18.6202 16.1237 18.3168 16.3337L16.8702 15.7503C16.7418 15.7503 16.5902 15.7503 16.5085 15.902L15.3418 17.9203C15.2718 18.0487 15.2952 18.2003 15.4118 18.2937L16.6485 19.2503C16.6252 19.4487 16.6135 19.6353 16.6135 19.8337C16.6135 20.032 16.6252 20.2187 16.6485 20.417L15.4118 21.3737C15.3068 21.467 15.2718 21.6187 15.3418 21.747L16.5085 23.7653C16.5785 23.917 16.7302 23.917 16.8702 23.917L18.3168 23.3337C18.6202 23.5437 18.9468 23.742 19.3085 23.882L19.5302 25.422C19.5535 25.562 19.6702 25.667 19.8335 25.667H22.1668C22.2952 25.667 22.4235 25.562 22.4468 25.422L22.6685 23.882C23.0185 23.7303 23.3335 23.5437 23.6485 23.3337L25.0835 23.917C25.2352 23.917 25.3868 23.917 25.4685 23.7653L26.6352 21.747C26.7052 21.6187 26.6702 21.467 26.5652 21.3737L25.3168 20.417C25.3402 20.2187 25.3635 20.032 25.3635 19.8337C25.3635 19.6353 25.3518 19.4487 25.3168 19.2503L26.5535 18.2937C26.6585 18.2003 26.6935 18.0487 26.6235 17.9203L25.4568 15.902C25.3868 15.7503 25.2352 15.7503 25.0835 15.7503L23.6485 16.3337C23.3335 16.1237 23.0185 15.9253 22.6568 15.7853L22.4352 14.2453C22.4235 14.1053 22.2952 14.0003 22.1668 14.0003H19.8335ZM11.6668 16.3337C6.51016 16.3337 2.3335 18.422 2.3335 21.0003V23.3337H13.6268C13.1061 22.2402 12.8352 21.0447 12.8335 19.8337C12.8359 18.6615 13.0905 17.5036 13.5802 16.4387C12.9618 16.3687 12.3202 16.3337 11.6668 16.3337ZM21.0002 18.0837C21.9685 18.0837 22.7502 18.8653 22.7502 19.8337C22.7502 20.802 21.9685 21.5837 21.0002 21.5837C20.0202 21.5837 19.2502 20.802 19.2502 19.8337C19.2502 18.8653 20.0318 18.0837 21.0002 18.0837Z" fill="#00C39F"/>
</svg>
