<svg width="18" height="18" viewBox="0 0 18 18" fill="none" xmlns="http://www.w3.org/2000/svg">
<path d="M15.6787 4.49286L12.9373 5.58996L6.18732 2.88996L7.82982 2.23206C8.58088 1.9316 9.41875 1.9316 10.1698 2.23206L15.3511 4.30476C15.4685 4.35152 15.5788 4.41543 15.6787 4.49286ZM9.00072 7.16496L11.7259 6.07416L4.97592 3.37416L2.64852 4.30566C2.53109 4.35241 2.42081 4.41542 2.32092 4.49286L8.99982 7.16496H9.00072ZM1.83042 5.26686C1.80966 5.36266 1.7994 5.46044 1.79982 5.55846V12.4399C1.79977 12.7097 1.88061 12.9734 2.03189 13.1969C2.18317 13.4203 2.39795 13.5934 2.64852 13.6936L7.82982 15.7663C7.91982 15.8023 8.00982 15.8338 8.10252 15.8608C8.10072 15.8239 8.09982 15.787 8.09982 15.7501V12.1501C8.09982 11.6434 8.26722 11.1754 8.54982 10.8001V7.95336L1.83132 5.26686H1.83042ZM16.1998 5.55846V9.94416C16.1872 9.94166 16.1746 9.93926 16.162 9.93696C16.0656 9.42074 15.7916 8.9545 15.3876 8.61902C14.9836 8.28355 14.475 8.09996 13.9498 8.10006H12.1498C11.6247 8.09996 11.116 8.28355 10.712 8.61902C10.308 8.9545 10.034 9.42074 9.93762 9.93696C9.76752 9.96846 9.60462 10.0198 9.44982 10.0864V7.95336L16.1683 5.26686C16.189 5.36136 16.1998 5.45946 16.1998 5.55846ZM10.7998 10.8001V10.3501C10.7998 9.99202 10.942 9.64864 11.1952 9.39547C11.4484 9.14229 11.7918 9.00006 12.1498 9.00006H13.9498C14.3079 9.00006 14.6512 9.14229 14.9044 9.39547C15.1576 9.64864 15.2998 9.99202 15.2998 10.3501V10.8001H15.7498C16.1079 10.8001 16.4512 10.9423 16.7044 11.1955C16.9576 11.4486 17.0998 11.792 17.0998 12.1501V13.5001H15.2998V13.0501C15.2998 12.9307 15.2524 12.8163 15.168 12.7319C15.0836 12.6475 14.9692 12.6001 14.8498 12.6001C14.7305 12.6001 14.616 12.6475 14.5316 12.7319C14.4472 12.8163 14.3998 12.9307 14.3998 13.0501V13.5001H11.6998V13.0501C11.6998 12.9307 11.6524 12.8163 11.568 12.7319C11.4836 12.6475 11.3692 12.6001 11.2498 12.6001C11.1305 12.6001 11.016 12.6475 10.9316 12.7319C10.8472 12.8163 10.7998 12.9307 10.7998 13.0501V13.5001H8.99982V12.1501C8.99982 11.792 9.14205 11.4486 9.39522 11.1955C9.6484 10.9423 9.99177 10.8001 10.3498 10.8001H10.7998ZM11.6998 10.3501V10.8001H14.3998V10.3501C14.3998 10.2307 14.3524 10.1163 14.268 10.0319C14.1836 9.94747 14.0692 9.90006 13.9498 9.90006H12.1498C12.0305 9.90006 11.916 9.94747 11.8316 10.0319C11.7472 10.1163 11.6998 10.2307 11.6998 10.3501ZM15.2998 14.8501V14.4001H17.0998V15.7501C17.0998 16.1081 16.9576 16.4515 16.7044 16.7047C16.4512 16.9578 16.1079 17.1001 15.7498 17.1001H10.3498C9.99177 17.1001 9.6484 16.9578 9.39522 16.7047C9.14205 16.4515 8.99982 16.1081 8.99982 15.7501V14.4001H10.7998V14.8501C10.7998 14.9694 10.8472 15.0839 10.9316 15.1683C11.016 15.2526 11.1305 15.3001 11.2498 15.3001C11.3692 15.3001 11.4836 15.2526 11.568 15.1683C11.6524 15.0839 11.6998 14.9694 11.6998 14.8501V14.4001H14.3998V14.8501C14.3998 14.9694 14.4472 15.0839 14.5316 15.1683C14.616 15.2526 14.7305 15.3001 14.8498 15.3001C14.9692 15.3001 15.0836 15.2526 15.168 15.1683C15.2524 15.0839 15.2998 14.9694 15.2998 14.8501Z" fill="#007EFF"/>
</svg>
