<svg width="20" height="20" viewBox="0 0 20 20" fill="none" xmlns="http://www.w3.org/2000/svg">
<path d="M10 12.5C11.3807 12.5 12.5 11.3807 12.5 10C12.5 8.61929 11.3807 7.5 10 7.5C8.61929 7.5 7.5 8.61929 7.5 10C7.5 11.3807 8.61929 12.5 10 12.5Z" fill="white"/>
<path d="M16.6666 3.33366H14.025L12.9916 2.20866C12.6833 1.86699 12.2333 1.66699 11.7666 1.66699H8.23329C7.76663 1.66699 7.31663 1.86699 6.99996 2.20866L5.97496 3.33366H3.33329C2.41663 3.33366 1.66663 4.08366 1.66663 5.00033V15.0003C1.66663 15.917 2.41663 16.667 3.33329 16.667H16.6666C17.5833 16.667 18.3333 15.917 18.3333 15.0003V5.00033C18.3333 4.08366 17.5833 3.33366 16.6666 3.33366ZM9.99996 14.167C7.69996 14.167 5.83329 12.3003 5.83329 10.0003C5.83329 7.70033 7.69996 5.83366 9.99996 5.83366C12.3 5.83366 14.1666 7.70033 14.1666 10.0003C14.1666 12.3003 12.3 14.167 9.99996 14.167Z" fill="white"/>
</svg>
