<svg width="21" height="20" viewBox="0 0 21 20" fill="none" xmlns="http://www.w3.org/2000/svg">
<path d="M16.3333 4.16667V15.8333H4.66667V4.16667H16.3333ZM16.3333 2.5H4.66667C3.74167 2.5 3 3.25 3 4.16667V15.8333C3 16.75 3.74167 17.5 4.66667 17.5H16.3333C17.25 17.5 18 16.75 18 15.8333V4.16667C18 3.25 17.25 2.5 16.3333 2.5ZM10.5 10C9.125 10 8 8.875 8 7.5C8 6.125 9.125 5 10.5 5C11.875 5 13 6.125 13 7.5C13 8.875 11.875 10 10.5 10ZM10.5 6.66667C10.0417 6.66667 9.66667 7.04167 9.66667 7.5C9.66667 7.95833 10.0417 8.33333 10.5 8.33333C10.9583 8.33333 11.3333 7.95833 11.3333 7.5C11.3333 7.04167 10.9583 6.66667 10.5 6.66667ZM15.5 15H5.5V13.725C5.5 11.6417 8.80833 10.7417 10.5 10.7417C12.1917 10.7417 15.5 11.6417 15.5 13.725V15ZM7.425 13.3333H13.575C13 12.8667 11.5917 12.4 10.5 12.4C9.40833 12.4 7.99167 12.8667 7.425 13.3333V13.3333Z" fill="#52575C"/>
</svg>
