<svg width="20" height="20" viewBox="0 0 28 28" fill="none" xmlns="http://www.w3.org/2000/svg">
<path d="M5.90354 3.50001C5.40188 3.50001 4.92354 3.66334 4.48021 3.99001C4.03688 4.31668 3.78021 4.73668 3.66354 5.25001L2.46188 10.395C2.17021 11.6667 2.40354 12.74 3.13854 13.685C3.27854 13.825 3.41854 13.965 3.54688 14.0817C4.23521 14.7467 4.99354 15.1667 6.09021 15.1667C7.18688 15.1667 8.06188 14.6883 8.71521 14.0583C9.45021 14.7817 10.3369 15.1667 11.4335 15.1667C12.4135 15.1667 13.3469 14.735 14.0002 14.0817C14.7935 14.8167 15.6919 15.1667 16.6835 15.1667C17.6985 15.1667 18.5619 14.7817 19.2969 14.0583C19.9619 14.7233 20.8369 15.1667 21.9452 15.1667C23.0535 15.1667 23.8352 14.7583 24.5002 14.07C24.6052 13.965 24.7102 13.8483 24.8269 13.7317C25.5969 12.775 25.8302 11.6667 25.5385 10.395L24.3369 5.25001C24.1852 4.73668 23.9169 4.31668 23.4852 3.99001C23.0927 3.6716 22.6023 3.49851 22.0969 3.50001M22.0385 5.79834L23.2985 10.9433C23.4035 11.445 23.2985 11.9 22.9719 12.3083C22.6802 12.67 22.3185 12.8333 21.8752 12.8333C21.5135 12.8333 21.1985 12.7167 20.9419 12.4367C20.6852 12.1683 20.5452 11.8533 20.5102 11.48L19.7985 5.83334M5.90354 5.83334H8.20188L7.49021 11.48C7.35021 12.4017 6.89521 12.8333 6.12521 12.8333C5.64688 12.8333 5.28521 12.67 5.02854 12.3083C4.70188 11.9 4.59688 11.445 4.70188 10.9433M10.5585 5.83334H12.8335V11.3167C12.8335 11.725 12.7052 12.075 12.4135 12.39C12.1219 12.6933 11.7602 12.8333 11.3169 12.8333C10.9202 12.8333 10.5819 12.6933 10.3135 12.355C10.0452 12.0167 9.91688 11.6667 9.91688 11.27V11.0833M15.1669 5.83334H17.4419L18.0835 11.0833C18.1769 11.5733 18.0835 11.9817 17.7452 12.3317C17.4419 12.6817 17.0452 12.8333 16.5669 12.8333C16.2052 12.8333 15.8785 12.6933 15.5869 12.39C15.4498 12.2475 15.3421 12.0793 15.2701 11.8951C15.198 11.711 15.1629 11.5144 15.1669 11.3167M3.50021 16.3683V22.1667C3.50021 23.4617 4.53854 24.5 5.83354 24.5H22.1669C22.7857 24.5 23.3792 24.2542 23.8168 23.8166C24.2544 23.379 24.5002 22.7855 24.5002 22.1667V16.3917C23.8585 17.0683 23.0419 17.4533 22.1669 17.5C21.0002 17.535 20.1252 17.1967 19.2969 16.3917C18.5969 17.0917 17.6635 17.5 16.6835 17.5C15.6335 17.5 14.7002 17.08 14.0002 16.415C13.3352 17.08 12.4252 17.5 11.4102 17.5C10.3485 17.5 9.41521 17.0917 8.71521 16.3917C8.03854 17.08 7.11688 17.5 6.10188 17.5C5.05188 17.5 4.27021 17.0917 3.50021 16.3683Z" fill="#00C39F"/>
</svg>
